# MagicaVoxel @ Ephtracy

# group
o 

# material
mtllib Stenka1-17.mtl
usemtl palette

# normals
vn -1 0 0
vn 1 0 0
vn 0 0 1
vn 0 0 -1
vn 0 -1 0
vn 0 1 0

# texcoords
vt 0.416016 0.5
vt 0.423828 0.5
vt 0.947266 0.5
vt 0.955078 0.5
vt 0.982422 0.5
vt 0.986328 0.5

# verts
v -6.1 1.5 -2.5
v -6.1 1.5 -2.7
v -6.1 1.8 -1.9
v -6.1 1.8 -2
v -6.1 1.8 -2.3
v -6.1 1.8 -2.4
v -6.1 1.8 -2.5
v -6.1 1.9 -1.9
v -6.1 1.9 -2
v -6.1 1.9 -2.3
v -6.1 1.9 -2.4
v -6.1 1.9 -2.5
v -6.1 2.1 -1.9
v -6.1 2.1 -2
v -6.1 2.1 -2.3
v -6.1 2.1 -2.4
v -6.1 2.1 -2.5
v -6.1 2.1 -2.7
v -6.1 2.2 -2.3
v -6.1 2.2 -2.4
v -6.1 2.4 -1.9
v -6.1 2.4 -2
v -6.1 2.4 -2.3
v -6.1 2.4 -2.4
v -6.1 2.5 -2
v -6.1 2.5 -2.3
v -6.1 2.6 -1.9
v -6.1 2.6 -2.4
v -6 1.9 -2
v -6 1.9 -2.3
v -6 2.1 -2
v -6 2.1 -2.3
v -5.9 2.1 -2.1
v -5.9 2.1 -2.2
v -5.9 2.2 -2.1
v -5.9 2.2 -2.2
v -5.7 1.9 -1.9
v -5.7 1.9 -2
v -5.7 1.9 -2.3
v -5.7 1.9 -2.4
v -5.7 2.1 -1.9
v -5.7 2.1 -2
v -5.7 2.1 -2.3
v -5.7 2.1 -2.4
v -5.7 2.2 -1.9
v -5.7 2.2 -2
v -5.7 2.3 -2.3
v -5.7 2.3 -2.4
v -5.7 2.4 -1.9
v -5.7 2.4 -2
v -5.7 2.4 -2.3
v -5.7 2.4 -2.4
v -5.7 2.5 -1.9
v -5.7 2.5 -2
v -5.7 2.5 -2.3
v -5.7 2.5 -2.4
v -5.7 2.6 -2
v -5.7 2.6 -2.3
v -6 1.9 -1.9
v -6 1.9 -2
v -6 1.9 -2.3
v -6 1.9 -2.4
v -6 2.1 -1.9
v -6 2.1 -2
v -6 2.1 -2.3
v -6 2.1 -2.4
v -6 2.2 -2.3
v -6 2.2 -2.4
v -6 2.4 -1.9
v -6 2.4 -2
v -6 2.4 -2.3
v -6 2.4 -2.4
v -6 2.5 -1.9
v -6 2.5 -2
v -6 2.5 -2.3
v -6 2.5 -2.4
v -6 2.6 -2
v -6 2.6 -2.3
v -5.8 2.1 -2.1
v -5.8 2.1 -2.2
v -5.8 2.2 -2.1
v -5.8 2.2 -2.2
v -5.7 1.9 -2
v -5.7 1.9 -2.3
v -5.7 2.1 -2
v -5.7 2.1 -2.3
v -5.6 1.5 -2.5
v -5.6 1.5 -2.7
v -5.6 1.8 -1.9
v -5.6 1.8 -2
v -5.6 1.8 -2.3
v -5.6 1.8 -2.4
v -5.6 1.8 -2.5
v -5.6 1.9 -1.9
v -5.6 1.9 -2
v -5.6 1.9 -2.3
v -5.6 1.9 -2.4
v -5.6 1.9 -2.5
v -5.6 2.1 -1.9
v -5.6 2.1 -2
v -5.6 2.1 -2.3
v -5.6 2.1 -2.4
v -5.6 2.1 -2.5
v -5.6 2.1 -2.7
v -5.6 2.2 -1.9
v -5.6 2.2 -2
v -5.6 2.3 -2.3
v -5.6 2.3 -2.4
v -5.6 2.4 -1.9
v -5.6 2.4 -2
v -5.6 2.4 -2.3
v -5.6 2.4 -2.4
v -5.6 2.5 -2
v -5.6 2.5 -2.3
v -5.6 2.6 -1.9
v -5.6 2.6 -2.4
v -6.1 1.8 -1.9
v -6.1 1.9 -1.9
v -6.1 2.1 -1.9
v -6.1 2.4 -1.9
v -6.1 2.6 -1.9
v -6 1.8 -1.9
v -6 1.9 -1.9
v -6 2.1 -1.9
v -6 2.4 -1.9
v -6 2.5 -1.9
v -5.7 1.8 -1.9
v -5.7 1.9 -1.9
v -5.7 2.1 -1.9
v -5.7 2.2 -1.9
v -5.7 2.4 -1.9
v -5.7 2.5 -1.9
v -5.6 1.8 -1.9
v -5.6 1.9 -1.9
v -5.6 2.1 -1.9
v -5.6 2.2 -1.9
v -5.6 2.4 -1.9
v -5.6 2.6 -1.9
v -6 1.9 -2
v -6 2.1 -2
v -5.7 1.9 -2
v -5.7 2.1 -2
v -5.9 2.1 -2.1
v -5.9 2.2 -2.1
v -5.8 2.1 -2.1
v -5.8 2.2 -2.1
v -6.1 1.9 -2.3
v -6.1 2.1 -2.3
v -6.1 2.2 -2.3
v -6.1 2.4 -2.3
v -6.1 2.5 -2.3
v -6 1.9 -2.3
v -6 2.1 -2.3
v -6 2.2 -2.3
v -6 2.4 -2.3
v -6 2.5 -2.3
v -6 2.6 -2.3
v -5.7 1.9 -2.3
v -5.7 2.1 -2.3
v -5.7 2.3 -2.3
v -5.7 2.4 -2.3
v -5.7 2.5 -2.3
v -5.7 2.6 -2.3
v -5.6 1.9 -2.3
v -5.6 2.1 -2.3
v -5.6 2.3 -2.3
v -5.6 2.4 -2.3
v -5.6 2.5 -2.3
v -6.1 1.5 -2.5
v -6.1 1.8 -2.5
v -6.1 1.9 -2.5
v -6.1 2.1 -2.5
v -5.6 1.5 -2.5
v -5.6 1.8 -2.5
v -5.6 1.9 -2.5
v -5.6 2.1 -2.5
v -6.1 1.9 -2
v -6.1 2.1 -2
v -6.1 2.4 -2
v -6.1 2.5 -2
v -6 1.9 -2
v -6 2.1 -2
v -6 2.4 -2
v -6 2.5 -2
v -6 2.6 -2
v -5.7 1.9 -2
v -5.7 2.1 -2
v -5.7 2.2 -2
v -5.7 2.4 -2
v -5.7 2.5 -2
v -5.7 2.6 -2
v -5.6 1.9 -2
v -5.6 2.1 -2
v -5.6 2.2 -2
v -5.6 2.4 -2
v -5.6 2.5 -2
v -5.9 2.1 -2.2
v -5.9 2.2 -2.2
v -5.8 2.1 -2.2
v -5.8 2.2 -2.2
v -6 1.9 -2.3
v -6 2.1 -2.3
v -5.7 1.9 -2.3
v -5.7 2.1 -2.3
v -6.1 1.9 -2.4
v -6.1 2.1 -2.4
v -6.1 2.2 -2.4
v -6.1 2.4 -2.4
v -6.1 2.6 -2.4
v -6 1.9 -2.4
v -6 2.1 -2.4
v -6 2.2 -2.4
v -6 2.4 -2.4
v -6 2.5 -2.4
v -5.7 1.9 -2.4
v -5.7 2.1 -2.4
v -5.7 2.3 -2.4
v -5.7 2.4 -2.4
v -5.7 2.5 -2.4
v -5.6 1.9 -2.4
v -5.6 2.1 -2.4
v -5.6 2.3 -2.4
v -5.6 2.4 -2.4
v -5.6 2.6 -2.4
v -6.1 1.5 -2.7
v -6.1 2.1 -2.7
v -5.6 1.5 -2.7
v -5.6 2.1 -2.7
v -6.1 1.5 -2.5
v -5.6 1.5 -2.5
v -6.1 1.5 -2.7
v -5.6 1.5 -2.7
v -6.1 1.8 -1.9
v -6 1.8 -1.9
v -5.7 1.8 -1.9
v -5.6 1.8 -1.9
v -6.1 1.8 -2
v -6 1.8 -2
v -5.7 1.8 -2
v -5.6 1.8 -2
v -6.1 1.8 -2.3
v -6 1.8 -2.3
v -5.7 1.8 -2.3
v -5.6 1.8 -2.3
v -6.1 1.8 -2.4
v -6 1.8 -2.4
v -5.7 1.8 -2.4
v -5.6 1.8 -2.4
v -6.1 1.8 -2.5
v -5.6 1.8 -2.5
v -6 2.5 -1.9
v -5.7 2.5 -1.9
v -6.1 2.5 -2
v -6 2.5 -2
v -5.7 2.5 -2
v -5.6 2.5 -2
v -6.1 2.5 -2.3
v -6 2.5 -2.3
v -5.7 2.5 -2.3
v -5.6 2.5 -2.3
v -6 2.5 -2.4
v -5.7 2.5 -2.4
v -6 1.9 -1.9
v -5.7 1.9 -1.9
v -6.1 1.9 -2
v -6 1.9 -2
v -5.7 1.9 -2
v -5.6 1.9 -2
v -6.1 1.9 -2.3
v -6 1.9 -2.3
v -5.7 1.9 -2.3
v -5.6 1.9 -2.3
v -6.1 1.9 -2.4
v -6 1.9 -2.4
v -5.7 1.9 -2.4
v -5.6 1.9 -2.4
v -6.1 1.9 -2.5
v -5.6 1.9 -2.5
v -6 2.1 -2
v -5.7 2.1 -2
v -5.9 2.1 -2.1
v -5.8 2.1 -2.1
v -5.9 2.1 -2.2
v -5.8 2.1 -2.2
v -6 2.1 -2.3
v -5.7 2.1 -2.3
v -6.1 2.1 -2.5
v -5.6 2.1 -2.5
v -6.1 2.1 -2.7
v -5.6 2.1 -2.7
v -5.9 2.2 -2.1
v -5.8 2.2 -2.1
v -5.9 2.2 -2.2
v -5.8 2.2 -2.2
v -6.1 2.6 -1.9
v -5.6 2.6 -1.9
v -6 2.6 -2
v -5.7 2.6 -2
v -6 2.6 -2.3
v -5.7 2.6 -2.3
v -6.1 2.6 -2.4
v -5.6 2.6 -2.4

# faces
f 7/4/1 2/4/1 1/4/1
f 8/3/1 4/3/1 3/3/1
f 9/4/1 5/4/1 4/4/1
f 9/3/1 4/3/1 8/3/1
f 10/3/1 6/3/1 5/3/1
f 10/4/1 5/4/1 9/4/1
f 11/4/1 7/4/1 6/4/1
f 11/3/1 6/3/1 10/3/1
f 12/4/1 2/4/1 7/4/1
f 12/4/1 7/4/1 11/4/1
f 13/4/1 9/4/1 8/4/1
f 14/4/1 9/4/1 13/4/1
f 15/4/1 11/4/1 10/4/1
f 16/4/1 11/4/1 15/4/1
f 17/4/1 2/4/1 12/4/1
f 18/4/1 2/4/1 17/4/1
f 19/6/1 16/6/1 15/6/1
f 20/6/1 16/6/1 19/6/1
f 21/5/1 14/5/1 13/5/1
f 22/5/1 14/5/1 21/5/1
f 23/5/1 20/5/1 19/5/1
f 24/5/1 20/5/1 23/5/1
f 25/4/1 22/4/1 21/4/1
f 26/4/1 24/4/1 23/4/1
f 27/4/1 25/4/1 21/4/1
f 27/4/1 26/4/1 25/4/1
f 28/4/1 24/4/1 26/4/1
f 28/4/1 26/4/1 27/4/1
f 31/1/1 30/1/1 29/1/1
f 32/1/1 30/1/1 31/1/1
f 35/2/1 34/2/1 33/2/1
f 36/2/1 34/2/1 35/2/1
f 41/4/1 38/4/1 37/4/1
f 42/4/1 38/4/1 41/4/1
f 43/4/1 40/4/1 39/4/1
f 44/4/1 40/4/1 43/4/1
f 45/6/1 42/6/1 41/6/1
f 46/6/1 42/6/1 45/6/1
f 47/5/1 44/5/1 43/5/1
f 48/5/1 44/5/1 47/5/1
f 49/5/1 46/5/1 45/5/1
f 50/5/1 46/5/1 49/5/1
f 51/6/1 48/6/1 47/6/1
f 52/6/1 48/6/1 51/6/1
f 53/4/1 50/4/1 49/4/1
f 54/4/1 50/4/1 53/4/1
f 55/4/1 52/4/1 51/4/1
f 56/4/1 52/4/1 55/4/1
f 57/4/1 55/4/1 54/4/1
f 58/4/1 55/4/1 57/4/1
f 59/4/2 60/4/2 63/4/2
f 63/4/2 60/4/2 64/4/2
f 61/4/2 62/4/2 65/4/2
f 65/4/2 62/4/2 66/4/2
f 65/6/2 66/6/2 67/6/2
f 67/6/2 66/6/2 68/6/2
f 63/5/2 64/5/2 69/5/2
f 69/5/2 64/5/2 70/5/2
f 67/5/2 68/5/2 71/5/2
f 71/5/2 68/5/2 72/5/2
f 69/4/2 70/4/2 73/4/2
f 73/4/2 70/4/2 74/4/2
f 71/4/2 72/4/2 75/4/2
f 75/4/2 72/4/2 76/4/2
f 74/4/2 75/4/2 77/4/2
f 77/4/2 75/4/2 78/4/2
f 79/2/2 80/2/2 81/2/2
f 81/2/2 80/2/2 82/2/2
f 83/1/2 84/1/2 85/1/2
f 85/1/2 84/1/2 86/1/2
f 87/4/2 88/4/2 93/4/2
f 89/3/2 90/3/2 94/3/2
f 90/4/2 91/4/2 95/4/2
f 94/3/2 90/3/2 95/3/2
f 91/3/2 92/3/2 96/3/2
f 95/4/2 91/4/2 96/4/2
f 92/4/2 93/4/2 97/4/2
f 96/3/2 92/3/2 97/3/2
f 93/4/2 88/4/2 98/4/2
f 97/4/2 93/4/2 98/4/2
f 94/4/2 95/4/2 99/4/2
f 99/4/2 95/4/2 100/4/2
f 96/4/2 97/4/2 101/4/2
f 101/4/2 97/4/2 102/4/2
f 98/4/2 88/4/2 103/4/2
f 103/4/2 88/4/2 104/4/2
f 99/6/2 100/6/2 105/6/2
f 105/6/2 100/6/2 106/6/2
f 101/5/2 102/5/2 107/5/2
f 107/5/2 102/5/2 108/5/2
f 105/5/2 106/5/2 109/5/2
f 109/5/2 106/5/2 110/5/2
f 107/6/2 108/6/2 111/6/2
f 111/6/2 108/6/2 112/6/2
f 109/4/2 110/4/2 113/4/2
f 111/4/2 112/4/2 114/4/2
f 109/4/2 113/4/2 115/4/2
f 113/4/2 114/4/2 115/4/2
f 114/4/2 112/4/2 116/4/2
f 115/4/2 114/4/2 116/4/2
f 122/3/3 118/3/3 117/3/3
f 123/4/3 119/4/3 118/4/3
f 123/3/3 118/3/3 122/3/3
f 124/5/3 120/5/3 119/5/3
f 124/4/3 119/4/3 123/4/3
f 125/4/3 121/4/3 120/4/3
f 125/5/3 120/5/3 124/5/3
f 126/4/3 121/4/3 125/4/3
f 127/4/3 123/4/3 122/4/3
f 128/4/3 123/4/3 127/4/3
f 132/4/3 121/4/3 126/4/3
f 133/3/3 128/3/3 127/3/3
f 134/4/3 129/4/3 128/4/3
f 134/3/3 128/3/3 133/3/3
f 135/6/3 130/6/3 129/6/3
f 135/4/3 129/4/3 134/4/3
f 136/5/3 131/5/3 130/5/3
f 136/6/3 130/6/3 135/6/3
f 137/4/3 132/4/3 131/4/3
f 137/5/3 131/5/3 136/5/3
f 138/4/3 121/4/3 132/4/3
f 138/4/3 132/4/3 137/4/3
f 141/1/3 140/1/3 139/1/3
f 142/1/3 140/1/3 141/1/3
f 145/2/3 144/2/3 143/2/3
f 146/2/3 144/2/3 145/2/3
f 152/4/3 148/4/3 147/4/3
f 153/6/3 149/6/3 148/6/3
f 153/4/3 148/4/3 152/4/3
f 154/5/3 150/5/3 149/5/3
f 154/6/3 149/6/3 153/6/3
f 155/4/3 151/4/3 150/4/3
f 155/5/3 150/5/3 154/5/3
f 156/4/3 151/4/3 155/4/3
f 162/4/3 157/4/3 156/4/3
f 163/4/3 157/4/3 162/4/3
f 164/4/3 159/4/3 158/4/3
f 165/5/3 160/5/3 159/5/3
f 165/4/3 159/4/3 164/4/3
f 166/6/3 161/6/3 160/6/3
f 166/5/3 160/5/3 165/5/3
f 167/4/3 162/4/3 161/4/3
f 167/6/3 161/6/3 166/6/3
f 168/4/3 162/4/3 167/4/3
f 173/4/3 170/4/3 169/4/3
f 174/4/3 170/4/3 173/4/3
f 175/4/3 172/4/3 171/4/3
f 176/4/3 172/4/3 175/4/3
f 177/4/4 178/4/4 181/4/4
f 178/5/4 179/5/4 182/5/4
f 181/4/4 178/4/4 182/4/4
f 179/4/4 180/4/4 183/4/4
f 182/5/4 179/5/4 183/5/4
f 183/4/4 180/4/4 184/4/4
f 184/4/4 185/4/4 190/4/4
f 190/4/4 185/4/4 191/4/4
f 186/4/4 187/4/4 192/4/4
f 187/6/4 188/6/4 193/6/4
f 192/4/4 187/4/4 193/4/4
f 188/5/4 189/5/4 194/5/4
f 193/6/4 188/6/4 194/6/4
f 189/4/4 190/4/4 195/4/4
f 194/5/4 189/5/4 195/5/4
f 195/4/4 190/4/4 196/4/4
f 197/2/4 198/2/4 199/2/4
f 199/2/4 198/2/4 200/2/4
f 201/1/4 202/1/4 203/1/4
f 203/1/4 202/1/4 204/1/4
f 205/4/4 206/4/4 210/4/4
f 206/6/4 207/6/4 211/6/4
f 210/4/4 206/4/4 211/4/4
f 207/5/4 208/5/4 212/5/4
f 211/6/4 207/6/4 212/6/4
f 208/4/4 209/4/4 213/4/4
f 212/5/4 208/5/4 213/5/4
f 213/4/4 209/4/4 214/4/4
f 214/4/4 209/4/4 219/4/4
f 215/4/4 216/4/4 220/4/4
f 216/5/4 217/5/4 221/5/4
f 220/4/4 216/4/4 221/4/4
f 217/6/4 218/6/4 222/6/4
f 221/5/4 217/5/4 222/5/4
f 218/4/4 219/4/4 223/4/4
f 222/6/4 218/6/4 223/6/4
f 219/4/4 209/4/4 224/4/4
f 223/4/4 219/4/4 224/4/4
f 225/4/4 226/4/4 227/4/4
f 227/4/4 226/4/4 228/4/4
f 231/4/5 230/4/5 229/4/5
f 232/4/5 230/4/5 231/4/5
f 237/3/5 234/3/5 233/3/5
f 238/4/5 235/4/5 234/4/5
f 238/3/5 234/3/5 237/3/5
f 239/3/5 236/3/5 235/3/5
f 239/4/5 235/4/5 238/4/5
f 240/3/5 236/3/5 239/3/5
f 241/4/5 238/4/5 237/4/5
f 241/4/5 239/4/5 238/4/5
f 241/4/5 240/4/5 239/4/5
f 242/4/5 240/4/5 241/4/5
f 243/4/5 240/4/5 242/4/5
f 244/4/5 240/4/5 243/4/5
f 245/3/5 242/3/5 241/3/5
f 246/4/5 243/4/5 242/4/5
f 246/3/5 242/3/5 245/3/5
f 247/3/5 244/3/5 243/3/5
f 247/4/5 243/4/5 246/4/5
f 248/3/5 244/3/5 247/3/5
f 249/4/5 246/4/5 245/4/5
f 249/4/5 247/4/5 246/4/5
f 249/4/5 248/4/5 247/4/5
f 250/4/5 248/4/5 249/4/5
f 254/4/5 252/4/5 251/4/5
f 255/4/5 252/4/5 254/4/5
f 257/4/5 254/4/5 253/4/5
f 258/4/5 254/4/5 257/4/5
f 259/4/5 256/4/5 255/4/5
f 260/4/5 256/4/5 259/4/5
f 261/4/5 259/4/5 258/4/5
f 262/4/5 259/4/5 261/4/5
f 263/4/6 264/4/6 266/4/6
f 266/4/6 264/4/6 267/4/6
f 265/4/6 266/4/6 269/4/6
f 269/4/6 266/4/6 270/4/6
f 267/4/6 268/4/6 271/4/6
f 271/4/6 268/4/6 272/4/6
f 270/4/6 271/4/6 274/4/6
f 274/4/6 271/4/6 275/4/6
f 273/4/6 274/4/6 277/4/6
f 275/4/6 276/4/6 277/4/6
f 274/4/6 275/4/6 277/4/6
f 277/4/6 276/4/6 278/4/6
f 279/1/6 280/1/6 281/1/6
f 281/1/6 280/1/6 282/1/6
f 279/1/6 281/1/6 283/1/6
f 282/1/6 280/1/6 284/1/6
f 279/1/6 283/1/6 285/1/6
f 283/1/6 284/1/6 285/1/6
f 284/1/6 280/1/6 286/1/6
f 285/1/6 284/1/6 286/1/6
f 287/4/6 288/4/6 289/4/6
f 289/4/6 288/4/6 290/4/6
f 291/2/6 292/2/6 293/2/6
f 293/2/6 292/2/6 294/2/6
f 295/4/6 296/4/6 297/4/6
f 297/4/6 296/4/6 298/4/6
f 295/4/6 297/4/6 299/4/6
f 298/4/6 296/4/6 300/4/6
f 295/4/6 299/4/6 301/4/6
f 299/4/6 300/4/6 301/4/6
f 300/4/6 296/4/6 302/4/6
f 301/4/6 300/4/6 302/4/6
