# MagicaVoxel @ Ephtracy

# group
o 

# material
mtllib Stenka1-26.mtl
usemtl palette

# normals
vn -1 0 0
vn 1 0 0
vn 0 0 1
vn 0 0 -1
vn 0 -1 0
vn 0 1 0

# texcoords
vt 0.939453 0.5
vt 0.943359 0.5
vt 0.951172 0.5
vt 0.982422 0.5
vt 0.986328 0.5

# verts
v -1.2 -0.1 1.3
v -1.2 -0.1 -0.7
v -1.2 0 1.3
v -1.2 0 -0.7
v -1.1 0 1.2
v -1.1 0 1.1
v -1.1 0 1
v -1.1 0 0.3
v -1.1 0 0.2
v -1.1 0 0.1
v -1.1 0 1.19209e-07
v -1.1 0 -0.6
v -1.1 0.1 1.2
v -1.1 0.1 1.1
v -1.1 0.1 1
v -1.1 0.1 0.3
v -1.1 0.1 0.2
v -1.1 0.1 0.1
v -1.1 0.1 1.19209e-07
v -1.1 0.1 -0.6
v 0.7 0 1.2
v 0.7 0 0.8
v 0.7 0 0.3
v 0.7 0 0.2
v 0.7 0 1.19209e-07
v 0.7 0 -0.6
v 0.7 0.1 1.2
v 0.7 0.1 0.8
v 0.7 0.1 0.3
v 0.7 0.1 0.2
v 0.7 0.1 1.19209e-07
v 0.7 0.1 -0.6
v 0.8 -0.1 1.3
v 0.8 -0.1 -0.7
v 0.8 0 1.3
v 0.8 0 -0.7
v -1.2 -0.1 1.3
v -1.2 0 1.3
v 0.8 -0.1 1.3
v 0.8 0 1.3
v -1.1 0 1.2
v -1.1 0.1 1.2
v -1 0 1.2
v -1 0.1 1.2
v 0.2 0 1.2
v 0.2 0.1 1.2
v 0.7 0 1.2
v 0.7 0.1 1.2
v -1.1 0 -0.6
v -1.1 0.1 -0.6
v -0.8 0 -0.6
v -0.8 0.1 -0.6
v -0.2 0 -0.6
v -0.2 0.1 -0.6
v -0.1 0 -0.6
v -0.1 0.1 -0.6
v 0 0 -0.6
v 0 0.1 -0.6
v 0.0999999 0 -0.6
v 0.0999999 0.1 -0.6
v 0.3 0 -0.6
v 0.3 0.1 -0.6
v 0.7 0 -0.6
v 0.7 0.1 -0.6
v -1.2 -0.1 -0.7
v -1.2 0 -0.7
v 0.8 -0.1 -0.7
v 0.8 0 -0.7
v -1.2 -0.1 1.3
v 0.8 -0.1 1.3
v -1.1 -0.1 1.2
v -0.8 -0.1 1.2
v -0.6 -0.1 1.2
v 0.3 -0.1 1.2
v 0.6 -0.1 1.2
v 0.7 -0.1 1.2
v 0.0999999 -0.1 1.1
v 0.3 -0.1 1.1
v 0.6 -0.1 1.1
v 0.7 -0.1 1.1
v -0.8 -0.1 1
v -0.7 -0.1 1
v -0.6 -0.1 1
v 0 -0.1 1
v 0.0999999 -0.1 1
v 0.3 -0.1 1
v 0.4 -0.1 1
v -0.9 -0.1 0.9
v -0.8 -0.1 0.9
v 0.3 -0.1 0.9
v 0.4 -0.1 0.9
v 0.5 -0.1 0.9
v -0.9 -0.1 0.8
v -0.8 -0.1 0.8
v -0.5 -0.1 0.8
v -0.3 -0.1 0.8
v 0 -0.1 0.8
v 0.0999999 -0.1 0.8
v 0.4 -0.1 0.8
v 0.5 -0.1 0.8
v 0.6 -0.1 0.8
v 0.7 -0.1 0.8
v -0.8 -0.1 0.7
v -0.7 -0.1 0.7
v -0.5 -0.1 0.7
v -0.4 -0.1 0.7
v -0.3 -0.1 0.7
v -0.2 -0.1 0.7
v 0 -0.1 0.7
v 0.2 -0.1 0.7
v -0.9 -0.1 0.6
v -0.8 -0.1 0.6
v 0 -0.1 0.6
v 0.0999999 -0.1 0.6
v 0.2 -0.1 0.6
v 0.3 -0.1 0.6
v -0.4 -0.1 0.5
v -0.3 -0.1 0.5
v -0.9 -0.1 0.4
v -0.8 -0.1 0.4
v -0.2 -0.1 0.4
v -0.1 -0.1 0.4
v 0.0999999 -0.1 0.4
v 0.2 -0.1 0.4
v -0.6 -0.1 0.3
v -0.5 -0.1 0.3
v -0.3 -0.1 0.3
v -0.2 -0.1 0.3
v 0.5 -0.1 0.3
v 0.6 -0.1 0.3
v -0.2 -0.1 0.2
v -0.1 -0.1 0.2
v 0 -0.1 0.2
v 0.2 -0.1 0.2
v 0.3 -0.1 0.2
v 0 -0.1 0.1
v 0.0999999 -0.1 0.1
v -0.5 -0.1 1.19209e-07
v -0.4 -0.1 1.19209e-07
v -0.1 -0.1 1.19209e-07
v 0 -0.1 1.19209e-07
v 0.0999999 -0.1 1.19209e-07
v 0.2 -0.1 1.19209e-07
v -1.1 -0.1 -0.0999999
v -0.9 -0.1 -0.0999999
v -0.8 -0.1 -0.0999999
v -0.6 -0.1 -0.0999999
v -0.4 -0.1 -0.0999999
v -0.3 -0.1 -0.0999999
v 0 -0.1 -0.0999999
v 0.2 -0.1 -0.0999999
v -0.4 -0.1 -0.3
v -0.3 -0.1 -0.3
v 0.4 -0.1 -0.3
v 0.5 -0.1 -0.3
v -1.1 -0.1 -0.4
v -1 -0.1 -0.4
v -0.9 -0.1 -0.4
v -0.7 -0.1 -0.4
v -0.2 -0.1 -0.4
v 0.4 -0.1 -0.4
v -0.4 -0.1 -0.5
v -0.2 -0.1 -0.5
v -1.1 -0.1 -0.6
v -1 -0.1 -0.6
v -0.7 -0.1 -0.6
v -0.4 -0.1 -0.6
v 0.7 -0.1 -0.6
v -1.2 -0.1 -0.7
v 0.8 -0.1 -0.7
v -1.2 0 1.3
v 0.8 0 1.3
v -1.1 0 1.2
v -1 0 1.2
v 0.2 0 1.2
v 0.7 0 1.2
v -1.1 0 1.1
v -1.1 0 1
v 0.7 0 0.8
v -1.1 0 0.3
v 0.7 0 0.3
v -1.1 0 0.2
v 0.7 0 0.2
v -1.1 0 0.1
v -1.1 0 1.19209e-07
v 0.7 0 1.19209e-07
v -1.1 0 -0.6
v -0.8 0 -0.6
v -0.2 0 -0.6
v -0.1 0 -0.6
v 0 0 -0.6
v 0.0999999 0 -0.6
v 0.3 0 -0.6
v 0.7 0 -0.6
v -1.2 0 -0.7
v 0.8 0 -0.7
v -1.1 0.1 1.2
v -1 0.1 1.2
v 0.2 0.1 1.2
v 0.7 0.1 1.2
v -1.1 0.1 1.1
v -1 0.1 1.1
v -0.8 0.1 1.1
v -0.7 0.1 1.1
v 0 0.1 1.1
v 0.0999999 0.1 1.1
v 0.2 0.1 1.1
v 0.3 0.1 1.1
v 0.4 0.1 1.1
v -1.1 0.1 1
v -0.9 0.1 1
v -0.8 0.1 1
v -0.7 0.1 1
v -0.1 0.1 1
v 0 0.1 1
v 0.0999999 0.1 1
v 0.3 0.1 1
v 0.4 0.1 1
v 0.5 0.1 1
v -1 0.1 0.9
v -0.9 0.1 0.9
v -0.3 0.1 0.9
v -0.2 0.1 0.9
v 0.4 0.1 0.9
v 0.5 0.1 0.9
v 0.6 0.1 0.9
v -1 0.1 0.8
v -0.9 0.1 0.8
v -0.2 0.1 0.8
v -0.1 0.1 0.8
v 0 0.1 0.8
v 0.6 0.1 0.8
v 0.7 0.1 0.8
v -0.9 0.1 0.7
v -0.8 0.1 0.7
v -0.3 0.1 0.7
v -0.2 0.1 0.7
v -1 0.1 0.6
v -0.9 0.1 0.6
v -1 0.1 0.4
v -0.9 0.1 0.4
v -0.6 0.1 0.4
v -0.4 0.1 0.4
v -0.3 0.1 0.4
v -0.2 0.1 0.4
v -1.1 0.1 0.3
v -0.9 0.1 0.3
v -0.6 0.1 0.3
v -0.5 0.1 0.3
v -0.4 0.1 0.3
v -0.3 0.1 0.3
v -0.2 0.1 0.3
v -0.1 0.1 0.3
v 0.0999999 0.1 0.3
v 0.7 0.1 0.3
v -1.1 0.1 0.2
v -1 0.1 0.2
v -0.9 0.1 0.2
v -0.6 0.1 0.2
v -0.5 0.1 0.2
v -0.3 0.1 0.2
v -0.2 0.1 0.2
v -0.1 0.1 0.2
v 0.0999999 0.1 0.2
v 0.7 0.1 0.2
v -1.1 0.1 0.1
v -1 0.1 0.1
v -0.3 0.1 0.1
v -0.2 0.1 0.1
v -1.1 0.1 1.19209e-07
v -0.9 0.1 1.19209e-07
v -0.4 0.1 1.19209e-07
v -0.3 0.1 1.19209e-07
v -0.1 0.1 1.19209e-07
v 0 0.1 1.19209e-07
v 0.6 0.1 1.19209e-07
v 0.7 0.1 1.19209e-07
v -1 0.1 -0.0999999
v -0.9 0.1 -0.0999999
v -0.4 0.1 -0.0999999
v -0.3 0.1 -0.0999999
v -0.2 0.1 -0.0999999
v -0.1 0.1 -0.0999999
v -0.1 0.1 -0.2
v 0 0.1 -0.2
v 0.0999999 0.1 -0.2
v -0.3 0.1 -0.3
v -0.2 0.1 -0.3
v 0.5 0.1 -0.3
v 0.6 0.1 -0.3
v -1 0.1 -0.4
v -0.9 0.1 -0.4
v 0.4 0.1 -0.4
v 0.5 0.1 -0.4
v -0.9 0.1 -0.5
v -0.8 0.1 -0.5
v -0.2 0.1 -0.5
v -0.1 0.1 -0.5
v 0.3 0.1 -0.5
v 0.4 0.1 -0.5
v -1.1 0.1 -0.6
v -0.8 0.1 -0.6
v -0.2 0.1 -0.6
v -0.1 0.1 -0.6
v 0 0.1 -0.6
v 0.0999999 0.1 -0.6
v 0.3 0.1 -0.6
v 0.7 0.1 -0.6

# faces
f 3/3/1 2/3/1 1/3/1
f 4/3/1 2/3/1 3/3/1
f 13/2/1 6/2/1 5/2/1
f 14/5/1 7/5/1 6/5/1
f 14/2/1 6/2/1 13/2/1
f 15/2/1 8/2/1 7/2/1
f 15/5/1 7/5/1 14/5/1
f 16/3/1 9/3/1 8/3/1
f 16/2/1 8/2/1 15/2/1
f 17/5/1 10/5/1 9/5/1
f 17/3/1 9/3/1 16/3/1
f 18/2/1 11/2/1 10/2/1
f 18/5/1 10/5/1 17/5/1
f 19/4/1 12/4/1 11/4/1
f 19/2/1 11/2/1 18/2/1
f 20/4/1 12/4/1 19/4/1
f 21/4/2 22/4/2 27/4/2
f 22/5/2 23/5/2 28/5/2
f 27/4/2 22/4/2 28/4/2
f 23/3/2 24/3/2 29/3/2
f 28/5/2 23/5/2 29/5/2
f 24/5/2 25/5/2 30/5/2
f 29/3/2 24/3/2 30/3/2
f 25/2/2 26/2/2 31/2/2
f 30/5/2 25/5/2 31/5/2
f 31/2/2 26/2/2 32/2/2
f 33/3/2 34/3/2 35/3/2
f 35/3/2 34/3/2 36/3/2
f 39/3/3 38/3/3 37/3/3
f 40/3/3 38/3/3 39/3/3
f 43/2/3 42/2/3 41/2/3
f 44/2/3 42/2/3 43/2/3
f 45/5/3 44/5/3 43/5/3
f 46/5/3 44/5/3 45/5/3
f 47/4/3 46/4/3 45/4/3
f 48/4/3 46/4/3 47/4/3
f 49/4/4 50/4/4 51/4/4
f 51/4/4 50/4/4 52/4/4
f 51/5/4 52/5/4 53/5/4
f 53/5/4 52/5/4 54/5/4
f 53/2/4 54/2/4 55/2/4
f 55/2/4 54/2/4 56/2/4
f 55/5/4 56/5/4 57/5/4
f 57/5/4 56/5/4 58/5/4
f 57/3/4 58/3/4 59/3/4
f 59/3/4 58/3/4 60/3/4
f 59/5/4 60/5/4 61/5/4
f 61/5/4 60/5/4 62/5/4
f 61/2/4 62/2/4 63/2/4
f 63/2/4 62/2/4 64/2/4
f 65/3/4 66/3/4 67/3/4
f 67/3/4 66/3/4 68/3/4
f 71/3/5 70/3/5 69/3/5
f 72/3/5 70/3/5 71/3/5
f 73/3/5 70/3/5 72/3/5
f 74/3/5 70/3/5 73/3/5
f 75/3/5 70/3/5 74/3/5
f 76/3/5 70/3/5 75/3/5
f 77/2/5 74/2/5 73/2/5
f 78/4/5 75/4/5 74/4/5
f 78/2/5 74/2/5 77/2/5
f 79/2/5 76/2/5 75/2/5
f 79/4/5 75/4/5 78/4/5
f 80/3/5 70/3/5 76/3/5
f 80/2/5 76/2/5 79/2/5
f 81/2/5 72/2/5 71/2/5
f 81/5/5 73/5/5 72/5/5
f 82/5/5 73/5/5 81/5/5
f 83/2/5 77/2/5 73/2/5
f 83/5/5 73/5/5 82/5/5
f 84/2/5 77/2/5 83/2/5
f 85/5/5 78/5/5 77/5/5
f 85/2/5 77/2/5 84/2/5
f 86/4/5 80/4/5 79/4/5
f 86/5/5 78/5/5 85/5/5
f 86/4/5 79/4/5 78/4/5
f 87/4/5 80/4/5 86/4/5
f 88/2/5 81/2/5 71/2/5
f 89/1/5 82/1/5 81/1/5
f 89/2/5 81/2/5 88/2/5
f 90/5/5 86/5/5 85/5/5
f 90/1/5 87/1/5 86/1/5
f 91/4/5 80/4/5 87/4/5
f 91/1/5 87/1/5 90/1/5
f 92/4/5 80/4/5 91/4/5
f 93/2/5 88/2/5 71/2/5
f 93/5/5 89/5/5 88/5/5
f 94/1/5 82/1/5 89/1/5
f 94/5/5 89/5/5 93/5/5
f 95/5/5 83/5/5 82/5/5
f 95/5/5 84/5/5 83/5/5
f 96/5/5 84/5/5 95/5/5
f 97/1/5 85/1/5 84/1/5
f 97/5/5 84/5/5 96/5/5
f 98/5/5 90/5/5 85/5/5
f 98/1/5 85/1/5 97/1/5
f 98/5/5 91/5/5 90/5/5
f 99/1/5 92/1/5 91/1/5
f 99/5/5 91/5/5 98/5/5
f 100/4/5 80/4/5 92/4/5
f 100/1/5 92/1/5 99/1/5
f 101/4/5 80/4/5 100/4/5
f 102/3/5 70/3/5 80/3/5
f 102/4/5 80/4/5 101/4/5
f 103/1/5 82/1/5 94/1/5
f 103/1/5 94/1/5 93/1/5
f 104/5/5 95/5/5 82/5/5
f 104/1/5 82/1/5 103/1/5
f 105/2/5 96/2/5 95/2/5
f 105/5/5 95/5/5 104/5/5
f 106/2/5 96/2/5 105/2/5
f 107/5/5 101/5/5 100/5/5
f 107/2/5 96/2/5 106/2/5
f 107/5/5 99/5/5 98/5/5
f 107/5/5 97/5/5 96/5/5
f 107/5/5 100/5/5 99/5/5
f 107/5/5 98/5/5 97/5/5
f 108/5/5 101/5/5 107/5/5
f 109/5/5 101/5/5 108/5/5
f 110/5/5 101/5/5 109/5/5
f 111/1/5 103/1/5 93/1/5
f 111/2/5 93/2/5 71/2/5
f 112/5/5 106/5/5 105/5/5
f 112/1/5 103/1/5 111/1/5
f 112/5/5 104/5/5 103/5/5
f 112/5/5 105/5/5 104/5/5
f 113/5/5 109/5/5 108/5/5
f 113/2/5 110/2/5 109/2/5
f 114/2/5 110/2/5 113/2/5
f 115/5/5 101/5/5 110/5/5
f 115/2/5 110/2/5 114/2/5
f 116/5/5 101/5/5 115/5/5
f 117/5/5 106/5/5 112/5/5
f 117/2/5 108/2/5 107/2/5
f 117/5/5 112/5/5 111/5/5
f 117/2/5 107/2/5 106/2/5
f 118/2/5 108/2/5 117/2/5
f 119/2/5 111/2/5 71/2/5
f 119/5/5 117/5/5 111/5/5
f 119/5/5 118/5/5 117/5/5
f 120/5/5 118/5/5 119/5/5
f 121/2/5 108/2/5 118/2/5
f 121/5/5 114/5/5 113/5/5
f 121/5/5 113/5/5 108/5/5
f 122/5/5 114/5/5 121/5/5
f 123/2/5 116/2/5 115/2/5
f 123/5/5 114/5/5 122/5/5
f 123/2/5 115/2/5 114/2/5
f 124/2/5 116/2/5 123/2/5
f 125/5/5 118/5/5 120/5/5
f 126/5/5 118/5/5 125/5/5
f 127/2/5 122/2/5 121/2/5
f 127/5/5 118/5/5 126/5/5
f 127/2/5 121/2/5 118/2/5
f 128/2/5 122/2/5 127/2/5
f 129/5/5 101/5/5 116/5/5
f 130/2/5 102/2/5 101/2/5
f 130/5/5 101/5/5 129/5/5
f 131/2/5 122/2/5 128/2/5
f 131/5/5 127/5/5 126/5/5
f 131/5/5 128/5/5 127/5/5
f 132/5/5 123/5/5 122/5/5
f 132/2/5 122/2/5 131/2/5
f 132/5/5 124/5/5 123/5/5
f 133/5/5 124/5/5 132/5/5
f 134/2/5 116/2/5 124/2/5
f 134/5/5 124/5/5 133/5/5
f 135/5/5 129/5/5 116/5/5
f 135/2/5 116/2/5 134/2/5
f 136/2/5 133/2/5 132/2/5
f 136/5/5 134/5/5 133/5/5
f 136/5/5 135/5/5 134/5/5
f 137/5/5 135/5/5 136/5/5
f 138/2/5 126/2/5 125/2/5
f 138/5/5 132/5/5 131/5/5
f 138/5/5 131/5/5 126/5/5
f 139/5/5 132/5/5 138/5/5
f 140/2/5 137/2/5 136/2/5
f 140/5/5 132/5/5 139/5/5
f 140/2/5 136/2/5 132/2/5
f 141/2/5 137/2/5 140/2/5
f 142/5/5 135/5/5 137/5/5
f 142/2/5 137/2/5 141/2/5
f 143/5/5 135/5/5 142/5/5
f 144/3/5 71/3/5 69/3/5
f 144/2/5 120/2/5 119/2/5
f 144/2/5 119/2/5 71/2/5
f 145/2/5 120/2/5 144/2/5
f 146/5/5 125/5/5 120/5/5
f 146/2/5 120/2/5 145/2/5
f 147/2/5 139/2/5 138/2/5
f 147/5/5 125/5/5 146/5/5
f 147/2/5 138/2/5 125/2/5
f 148/5/5 141/5/5 140/5/5
f 148/2/5 139/2/5 147/2/5
f 148/5/5 140/5/5 139/5/5
f 149/5/5 141/5/5 148/5/5
f 150/2/5 143/2/5 142/2/5
f 150/5/5 141/5/5 149/5/5
f 150/2/5 142/2/5 141/2/5
f 151/5/5 135/5/5 143/5/5
f 151/2/5 143/2/5 150/2/5
f 152/5/5 147/5/5 146/5/5
f 152/5/5 146/5/5 145/5/5
f 152/1/5 149/1/5 148/1/5
f 152/5/5 148/5/5 147/5/5
f 153/5/5 150/5/5 149/5/5
f 153/1/5 149/1/5 152/1/5
f 153/5/5 151/5/5 150/5/5
f 154/5/5 129/5/5 135/5/5
f 154/5/5 151/5/5 153/5/5
f 154/5/5 135/5/5 151/5/5
f 155/2/5 130/2/5 129/2/5
f 155/5/5 129/5/5 154/5/5
f 156/4/5 145/4/5 144/4/5
f 156/3/5 144/3/5 69/3/5
f 157/4/5 145/4/5 156/4/5
f 158/5/5 152/5/5 145/5/5
f 158/4/5 145/4/5 157/4/5
f 158/5/5 153/5/5 152/5/5
f 158/5/5 154/5/5 153/5/5
f 159/5/5 154/5/5 158/5/5
f 160/5/5 154/5/5 159/5/5
f 161/2/5 155/2/5 154/2/5
f 161/5/5 154/5/5 160/5/5
f 162/5/5 160/5/5 159/5/5
f 163/2/5 161/2/5 160/2/5
f 163/5/5 160/5/5 162/5/5
f 164/2/5 157/2/5 156/2/5
f 164/3/5 156/3/5 69/3/5
f 165/4/5 158/4/5 157/4/5
f 165/2/5 157/2/5 164/2/5
f 165/4/5 159/4/5 158/4/5
f 166/5/5 162/5/5 159/5/5
f 166/4/5 159/4/5 165/4/5
f 167/2/5 163/2/5 162/2/5
f 167/5/5 162/5/5 166/5/5
f 168/2/5 161/2/5 163/2/5
f 168/2/5 163/2/5 167/2/5
f 168/2/5 102/2/5 130/2/5
f 168/3/5 70/3/5 102/3/5
f 168/2/5 130/2/5 155/2/5
f 168/2/5 155/2/5 161/2/5
f 169/3/5 167/3/5 166/3/5
f 169/3/5 166/3/5 165/3/5
f 169/3/5 168/3/5 167/3/5
f 169/3/5 164/3/5 69/3/5
f 169/3/5 165/3/5 164/3/5
f 170/3/5 70/3/5 168/3/5
f 170/3/5 168/3/5 169/3/5
f 171/3/6 172/3/6 173/3/6
f 173/3/6 172/3/6 174/3/6
f 174/3/6 172/3/6 175/3/6
f 175/3/6 172/3/6 176/3/6
f 171/3/6 173/3/6 177/3/6
f 171/3/6 177/3/6 178/3/6
f 176/3/6 172/3/6 179/3/6
f 171/3/6 178/3/6 180/3/6
f 179/3/6 172/3/6 181/3/6
f 171/3/6 180/3/6 182/3/6
f 181/3/6 172/3/6 183/3/6
f 171/3/6 182/3/6 184/3/6
f 171/3/6 184/3/6 185/3/6
f 183/3/6 172/3/6 186/3/6
f 171/3/6 185/3/6 187/3/6
f 186/3/6 172/3/6 194/3/6
f 192/3/6 193/3/6 195/3/6
f 193/3/6 194/3/6 195/3/6
f 171/3/6 187/3/6 195/3/6
f 187/3/6 188/3/6 195/3/6
f 191/3/6 192/3/6 195/3/6
f 190/3/6 191/3/6 195/3/6
f 189/3/6 190/3/6 195/3/6
f 188/3/6 189/3/6 195/3/6
f 194/3/6 172/3/6 196/3/6
f 195/3/6 194/3/6 196/3/6
f 197/2/6 198/2/6 201/2/6
f 198/5/6 199/5/6 202/5/6
f 201/2/6 198/2/6 202/2/6
f 202/5/6 199/5/6 203/5/6
f 203/5/6 199/5/6 204/5/6
f 204/5/6 199/5/6 205/5/6
f 205/5/6 199/5/6 206/5/6
f 199/4/6 200/4/6 207/4/6
f 206/5/6 199/5/6 207/5/6
f 207/4/6 200/4/6 208/4/6
f 208/4/6 200/4/6 209/4/6
f 201/5/6 202/5/6 210/5/6
f 202/5/6 203/5/6 210/5/6
f 210/5/6 203/5/6 211/5/6
f 203/1/6 204/1/6 212/1/6
f 211/5/6 203/5/6 212/5/6
f 204/5/6 205/5/6 213/5/6
f 212/1/6 204/1/6 213/1/6
f 213/5/6 205/5/6 214/5/6
f 205/1/6 206/1/6 215/1/6
f 214/5/6 205/5/6 215/5/6
f 206/5/6 207/5/6 216/5/6
f 215/1/6 206/1/6 216/1/6
f 207/5/6 208/5/6 216/5/6
f 208/1/6 209/1/6 217/1/6
f 216/5/6 208/5/6 217/5/6
f 209/4/6 200/4/6 218/4/6
f 217/1/6 209/1/6 218/1/6
f 218/4/6 200/4/6 219/4/6
f 210/2/6 211/2/6 220/2/6
f 211/1/6 212/1/6 221/1/6
f 220/2/6 211/2/6 221/2/6
f 213/5/6 214/5/6 222/5/6
f 212/5/6 213/5/6 222/5/6
f 222/5/6 214/5/6 223/5/6
f 216/5/6 217/5/6 224/5/6
f 215/5/6 216/5/6 224/5/6
f 217/5/6 218/5/6 224/5/6
f 218/1/6 219/1/6 224/1/6
f 219/4/6 200/4/6 225/4/6
f 224/1/6 219/1/6 225/1/6
f 225/4/6 200/4/6 226/4/6
f 210/2/6 220/2/6 227/2/6
f 220/5/6 221/5/6 227/5/6
f 221/1/6 212/1/6 228/1/6
f 227/5/6 221/5/6 228/5/6
f 223/5/6 214/5/6 229/5/6
f 222/3/6 223/3/6 229/3/6
f 214/1/6 215/1/6 230/1/6
f 229/5/6 214/5/6 230/5/6
f 215/5/6 224/5/6 231/5/6
f 230/1/6 215/1/6 231/1/6
f 225/5/6 226/5/6 231/5/6
f 224/5/6 225/5/6 231/5/6
f 226/4/6 200/4/6 232/4/6
f 231/5/6 226/5/6 232/5/6
f 232/4/6 200/4/6 233/4/6
f 228/1/6 212/1/6 234/1/6
f 227/1/6 228/1/6 234/1/6
f 212/5/6 222/5/6 235/5/6
f 234/1/6 212/1/6 235/1/6
f 229/3/6 230/3/6 236/3/6
f 235/5/6 222/5/6 236/5/6
f 222/3/6 229/3/6 236/3/6
f 236/3/6 230/3/6 237/3/6
f 210/2/6 227/2/6 238/2/6
f 227/1/6 234/1/6 238/1/6
f 234/5/6 235/5/6 239/5/6
f 238/1/6 234/1/6 239/1/6
f 236/5/6 237/5/6 239/5/6
f 235/5/6 236/5/6 239/5/6
f 210/2/6 238/2/6 240/2/6
f 238/5/6 239/5/6 240/5/6
f 239/5/6 237/5/6 241/5/6
f 240/5/6 239/5/6 241/5/6
f 241/5/6 237/5/6 242/5/6
f 242/5/6 237/5/6 243/5/6
f 243/5/6 237/5/6 244/5/6
f 237/3/6 230/3/6 245/3/6
f 244/5/6 237/5/6 245/5/6
f 210/2/6 240/2/6 246/2/6
f 240/2/6 241/2/6 246/2/6
f 241/5/6 242/5/6 247/5/6
f 246/2/6 241/2/6 247/2/6
f 242/3/6 243/3/6 248/3/6
f 247/5/6 242/5/6 248/5/6
f 248/3/6 243/3/6 249/3/6
f 243/5/6 244/5/6 250/5/6
f 249/3/6 243/3/6 250/3/6
f 244/3/6 245/3/6 251/3/6
f 250/5/6 244/5/6 251/5/6
f 245/3/6 230/3/6 252/3/6
f 251/3/6 245/3/6 252/3/6
f 232/5/6 233/5/6 253/5/6
f 252/3/6 230/3/6 253/3/6
f 230/5/6 231/5/6 253/5/6
f 231/5/6 232/5/6 253/5/6
f 253/5/6 233/5/6 254/5/6
f 254/5/6 233/5/6 255/5/6
f 247/3/6 248/3/6 256/3/6
f 246/3/6 247/3/6 256/3/6
f 256/3/6 248/3/6 257/3/6
f 257/3/6 248/3/6 258/3/6
f 248/5/6 249/5/6 259/5/6
f 258/3/6 248/3/6 259/3/6
f 251/3/6 252/3/6 260/3/6
f 259/5/6 249/5/6 260/5/6
f 250/3/6 251/3/6 260/3/6
f 249/3/6 250/3/6 260/3/6
f 260/3/6 252/3/6 261/3/6
f 252/5/6 253/5/6 262/5/6
f 261/3/6 252/3/6 262/3/6
f 253/5/6 254/5/6 262/5/6
f 262/5/6 254/5/6 263/5/6
f 254/3/6 255/3/6 264/3/6
f 263/5/6 254/5/6 264/5/6
f 264/3/6 255/3/6 265/3/6
f 256/5/6 257/5/6 266/5/6
f 257/2/6 258/2/6 267/2/6
f 266/5/6 257/5/6 267/5/6
f 258/5/6 259/5/6 268/5/6
f 262/3/6 263/3/6 268/3/6
f 260/5/6 261/5/6 268/5/6
f 259/5/6 260/5/6 268/5/6
f 261/3/6 262/3/6 268/3/6
f 268/3/6 263/3/6 269/3/6
f 266/2/6 267/2/6 270/2/6
f 267/2/6 258/2/6 271/2/6
f 270/2/6 267/2/6 271/2/6
f 258/5/6 268/5/6 271/5/6
f 268/5/6 269/5/6 271/5/6
f 271/5/6 269/5/6 272/5/6
f 272/5/6 269/5/6 273/5/6
f 269/3/6 263/3/6 274/3/6
f 264/5/6 265/5/6 274/5/6
f 263/5/6 264/5/6 274/5/6
f 274/5/6 265/5/6 275/5/6
f 275/5/6 265/5/6 276/5/6
f 276/5/6 265/5/6 277/5/6
f 270/4/6 271/4/6 278/4/6
f 271/5/6 272/5/6 279/5/6
f 278/4/6 271/4/6 279/4/6
f 272/1/6 273/1/6 280/1/6
f 279/5/6 272/5/6 280/5/6
f 273/5/6 269/5/6 281/5/6
f 280/1/6 273/1/6 281/1/6
f 269/3/6 274/3/6 282/3/6
f 281/5/6 269/5/6 282/5/6
f 274/3/6 275/3/6 282/3/6
f 282/3/6 275/3/6 283/3/6
f 282/5/6 283/5/6 284/5/6
f 283/3/6 275/3/6 284/3/6
f 275/5/6 276/5/6 285/5/6
f 284/3/6 275/3/6 285/3/6
f 285/5/6 276/5/6 286/5/6
f 279/5/6 280/5/6 287/5/6
f 278/5/6 279/5/6 287/5/6
f 280/5/6 281/5/6 287/5/6
f 281/1/6 282/1/6 287/1/6
f 284/5/6 285/5/6 288/5/6
f 287/1/6 282/1/6 288/1/6
f 282/5/6 284/5/6 288/5/6
f 286/5/6 276/5/6 289/5/6
f 276/2/6 277/2/6 290/2/6
f 289/5/6 276/5/6 290/5/6
f 270/4/6 278/4/6 291/4/6
f 278/5/6 287/5/6 291/5/6
f 287/5/6 288/5/6 291/5/6
f 291/5/6 288/5/6 292/5/6
f 286/5/6 289/5/6 293/5/6
f 289/2/6 290/2/6 294/2/6
f 293/5/6 289/5/6 294/5/6
f 292/5/6 288/5/6 295/5/6
f 291/4/6 292/4/6 295/4/6
f 295/5/6 288/5/6 296/5/6
f 288/5/6 285/5/6 297/5/6
f 296/5/6 288/5/6 297/5/6
f 297/5/6 285/5/6 298/5/6
f 286/5/6 293/5/6 299/5/6
f 293/2/6 294/2/6 300/2/6
f 299/5/6 293/5/6 300/5/6
f 295/4/6 296/4/6 301/4/6
f 270/4/6 291/4/6 301/4/6
f 291/4/6 295/4/6 301/4/6
f 296/5/6 297/5/6 302/5/6
f 301/4/6 296/4/6 302/4/6
f 297/2/6 298/2/6 303/2/6
f 302/5/6 297/5/6 303/5/6
f 298/5/6 285/5/6 304/5/6
f 303/2/6 298/2/6 304/2/6
f 285/3/6 286/3/6 305/3/6
f 304/5/6 285/5/6 305/5/6
f 286/5/6 299/5/6 306/5/6
f 305/3/6 286/3/6 306/3/6
f 299/2/6 300/2/6 307/2/6
f 306/5/6 299/5/6 307/5/6
f 300/2/6 294/2/6 308/2/6
f 307/2/6 300/2/6 308/2/6
f 290/2/6 277/2/6 308/2/6
f 294/2/6 290/2/6 308/2/6
