# MagicaVoxel @ Ephtracy

# group
o 

# material
mtllib Stenka1-25.mtl
usemtl palette

# normals
vn -1 0 0
vn 1 0 0
vn 0 0 1
vn 0 0 -1
vn 0 -1 0
vn 0 1 0

# texcoords
vt 0.943359 0.5
vt 0.951172 0.5
vt 0.982422 0.5
vt 0.986328 0.5

# verts
v -3.2 -0.1 1.3
v -3.2 -0.1 -0.7
v -3.2 0 1.3
v -3.2 0 -0.7
v -3.1 0 1.2
v -3.1 0 0.8
v -3.1 0 0.2
v -3.1 0 0.1
v -3.1 0 1.19209e-07
v -3.1 0 -0.6
v -3.1 0.1 1.2
v -3.1 0.1 0.8
v -3.1 0.1 0.2
v -3.1 0.1 0.1
v -3.1 0.1 1.19209e-07
v -3.1 0.1 -0.6
v -1.3 0 1.2
v -1.3 0 0.7
v -1.3 0 1.19209e-07
v -1.3 0 -0.2
v -1.3 0 -0.6
v -1.3 0.1 1.2
v -1.3 0.1 0.7
v -1.3 0.1 1.19209e-07
v -1.3 0.1 -0.2
v -1.3 0.1 -0.6
v -1.2 -0.1 1.3
v -1.2 -0.1 -0.7
v -1.2 0 1.3
v -1.2 0 -0.7
v -3.2 -0.1 1.3
v -3.2 0 1.3
v -1.2 -0.1 1.3
v -1.2 0 1.3
v -3.1 0 1.2
v -3.1 0.1 1.2
v -2.9 0 1.2
v -2.9 0.1 1.2
v -2.7 0 1.2
v -2.7 0.1 1.2
v -2.6 0 1.2
v -2.6 0.1 1.2
v -2.5 0 1.2
v -2.5 0.1 1.2
v -1.8 0 1.2
v -1.8 0.1 1.2
v -1.3 0 1.2
v -1.3 0.1 1.2
v -3.1 0 -0.6
v -3.1 0.1 -0.6
v -2.6 0 -0.6
v -2.6 0.1 -0.6
v -2.5 0 -0.6
v -2.5 0.1 -0.6
v -2.4 0 -0.6
v -2.4 0.1 -0.6
v -2.2 0 -0.6
v -2.2 0.1 -0.6
v -2.1 0 -0.6
v -2.1 0.1 -0.6
v -1.7 0 -0.6
v -1.7 0.1 -0.6
v -1.3 0 -0.6
v -1.3 0.1 -0.6
v -3.2 -0.1 -0.7
v -3.2 0 -0.7
v -1.2 -0.1 -0.7
v -1.2 0 -0.7
v -3.2 -0.1 1.3
v -1.2 -0.1 1.3
v -3.1 -0.1 1.2
v -1.7 -0.1 1.2
v -1.4 -0.1 1.2
v -1.3 -0.1 1.2
v -3.1 -0.1 1.1
v -2.6 -0.1 1.1
v -1.9 -0.1 1.1
v -1.7 -0.1 1.1
v -1.4 -0.1 1.1
v -1.3 -0.1 1.1
v -2.6 -0.1 1
v -1.9 -0.1 1
v -1.8 -0.1 1
v -1.7 -0.1 1
v -3.1 -0.1 0.9
v -2.9 -0.1 0.9
v -2.7 -0.1 0.9
v -2.6 -0.1 0.9
v -2.9 -0.1 0.8
v -2.7 -0.1 0.8
v -2.5 -0.1 0.8
v -2.3 -0.1 0.8
v -1.6 -0.1 0.8
v -1.5 -0.1 0.8
v -1.3 -0.1 0.8
v -2.5 -0.1 0.7
v -2.4 -0.1 0.7
v -2.3 -0.1 0.7
v -2.2 -0.1 0.7
v -2 -0.1 0.7
v -1.8 -0.1 0.7
v -1.5 -0.1 0.7
v -1.4 -0.1 0.7
v -2 -0.1 0.6
v -1.9 -0.1 0.6
v -2.4 -0.1 0.5
v -2.3 -0.1 0.5
v -2.9 -0.1 0.4
v -2.8 -0.1 0.4
v -2.2 -0.1 0.4
v -2.1 -0.1 0.4
v -1.9 -0.1 0.4
v -1.8 -0.1 0.4
v -2.6 -0.1 0.3
v -2.5 -0.1 0.3
v -2.3 -0.1 0.3
v -2.2 -0.1 0.3
v -1.5 -0.1 0.3
v -1.4 -0.1 0.3
v -2.2 -0.1 0.2
v -2.1 -0.1 0.2
v -2 -0.1 0.2
v -2 -0.1 0.1
v -1.9 -0.1 0.1
v -2.5 -0.1 1.19209e-07
v -2.4 -0.1 1.19209e-07
v -2.1 -0.1 1.19209e-07
v -2 -0.1 1.19209e-07
v -1.9 -0.1 1.19209e-07
v -1.8 -0.1 1.19209e-07
v -1.6 -0.1 1.19209e-07
v -3.1 -0.1 -0.0999999
v -2.9 -0.1 -0.0999999
v -2.6 -0.1 -0.0999999
v -2.5 -0.1 -0.0999999
v -2.4 -0.1 -0.0999999
v -2.3 -0.1 -0.0999999
v -2.2 -0.1 -0.0999999
v -2 -0.1 -0.0999999
v -1.8 -0.1 -0.0999999
v -1.7 -0.1 -0.0999999
v -2.9 -0.1 -0.2
v -2.8 -0.1 -0.2
v -2.5 -0.1 -0.2
v -2.3 -0.1 -0.2
v -2.2 -0.1 -0.2
v -2 -0.1 -0.3
v -1.7 -0.1 -0.3
v -1.6 -0.1 -0.3
v -1.5 -0.1 -0.3
v -3.1 -0.1 -0.4
v -3 -0.1 -0.4
v -2.7 -0.1 -0.4
v -2.2 -0.1 -0.4
v -2 -0.1 -0.4
v -1.6 -0.1 -0.4
v -2.7 -0.1 -0.5
v -2.2 -0.1 -0.5
v -3.1 -0.1 -0.6
v -3 -0.1 -0.6
v -2.7 -0.1 -0.6
v -1.3 -0.1 -0.6
v -3.2 -0.1 -0.7
v -1.2 -0.1 -0.7
v -3.2 0 1.3
v -1.2 0 1.3
v -3.1 0 1.2
v -2.9 0 1.2
v -2.7 0 1.2
v -2.6 0 1.2
v -2.5 0 1.2
v -1.8 0 1.2
v -1.3 0 1.2
v -3.1 0 0.8
v -1.3 0 0.7
v -3.1 0 0.2
v -3.1 0 0.1
v -3.1 0 1.19209e-07
v -1.3 0 1.19209e-07
v -1.3 0 -0.2
v -3.1 0 -0.6
v -2.6 0 -0.6
v -2.5 0 -0.6
v -2.4 0 -0.6
v -2.2 0 -0.6
v -2.1 0 -0.6
v -1.7 0 -0.6
v -1.3 0 -0.6
v -3.2 0 -0.7
v -1.2 0 -0.7
v -3.1 0.1 1.2
v -2.9 0.1 1.2
v -2.7 0.1 1.2
v -2.6 0.1 1.2
v -2.5 0.1 1.2
v -1.8 0.1 1.2
v -1.3 0.1 1.2
v -2.8 0.1 1.1
v -2.7 0.1 1.1
v -2.6 0.1 1.1
v -2.5 0.1 1.1
v -2.9 0.1 1
v -2.8 0.1 1
v -1.9 0.1 1
v -1.8 0.1 1
v -2.6 0.1 0.9
v -2.5 0.1 0.9
v -2.2 0.1 0.9
v -2 0.1 0.9
v -3.1 0.1 0.8
v -3 0.1 0.8
v -2.9 0.1 0.8
v -2.7 0.1 0.8
v -2.6 0.1 0.8
v -2.5 0.1 0.8
v -2.2 0.1 0.8
v -2.1 0.1 0.8
v -2 0.1 0.8
v -2.9 0.1 0.7
v -2.7 0.1 0.7
v -2.4 0.1 0.7
v -2.1 0.1 0.7
v -1.5 0.1 0.7
v -1.3 0.1 0.7
v -2.7 0.1 0.6
v -2.6 0.1 0.6
v -2.5 0.1 0.6
v -2.4 0.1 0.6
v -2.6 0.1 0.5
v -2.5 0.1 0.5
v -2 0.1 0.5
v -1.9 0.1 0.5
v -1.7 0.1 0.5
v -3 0.1 0.4
v -2.9 0.1 0.4
v -2.8 0.1 0.4
v -2.7 0.1 0.4
v -2.1 0.1 0.4
v -2 0.1 0.4
v -1.9 0.1 0.4
v -1.7 0.1 0.4
v -3.1 0.1 0.2
v -3 0.1 0.2
v -2.1 0.1 0.2
v -2 0.1 0.2
v -3.1 0.1 0.1
v -3 0.1 0.1
v -2.7 0.1 0.1
v -2.6 0.1 0.1
v -3.1 0.1 1.19209e-07
v -3 0.1 1.19209e-07
v -2.9 0.1 1.19209e-07
v -2.8 0.1 1.19209e-07
v -2.7 0.1 1.19209e-07
v -2.2 0.1 1.19209e-07
v -2 0.1 1.19209e-07
v -1.6 0.1 1.19209e-07
v -1.5 0.1 1.19209e-07
v -1.4 0.1 1.19209e-07
v -1.3 0.1 1.19209e-07
v -3 0.1 -0.0999999
v -2.8 0.1 -0.0999999
v -2.4 0.1 -0.0999999
v -2.2 0.1 -0.0999999
v -1.9 0.1 -0.0999999
v -2.5 0.1 -0.2
v -2.4 0.1 -0.2
v -2.3 0.1 -0.2
v -2.2 0.1 -0.2
v -1.4 0.1 -0.2
v -1.3 0.1 -0.2
v -2.4 0.1 -0.3
v -2.3 0.1 -0.3
v -1.7 0.1 -0.3
v -1.6 0.1 -0.3
v -1.5 0.1 -0.3
v -1.4 0.1 -0.3
v -2 0.1 -0.4
v -1.7 0.1 -0.4
v -1.6 0.1 -0.4
v -1.5 0.1 -0.4
v -2.6 0.1 -0.5
v -2.5 0.1 -0.5
v -2.4 0.1 -0.5
v -2.2 0.1 -0.5
v -2.1 0.1 -0.5
v -2 0.1 -0.5
v -1.7 0.1 -0.5
v -1.6 0.1 -0.5
v -3.1 0.1 -0.6
v -2.6 0.1 -0.6
v -2.5 0.1 -0.6
v -2.4 0.1 -0.6
v -2.2 0.1 -0.6
v -2.1 0.1 -0.6
v -1.7 0.1 -0.6
v -1.3 0.1 -0.6

# faces
f 3/2/1 2/2/1 1/2/1
f 4/2/1 2/2/1 3/2/1
f 11/3/1 6/3/1 5/3/1
f 12/1/1 7/1/1 6/1/1
f 12/3/1 6/3/1 11/3/1
f 13/4/1 8/4/1 7/4/1
f 13/1/1 7/1/1 12/1/1
f 14/1/1 9/1/1 8/1/1
f 14/4/1 8/4/1 13/4/1
f 15/3/1 10/3/1 9/3/1
f 15/1/1 9/1/1 14/1/1
f 16/3/1 10/3/1 15/3/1
f 17/3/2 18/3/2 22/3/2
f 18/4/2 19/4/2 23/4/2
f 22/3/2 18/3/2 23/3/2
f 19/2/2 20/2/2 24/2/2
f 23/4/2 19/4/2 24/4/2
f 20/1/2 21/1/2 25/1/2
f 24/2/2 20/2/2 25/2/2
f 25/1/2 21/1/2 26/1/2
f 27/2/2 28/2/2 29/2/2
f 29/2/2 28/2/2 30/2/2
f 33/2/3 32/2/3 31/2/3
f 34/2/3 32/2/3 33/2/3
f 37/3/3 36/3/3 35/3/3
f 38/3/3 36/3/3 37/3/3
f 39/2/3 38/2/3 37/2/3
f 40/2/3 38/2/3 39/2/3
f 41/3/3 40/3/3 39/3/3
f 42/3/3 40/3/3 41/3/3
f 43/1/3 42/1/3 41/1/3
f 44/1/3 42/1/3 43/1/3
f 45/4/3 44/4/3 43/4/3
f 46/4/3 44/4/3 45/4/3
f 47/3/3 46/3/3 45/3/3
f 48/3/3 46/3/3 47/3/3
f 49/3/4 50/3/4 51/3/4
f 51/3/4 50/3/4 52/3/4
f 51/4/4 52/4/4 53/4/4
f 53/4/4 52/4/4 54/4/4
f 53/2/4 54/2/4 55/2/4
f 55/2/4 54/2/4 56/2/4
f 55/4/4 56/4/4 57/4/4
f 57/4/4 56/4/4 58/4/4
f 57/1/4 58/1/4 59/1/4
f 59/1/4 58/1/4 60/1/4
f 59/4/4 60/4/4 61/4/4
f 61/4/4 60/4/4 62/4/4
f 61/1/4 62/1/4 63/1/4
f 63/1/4 62/1/4 64/1/4
f 65/2/4 66/2/4 67/2/4
f 67/2/4 66/2/4 68/2/4
f 71/2/5 70/2/5 69/2/5
f 72/2/5 70/2/5 71/2/5
f 73/2/5 70/2/5 72/2/5
f 74/2/5 70/2/5 73/2/5
f 75/2/5 71/2/5 69/2/5
f 75/1/5 72/1/5 71/1/5
f 76/1/5 72/1/5 75/1/5
f 77/1/5 72/1/5 76/1/5
f 78/3/5 73/3/5 72/3/5
f 78/1/5 72/1/5 77/1/5
f 79/1/5 74/1/5 73/1/5
f 79/3/5 73/3/5 78/3/5
f 80/2/5 70/2/5 74/2/5
f 80/1/5 74/1/5 79/1/5
f 81/1/5 77/1/5 76/1/5
f 81/3/5 76/3/5 75/3/5
f 82/4/5 78/4/5 77/4/5
f 82/1/5 77/1/5 81/1/5
f 83/4/5 78/4/5 82/4/5
f 84/3/5 79/3/5 78/3/5
f 84/4/5 78/4/5 83/4/5
f 84/3/5 80/3/5 79/3/5
f 85/3/5 81/3/5 75/3/5
f 85/2/5 75/2/5 69/2/5
f 86/3/5 81/3/5 85/3/5
f 87/3/5 81/3/5 86/3/5
f 88/4/5 83/4/5 82/4/5
f 88/3/5 81/3/5 87/3/5
f 88/4/5 82/4/5 81/4/5
f 89/3/5 87/3/5 86/3/5
f 89/1/5 86/1/5 85/1/5
f 90/4/5 88/4/5 87/4/5
f 90/3/5 87/3/5 89/3/5
f 91/4/5 83/4/5 88/4/5
f 91/4/5 88/4/5 90/4/5
f 92/4/5 83/4/5 91/4/5
f 93/3/5 80/3/5 84/3/5
f 93/3/5 84/3/5 83/3/5
f 94/3/5 80/3/5 93/3/5
f 95/2/5 70/2/5 80/2/5
f 95/3/5 80/3/5 94/3/5
f 96/4/5 90/4/5 89/4/5
f 96/1/5 92/1/5 91/1/5
f 96/4/5 91/4/5 90/4/5
f 97/1/5 92/1/5 96/1/5
f 98/4/5 83/4/5 92/4/5
f 98/1/5 92/1/5 97/1/5
f 99/4/5 83/4/5 98/4/5
f 100/4/5 83/4/5 99/4/5
f 101/3/5 93/3/5 83/3/5
f 101/4/5 83/4/5 100/4/5
f 102/4/5 94/4/5 93/4/5
f 102/1/5 95/1/5 94/1/5
f 103/1/5 95/1/5 102/1/5
f 104/1/5 101/1/5 100/1/5
f 104/4/5 100/4/5 99/4/5
f 105/1/5 101/1/5 104/1/5
f 106/4/5 97/4/5 96/4/5
f 106/1/5 98/1/5 97/1/5
f 106/1/5 99/1/5 98/1/5
f 107/1/5 99/1/5 106/1/5
f 108/1/5 89/1/5 85/1/5
f 108/4/5 96/4/5 89/4/5
f 108/4/5 107/4/5 106/4/5
f 108/4/5 106/4/5 96/4/5
f 109/4/5 107/4/5 108/4/5
f 110/1/5 99/1/5 107/1/5
f 110/4/5 105/4/5 104/4/5
f 110/4/5 104/4/5 99/4/5
f 111/4/5 105/4/5 110/4/5
f 112/1/5 101/1/5 105/1/5
f 112/4/5 105/4/5 111/4/5
f 113/3/5 93/3/5 101/3/5
f 113/1/5 101/1/5 112/1/5
f 114/4/5 107/4/5 109/4/5
f 115/4/5 107/4/5 114/4/5
f 116/1/5 111/1/5 110/1/5
f 116/4/5 107/4/5 115/4/5
f 116/1/5 110/1/5 107/1/5
f 117/1/5 111/1/5 116/1/5
f 118/4/5 103/4/5 102/4/5
f 118/4/5 102/4/5 93/4/5
f 119/1/5 95/1/5 103/1/5
f 119/4/5 103/4/5 118/4/5
f 120/1/5 111/1/5 117/1/5
f 120/4/5 117/4/5 116/4/5
f 120/4/5 116/4/5 115/4/5
f 121/4/5 112/4/5 111/4/5
f 121/1/5 111/1/5 120/1/5
f 121/4/5 113/4/5 112/4/5
f 122/4/5 113/4/5 121/4/5
f 123/1/5 122/1/5 121/1/5
f 123/4/5 113/4/5 122/4/5
f 124/4/5 113/4/5 123/4/5
f 125/1/5 115/1/5 114/1/5
f 125/4/5 120/4/5 115/4/5
f 125/4/5 121/4/5 120/4/5
f 126/4/5 121/4/5 125/4/5
f 127/1/5 124/1/5 123/1/5
f 127/4/5 121/4/5 126/4/5
f 127/1/5 123/1/5 121/1/5
f 128/1/5 124/1/5 127/1/5
f 129/4/5 113/4/5 124/4/5
f 129/1/5 124/1/5 128/1/5
f 130/3/5 93/3/5 113/3/5
f 130/4/5 113/4/5 129/4/5
f 131/4/5 118/4/5 93/4/5
f 131/3/5 93/3/5 130/3/5
f 132/2/5 85/2/5 69/2/5
f 132/1/5 109/1/5 108/1/5
f 132/1/5 108/1/5 85/1/5
f 133/1/5 109/1/5 132/1/5
f 134/1/5 126/1/5 125/1/5
f 134/4/5 114/4/5 109/4/5
f 134/1/5 125/1/5 114/1/5
f 135/1/5 126/1/5 134/1/5
f 136/4/5 128/4/5 127/4/5
f 136/1/5 126/1/5 135/1/5
f 136/4/5 127/4/5 126/4/5
f 137/4/5 128/4/5 136/4/5
f 138/4/5 128/4/5 137/4/5
f 139/1/5 130/1/5 129/1/5
f 139/4/5 128/4/5 138/4/5
f 139/1/5 129/1/5 128/1/5
f 140/4/5 131/4/5 130/4/5
f 140/1/5 130/1/5 139/1/5
f 141/4/5 131/4/5 140/4/5
f 142/1/5 109/1/5 133/1/5
f 142/3/5 133/3/5 132/3/5
f 143/4/5 135/4/5 134/4/5
f 143/1/5 109/1/5 142/1/5
f 143/4/5 134/4/5 109/4/5
f 144/1/5 137/1/5 136/1/5
f 144/4/5 135/4/5 143/4/5
f 144/1/5 136/1/5 135/1/5
f 145/4/5 138/4/5 137/4/5
f 145/1/5 137/1/5 144/1/5
f 146/3/5 139/3/5 138/3/5
f 146/4/5 138/4/5 145/4/5
f 146/3/5 140/3/5 139/3/5
f 146/3/5 141/3/5 140/3/5
f 147/3/5 144/3/5 143/3/5
f 147/3/5 141/3/5 146/3/5
f 147/3/5 146/3/5 145/3/5
f 147/3/5 143/3/5 142/3/5
f 147/3/5 145/3/5 144/3/5
f 148/4/5 131/4/5 141/4/5
f 148/3/5 141/3/5 147/3/5
f 149/4/5 118/4/5 131/4/5
f 149/4/5 131/4/5 148/4/5
f 150/1/5 119/1/5 118/1/5
f 150/4/5 118/4/5 149/4/5
f 151/3/5 142/3/5 132/3/5
f 151/3/5 147/3/5 142/3/5
f 151/2/5 132/2/5 69/2/5
f 152/3/5 147/3/5 151/3/5
f 153/3/5 147/3/5 152/3/5
f 154/3/5 147/3/5 153/3/5
f 155/4/5 149/4/5 148/4/5
f 155/3/5 147/3/5 154/3/5
f 155/4/5 148/4/5 147/4/5
f 156/1/5 150/1/5 149/1/5
f 156/4/5 149/4/5 155/4/5
f 157/4/5 154/4/5 153/4/5
f 157/3/5 153/3/5 152/3/5
f 158/1/5 155/1/5 154/1/5
f 158/4/5 154/4/5 157/4/5
f 158/1/5 156/1/5 155/1/5
f 159/1/5 152/1/5 151/1/5
f 159/2/5 151/2/5 69/2/5
f 160/3/5 157/3/5 152/3/5
f 160/1/5 152/1/5 159/1/5
f 161/1/5 158/1/5 157/1/5
f 161/3/5 157/3/5 160/3/5
f 162/2/5 70/2/5 95/2/5
f 162/1/5 158/1/5 161/1/5
f 162/1/5 119/1/5 150/1/5
f 162/1/5 95/1/5 119/1/5
f 162/1/5 156/1/5 158/1/5
f 162/1/5 150/1/5 156/1/5
f 163/2/5 161/2/5 160/2/5
f 163/2/5 160/2/5 159/2/5
f 163/2/5 162/2/5 161/2/5
f 163/2/5 159/2/5 69/2/5
f 164/2/5 70/2/5 162/2/5
f 164/2/5 162/2/5 163/2/5
f 165/2/6 166/2/6 167/2/6
f 167/2/6 166/2/6 168/2/6
f 168/2/6 166/2/6 169/2/6
f 169/2/6 166/2/6 170/2/6
f 170/2/6 166/2/6 171/2/6
f 171/2/6 166/2/6 172/2/6
f 172/2/6 166/2/6 173/2/6
f 165/2/6 167/2/6 174/2/6
f 173/2/6 166/2/6 175/2/6
f 165/2/6 174/2/6 176/2/6
f 165/2/6 176/2/6 177/2/6
f 165/2/6 177/2/6 178/2/6
f 175/2/6 166/2/6 179/2/6
f 179/2/6 166/2/6 180/2/6
f 165/2/6 178/2/6 181/2/6
f 180/2/6 166/2/6 188/2/6
f 186/2/6 187/2/6 189/2/6
f 187/2/6 188/2/6 189/2/6
f 165/2/6 181/2/6 189/2/6
f 181/2/6 182/2/6 189/2/6
f 185/2/6 186/2/6 189/2/6
f 184/2/6 185/2/6 189/2/6
f 183/2/6 184/2/6 189/2/6
f 182/2/6 183/2/6 189/2/6
f 188/2/6 166/2/6 190/2/6
f 189/2/6 188/2/6 190/2/6
f 192/2/6 193/2/6 198/2/6
f 193/3/6 194/3/6 199/3/6
f 198/2/6 193/2/6 199/2/6
f 194/1/6 195/1/6 200/1/6
f 199/3/6 194/3/6 200/3/6
f 195/4/6 196/4/6 201/4/6
f 200/1/6 195/1/6 201/1/6
f 191/3/6 192/3/6 202/3/6
f 192/2/6 198/2/6 202/2/6
f 200/3/6 201/3/6 203/3/6
f 202/2/6 198/2/6 203/2/6
f 198/3/6 199/3/6 203/3/6
f 199/3/6 200/3/6 203/3/6
f 201/4/6 196/4/6 204/4/6
f 196/3/6 197/3/6 205/3/6
f 204/4/6 196/4/6 205/4/6
f 203/3/6 201/3/6 206/3/6
f 202/3/6 203/3/6 206/3/6
f 201/4/6 204/4/6 207/4/6
f 206/3/6 201/3/6 207/3/6
f 207/4/6 204/4/6 208/4/6
f 208/4/6 204/4/6 209/4/6
f 202/3/6 206/3/6 210/3/6
f 191/3/6 202/3/6 210/3/6
f 210/3/6 206/3/6 211/3/6
f 211/3/6 206/3/6 212/3/6
f 212/3/6 206/3/6 213/3/6
f 206/2/6 207/2/6 214/2/6
f 213/3/6 206/3/6 214/3/6
f 207/4/6 208/4/6 215/4/6
f 214/2/6 207/2/6 215/2/6
f 208/2/6 209/2/6 216/2/6
f 215/4/6 208/4/6 216/4/6
f 216/2/6 209/2/6 217/2/6
f 209/4/6 204/4/6 218/4/6
f 217/2/6 209/2/6 218/2/6
f 212/3/6 213/3/6 219/3/6
f 211/4/6 212/4/6 219/4/6
f 213/4/6 214/4/6 220/4/6
f 219/3/6 213/3/6 220/3/6
f 216/2/6 217/2/6 221/2/6
f 214/2/6 215/2/6 221/2/6
f 215/2/6 216/2/6 221/2/6
f 217/4/6 218/4/6 222/4/6
f 221/2/6 217/2/6 222/2/6
f 205/3/6 197/3/6 223/3/6
f 204/3/6 205/3/6 223/3/6
f 223/3/6 197/3/6 224/3/6
f 220/4/6 214/4/6 225/4/6
f 219/4/6 220/4/6 225/4/6
f 214/2/6 221/2/6 226/2/6
f 225/4/6 214/4/6 226/4/6
f 226/2/6 221/2/6 227/2/6
f 221/4/6 222/4/6 228/4/6
f 227/2/6 221/2/6 228/2/6
f 226/2/6 227/2/6 229/2/6
f 225/2/6 226/2/6 229/2/6
f 227/4/6 228/4/6 230/4/6
f 229/2/6 227/2/6 230/2/6
f 222/4/6 218/4/6 231/4/6
f 230/4/6 228/4/6 231/4/6
f 228/4/6 222/4/6 231/4/6
f 218/4/6 204/4/6 231/4/6
f 204/3/6 223/3/6 232/3/6
f 231/4/6 204/4/6 232/4/6
f 232/3/6 223/3/6 233/3/6
f 211/4/6 219/4/6 234/4/6
f 210/1/6 211/1/6 234/1/6
f 219/4/6 225/4/6 234/4/6
f 234/4/6 225/4/6 235/4/6
f 235/4/6 225/4/6 236/4/6
f 225/2/6 229/2/6 237/2/6
f 236/4/6 225/4/6 237/4/6
f 229/4/6 230/4/6 238/4/6
f 230/4/6 231/4/6 238/4/6
f 232/2/6 233/2/6 239/2/6
f 238/4/6 231/4/6 239/4/6
f 231/2/6 232/2/6 239/2/6
f 239/2/6 233/2/6 240/2/6
f 233/3/6 223/3/6 241/3/6
f 240/2/6 233/2/6 241/2/6
f 234/1/6 235/1/6 242/1/6
f 210/1/6 234/1/6 242/1/6
f 242/1/6 235/1/6 243/1/6
f 239/2/6 240/2/6 244/2/6
f 229/4/6 238/4/6 244/4/6
f 238/2/6 239/2/6 244/2/6
f 244/2/6 240/2/6 245/2/6
f 242/4/6 243/4/6 246/4/6
f 243/1/6 235/1/6 247/1/6
f 246/4/6 243/4/6 247/4/6
f 237/2/6 229/2/6 248/2/6
f 236/2/6 237/2/6 248/2/6
f 229/4/6 244/4/6 249/4/6
f 248/2/6 229/2/6 249/2/6
f 244/4/6 245/4/6 249/4/6
f 246/1/6 247/1/6 250/1/6
f 247/1/6 235/1/6 251/1/6
f 250/1/6 247/1/6 251/1/6
f 235/4/6 236/4/6 252/4/6
f 251/1/6 235/1/6 252/1/6
f 236/2/6 248/2/6 253/2/6
f 252/4/6 236/4/6 253/4/6
f 248/4/6 249/4/6 254/4/6
f 253/2/6 248/2/6 254/2/6
f 249/4/6 245/4/6 255/4/6
f 254/4/6 249/4/6 255/4/6
f 245/2/6 240/2/6 256/2/6
f 255/4/6 245/4/6 256/4/6
f 241/3/6 223/3/6 257/3/6
f 240/3/6 241/3/6 257/3/6
f 223/4/6 224/4/6 258/4/6
f 257/3/6 223/3/6 258/3/6
f 258/4/6 224/4/6 259/4/6
f 259/4/6 224/4/6 260/4/6
f 250/3/6 251/3/6 261/3/6
f 251/2/6 252/2/6 261/2/6
f 252/2/6 253/2/6 261/2/6
f 253/4/6 254/4/6 262/4/6
f 261/2/6 253/2/6 262/2/6
f 254/4/6 255/4/6 262/4/6
f 262/4/6 255/4/6 263/4/6
f 255/2/6 256/2/6 264/2/6
f 263/4/6 255/4/6 264/4/6
f 240/3/6 257/3/6 265/3/6
f 264/2/6 256/2/6 265/2/6
f 256/2/6 240/2/6 265/2/6
f 261/3/6 262/3/6 266/3/6
f 262/3/6 263/3/6 266/3/6
f 263/2/6 264/2/6 267/2/6
f 266/3/6 263/3/6 267/3/6
f 267/2/6 264/2/6 268/2/6
f 264/3/6 265/3/6 269/3/6
f 268/2/6 264/2/6 269/2/6
f 257/4/6 258/4/6 270/4/6
f 259/2/6 260/2/6 270/2/6
f 258/4/6 259/4/6 270/4/6
f 270/2/6 260/2/6 271/2/6
f 267/2/6 268/2/6 272/2/6
f 266/2/6 267/2/6 272/2/6
f 268/3/6 269/3/6 273/3/6
f 272/2/6 268/2/6 273/2/6
f 269/3/6 265/3/6 274/3/6
f 273/3/6 269/3/6 274/3/6
f 265/3/6 257/3/6 274/3/6
f 257/4/6 270/4/6 275/4/6
f 274/3/6 257/3/6 275/3/6
f 275/4/6 270/4/6 276/4/6
f 270/1/6 271/1/6 277/1/6
f 276/4/6 270/4/6 277/4/6
f 272/3/6 273/3/6 278/3/6
f 273/3/6 274/3/6 278/3/6
f 275/4/6 276/4/6 279/4/6
f 278/3/6 274/3/6 279/3/6
f 274/4/6 275/4/6 279/4/6
f 279/4/6 276/4/6 280/4/6
f 276/1/6 277/1/6 281/1/6
f 280/4/6 276/4/6 281/4/6
f 261/3/6 266/3/6 282/3/6
f 266/2/6 272/2/6 283/2/6
f 282/3/6 266/3/6 283/3/6
f 272/3/6 278/3/6 284/3/6
f 283/2/6 272/2/6 284/2/6
f 284/3/6 278/3/6 285/3/6
f 285/3/6 278/3/6 286/3/6
f 279/4/6 280/4/6 287/4/6
f 286/3/6 278/3/6 287/3/6
f 278/4/6 279/4/6 287/4/6
f 287/4/6 280/4/6 288/4/6
f 280/1/6 281/1/6 289/1/6
f 288/4/6 280/4/6 289/4/6
f 250/3/6 261/3/6 290/3/6
f 261/3/6 282/3/6 290/3/6
f 282/4/6 283/4/6 291/4/6
f 290/3/6 282/3/6 291/3/6
f 283/2/6 284/2/6 292/2/6
f 291/4/6 283/4/6 292/4/6
f 284/4/6 285/4/6 293/4/6
f 292/2/6 284/2/6 293/2/6
f 285/1/6 286/1/6 294/1/6
f 293/4/6 285/4/6 294/4/6
f 287/4/6 288/4/6 295/4/6
f 294/1/6 286/1/6 295/1/6
f 286/4/6 287/4/6 295/4/6
f 288/1/6 289/1/6 296/1/6
f 295/4/6 288/4/6 296/4/6
f 281/1/6 277/1/6 297/1/6
f 296/1/6 289/1/6 297/1/6
f 289/1/6 281/1/6 297/1/6
f 277/1/6 271/1/6 297/1/6
