# MagicaVoxel @ Ephtracy

# group
o 

# material
mtllib Stenka1-37.mtl
usemtl palette

# normals
vn -1 0 0
vn 1 0 0
vn 0 0 1
vn 0 0 -1
vn 0 -1 0
vn 0 1 0

# texcoords
vt 0.978516 0.5
vt 0.982422 0.5
vt 0.986328 0.5

# verts
v 0.3 0.1 -2
v 0.3 0.1 -2.9
v 0.3 0.3 -2
v 0.3 0.3 -2.9
v 0.3 0.4 -2
v 0.3 0.4 -2.9
v 0.3 0.7 -2
v 0.3 0.7 -2.9
v 0.3 0.8 -2
v 0.3 0.8 -2.9
v 0.3 1.1 -2
v 0.3 1.1 -2.9
v 0.3 1.2 -2
v 0.3 1.2 -2.9
v 0.3 1.5 -2
v 0.3 1.5 -2.9
v 0.3 1.6 -2
v 0.3 1.6 -2.9
v 0.3 1.9 -2
v 0.3 1.9 -2.9
v 0.3 2 -2
v 0.3 2 -2.9
v 0.3 2.3 -2
v 0.3 2.3 -2.9
v 0.3 2.4 -2
v 0.3 2.4 -2.9
v 0.3 2.7 -2
v 0.3 2.7 -2.9
v 0.3 2.8 -2
v 0.3 2.8 -2.9
v 0.3 3 -2
v 0.3 3 -2.9
v 0.4 3 -2.1
v 0.4 3 -2.8
v 0.4 3.1 -2.1
v 0.4 3.1 -2.8
v 0.5 0.3 -2
v 0.5 0.3 -2.1
v 0.5 2.8 -2
v 0.5 2.8 -2.1
v 0.5 3.1 -2.3
v 0.5 3.1 -2.6
v 0.5 3.2 -2.3
v 0.5 3.2 -2.6
v 0.6 3.1 -2.2
v 0.6 3.1 -2.3
v 0.6 3.1 -2.6
v 0.6 3.1 -2.7
v 0.6 3.2 -2.2
v 0.6 3.2 -2.3
v 0.6 3.2 -2.6
v 0.6 3.2 -2.7
v 0.9 0.4 -2
v 0.9 0.4 -2.1
v 0.9 2.7 -2
v 0.9 2.7 -2.1
v 1.1 0.2 -2
v 1.1 0.2 -2.1
v 1.1 0.3 -2
v 1.1 0.3 -2.1
v 1.1 0.4 -2
v 1.1 0.4 -2.1
v 1.1 0.7 -2
v 1.1 0.7 -2.1
v 1.1 0.8 -2
v 1.1 0.8 -2.1
v 1.1 1.1 -2
v 1.1 1.1 -2.1
v 1.1 1.2 -2
v 1.1 1.2 -2.1
v 1.1 1.5 -2
v 1.1 1.5 -2.1
v 1.1 1.6 -2
v 1.1 1.6 -2.1
v 1.1 1.9 -2
v 1.1 1.9 -2.1
v 1.1 2 -2
v 1.1 2 -2.1
v 1.1 2.3 -2
v 1.1 2.3 -2.1
v 1.1 2.4 -2
v 1.1 2.4 -2.1
v 1.1 2.7 -2
v 1.1 2.7 -2.1
v 1.1 2.8 -2
v 1.1 2.8 -2.1
v 1.1 2.9 -2
v 1.1 2.9 -2.1
v 0.4 0.2 -2
v 0.4 0.2 -2.1
v 0.4 0.3 -2
v 0.4 0.3 -2.1
v 0.4 0.4 -2
v 0.4 0.4 -2.1
v 0.4 0.7 -2
v 0.4 0.7 -2.1
v 0.4 0.8 -2
v 0.4 0.8 -2.1
v 0.4 1.1 -2
v 0.4 1.1 -2.1
v 0.4 1.2 -2
v 0.4 1.2 -2.1
v 0.4 1.5 -2
v 0.4 1.5 -2.1
v 0.4 1.6 -2
v 0.4 1.6 -2.1
v 0.4 1.9 -2
v 0.4 1.9 -2.1
v 0.4 2 -2
v 0.4 2 -2.1
v 0.4 2.3 -2
v 0.4 2.3 -2.1
v 0.4 2.4 -2
v 0.4 2.4 -2.1
v 0.4 2.7 -2
v 0.4 2.7 -2.1
v 0.4 2.8 -2
v 0.4 2.8 -2.1
v 0.4 2.9 -2
v 0.4 2.9 -2.1
v 0.6 0.4 -2
v 0.6 0.4 -2.1
v 0.6 2.7 -2
v 0.6 2.7 -2.1
v 0.9 3.1 -2.2
v 0.9 3.1 -2.3
v 0.9 3.1 -2.6
v 0.9 3.1 -2.7
v 0.9 3.2 -2.2
v 0.9 3.2 -2.3
v 0.9 3.2 -2.6
v 0.9 3.2 -2.7
v 1 0.3 -2
v 1 0.3 -2.1
v 1 2.8 -2
v 1 2.8 -2.1
v 1 3.1 -2.3
v 1 3.1 -2.6
v 1 3.2 -2.3
v 1 3.2 -2.6
v 1.1 3 -2.1
v 1.1 3 -2.8
v 1.1 3.1 -2.1
v 1.1 3.1 -2.8
v 1.2 0.1 -2
v 1.2 0.1 -2.9
v 1.2 0.3 -2
v 1.2 0.3 -2.9
v 1.2 0.4 -2
v 1.2 0.4 -2.9
v 1.2 0.7 -2
v 1.2 0.7 -2.9
v 1.2 0.8 -2
v 1.2 0.8 -2.9
v 1.2 1.1 -2
v 1.2 1.1 -2.9
v 1.2 1.2 -2
v 1.2 1.2 -2.9
v 1.2 1.5 -2
v 1.2 1.5 -2.9
v 1.2 1.6 -2
v 1.2 1.6 -2.9
v 1.2 1.9 -2
v 1.2 1.9 -2.9
v 1.2 2 -2
v 1.2 2 -2.9
v 1.2 2.3 -2
v 1.2 2.3 -2.9
v 1.2 2.4 -2
v 1.2 2.4 -2.9
v 1.2 2.7 -2
v 1.2 2.7 -2.9
v 1.2 2.8 -2
v 1.2 2.8 -2.9
v 1.2 3 -2
v 1.2 3 -2.9
v 0.3 0.1 -2
v 0.3 0.3 -2
v 0.3 0.4 -2
v 0.3 0.7 -2
v 0.3 0.8 -2
v 0.3 1.1 -2
v 0.3 1.2 -2
v 0.3 1.5 -2
v 0.3 1.6 -2
v 0.3 1.9 -2
v 0.3 2 -2
v 0.3 2.3 -2
v 0.3 2.4 -2
v 0.3 2.7 -2
v 0.3 2.8 -2
v 0.3 3 -2
v 0.4 0.2 -2
v 0.4 0.3 -2
v 0.4 0.4 -2
v 0.4 0.7 -2
v 0.4 0.8 -2
v 0.4 1.1 -2
v 0.4 1.2 -2
v 0.4 1.5 -2
v 0.4 1.6 -2
v 0.4 1.9 -2
v 0.4 2 -2
v 0.4 2.3 -2
v 0.4 2.4 -2
v 0.4 2.7 -2
v 0.4 2.8 -2
v 0.4 2.9 -2
v 0.5 0.3 -2
v 0.5 2.8 -2
v 0.6 0.4 -2
v 0.6 2.7 -2
v 0.9 0.4 -2
v 0.9 2.7 -2
v 1 0.3 -2
v 1 2.8 -2
v 1.1 0.2 -2
v 1.1 0.3 -2
v 1.1 0.4 -2
v 1.1 0.7 -2
v 1.1 0.8 -2
v 1.1 1.1 -2
v 1.1 1.2 -2
v 1.1 1.5 -2
v 1.1 1.6 -2
v 1.1 1.9 -2
v 1.1 2 -2
v 1.1 2.3 -2
v 1.1 2.4 -2
v 1.1 2.7 -2
v 1.1 2.8 -2
v 1.1 2.9 -2
v 1.2 0.1 -2
v 1.2 0.3 -2
v 1.2 0.4 -2
v 1.2 0.7 -2
v 1.2 0.8 -2
v 1.2 1.1 -2
v 1.2 1.2 -2
v 1.2 1.5 -2
v 1.2 1.6 -2
v 1.2 1.9 -2
v 1.2 2 -2
v 1.2 2.3 -2
v 1.2 2.4 -2
v 1.2 2.7 -2
v 1.2 2.8 -2
v 1.2 3 -2
v 0.4 0.2 -2.1
v 0.4 0.3 -2.1
v 0.4 0.4 -2.1
v 0.4 0.7 -2.1
v 0.4 0.8 -2.1
v 0.4 1.1 -2.1
v 0.4 1.2 -2.1
v 0.4 1.5 -2.1
v 0.4 1.6 -2.1
v 0.4 1.9 -2.1
v 0.4 2 -2.1
v 0.4 2.3 -2.1
v 0.4 2.4 -2.1
v 0.4 2.7 -2.1
v 0.4 2.8 -2.1
v 0.4 2.9 -2.1
v 0.4 3 -2.1
v 0.4 3.1 -2.1
v 0.5 0.3 -2.1
v 0.5 2.8 -2.1
v 0.6 0.4 -2.1
v 0.6 2.7 -2.1
v 0.9 0.4 -2.1
v 0.9 2.7 -2.1
v 1 0.3 -2.1
v 1 2.8 -2.1
v 1.1 0.2 -2.1
v 1.1 0.3 -2.1
v 1.1 0.4 -2.1
v 1.1 0.7 -2.1
v 1.1 0.8 -2.1
v 1.1 1.1 -2.1
v 1.1 1.2 -2.1
v 1.1 1.5 -2.1
v 1.1 1.6 -2.1
v 1.1 1.9 -2.1
v 1.1 2 -2.1
v 1.1 2.3 -2.1
v 1.1 2.4 -2.1
v 1.1 2.7 -2.1
v 1.1 2.8 -2.1
v 1.1 2.9 -2.1
v 1.1 3 -2.1
v 1.1 3.1 -2.1
v 0.6 3.1 -2.2
v 0.6 3.2 -2.2
v 0.9 3.1 -2.2
v 0.9 3.2 -2.2
v 0.5 3.1 -2.3
v 0.5 3.2 -2.3
v 0.6 3.1 -2.3
v 0.6 3.2 -2.3
v 0.9 3.1 -2.3
v 0.9 3.2 -2.3
v 1 3.1 -2.3
v 1 3.2 -2.3
v 0.5 3.1 -2.6
v 0.5 3.2 -2.6
v 0.6 3.1 -2.6
v 0.6 3.2 -2.6
v 0.9 3.1 -2.6
v 0.9 3.2 -2.6
v 1 3.1 -2.6
v 1 3.2 -2.6
v 0.6 3.1 -2.7
v 0.6 3.2 -2.7
v 0.9 3.1 -2.7
v 0.9 3.2 -2.7
v 0.4 3 -2.8
v 0.4 3.1 -2.8
v 1.1 3 -2.8
v 1.1 3.1 -2.8
v 0.3 0.1 -2.9
v 0.3 0.3 -2.9
v 0.3 0.4 -2.9
v 0.3 0.7 -2.9
v 0.3 0.8 -2.9
v 0.3 1.1 -2.9
v 0.3 1.2 -2.9
v 0.3 1.5 -2.9
v 0.3 1.6 -2.9
v 0.3 1.9 -2.9
v 0.3 2 -2.9
v 0.3 2.3 -2.9
v 0.3 2.4 -2.9
v 0.3 2.7 -2.9
v 0.3 2.8 -2.9
v 0.3 3 -2.9
v 1.2 0.1 -2.9
v 1.2 0.3 -2.9
v 1.2 0.4 -2.9
v 1.2 0.7 -2.9
v 1.2 0.8 -2.9
v 1.2 1.1 -2.9
v 1.2 1.2 -2.9
v 1.2 1.5 -2.9
v 1.2 1.6 -2.9
v 1.2 1.9 -2.9
v 1.2 2 -2.9
v 1.2 2.3 -2.9
v 1.2 2.4 -2.9
v 1.2 2.7 -2.9
v 1.2 2.8 -2.9
v 1.2 3 -2.9
v 0.3 0.1 -2
v 1.2 0.1 -2
v 0.4 0.1 -2.1
v 1.1 0.1 -2.1
v 0.4 0.1 -2.8
v 1.1 0.1 -2.8
v 0.3 0.1 -2.9
v 1.2 0.1 -2.9
v 0.5 0.3 -2
v 1 0.3 -2
v 0.5 0.3 -2.1
v 1 0.3 -2.1
v 0.6 2.7 -2
v 0.9 2.7 -2
v 0.6 2.7 -2.1
v 0.9 2.7 -2.1
v 0.4 2.9 -2
v 1.1 2.9 -2
v 0.4 2.9 -2.1
v 1.1 2.9 -2.1
v 0.4 0.2 -2
v 1.1 0.2 -2
v 0.4 0.2 -2.1
v 1.1 0.2 -2.1
v 0.6 0.4 -2
v 0.9 0.4 -2
v 0.6 0.4 -2.1
v 0.9 0.4 -2.1
v 0.5 2.8 -2
v 1 2.8 -2
v 0.5 2.8 -2.1
v 1 2.8 -2.1
v 0.3 3 -2
v 1.2 3 -2
v 0.4 3 -2.1
v 1.1 3 -2.1
v 0.4 3 -2.8
v 1.1 3 -2.8
v 0.3 3 -2.9
v 1.2 3 -2.9
v 0.4 3.1 -2.1
v 1.1 3.1 -2.1
v 0.6 3.1 -2.2
v 0.9 3.1 -2.2
v 0.5 3.1 -2.3
v 0.6 3.1 -2.3
v 0.9 3.1 -2.3
v 1 3.1 -2.3
v 0.5 3.1 -2.6
v 0.6 3.1 -2.6
v 0.9 3.1 -2.6
v 1 3.1 -2.6
v 0.6 3.1 -2.7
v 0.9 3.1 -2.7
v 0.4 3.1 -2.8
v 1.1 3.1 -2.8
v 0.6 3.2 -2.2
v 0.9 3.2 -2.2
v 0.5 3.2 -2.3
v 0.6 3.2 -2.3
v 0.9 3.2 -2.3
v 1 3.2 -2.3
v 0.5 3.2 -2.6
v 0.6 3.2 -2.6
v 0.9 3.2 -2.6
v 1 3.2 -2.6
v 0.6 3.2 -2.7
v 0.9 3.2 -2.7

# faces
f 3/2/1 2/2/1 1/2/1
f 4/2/1 2/2/1 3/2/1
f 5/3/1 4/3/1 3/3/1
f 6/3/1 4/3/1 5/3/1
f 7/2/1 6/2/1 5/2/1
f 8/2/1 6/2/1 7/2/1
f 9/3/1 8/3/1 7/3/1
f 10/3/1 8/3/1 9/3/1
f 11/2/1 10/2/1 9/2/1
f 12/2/1 10/2/1 11/2/1
f 13/3/1 12/3/1 11/3/1
f 14/3/1 12/3/1 13/3/1
f 15/2/1 14/2/1 13/2/1
f 16/2/1 14/2/1 15/2/1
f 17/3/1 16/3/1 15/3/1
f 18/3/1 16/3/1 17/3/1
f 19/2/1 18/2/1 17/2/1
f 20/2/1 18/2/1 19/2/1
f 21/3/1 20/3/1 19/3/1
f 22/3/1 20/3/1 21/3/1
f 23/2/1 22/2/1 21/2/1
f 24/2/1 22/2/1 23/2/1
f 25/3/1 24/3/1 23/3/1
f 26/3/1 24/3/1 25/3/1
f 27/2/1 26/2/1 25/2/1
f 28/2/1 26/2/1 27/2/1
f 29/3/1 28/3/1 27/3/1
f 30/3/1 28/3/1 29/3/1
f 31/2/1 30/2/1 29/2/1
f 32/2/1 30/2/1 31/2/1
f 35/3/1 34/3/1 33/3/1
f 36/3/1 34/3/1 35/3/1
f 39/1/1 38/1/1 37/1/1
f 40/1/1 38/1/1 39/1/1
f 43/3/1 42/3/1 41/3/1
f 44/3/1 42/3/1 43/3/1
f 49/3/1 46/3/1 45/3/1
f 50/3/1 46/3/1 49/3/1
f 51/3/1 48/3/1 47/3/1
f 52/3/1 48/3/1 51/3/1
f 55/1/1 54/1/1 53/1/1
f 56/1/1 54/1/1 55/1/1
f 59/2/1 58/2/1 57/2/1
f 60/2/1 58/2/1 59/2/1
f 61/3/1 60/3/1 59/3/1
f 62/3/1 60/3/1 61/3/1
f 63/2/1 62/2/1 61/2/1
f 64/2/1 62/2/1 63/2/1
f 65/3/1 64/3/1 63/3/1
f 66/3/1 64/3/1 65/3/1
f 67/2/1 66/2/1 65/2/1
f 68/2/1 66/2/1 67/2/1
f 69/3/1 68/3/1 67/3/1
f 70/3/1 68/3/1 69/3/1
f 71/2/1 70/2/1 69/2/1
f 72/2/1 70/2/1 71/2/1
f 73/3/1 72/3/1 71/3/1
f 74/3/1 72/3/1 73/3/1
f 75/2/1 74/2/1 73/2/1
f 76/2/1 74/2/1 75/2/1
f 77/3/1 76/3/1 75/3/1
f 78/3/1 76/3/1 77/3/1
f 79/2/1 78/2/1 77/2/1
f 80/2/1 78/2/1 79/2/1
f 81/3/1 80/3/1 79/3/1
f 82/3/1 80/3/1 81/3/1
f 83/2/1 82/2/1 81/2/1
f 84/2/1 82/2/1 83/2/1
f 85/3/1 84/3/1 83/3/1
f 86/3/1 84/3/1 85/3/1
f 87/2/1 86/2/1 85/2/1
f 88/2/1 86/2/1 87/2/1
f 89/2/2 90/2/2 91/2/2
f 91/2/2 90/2/2 92/2/2
f 91/3/2 92/3/2 93/3/2
f 93/3/2 92/3/2 94/3/2
f 93/2/2 94/2/2 95/2/2
f 95/2/2 94/2/2 96/2/2
f 95/3/2 96/3/2 97/3/2
f 97/3/2 96/3/2 98/3/2
f 97/2/2 98/2/2 99/2/2
f 99/2/2 98/2/2 100/2/2
f 99/3/2 100/3/2 101/3/2
f 101/3/2 100/3/2 102/3/2
f 101/2/2 102/2/2 103/2/2
f 103/2/2 102/2/2 104/2/2
f 103/3/2 104/3/2 105/3/2
f 105/3/2 104/3/2 106/3/2
f 105/2/2 106/2/2 107/2/2
f 107/2/2 106/2/2 108/2/2
f 107/3/2 108/3/2 109/3/2
f 109/3/2 108/3/2 110/3/2
f 109/2/2 110/2/2 111/2/2
f 111/2/2 110/2/2 112/2/2
f 111/3/2 112/3/2 113/3/2
f 113/3/2 112/3/2 114/3/2
f 113/2/2 114/2/2 115/2/2
f 115/2/2 114/2/2 116/2/2
f 115/3/2 116/3/2 117/3/2
f 117/3/2 116/3/2 118/3/2
f 117/2/2 118/2/2 119/2/2
f 119/2/2 118/2/2 120/2/2
f 121/1/2 122/1/2 123/1/2
f 123/1/2 122/1/2 124/1/2
f 125/3/2 126/3/2 129/3/2
f 129/3/2 126/3/2 130/3/2
f 127/3/2 128/3/2 131/3/2
f 131/3/2 128/3/2 132/3/2
f 133/1/2 134/1/2 135/1/2
f 135/1/2 134/1/2 136/1/2
f 137/3/2 138/3/2 139/3/2
f 139/3/2 138/3/2 140/3/2
f 141/3/2 142/3/2 143/3/2
f 143/3/2 142/3/2 144/3/2
f 145/2/2 146/2/2 147/2/2
f 147/2/2 146/2/2 148/2/2
f 147/3/2 148/3/2 149/3/2
f 149/3/2 148/3/2 150/3/2
f 149/2/2 150/2/2 151/2/2
f 151/2/2 150/2/2 152/2/2
f 151/3/2 152/3/2 153/3/2
f 153/3/2 152/3/2 154/3/2
f 153/2/2 154/2/2 155/2/2
f 155/2/2 154/2/2 156/2/2
f 155/3/2 156/3/2 157/3/2
f 157/3/2 156/3/2 158/3/2
f 157/2/2 158/2/2 159/2/2
f 159/2/2 158/2/2 160/2/2
f 159/3/2 160/3/2 161/3/2
f 161/3/2 160/3/2 162/3/2
f 161/2/2 162/2/2 163/2/2
f 163/2/2 162/2/2 164/2/2
f 163/3/2 164/3/2 165/3/2
f 165/3/2 164/3/2 166/3/2
f 165/2/2 166/2/2 167/2/2
f 167/2/2 166/2/2 168/2/2
f 167/3/2 168/3/2 169/3/2
f 169/3/2 168/3/2 170/3/2
f 169/2/2 170/2/2 171/2/2
f 171/2/2 170/2/2 172/2/2
f 171/3/2 172/3/2 173/3/2
f 173/3/2 172/3/2 174/3/2
f 173/2/2 174/2/2 175/2/2
f 175/2/2 174/2/2 176/2/2
f 193/2/3 178/2/3 177/2/3
f 194/3/3 179/3/3 178/3/3
f 194/2/3 178/2/3 193/2/3
f 195/2/3 180/2/3 179/2/3
f 195/3/3 179/3/3 194/3/3
f 196/3/3 181/3/3 180/3/3
f 196/2/3 180/2/3 195/2/3
f 197/2/3 182/2/3 181/2/3
f 197/3/3 181/3/3 196/3/3
f 198/3/3 183/3/3 182/3/3
f 198/2/3 182/2/3 197/2/3
f 199/2/3 184/2/3 183/2/3
f 199/3/3 183/3/3 198/3/3
f 200/3/3 185/3/3 184/3/3
f 200/2/3 184/2/3 199/2/3
f 201/2/3 186/2/3 185/2/3
f 201/3/3 185/3/3 200/3/3
f 202/3/3 187/3/3 186/3/3
f 202/2/3 186/2/3 201/2/3
f 203/2/3 188/2/3 187/2/3
f 203/3/3 187/3/3 202/3/3
f 204/3/3 189/3/3 188/3/3
f 204/2/3 188/2/3 203/2/3
f 205/2/3 190/2/3 189/2/3
f 205/3/3 189/3/3 204/3/3
f 206/3/3 191/3/3 190/3/3
f 206/2/3 190/2/3 205/2/3
f 207/2/3 192/2/3 191/2/3
f 207/3/3 191/3/3 206/3/3
f 208/2/3 192/2/3 207/2/3
f 211/1/3 210/1/3 209/1/3
f 212/1/3 210/1/3 211/1/3
f 213/1/3 211/1/3 209/1/3
f 214/1/3 210/1/3 212/1/3
f 215/1/3 213/1/3 209/1/3
f 215/1/3 214/1/3 213/1/3
f 216/1/3 210/1/3 214/1/3
f 216/1/3 214/1/3 215/1/3
f 217/2/3 193/2/3 177/2/3
f 232/2/3 192/2/3 208/2/3
f 233/2/3 217/2/3 177/2/3
f 233/2/3 218/2/3 217/2/3
f 234/3/3 219/3/3 218/3/3
f 234/2/3 218/2/3 233/2/3
f 235/2/3 220/2/3 219/2/3
f 235/3/3 219/3/3 234/3/3
f 236/3/3 221/3/3 220/3/3
f 236/2/3 220/2/3 235/2/3
f 237/2/3 222/2/3 221/2/3
f 237/3/3 221/3/3 236/3/3
f 238/3/3 223/3/3 222/3/3
f 238/2/3 222/2/3 237/2/3
f 239/2/3 224/2/3 223/2/3
f 239/3/3 223/3/3 238/3/3
f 240/3/3 225/3/3 224/3/3
f 240/2/3 224/2/3 239/2/3
f 241/2/3 226/2/3 225/2/3
f 241/3/3 225/3/3 240/3/3
f 242/3/3 227/3/3 226/3/3
f 242/2/3 226/2/3 241/2/3
f 243/2/3 228/2/3 227/2/3
f 243/3/3 227/3/3 242/3/3
f 244/3/3 229/3/3 228/3/3
f 244/2/3 228/2/3 243/2/3
f 245/2/3 230/2/3 229/2/3
f 245/3/3 229/3/3 244/3/3
f 246/3/3 231/3/3 230/3/3
f 246/2/3 230/2/3 245/2/3
f 247/2/3 232/2/3 231/2/3
f 247/3/3 231/3/3 246/3/3
f 248/2/3 192/2/3 232/2/3
f 248/2/3 232/2/3 247/2/3
f 267/3/3 250/3/3 249/3/3
f 267/3/3 251/3/3 250/3/3
f 267/3/3 264/3/3 263/3/3
f 267/3/3 263/3/3 262/3/3
f 267/3/3 262/3/3 261/3/3
f 267/3/3 261/3/3 260/3/3
f 267/3/3 260/3/3 259/3/3
f 267/3/3 259/3/3 258/3/3
f 267/3/3 258/3/3 257/3/3
f 267/3/3 257/3/3 256/3/3
f 267/3/3 256/3/3 255/3/3
f 267/3/3 255/3/3 254/3/3
f 267/3/3 254/3/3 253/3/3
f 267/3/3 253/3/3 252/3/3
f 267/3/3 252/3/3 251/3/3
f 268/3/3 264/3/3 267/3/3
f 271/3/3 270/3/3 269/3/3
f 272/3/3 270/3/3 271/3/3
f 273/3/3 267/3/3 249/3/3
f 274/3/3 264/3/3 268/3/3
f 275/3/3 273/3/3 249/3/3
f 275/3/3 274/3/3 273/3/3
f 276/3/3 274/3/3 275/3/3
f 277/3/3 274/3/3 276/3/3
f 278/3/3 274/3/3 277/3/3
f 279/3/3 274/3/3 278/3/3
f 280/3/3 274/3/3 279/3/3
f 281/3/3 274/3/3 280/3/3
f 282/3/3 274/3/3 281/3/3
f 283/3/3 274/3/3 282/3/3
f 284/3/3 274/3/3 283/3/3
f 285/3/3 274/3/3 284/3/3
f 286/3/3 274/3/3 285/3/3
f 287/3/3 274/3/3 286/3/3
f 288/3/3 274/3/3 287/3/3
f 289/3/3 264/3/3 274/3/3
f 289/3/3 274/3/3 288/3/3
f 290/3/3 264/3/3 289/3/3
f 291/3/3 266/3/3 265/3/3
f 292/3/3 266/3/3 291/3/3
f 295/3/3 294/3/3 293/3/3
f 296/3/3 294/3/3 295/3/3
f 299/3/3 298/3/3 297/3/3
f 300/3/3 298/3/3 299/3/3
f 303/3/3 302/3/3 301/3/3
f 304/3/3 302/3/3 303/3/3
f 305/3/4 306/3/4 307/3/4
f 307/3/4 306/3/4 308/3/4
f 309/3/4 310/3/4 311/3/4
f 311/3/4 310/3/4 312/3/4
f 313/3/4 314/3/4 315/3/4
f 315/3/4 314/3/4 316/3/4
f 317/3/4 318/3/4 319/3/4
f 319/3/4 318/3/4 320/3/4
f 321/2/4 322/2/4 337/2/4
f 322/3/4 323/3/4 338/3/4
f 337/2/4 322/2/4 338/2/4
f 323/2/4 324/2/4 339/2/4
f 338/3/4 323/3/4 339/3/4
f 324/3/4 325/3/4 340/3/4
f 339/2/4 324/2/4 340/2/4
f 325/2/4 326/2/4 341/2/4
f 340/3/4 325/3/4 341/3/4
f 326/3/4 327/3/4 342/3/4
f 341/2/4 326/2/4 342/2/4
f 327/2/4 328/2/4 343/2/4
f 342/3/4 327/3/4 343/3/4
f 328/3/4 329/3/4 344/3/4
f 343/2/4 328/2/4 344/2/4
f 329/2/4 330/2/4 345/2/4
f 344/3/4 329/3/4 345/3/4
f 330/3/4 331/3/4 346/3/4
f 345/2/4 330/2/4 346/2/4
f 331/2/4 332/2/4 347/2/4
f 346/3/4 331/3/4 347/3/4
f 332/3/4 333/3/4 348/3/4
f 347/2/4 332/2/4 348/2/4
f 333/2/4 334/2/4 349/2/4
f 348/3/4 333/3/4 349/3/4
f 334/3/4 335/3/4 350/3/4
f 349/2/4 334/2/4 350/2/4
f 335/2/4 336/2/4 351/2/4
f 350/3/4 335/3/4 351/3/4
f 351/2/4 336/2/4 352/2/4
f 355/2/5 354/2/5 353/2/5
f 356/2/5 354/2/5 355/2/5
f 357/2/5 355/2/5 353/2/5
f 357/3/5 356/3/5 355/3/5
f 358/2/5 354/2/5 356/2/5
f 358/3/5 356/3/5 357/3/5
f 359/2/5 357/2/5 353/2/5
f 359/2/5 358/2/5 357/2/5
f 360/2/5 354/2/5 358/2/5
f 360/2/5 358/2/5 359/2/5
f 363/1/5 362/1/5 361/1/5
f 364/1/5 362/1/5 363/1/5
f 367/1/5 366/1/5 365/1/5
f 368/1/5 366/1/5 367/1/5
f 371/2/5 370/2/5 369/2/5
f 372/2/5 370/2/5 371/2/5
f 373/2/6 374/2/6 375/2/6
f 375/2/6 374/2/6 376/2/6
f 377/1/6 378/1/6 379/1/6
f 379/1/6 378/1/6 380/1/6
f 381/1/6 382/1/6 383/1/6
f 383/1/6 382/1/6 384/1/6
f 385/2/6 386/2/6 387/2/6
f 387/2/6 386/2/6 388/2/6
f 385/2/6 387/2/6 389/2/6
f 388/2/6 386/2/6 390/2/6
f 385/2/6 389/2/6 391/2/6
f 389/2/6 390/2/6 391/2/6
f 390/2/6 386/2/6 392/2/6
f 391/2/6 390/2/6 392/2/6
f 393/3/6 394/3/6 395/3/6
f 395/3/6 394/3/6 396/3/6
f 393/3/6 395/3/6 397/3/6
f 397/3/6 395/3/6 398/3/6
f 396/3/6 394/3/6 399/3/6
f 399/3/6 394/3/6 400/3/6
f 393/3/6 397/3/6 401/3/6
f 400/3/6 394/3/6 404/3/6
f 401/3/6 402/3/6 405/3/6
f 403/3/6 404/3/6 406/3/6
f 401/3/6 405/3/6 407/3/6
f 405/3/6 406/3/6 407/3/6
f 393/3/6 401/3/6 407/3/6
f 406/3/6 404/3/6 408/3/6
f 407/3/6 406/3/6 408/3/6
f 404/3/6 394/3/6 408/3/6
f 409/3/6 410/3/6 412/3/6
f 412/3/6 410/3/6 413/3/6
f 411/3/6 412/3/6 415/3/6
f 413/3/6 414/3/6 415/3/6
f 412/3/6 413/3/6 415/3/6
f 415/3/6 414/3/6 416/3/6
f 416/3/6 414/3/6 417/3/6
f 417/3/6 414/3/6 418/3/6
f 416/3/6 417/3/6 419/3/6
f 419/3/6 417/3/6 420/3/6
