# MagicaVoxel @ Ephtracy

# group
o 

# material
mtllib Stenka1-5.mtl
usemtl palette

# normals
vn -1 0 0
vn 1 0 0
vn 0 0 1
vn 0 0 -1
vn 0 -1 0
vn 0 1 0

# texcoords
vt 0.525391 0.5
vt 0.533203 0.5
vt 0.552734 0.5
vt 0.880859 0.5
vt 0.884766 0.5
vt 0.943359 0.5
vt 0.951172 0.5
vt 0.955078 0.5
vt 0.982422 0.5
vt 0.986328 0.5

# verts
v -3.2 0 7.3
v -3.2 0 5.3
v -3.2 0.1 7.3
v -3.2 0.1 7.2
v -3.2 0.1 7.1
v -3.2 0.1 7
v -3.2 0.1 6.9
v -3.2 0.1 6.8
v -3.2 0.1 6.5
v -3.2 0.1 6.2
v -3.2 0.1 6.1
v -3.2 0.1 5.8
v -3.2 0.1 5.7
v -3.2 0.1 5.4
v -3.2 0.2 7.3
v -3.2 0.2 7.2
v -3.2 0.2 7.1
v -3.2 0.2 7
v -3.2 0.2 6.9
v -3.2 0.2 6.8
v -3.2 0.2 6.5
v -3.2 0.2 6.2
v -3.2 0.2 6.1
v -3.2 0.2 5.8
v -3.2 0.2 5.7
v -3.2 0.2 5.4
v -3.2 0.2 5.3
v -2.9 0.1 7.3
v -2.9 0.1 7.1
v -2.9 0.1 7
v -2.9 0.1 6.9
v -2.9 0.1 6.7
v -2.9 0.1 6.6
v -2.9 0.1 6.5
v -2.9 0.1 6.2
v -2.9 0.1 6.1
v -2.9 0.1 6
v -2.9 0.1 5.8
v -2.9 0.1 5.7
v -2.9 0.1 5.4
v -2.9 0.1 5.3
v -2.9 0.2 7.3
v -2.9 0.2 7.1
v -2.9 0.2 7
v -2.9 0.2 6.9
v -2.9 0.2 6.7
v -2.9 0.2 6.6
v -2.9 0.2 6.5
v -2.9 0.2 6.2
v -2.9 0.2 6.1
v -2.9 0.2 6
v -2.9 0.2 5.8
v -2.9 0.2 5.7
v -2.9 0.2 5.4
v -2.9 0.2 5.3
v -1.2 0 7.3
v -1.2 0 7
v -1.2 0 6.3
v -1.2 0 5.3
v -1.2 0.1 7.3
v -1.2 0.1 7
v -1.2 0.1 6.3
v -1.2 0.1 5.3
v -3.2 0 7.3
v -3.2 0.1 7.3
v -3.2 0.2 7.3
v -2.9 0 7.3
v -2.9 0.1 7.3
v -2.9 0.2 7.3
v -2.7 0 7.3
v -2.7 0.1 7.3
v -2.6 0 7.3
v -2.6 0.1 7.3
v -2.3 0 7.3
v -2.3 0.1 7.3
v -2.2 0 7.3
v -2.2 0.1 7.3
v -1.9 0 7.3
v -1.9 0.1 7.3
v -1.8 0 7.3
v -1.8 0.1 7.3
v -1.6 0 7.3
v -1.6 0.1 7.3
v -1.5 0 7.3
v -1.5 0.1 7.3
v -1.4 0 7.3
v -1.4 0.1 7.3
v -1.2 0 7.3
v -1.2 0.1 7.3
v -3.2 0 5.3
v -3.2 0.2 5.3
v -3.1 0.1 5.3
v -3.1 0.2 5.3
v -2.9 0 5.3
v -2.9 0.1 5.3
v -2.9 0.2 5.3
v -2.7 0 5.3
v -2.7 0.1 5.3
v -2.6 0 5.3
v -2.6 0.1 5.3
v -2.3 0 5.3
v -2.3 0.1 5.3
v -2.2 0 5.3
v -2.2 0.1 5.3
v -1.9 0 5.3
v -1.9 0.1 5.3
v -1.8 0 5.3
v -1.8 0.1 5.3
v -1.5 0 5.3
v -1.5 0.1 5.3
v -1.4 0 5.3
v -1.4 0.1 5.3
v -1.3 0 5.3
v -1.3 0.1 5.3
v -1.2 0 5.3
v -1.2 0.1 5.3
v -3.2 0 7.3
v -2.9 0 7.3
v -2.7 0 7.3
v -2.6 0 7.3
v -2.3 0 7.3
v -2.2 0 7.3
v -1.9 0 7.3
v -1.8 0 7.3
v -1.6 0 7.3
v -1.5 0 7.3
v -1.4 0 7.3
v -1.2 0 7.3
v -1.7 0 7.2
v -1.6 0 7.2
v -2.2 0 7.1
v -2.1 0 7.1
v -1.8 0 7.1
v -1.7 0 7.1
v -2.2 0 7
v -2.1 0 7
v -1.3 0 7
v -1.2 0 7
v -2.2 0 6.9
v -2.1 0 6.9
v -2.6 0 6.7
v -2.5 0 6.7
v -2.2 0 6.6
v -2.1 0 6.6
v -2.5 0 6.5
v -2.4 0 6.5
v -2.6 0 6.4
v -2.5 0 6.4
v -2.2 0 6.4
v -2.1 0 6.4
v -1.5 0 6.4
v -1.4 0 6.4
v -2.2 0 6.3
v -2.1 0 6.3
v -1.5 0 6.3
v -1.4 0 6.3
v -1.3 0 6.3
v -1.2 0 6.3
v -2.6 0 6.2
v -2.5 0 6.2
v -1.4 0 6.2
v -1.3 0 6.2
v -2.7 0 6.1
v -2.6 0 6.1
v -2.5 0 6.1
v -2.4 0 6.1
v -1.8 0 6.1
v -1.7 0 6.1
v -1.5 0 6.1
v -1.4 0 6.1
v -1.3 0 6.1
v -2.7 0 6
v -2.6 0 6
v -2.5 0 6
v -2.6 0 5.9
v -2.5 0 5.9
v -2.7 0 5.7
v -2.6 0 5.7
v -1.4 0 5.7
v -1.3 0 5.7
v -2.7 0 5.6
v -2.6 0 5.6
v -1.7 0 5.6
v -1.6 0 5.6
v -1.4 0 5.6
v -1.3 0 5.6
v -1.8 0 5.5
v -1.7 0 5.5
v -2.6 0 5.4
v -2.5 0 5.4
v -1.7 0 5.4
v -1.6 0 5.4
v -3.2 0 5.3
v -2.9 0 5.3
v -2.7 0 5.3
v -2.6 0 5.3
v -2.3 0 5.3
v -2.2 0 5.3
v -1.9 0 5.3
v -1.8 0 5.3
v -1.5 0 5.3
v -1.4 0 5.3
v -1.3 0 5.3
v -1.2 0 5.3
v -2.9 0.1 7.3
v -2.7 0.1 7.3
v -2.6 0.1 7.3
v -2.3 0.1 7.3
v -2.2 0.1 7.3
v -1.9 0.1 7.3
v -1.8 0.1 7.3
v -1.6 0.1 7.3
v -1.5 0.1 7.3
v -1.4 0.1 7.3
v -1.2 0.1 7.3
v -1.7 0.1 7.2
v -1.6 0.1 7.2
v -2.9 0.1 7.1
v -2.2 0.1 7.1
v -2.1 0.1 7.1
v -1.8 0.1 7.1
v -1.7 0.1 7.1
v -2.9 0.1 7
v -2.2 0.1 7
v -2.1 0.1 7
v -1.3 0.1 7
v -1.2 0.1 7
v -2.9 0.1 6.9
v -2.2 0.1 6.9
v -2.1 0.1 6.9
v -2.9 0.1 6.7
v -2.6 0.1 6.7
v -2.5 0.1 6.7
v -2.9 0.1 6.6
v -2.2 0.1 6.6
v -2.1 0.1 6.6
v -2.9 0.1 6.5
v -2.5 0.1 6.5
v -2.4 0.1 6.5
v -2.6 0.1 6.4
v -2.5 0.1 6.4
v -2.2 0.1 6.4
v -2.1 0.1 6.4
v -1.5 0.1 6.4
v -1.4 0.1 6.4
v -2.2 0.1 6.3
v -2.1 0.1 6.3
v -1.5 0.1 6.3
v -1.4 0.1 6.3
v -1.3 0.1 6.3
v -1.2 0.1 6.3
v -2.9 0.1 6.2
v -2.6 0.1 6.2
v -2.5 0.1 6.2
v -1.4 0.1 6.2
v -1.3 0.1 6.2
v -2.9 0.1 6.1
v -2.7 0.1 6.1
v -2.6 0.1 6.1
v -2.5 0.1 6.1
v -2.4 0.1 6.1
v -1.8 0.1 6.1
v -1.7 0.1 6.1
v -1.5 0.1 6.1
v -1.4 0.1 6.1
v -1.3 0.1 6.1
v -2.9 0.1 6
v -2.7 0.1 6
v -2.6 0.1 6
v -2.5 0.1 6
v -2.6 0.1 5.9
v -2.5 0.1 5.9
v -2.9 0.1 5.8
v -2.9 0.1 5.7
v -2.7 0.1 5.7
v -2.6 0.1 5.7
v -1.4 0.1 5.7
v -1.3 0.1 5.7
v -2.7 0.1 5.6
v -2.6 0.1 5.6
v -1.7 0.1 5.6
v -1.6 0.1 5.6
v -1.4 0.1 5.6
v -1.3 0.1 5.6
v -1.8 0.1 5.5
v -1.7 0.1 5.5
v -2.9 0.1 5.4
v -2.6 0.1 5.4
v -2.5 0.1 5.4
v -1.7 0.1 5.4
v -1.6 0.1 5.4
v -2.9 0.1 5.3
v -2.7 0.1 5.3
v -2.6 0.1 5.3
v -2.3 0.1 5.3
v -2.2 0.1 5.3
v -1.9 0.1 5.3
v -1.8 0.1 5.3
v -1.5 0.1 5.3
v -1.4 0.1 5.3
v -1.3 0.1 5.3
v -1.2 0.1 5.3
v -3.2 0.2 7.3
v -2.9 0.2 7.3
v -3.2 0.2 7.2
v -3 0.2 7.2
v -3.2 0.2 7.1
v -3 0.2 7.1
v -2.9 0.2 7.1
v -3.2 0.2 7
v -2.9 0.2 7
v -3.2 0.2 6.9
v -3.1 0.2 6.9
v -2.9 0.2 6.9
v -3.2 0.2 6.8
v -3.1 0.2 6.8
v -3 0.2 6.8
v -3.1 0.2 6.7
v -3 0.2 6.7
v -2.9 0.2 6.7
v -3.1 0.2 6.6
v -2.9 0.2 6.6
v -3.2 0.2 6.5
v -3.1 0.2 6.5
v -2.9 0.2 6.5
v -3.1 0.2 6.4
v -3 0.2 6.4
v -3.2 0.2 6.2
v -3.1 0.2 6.2
v -3 0.2 6.2
v -2.9 0.2 6.2
v -3.2 0.2 6.1
v -3.1 0.2 6.1
v -2.9 0.2 6.1
v -3.1 0.2 6
v -2.9 0.2 6
v -3.2 0.2 5.8
v -3.1 0.2 5.8
v -2.9 0.2 5.8
v -3.2 0.2 5.7
v -3.1 0.2 5.7
v -2.9 0.2 5.7
v -3.2 0.2 5.4
v -3.1 0.2 5.4
v -2.9 0.2 5.4
v -3.2 0.2 5.3
v -3.1 0.2 5.3
v -2.9 0.2 5.3

# faces
f 3/7/1 2/7/1 1/7/1
f 4/7/1 2/7/1 3/7/1
f 5/7/1 2/7/1 4/7/1
f 6/7/1 2/7/1 5/7/1
f 7/7/1 2/7/1 6/7/1
f 8/7/1 2/7/1 7/7/1
f 9/7/1 2/7/1 8/7/1
f 10/7/1 2/7/1 9/7/1
f 11/7/1 2/7/1 10/7/1
f 12/7/1 2/7/1 11/7/1
f 13/7/1 2/7/1 12/7/1
f 14/7/1 2/7/1 13/7/1
f 15/6/1 4/6/1 3/6/1
f 16/7/1 5/7/1 4/7/1
f 16/6/1 4/6/1 15/6/1
f 17/9/1 6/9/1 5/9/1
f 17/7/1 5/7/1 16/7/1
f 18/10/1 7/10/1 6/10/1
f 18/9/1 6/9/1 17/9/1
f 19/9/1 8/9/1 7/9/1
f 19/10/1 7/10/1 18/10/1
f 20/7/1 9/7/1 8/7/1
f 20/9/1 8/9/1 19/9/1
f 21/9/1 10/9/1 9/9/1
f 21/7/1 9/7/1 20/7/1
f 22/10/1 11/10/1 10/10/1
f 22/9/1 10/9/1 21/9/1
f 23/9/1 12/9/1 11/9/1
f 23/10/1 11/10/1 22/10/1
f 24/10/1 13/10/1 12/10/1
f 24/9/1 12/9/1 23/9/1
f 25/9/1 14/9/1 13/9/1
f 25/10/1 13/10/1 24/10/1
f 26/7/1 2/7/1 14/7/1
f 26/9/1 14/9/1 25/9/1
f 27/7/1 2/7/1 26/7/1
f 28/6/2 29/6/2 42/6/2
f 29/9/2 30/9/2 43/9/2
f 42/6/2 29/6/2 43/6/2
f 30/10/2 31/10/2 44/10/2
f 43/9/2 30/9/2 44/9/2
f 31/1/2 32/1/2 45/1/2
f 44/10/2 31/10/2 45/10/2
f 32/6/2 33/6/2 46/6/2
f 45/1/2 32/1/2 46/1/2
f 33/10/2 34/10/2 47/10/2
f 46/6/2 33/6/2 47/6/2
f 34/9/2 35/9/2 48/9/2
f 47/10/2 34/10/2 48/10/2
f 35/10/2 36/10/2 49/10/2
f 48/9/2 35/9/2 49/9/2
f 36/7/2 37/7/2 50/7/2
f 49/10/2 36/10/2 50/10/2
f 37/9/2 38/9/2 51/9/2
f 50/7/2 37/7/2 51/7/2
f 38/7/2 39/7/2 52/7/2
f 51/9/2 38/9/2 52/9/2
f 39/9/2 40/9/2 53/9/2
f 52/7/2 39/7/2 53/7/2
f 40/10/2 41/10/2 54/10/2
f 53/9/2 40/9/2 54/9/2
f 54/10/2 41/10/2 55/10/2
f 56/8/2 57/8/2 60/8/2
f 57/5/2 58/5/2 61/5/2
f 60/8/2 57/8/2 61/8/2
f 58/8/2 59/8/2 62/8/2
f 61/5/2 58/5/2 62/5/2
f 62/8/2 59/8/2 63/8/2
f 67/7/3 65/7/3 64/7/3
f 68/6/3 66/6/3 65/6/3
f 68/7/3 65/7/3 67/7/3
f 69/6/3 66/6/3 68/6/3
f 70/8/3 68/8/3 67/8/3
f 71/8/3 68/8/3 70/8/3
f 72/4/3 71/4/3 70/4/3
f 73/4/3 71/4/3 72/4/3
f 74/8/3 73/8/3 72/8/3
f 75/8/3 73/8/3 74/8/3
f 76/4/3 75/4/3 74/4/3
f 77/4/3 75/4/3 76/4/3
f 78/8/3 77/8/3 76/8/3
f 79/8/3 77/8/3 78/8/3
f 80/4/3 79/4/3 78/4/3
f 81/4/3 79/4/3 80/4/3
f 82/3/3 81/3/3 80/3/3
f 83/3/3 81/3/3 82/3/3
f 84/8/3 83/8/3 82/8/3
f 85/8/3 83/8/3 84/8/3
f 86/4/3 85/4/3 84/4/3
f 87/4/3 85/4/3 86/4/3
f 88/8/3 87/8/3 86/8/3
f 89/8/3 87/8/3 88/8/3
f 90/7/4 91/7/4 92/7/4
f 92/7/4 91/7/4 93/7/4
f 90/7/4 92/7/4 94/7/4
f 92/10/4 93/10/4 95/10/4
f 94/7/4 92/7/4 95/7/4
f 95/10/4 93/10/4 96/10/4
f 94/8/4 95/8/4 97/8/4
f 97/8/4 95/8/4 98/8/4
f 97/4/4 98/4/4 99/4/4
f 99/4/4 98/4/4 100/4/4
f 99/8/4 100/8/4 101/8/4
f 101/8/4 100/8/4 102/8/4
f 101/4/4 102/4/4 103/4/4
f 103/4/4 102/4/4 104/4/4
f 103/8/4 104/8/4 105/8/4
f 105/8/4 104/8/4 106/8/4
f 105/4/4 106/4/4 107/4/4
f 107/4/4 106/4/4 108/4/4
f 107/8/4 108/8/4 109/8/4
f 109/8/4 108/8/4 110/8/4
f 109/4/4 110/4/4 111/4/4
f 111/4/4 110/4/4 112/4/4
f 111/2/4 112/2/4 113/2/4
f 113/2/4 112/2/4 114/2/4
f 113/8/4 114/8/4 115/8/4
f 115/8/4 114/8/4 116/8/4
f 129/3/5 125/3/5 124/3/5
f 130/8/5 126/8/5 125/8/5
f 130/3/5 125/3/5 129/3/5
f 131/4/5 122/4/5 121/4/5
f 131/8/5 123/8/5 122/8/5
f 132/8/5 123/8/5 131/8/5
f 133/4/5 124/4/5 123/4/5
f 133/3/5 129/3/5 124/3/5
f 134/8/5 130/8/5 129/8/5
f 134/3/5 129/3/5 133/3/5
f 135/5/5 132/5/5 131/5/5
f 135/4/5 131/4/5 121/4/5
f 136/8/5 123/8/5 132/8/5
f 136/5/5 132/5/5 135/5/5
f 137/8/5 128/8/5 127/8/5
f 138/8/5 128/8/5 137/8/5
f 139/4/5 135/4/5 121/4/5
f 139/3/5 136/3/5 135/3/5
f 140/8/5 123/8/5 136/8/5
f 140/3/5 136/3/5 139/3/5
f 141/4/5 120/4/5 119/4/5
f 141/8/5 121/8/5 120/8/5
f 142/8/5 121/8/5 141/8/5
f 143/1/5 140/1/5 139/1/5
f 143/4/5 139/4/5 121/4/5
f 144/8/5 123/8/5 140/8/5
f 144/1/5 140/1/5 143/1/5
f 145/8/5 121/8/5 142/8/5
f 145/2/5 142/2/5 141/2/5
f 146/8/5 121/8/5 145/8/5
f 147/4/5 141/4/5 119/4/5
f 147/2/5 145/2/5 141/2/5
f 148/5/5 146/5/5 145/5/5
f 148/2/5 145/2/5 147/2/5
f 149/4/5 143/4/5 121/4/5
f 149/3/5 144/3/5 143/3/5
f 150/8/5 123/8/5 144/8/5
f 150/3/5 144/3/5 149/3/5
f 151/8/5 126/8/5 130/8/5
f 151/8/5 130/8/5 134/8/5
f 151/4/5 127/4/5 126/4/5
f 151/8/5 134/8/5 133/8/5
f 152/8/5 137/8/5 127/8/5
f 152/4/5 127/4/5 151/4/5
f 153/4/5 149/4/5 121/4/5
f 153/5/5 150/5/5 149/5/5
f 154/8/5 123/8/5 150/8/5
f 154/5/5 150/5/5 153/5/5
f 155/3/5 152/3/5 151/3/5
f 155/8/5 151/8/5 133/8/5
f 156/8/5 137/8/5 152/8/5
f 156/3/5 152/3/5 155/3/5
f 157/5/5 138/5/5 137/5/5
f 157/8/5 137/8/5 156/8/5
f 158/5/5 138/5/5 157/5/5
f 159/8/5 148/8/5 147/8/5
f 159/4/5 147/4/5 119/4/5
f 160/5/5 146/5/5 148/5/5
f 160/8/5 148/8/5 159/8/5
f 161/8/5 158/8/5 157/8/5
f 161/1/5 156/1/5 155/1/5
f 161/8/5 157/8/5 156/8/5
f 162/8/5 158/8/5 161/8/5
f 163/8/5 119/8/5 118/8/5
f 163/4/5 159/4/5 119/4/5
f 164/3/5 160/3/5 159/3/5
f 164/4/5 159/4/5 163/4/5
f 165/5/5 146/5/5 160/5/5
f 165/3/5 160/3/5 164/3/5
f 166/8/5 121/8/5 146/8/5
f 166/5/5 146/5/5 165/5/5
f 167/8/5 155/8/5 133/8/5
f 167/4/5 133/4/5 123/4/5
f 168/8/5 155/8/5 167/8/5
f 169/1/5 162/1/5 161/1/5
f 169/8/5 155/8/5 168/8/5
f 169/1/5 161/1/5 155/1/5
f 170/1/5 162/1/5 169/1/5
f 171/8/5 158/8/5 162/8/5
f 171/1/5 162/1/5 170/1/5
f 172/3/5 164/3/5 163/3/5
f 172/3/5 165/3/5 164/3/5
f 172/8/5 163/8/5 118/8/5
f 173/3/5 165/3/5 172/3/5
f 174/8/5 166/8/5 165/8/5
f 174/3/5 165/3/5 173/3/5
f 175/1/5 173/1/5 172/1/5
f 175/8/5 174/8/5 173/8/5
f 176/8/5 166/8/5 174/8/5
f 176/8/5 174/8/5 175/8/5
f 177/1/5 175/1/5 172/1/5
f 177/8/5 172/8/5 118/8/5
f 178/5/5 176/5/5 175/5/5
f 178/1/5 175/1/5 177/1/5
f 179/4/5 170/4/5 169/4/5
f 179/3/5 171/3/5 170/3/5
f 180/8/5 158/8/5 171/8/5
f 180/3/5 171/3/5 179/3/5
f 181/3/5 178/3/5 177/3/5
f 181/8/5 177/8/5 118/8/5
f 182/5/5 176/5/5 178/5/5
f 182/3/5 178/3/5 181/3/5
f 183/5/5 168/5/5 167/5/5
f 183/8/5 169/8/5 168/8/5
f 184/8/5 169/8/5 183/8/5
f 185/4/5 179/4/5 169/4/5
f 185/8/5 180/8/5 179/8/5
f 186/8/5 158/8/5 180/8/5
f 186/8/5 180/8/5 185/8/5
f 187/4/5 167/4/5 123/4/5
f 187/5/5 183/5/5 167/5/5
f 188/2/5 184/2/5 183/2/5
f 188/5/5 183/5/5 187/5/5
f 189/5/5 176/5/5 182/5/5
f 189/4/5 182/4/5 181/4/5
f 190/8/5 166/8/5 176/8/5
f 190/5/5 176/5/5 189/5/5
f 191/2/5 184/2/5 188/2/5
f 191/8/5 188/8/5 187/8/5
f 192/8/5 169/8/5 184/8/5
f 192/2/5 184/2/5 191/2/5
f 193/7/5 118/7/5 117/7/5
f 194/8/5 181/8/5 118/8/5
f 194/7/5 118/7/5 193/7/5
f 195/4/5 189/4/5 181/4/5
f 195/8/5 181/8/5 194/8/5
f 196/8/5 190/8/5 189/8/5
f 196/4/5 189/4/5 195/4/5
f 197/8/5 166/8/5 190/8/5
f 197/8/5 190/8/5 196/8/5
f 197/8/5 121/8/5 166/8/5
f 197/4/5 153/4/5 121/4/5
f 198/8/5 154/8/5 153/8/5
f 198/4/5 153/4/5 197/4/5
f 199/8/5 123/8/5 154/8/5
f 199/8/5 154/8/5 198/8/5
f 199/4/5 187/4/5 123/4/5
f 200/8/5 192/8/5 191/8/5
f 200/4/5 187/4/5 199/4/5
f 200/8/5 191/8/5 187/8/5
f 201/8/5 169/8/5 192/8/5
f 201/8/5 192/8/5 200/8/5
f 201/4/5 185/4/5 169/4/5
f 202/2/5 186/2/5 185/2/5
f 202/4/5 185/4/5 201/4/5
f 203/8/5 158/8/5 186/8/5
f 203/2/5 186/2/5 202/2/5
f 204/8/5 158/8/5 203/8/5
f 211/3/6 212/3/6 216/3/6
f 212/8/6 213/8/6 217/8/6
f 216/3/6 212/3/6 217/3/6
f 205/8/6 206/8/6 218/8/6
f 208/4/6 209/4/6 219/4/6
f 209/8/6 210/8/6 219/8/6
f 219/8/6 210/8/6 220/8/6
f 210/4/6 211/4/6 221/4/6
f 211/3/6 216/3/6 221/3/6
f 216/8/6 217/8/6 222/8/6
f 221/3/6 216/3/6 222/3/6
f 218/8/6 206/8/6 223/8/6
f 219/5/6 220/5/6 224/5/6
f 208/4/6 219/4/6 224/4/6
f 220/8/6 210/8/6 225/8/6
f 224/5/6 220/5/6 225/5/6
f 214/8/6 215/8/6 226/8/6
f 226/8/6 215/8/6 227/8/6
f 223/8/6 206/8/6 228/8/6
f 208/4/6 224/4/6 229/4/6
f 224/3/6 225/3/6 229/3/6
f 225/8/6 210/8/6 230/8/6
f 229/3/6 225/3/6 230/3/6
f 228/8/6 206/8/6 231/8/6
f 206/4/6 207/4/6 232/4/6
f 207/8/6 208/8/6 232/8/6
f 232/8/6 208/8/6 233/8/6
f 231/8/6 206/8/6 234/8/6
f 208/4/6 229/4/6 235/4/6
f 229/1/6 230/1/6 235/1/6
f 230/8/6 210/8/6 236/8/6
f 235/1/6 230/1/6 236/1/6
f 234/8/6 206/8/6 237/8/6
f 233/8/6 208/8/6 238/8/6
f 232/2/6 233/2/6 238/2/6
f 238/8/6 208/8/6 239/8/6
f 206/4/6 232/4/6 240/4/6
f 232/2/6 238/2/6 240/2/6
f 238/5/6 239/5/6 241/5/6
f 240/2/6 238/2/6 241/2/6
f 208/4/6 235/4/6 242/4/6
f 235/3/6 236/3/6 242/3/6
f 236/8/6 210/8/6 243/8/6
f 242/3/6 236/3/6 243/3/6
f 217/8/6 213/8/6 244/8/6
f 222/8/6 217/8/6 244/8/6
f 213/4/6 214/4/6 244/4/6
f 221/8/6 222/8/6 244/8/6
f 214/8/6 226/8/6 245/8/6
f 244/4/6 214/4/6 245/4/6
f 242/5/6 243/5/6 246/5/6
f 208/4/6 242/4/6 246/4/6
f 243/8/6 210/8/6 247/8/6
f 246/5/6 243/5/6 247/5/6
f 244/3/6 245/3/6 248/3/6
f 221/8/6 244/8/6 248/8/6
f 245/8/6 226/8/6 249/8/6
f 248/3/6 245/3/6 249/3/6
f 226/5/6 227/5/6 250/5/6
f 249/8/6 226/8/6 250/8/6
f 250/5/6 227/5/6 251/5/6
f 237/8/6 206/8/6 252/8/6
f 206/4/6 240/4/6 253/4/6
f 240/8/6 241/8/6 253/8/6
f 241/5/6 239/5/6 254/5/6
f 253/8/6 241/8/6 254/8/6
f 248/1/6 249/1/6 255/1/6
f 249/8/6 250/8/6 255/8/6
f 250/8/6 251/8/6 255/8/6
f 255/8/6 251/8/6 256/8/6
f 252/8/6 206/8/6 257/8/6
f 206/4/6 253/4/6 258/4/6
f 257/8/6 206/8/6 258/8/6
f 253/3/6 254/3/6 259/3/6
f 258/4/6 253/4/6 259/4/6
f 254/5/6 239/5/6 260/5/6
f 259/3/6 254/3/6 260/3/6
f 239/8/6 208/8/6 261/8/6
f 260/5/6 239/5/6 261/5/6
f 221/8/6 248/8/6 262/8/6
f 210/4/6 221/4/6 262/4/6
f 262/8/6 248/8/6 263/8/6
f 248/1/6 255/1/6 264/1/6
f 263/8/6 248/8/6 264/8/6
f 255/1/6 256/1/6 264/1/6
f 264/1/6 256/1/6 265/1/6
f 256/8/6 251/8/6 266/8/6
f 265/1/6 256/1/6 266/1/6
f 257/8/6 258/8/6 267/8/6
f 258/3/6 259/3/6 268/3/6
f 267/8/6 258/8/6 268/8/6
f 259/3/6 260/3/6 268/3/6
f 268/3/6 260/3/6 269/3/6
f 260/8/6 261/8/6 270/8/6
f 269/3/6 260/3/6 270/3/6
f 268/1/6 269/1/6 271/1/6
f 269/8/6 270/8/6 271/8/6
f 270/8/6 261/8/6 272/8/6
f 271/8/6 270/8/6 272/8/6
f 267/8/6 268/8/6 273/8/6
f 273/8/6 268/8/6 274/8/6
f 268/1/6 271/1/6 275/1/6
f 274/8/6 268/8/6 275/8/6
f 271/5/6 272/5/6 276/5/6
f 275/1/6 271/1/6 276/1/6
f 264/4/6 265/4/6 277/4/6
f 265/3/6 266/3/6 277/3/6
f 266/8/6 251/8/6 278/8/6
f 277/3/6 266/3/6 278/3/6
f 275/3/6 276/3/6 279/3/6
f 274/8/6 275/8/6 279/8/6
f 276/5/6 272/5/6 280/5/6
f 279/3/6 276/3/6 280/3/6
f 262/5/6 263/5/6 281/5/6
f 263/8/6 264/8/6 281/8/6
f 281/8/6 264/8/6 282/8/6
f 264/4/6 277/4/6 283/4/6
f 277/8/6 278/8/6 283/8/6
f 278/8/6 251/8/6 284/8/6
f 283/8/6 278/8/6 284/8/6
f 210/4/6 262/4/6 285/4/6
f 262/5/6 281/5/6 285/5/6
f 281/2/6 282/2/6 286/2/6
f 285/5/6 281/5/6 286/5/6
f 274/8/6 279/8/6 287/8/6
f 280/5/6 272/5/6 288/5/6
f 279/4/6 280/4/6 288/4/6
f 272/8/6 261/8/6 289/8/6
f 288/5/6 272/5/6 289/5/6
f 286/2/6 282/2/6 290/2/6
f 285/8/6 286/8/6 290/8/6
f 282/8/6 264/8/6 291/8/6
f 290/2/6 282/2/6 291/2/6
f 287/8/6 279/8/6 292/8/6
f 279/4/6 288/4/6 293/4/6
f 292/8/6 279/8/6 293/8/6
f 288/8/6 289/8/6 294/8/6
f 293/4/6 288/4/6 294/4/6
f 208/4/6 246/4/6 295/4/6
f 294/8/6 289/8/6 295/8/6
f 261/8/6 208/8/6 295/8/6
f 289/8/6 261/8/6 295/8/6
f 246/8/6 247/8/6 296/8/6
f 295/4/6 246/4/6 296/4/6
f 247/8/6 210/8/6 297/8/6
f 296/8/6 247/8/6 297/8/6
f 210/4/6 285/4/6 297/4/6
f 290/8/6 291/8/6 298/8/6
f 297/4/6 285/4/6 298/4/6
f 285/8/6 290/8/6 298/8/6
f 264/4/6 283/4/6 299/4/6
f 298/8/6 291/8/6 299/8/6
f 291/8/6 264/8/6 299/8/6
f 283/2/6 284/2/6 300/2/6
f 299/4/6 283/4/6 300/4/6
f 284/8/6 251/8/6 301/8/6
f 300/2/6 284/2/6 301/2/6
f 301/8/6 251/8/6 302/8/6
f 303/6/6 304/6/6 305/6/6
f 305/6/6 304/6/6 306/6/6
f 305/7/6 306/7/6 307/7/6
f 306/6/6 304/6/6 308/6/6
f 307/7/6 306/7/6 308/7/6
f 308/6/6 304/6/6 309/6/6
f 307/9/6 308/9/6 310/9/6
f 308/9/6 309/9/6 310/9/6
f 310/9/6 309/9/6 311/9/6
f 310/10/6 311/10/6 312/10/6
f 312/10/6 311/10/6 313/10/6
f 313/10/6 311/10/6 314/10/6
f 312/9/6 313/9/6 315/9/6
f 313/1/6 314/1/6 316/1/6
f 315/9/6 313/9/6 316/9/6
f 316/1/6 314/1/6 317/1/6
f 315/7/6 316/7/6 318/7/6
f 316/7/6 317/7/6 318/7/6
f 317/1/6 314/1/6 319/1/6
f 318/7/6 317/7/6 319/7/6
f 319/1/6 314/1/6 320/1/6
f 315/7/6 318/7/6 321/7/6
f 318/6/6 319/6/6 321/6/6
f 319/6/6 320/6/6 321/6/6
f 321/6/6 320/6/6 322/6/6
f 315/7/6 321/7/6 323/7/6
f 321/10/6 322/10/6 324/10/6
f 323/7/6 321/7/6 324/7/6
f 324/10/6 322/10/6 325/10/6
f 323/9/6 324/9/6 326/9/6
f 324/9/6 325/9/6 326/9/6
f 326/9/6 325/9/6 327/9/6
f 323/9/6 326/9/6 328/9/6
f 326/6/6 327/6/6 329/6/6
f 328/9/6 326/9/6 329/9/6
f 327/9/6 325/9/6 330/9/6
f 329/6/6 327/6/6 330/6/6
f 330/9/6 325/9/6 331/9/6
f 328/10/6 329/10/6 332/10/6
f 329/10/6 330/10/6 332/10/6
f 330/10/6 331/10/6 332/10/6
f 332/10/6 331/10/6 333/10/6
f 333/10/6 331/10/6 334/10/6
f 332/9/6 333/9/6 335/9/6
f 333/7/6 334/7/6 335/7/6
f 335/7/6 334/7/6 336/7/6
f 332/9/6 335/9/6 337/9/6
f 335/9/6 336/9/6 337/9/6
f 337/9/6 336/9/6 338/9/6
f 338/9/6 336/9/6 339/9/6
f 337/10/6 338/10/6 340/10/6
f 338/7/6 339/7/6 341/7/6
f 340/10/6 338/10/6 341/10/6
f 341/7/6 339/7/6 342/7/6
f 340/9/6 341/9/6 343/9/6
f 341/9/6 342/9/6 343/9/6
f 343/9/6 342/9/6 344/9/6
f 344/9/6 342/9/6 345/9/6
f 343/7/6 344/7/6 346/7/6
f 344/10/6 345/10/6 347/10/6
f 346/7/6 344/7/6 347/7/6
f 347/10/6 345/10/6 348/10/6
