# MagicaVoxel @ Ephtracy

# group
o 

# material
mtllib Stenka1-7.mtl
usemtl palette

# normals
vn -1 0 0
vn 1 0 0
vn 0 0 1
vn 0 0 -1
vn 0 -1 0
vn 0 1 0

# texcoords
vt 0.552734 0.5
vt 0.880859 0.5
vt 0.884766 0.5
vt 0.900391 0.5
vt 0.982422 0.5

# verts
v 4.4 0.1 1.5
v 4.4 0.1 1.4
v 4.4 0.7 1.5
v 4.4 0.7 1.4
v 4.4 1.3 1.5
v 4.4 1.3 1.4
v 4.5 1.3 1.5
v 4.5 1.3 1.4
v 4.5 1.8 1.5
v 4.5 1.8 1.4
v 4.6 1.8 1.5
v 4.6 1.8 1.4
v 4.6 2 1.5
v 4.6 2 1.4
v 4.7 2 1.5
v 4.7 2 1.4
v 4.7 2.2 1.5
v 4.7 2.2 1.4
v 4.8 2.2 1.5
v 4.8 2.2 1.4
v 4.8 2.3 1.5
v 4.8 2.3 1.4
v 5 2.3 1.5
v 5 2.3 1.4
v 5 2.4 1.5
v 5 2.4 1.4
v 5.8 0.9 1.6
v 5.8 0.9 1.5
v 5.8 0.9 1.4
v 5.8 0.9 1.3
v 5.8 1 1.6
v 5.8 1 1.5
v 5.8 1 1.4
v 5.8 1 1.3
v 5.9 0.8 1.6
v 5.9 0.8 1.5
v 5.9 0.8 1.4
v 5.9 0.8 1.3
v 5.9 0.9 1.6
v 5.9 0.9 1.5
v 5.9 0.9 1.4
v 5.9 0.9 1.3
v 5.9 1 1.6
v 5.9 1 1.5
v 5.9 1 1.4
v 5.9 1 1.3
v 5.9 1.1 1.6
v 5.9 1.1 1.5
v 5.9 1.1 1.4
v 5.9 1.1 1.3
v 6.1 0.9 1.6
v 6.1 0.9 1.5
v 6.1 0.9 1.4
v 6.1 0.9 1.3
v 6.1 1 1.6
v 6.1 1 1.5
v 6.1 1 1.4
v 6.1 1 1.3
v 5.8 2.3 1.5
v 5.8 2.3 1.4
v 5.8 2.4 1.5
v 5.8 2.4 1.4
v 5.9 0.9 1.6
v 5.9 0.9 1.5
v 5.9 0.9 1.4
v 5.9 0.9 1.3
v 5.9 1 1.6
v 5.9 1 1.5
v 5.9 1 1.4
v 5.9 1 1.3
v 6 2.2 1.5
v 6 2.2 1.4
v 6 2.3 1.5
v 6 2.3 1.4
v 6.1 0.8 1.6
v 6.1 0.8 1.5
v 6.1 0.8 1.4
v 6.1 0.8 1.3
v 6.1 0.9 1.6
v 6.1 0.9 1.5
v 6.1 0.9 1.4
v 6.1 0.9 1.3
v 6.1 1 1.6
v 6.1 1 1.5
v 6.1 1 1.4
v 6.1 1 1.3
v 6.1 1.1 1.6
v 6.1 1.1 1.5
v 6.1 1.1 1.4
v 6.1 1.1 1.3
v 6.1 2 1.5
v 6.1 2 1.4
v 6.1 2.2 1.5
v 6.1 2.2 1.4
v 6.2 0.9 1.6
v 6.2 0.9 1.5
v 6.2 0.9 1.4
v 6.2 0.9 1.3
v 6.2 1 1.6
v 6.2 1 1.5
v 6.2 1 1.4
v 6.2 1 1.3
v 6.2 1.8 1.5
v 6.2 1.8 1.4
v 6.2 2 1.5
v 6.2 2 1.4
v 6.3 1.3 1.5
v 6.3 1.3 1.4
v 6.3 1.8 1.5
v 6.3 1.8 1.4
v 6.4 0.1 1.5
v 6.4 0.1 1.4
v 6.4 0.7 1.5
v 6.4 0.7 1.4
v 6.4 0.9 1.5
v 6.4 0.9 1.4
v 6.4 1.3 1.5
v 6.4 1.3 1.4
v 5.8 0.9 1.6
v 5.8 1 1.6
v 5.9 0.8 1.6
v 5.9 0.9 1.6
v 5.9 1 1.6
v 5.9 1.1 1.6
v 6.1 0.8 1.6
v 6.1 0.9 1.6
v 6.1 1 1.6
v 6.1 1.1 1.6
v 6.2 0.9 1.6
v 6.2 1 1.6
v 4.4 0.1 1.5
v 4.4 0.7 1.5
v 4.4 1.3 1.5
v 4.5 0.4 1.5
v 4.5 0.5 1.5
v 4.5 0.6 1.5
v 4.5 0.7 1.5
v 4.5 1.3 1.5
v 4.5 1.8 1.5
v 4.6 0.1 1.5
v 4.6 0.4 1.5
v 4.6 0.5 1.5
v 4.6 0.6 1.5
v 4.6 1.8 1.5
v 4.6 2 1.5
v 4.7 0.1 1.5
v 4.7 0.2 1.5
v 4.7 0.8 1.5
v 4.7 1.4 1.5
v 4.7 1.6 1.5
v 4.7 1.8 1.5
v 4.7 2 1.5
v 4.7 2.2 1.5
v 4.8 1.3 1.5
v 4.8 1.4 1.5
v 4.8 1.5 1.5
v 4.8 1.6 1.5
v 4.8 1.8 1.5
v 4.8 1.9 1.5
v 4.8 2.2 1.5
v 4.8 2.3 1.5
v 4.9 0.1 1.5
v 4.9 0.2 1.5
v 4.9 0.8 1.5
v 4.9 1.3 1.5
v 4.9 1.5 1.5
v 4.9 1.6 1.5
v 4.9 1.9 1.5
v 4.9 2.3 1.5
v 5 0.1 1.5
v 5 0.5 1.5
v 5 0.6 1.5
v 5 1.7 1.5
v 5 2.3 1.5
v 5 2.4 1.5
v 5.1 0.6 1.5
v 5.1 1.1 1.5
v 5.1 1.7 1.5
v 5.1 2.3 1.5
v 5.2 0.1 1.5
v 5.2 0.5 1.5
v 5.2 1.1 1.5
v 5.2 2.4 1.5
v 5.3 0.1 1.5
v 5.3 2.4 1.5
v 5.4 0.1 1.5
v 5.4 0.6 1.5
v 5.4 1.7 1.5
v 5.4 2.2 1.5
v 5.5 0.1 1.5
v 5.5 0.6 1.5
v 5.5 1.7 1.5
v 5.5 2.2 1.5
v 5.5 2.4 1.5
v 5.6 0.1 1.5
v 5.6 1.7 1.5
v 5.6 2.2 1.5
v 5.6 2.4 1.5
v 5.7 0.7 1.5
v 5.7 1.1 1.5
v 5.7 1.7 1.5
v 5.7 2.2 1.5
v 5.8 0.1 1.5
v 5.8 0.7 1.5
v 5.8 0.9 1.5
v 5.8 1 1.5
v 5.8 1.1 1.5
v 5.8 2.3 1.5
v 5.8 2.4 1.5
v 5.9 0.1 1.5
v 5.9 0.8 1.5
v 5.9 0.9 1.5
v 5.9 1 1.5
v 5.9 1.1 1.5
v 5.9 1.6 1.5
v 5.9 2.1 1.5
v 5.9 2.3 1.5
v 6 1.9 1.5
v 6 2.1 1.5
v 6 2.2 1.5
v 6 2.3 1.5
v 6.1 0.1 1.5
v 6.1 0.8 1.5
v 6.1 0.9 1.5
v 6.1 1 1.5
v 6.1 1.1 1.5
v 6.1 1.6 1.5
v 6.1 1.9 1.5
v 6.1 2 1.5
v 6.1 2.2 1.5
v 6.2 0.1 1.5
v 6.2 0.3 1.5
v 6.2 0.8 1.5
v 6.2 0.9 1.5
v 6.2 1 1.5
v 6.2 1.8 1.5
v 6.2 2 1.5
v 6.3 0.3 1.5
v 6.3 0.7 1.5
v 6.3 0.8 1.5
v 6.3 0.9 1.5
v 6.3 1.3 1.5
v 6.3 1.8 1.5
v 6.4 0.1 1.5
v 6.4 0.7 1.5
v 6.4 0.9 1.5
v 6.4 1.3 1.5
v 4.4 0.1 1.4
v 4.4 0.7 1.4
v 4.4 1.3 1.4
v 4.5 0.4 1.4
v 4.5 0.5 1.4
v 4.5 0.6 1.4
v 4.5 0.7 1.4
v 4.5 1.3 1.4
v 4.5 1.8 1.4
v 4.6 0.1 1.4
v 4.6 0.4 1.4
v 4.6 0.5 1.4
v 4.6 0.6 1.4
v 4.6 1.8 1.4
v 4.6 2 1.4
v 4.7 0.1 1.4
v 4.7 0.2 1.4
v 4.7 0.8 1.4
v 4.7 1.4 1.4
v 4.7 1.6 1.4
v 4.7 1.8 1.4
v 4.7 2 1.4
v 4.7 2.2 1.4
v 4.8 1.3 1.4
v 4.8 1.4 1.4
v 4.8 1.5 1.4
v 4.8 1.6 1.4
v 4.8 1.8 1.4
v 4.8 1.9 1.4
v 4.8 2.2 1.4
v 4.8 2.3 1.4
v 4.9 0.1 1.4
v 4.9 0.2 1.4
v 4.9 0.8 1.4
v 4.9 1.3 1.4
v 4.9 1.5 1.4
v 4.9 1.6 1.4
v 4.9 1.9 1.4
v 4.9 2.3 1.4
v 5 0.1 1.4
v 5 0.5 1.4
v 5 0.6 1.4
v 5 1.7 1.4
v 5 2.3 1.4
v 5 2.4 1.4
v 5.1 0.6 1.4
v 5.1 1.1 1.4
v 5.1 1.7 1.4
v 5.1 2.3 1.4
v 5.2 0.1 1.4
v 5.2 0.5 1.4
v 5.2 1.1 1.4
v 5.2 2.4 1.4
v 5.3 0.1 1.4
v 5.3 2.4 1.4
v 5.4 0.1 1.4
v 5.4 0.6 1.4
v 5.4 1.7 1.4
v 5.4 2.2 1.4
v 5.5 0.1 1.4
v 5.5 0.6 1.4
v 5.5 1.7 1.4
v 5.5 2.2 1.4
v 5.5 2.4 1.4
v 5.6 0.1 1.4
v 5.6 1.7 1.4
v 5.6 2.2 1.4
v 5.6 2.4 1.4
v 5.7 0.7 1.4
v 5.7 1.1 1.4
v 5.7 1.7 1.4
v 5.7 2.2 1.4
v 5.8 0.1 1.4
v 5.8 0.7 1.4
v 5.8 0.9 1.4
v 5.8 1 1.4
v 5.8 1.1 1.4
v 5.8 2.3 1.4
v 5.8 2.4 1.4
v 5.9 0.1 1.4
v 5.9 0.8 1.4
v 5.9 0.9 1.4
v 5.9 1 1.4
v 5.9 1.1 1.4
v 5.9 1.6 1.4
v 5.9 2.1 1.4
v 5.9 2.3 1.4
v 6 1.9 1.4
v 6 2.1 1.4
v 6 2.2 1.4
v 6 2.3 1.4
v 6.1 0.1 1.4
v 6.1 0.8 1.4
v 6.1 0.9 1.4
v 6.1 1 1.4
v 6.1 1.1 1.4
v 6.1 1.6 1.4
v 6.1 1.9 1.4
v 6.1 2 1.4
v 6.1 2.2 1.4
v 6.2 0.1 1.4
v 6.2 0.3 1.4
v 6.2 0.8 1.4
v 6.2 0.9 1.4
v 6.2 1 1.4
v 6.2 1.8 1.4
v 6.2 2 1.4
v 6.3 0.3 1.4
v 6.3 0.7 1.4
v 6.3 0.8 1.4
v 6.3 0.9 1.4
v 6.3 1.3 1.4
v 6.3 1.8 1.4
v 6.4 0.1 1.4
v 6.4 0.7 1.4
v 6.4 0.9 1.4
v 6.4 1.3 1.4
v 5.8 0.9 1.3
v 5.8 1 1.3
v 5.9 0.8 1.3
v 5.9 0.9 1.3
v 5.9 1 1.3
v 5.9 1.1 1.3
v 6.1 0.8 1.3
v 6.1 0.9 1.3
v 6.1 1 1.3
v 6.1 1.1 1.3
v 6.2 0.9 1.3
v 6.2 1 1.3
v 4.4 0.1 1.5
v 4.6 0.1 1.5
v 4.7 0.1 1.5
v 4.9 0.1 1.5
v 5 0.1 1.5
v 5.2 0.1 1.5
v 5.3 0.1 1.5
v 5.4 0.1 1.5
v 5.5 0.1 1.5
v 5.6 0.1 1.5
v 5.8 0.1 1.5
v 5.9 0.1 1.5
v 6.1 0.1 1.5
v 6.2 0.1 1.5
v 6.4 0.1 1.5
v 4.4 0.1 1.4
v 4.6 0.1 1.4
v 4.7 0.1 1.4
v 4.9 0.1 1.4
v 5 0.1 1.4
v 5.2 0.1 1.4
v 5.3 0.1 1.4
v 5.4 0.1 1.4
v 5.5 0.1 1.4
v 5.6 0.1 1.4
v 5.8 0.1 1.4
v 5.9 0.1 1.4
v 6.1 0.1 1.4
v 6.2 0.1 1.4
v 6.4 0.1 1.4
v 5.9 0.8 1.6
v 6.1 0.8 1.6
v 5.9 0.8 1.5
v 6.1 0.8 1.5
v 5.9 0.8 1.4
v 6.1 0.8 1.4
v 5.9 0.8 1.3
v 6.1 0.8 1.3
v 5.8 0.9 1.6
v 5.9 0.9 1.6
v 6.1 0.9 1.6
v 6.2 0.9 1.6
v 5.8 0.9 1.5
v 5.9 0.9 1.5
v 6.1 0.9 1.5
v 6.2 0.9 1.5
v 5.8 0.9 1.4
v 5.9 0.9 1.4
v 6.1 0.9 1.4
v 6.2 0.9 1.4
v 5.8 0.9 1.3
v 5.9 0.9 1.3
v 6.1 0.9 1.3
v 6.2 0.9 1.3
v 5.9 1 1.6
v 6.1 1 1.6
v 5.9 1 1.5
v 6.1 1 1.5
v 5.9 1 1.4
v 6.1 1 1.4
v 5.9 1 1.3
v 6.1 1 1.3
v 5.9 0.9 1.6
v 6.1 0.9 1.6
v 5.9 0.9 1.5
v 6.1 0.9 1.5
v 5.9 0.9 1.4
v 6.1 0.9 1.4
v 5.9 0.9 1.3
v 6.1 0.9 1.3
v 5.8 1 1.6
v 5.9 1 1.6
v 6.1 1 1.6
v 6.2 1 1.6
v 5.8 1 1.5
v 5.9 1 1.5
v 6.1 1 1.5
v 6.2 1 1.5
v 5.8 1 1.4
v 5.9 1 1.4
v 6.1 1 1.4
v 6.2 1 1.4
v 5.8 1 1.3
v 5.9 1 1.3
v 6.1 1 1.3
v 6.2 1 1.3
v 5.9 1.1 1.6
v 6.1 1.1 1.6
v 5.9 1.1 1.5
v 6.1 1.1 1.5
v 5.9 1.1 1.4
v 6.1 1.1 1.4
v 5.9 1.1 1.3
v 6.1 1.1 1.3
v 4.4 1.3 1.5
v 4.5 1.3 1.5
v 6.3 1.3 1.5
v 6.4 1.3 1.5
v 4.4 1.3 1.4
v 4.5 1.3 1.4
v 6.3 1.3 1.4
v 6.4 1.3 1.4
v 4.5 1.8 1.5
v 4.6 1.8 1.5
v 6.2 1.8 1.5
v 6.3 1.8 1.5
v 4.5 1.8 1.4
v 4.6 1.8 1.4
v 6.2 1.8 1.4
v 6.3 1.8 1.4
v 4.6 2 1.5
v 4.7 2 1.5
v 6.1 2 1.5
v 6.2 2 1.5
v 4.6 2 1.4
v 4.7 2 1.4
v 6.1 2 1.4
v 6.2 2 1.4
v 4.7 2.2 1.5
v 4.8 2.2 1.5
v 6 2.2 1.5
v 6.1 2.2 1.5
v 4.7 2.2 1.4
v 4.8 2.2 1.4
v 6 2.2 1.4
v 6.1 2.2 1.4
v 4.8 2.3 1.5
v 4.9 2.3 1.5
v 5 2.3 1.5
v 5.8 2.3 1.5
v 5.9 2.3 1.5
v 6 2.3 1.5
v 4.8 2.3 1.4
v 4.9 2.3 1.4
v 5 2.3 1.4
v 5.8 2.3 1.4
v 5.9 2.3 1.4
v 6 2.3 1.4
v 5 2.4 1.5
v 5.2 2.4 1.5
v 5.3 2.4 1.5
v 5.5 2.4 1.5
v 5.6 2.4 1.5
v 5.8 2.4 1.5
v 5 2.4 1.4
v 5.2 2.4 1.4
v 5.3 2.4 1.4
v 5.5 2.4 1.4
v 5.6 2.4 1.4
v 5.8 2.4 1.4

# faces
f 3/1/1 2/1/1 1/1/1
f 4/1/1 2/1/1 3/1/1
f 5/4/1 4/4/1 3/4/1
f 6/4/1 4/4/1 5/4/1
f 9/4/1 8/4/1 7/4/1
f 10/4/1 8/4/1 9/4/1
f 13/2/1 12/2/1 11/2/1
f 14/2/1 12/2/1 13/2/1
f 17/1/1 16/1/1 15/1/1
f 18/1/1 16/1/1 17/1/1
f 21/1/1 20/1/1 19/1/1
f 22/1/1 20/1/1 21/1/1
f 25/4/1 24/4/1 23/4/1
f 26/4/1 24/4/1 25/4/1
f 31/5/1 28/5/1 27/5/1
f 32/5/1 28/5/1 31/5/1
f 33/5/1 30/5/1 29/5/1
f 34/5/1 30/5/1 33/5/1
f 39/5/1 36/5/1 35/5/1
f 40/5/1 36/5/1 39/5/1
f 41/5/1 38/5/1 37/5/1
f 42/5/1 38/5/1 41/5/1
f 47/5/1 44/5/1 43/5/1
f 48/5/1 44/5/1 47/5/1
f 49/5/1 46/5/1 45/5/1
f 50/5/1 46/5/1 49/5/1
f 55/5/1 52/5/1 51/5/1
f 56/5/1 52/5/1 55/5/1
f 57/5/1 54/5/1 53/5/1
f 58/5/1 54/5/1 57/5/1
f 59/4/2 60/4/2 61/4/2
f 61/4/2 60/4/2 62/4/2
f 63/5/2 64/5/2 67/5/2
f 67/5/2 64/5/2 68/5/2
f 65/5/2 66/5/2 69/5/2
f 69/5/2 66/5/2 70/5/2
f 71/1/2 72/1/2 73/1/2
f 73/1/2 72/1/2 74/1/2
f 75/5/2 76/5/2 79/5/2
f 79/5/2 76/5/2 80/5/2
f 77/5/2 78/5/2 81/5/2
f 81/5/2 78/5/2 82/5/2
f 83/5/2 84/5/2 87/5/2
f 87/5/2 84/5/2 88/5/2
f 85/5/2 86/5/2 89/5/2
f 89/5/2 86/5/2 90/5/2
f 91/1/2 92/1/2 93/1/2
f 93/1/2 92/1/2 94/1/2
f 95/5/2 96/5/2 99/5/2
f 99/5/2 96/5/2 100/5/2
f 97/5/2 98/5/2 101/5/2
f 101/5/2 98/5/2 102/5/2
f 103/2/2 104/2/2 105/2/2
f 105/2/2 104/2/2 106/2/2
f 107/4/2 108/4/2 109/4/2
f 109/4/2 108/4/2 110/4/2
f 111/1/2 112/1/2 113/1/2
f 113/1/2 112/1/2 114/1/2
f 113/3/2 114/3/2 115/3/2
f 115/3/2 114/3/2 116/3/2
f 115/4/2 116/4/2 117/4/2
f 117/4/2 116/4/2 118/4/2
f 122/5/3 120/5/3 119/5/3
f 123/5/3 120/5/3 122/5/3
f 125/5/3 122/5/3 121/5/3
f 126/5/3 122/5/3 125/5/3
f 127/5/3 124/5/3 123/5/3
f 128/5/3 124/5/3 127/5/3
f 129/5/3 127/5/3 126/5/3
f 130/5/3 127/5/3 129/5/3
f 134/1/3 132/1/3 131/1/3
f 135/1/3 132/1/3 134/1/3
f 136/1/3 132/1/3 135/1/3
f 137/4/3 133/4/3 132/4/3
f 137/1/3 132/1/3 136/1/3
f 138/4/3 133/4/3 137/4/3
f 140/1/3 134/1/3 131/1/3
f 141/4/3 135/4/3 134/4/3
f 141/1/3 134/1/3 140/1/3
f 142/3/3 136/3/3 135/3/3
f 142/4/3 135/4/3 141/4/3
f 143/4/3 139/4/3 138/4/3
f 143/3/3 136/3/3 142/3/3
f 143/4/3 137/4/3 136/4/3
f 143/4/3 138/4/3 137/4/3
f 144/4/3 139/4/3 143/4/3
f 146/2/3 141/2/3 140/2/3
f 146/2/3 145/2/3 144/2/3
f 146/2/3 144/2/3 143/2/3
f 146/2/3 143/2/3 142/2/3
f 146/2/3 142/2/3 141/2/3
f 147/2/3 145/2/3 146/2/3
f 148/2/3 145/2/3 147/2/3
f 149/2/3 145/2/3 148/2/3
f 150/2/3 145/2/3 149/2/3
f 151/2/3 145/2/3 150/2/3
f 152/2/3 145/2/3 151/2/3
f 154/3/3 149/3/3 148/3/3
f 155/1/3 150/1/3 149/1/3
f 155/3/3 149/3/3 154/3/3
f 156/1/3 150/1/3 155/1/3
f 157/4/3 151/4/3 150/4/3
f 157/1/3 150/1/3 156/1/3
f 158/1/3 153/1/3 152/1/3
f 158/4/3 151/4/3 157/4/3
f 158/1/3 152/1/3 151/1/3
f 159/1/3 153/1/3 158/1/3
f 160/1/3 153/1/3 159/1/3
f 162/1/3 147/1/3 146/1/3
f 163/4/3 148/4/3 147/4/3
f 163/1/3 147/1/3 162/1/3
f 164/3/3 154/3/3 148/3/3
f 164/4/3 148/4/3 163/4/3
f 165/1/3 156/1/3 155/1/3
f 165/3/3 154/3/3 164/3/3
f 165/1/3 155/1/3 154/1/3
f 166/3/3 157/3/3 156/3/3
f 166/1/3 156/1/3 165/1/3
f 167/4/3 158/4/3 157/4/3
f 167/3/3 157/3/3 166/3/3
f 167/4/3 159/4/3 158/4/3
f 168/1/3 161/1/3 160/1/3
f 168/4/3 159/4/3 167/4/3
f 168/1/3 160/1/3 159/1/3
f 169/1/3 161/1/3 168/1/3
f 170/2/3 167/2/3 166/2/3
f 170/2/3 165/2/3 164/2/3
f 170/2/3 169/2/3 168/2/3
f 170/2/3 168/2/3 167/2/3
f 170/2/3 166/2/3 165/2/3
f 170/2/3 164/2/3 163/2/3
f 170/2/3 163/2/3 162/2/3
f 171/2/3 169/2/3 170/2/3
f 172/2/3 169/2/3 171/2/3
f 173/2/3 169/2/3 172/2/3
f 174/2/3 169/2/3 173/2/3
f 176/3/3 172/3/3 171/3/3
f 176/4/3 173/4/3 172/4/3
f 177/4/3 173/4/3 176/4/3
f 178/3/3 174/3/3 173/3/3
f 178/4/3 173/4/3 177/4/3
f 179/4/3 175/4/3 174/4/3
f 179/3/3 174/3/3 178/3/3
f 180/4/3 171/4/3 170/4/3
f 181/3/3 177/3/3 176/3/3
f 181/4/3 171/4/3 180/4/3
f 181/3/3 176/3/3 171/3/3
f 182/4/3 178/4/3 177/4/3
f 182/3/3 177/3/3 181/3/3
f 182/4/3 179/4/3 178/4/3
f 183/4/3 175/4/3 179/4/3
f 183/4/3 179/4/3 182/4/3
f 184/2/3 182/2/3 181/2/3
f 184/2/3 181/2/3 180/2/3
f 184/2/3 183/2/3 182/2/3
f 185/2/3 183/2/3 184/2/3
f 186/4/3 185/4/3 184/4/3
f 187/4/3 185/4/3 186/4/3
f 188/4/3 185/4/3 187/4/3
f 189/4/3 185/4/3 188/4/3
f 190/3/3 187/3/3 186/3/3
f 191/4/3 188/4/3 187/4/3
f 191/3/3 187/3/3 190/3/3
f 192/3/3 189/3/3 188/3/3
f 192/4/3 188/4/3 191/4/3
f 193/4/3 185/4/3 189/4/3
f 193/3/3 189/3/3 192/3/3
f 194/4/3 185/4/3 193/4/3
f 195/2/3 192/2/3 191/2/3
f 195/2/3 191/2/3 190/2/3
f 195/2/3 194/2/3 193/2/3
f 195/2/3 193/2/3 192/2/3
f 196/2/3 194/2/3 195/2/3
f 197/2/3 194/2/3 196/2/3
f 198/2/3 194/2/3 197/2/3
f 199/4/3 196/4/3 195/4/3
f 200/4/3 196/4/3 199/4/3
f 201/3/3 197/3/3 196/3/3
f 201/4/3 196/4/3 200/4/3
f 202/4/3 198/4/3 197/4/3
f 202/3/3 197/3/3 201/3/3
f 203/4/3 199/4/3 195/4/3
f 204/3/3 200/3/3 199/3/3
f 204/4/3 199/4/3 203/4/3
f 205/3/3 200/3/3 204/3/3
f 206/3/3 200/3/3 205/3/3
f 207/4/3 201/4/3 200/4/3
f 207/3/3 200/3/3 206/3/3
f 207/4/3 202/4/3 201/4/3
f 208/4/3 198/4/3 202/4/3
f 208/4/3 202/4/3 207/4/3
f 209/4/3 198/4/3 208/4/3
f 210/2/3 205/2/3 204/2/3
f 210/2/3 204/2/3 203/2/3
f 211/2/3 205/2/3 210/2/3
f 212/2/3 205/2/3 211/2/3
f 213/2/3 207/2/3 206/2/3
f 213/2/3 208/2/3 207/2/3
f 214/2/3 208/2/3 213/2/3
f 215/2/3 208/2/3 214/2/3
f 216/2/3 208/2/3 215/2/3
f 217/2/3 208/2/3 216/2/3
f 218/4/3 216/4/3 215/4/3
f 219/1/3 217/1/3 216/1/3
f 219/4/3 216/4/3 218/4/3
f 220/1/3 217/1/3 219/1/3
f 221/1/3 217/1/3 220/1/3
f 222/4/3 211/4/3 210/4/3
f 223/4/3 211/4/3 222/4/3
f 224/3/3 213/3/3 212/3/3
f 225/3/3 213/3/3 224/3/3
f 226/3/3 215/3/3 214/3/3
f 227/4/3 218/4/3 215/4/3
f 227/3/3 215/3/3 226/3/3
f 228/1/3 219/1/3 218/1/3
f 228/4/3 218/4/3 227/4/3
f 228/1/3 220/1/3 219/1/3
f 229/1/3 220/1/3 228/1/3
f 230/1/3 220/1/3 229/1/3
f 231/2/3 223/2/3 222/2/3
f 231/2/3 224/2/3 223/2/3
f 232/2/3 224/2/3 231/2/3
f 233/2/3 224/2/3 232/2/3
f 234/2/3 224/2/3 233/2/3
f 235/2/3 226/2/3 225/2/3
f 235/2/3 229/2/3 228/2/3
f 235/2/3 227/2/3 226/2/3
f 235/2/3 228/2/3 227/2/3
f 236/2/3 229/2/3 235/2/3
f 237/2/3 229/2/3 236/2/3
f 238/3/3 233/3/3 232/3/3
f 238/1/3 232/1/3 231/1/3
f 239/3/3 233/3/3 238/3/3
f 240/4/3 234/4/3 233/4/3
f 240/3/3 233/3/3 239/3/3
f 240/4/3 236/4/3 235/4/3
f 240/4/3 235/4/3 234/4/3
f 241/4/3 236/4/3 240/4/3
f 242/4/3 236/4/3 241/4/3
f 243/4/3 236/4/3 242/4/3
f 244/1/3 239/1/3 238/1/3
f 244/1/3 238/1/3 231/1/3
f 245/3/3 240/3/3 239/3/3
f 245/1/3 239/1/3 244/1/3
f 245/3/3 241/3/3 240/3/3
f 246/4/3 242/4/3 241/4/3
f 246/3/3 241/3/3 245/3/3
f 247/4/3 242/4/3 246/4/3
f 248/1/4 249/1/4 251/1/4
f 251/1/4 249/1/4 252/1/4
f 252/1/4 249/1/4 253/1/4
f 249/4/4 250/4/4 254/4/4
f 253/1/4 249/1/4 254/1/4
f 254/4/4 250/4/4 255/4/4
f 248/1/4 251/1/4 257/1/4
f 251/4/4 252/4/4 258/4/4
f 257/1/4 251/1/4 258/1/4
f 252/3/4 253/3/4 259/3/4
f 258/4/4 252/4/4 259/4/4
f 255/4/4 256/4/4 260/4/4
f 259/3/4 253/3/4 260/3/4
f 253/4/4 254/4/4 260/4/4
f 254/4/4 255/4/4 260/4/4
f 260/4/4 256/4/4 261/4/4
f 257/2/4 258/2/4 263/2/4
f 261/2/4 262/2/4 263/2/4
f 260/2/4 261/2/4 263/2/4
f 259/2/4 260/2/4 263/2/4
f 258/2/4 259/2/4 263/2/4
f 263/2/4 262/2/4 264/2/4
f 264/2/4 262/2/4 265/2/4
f 265/2/4 262/2/4 266/2/4
f 266/2/4 262/2/4 267/2/4
f 267/2/4 262/2/4 268/2/4
f 268/2/4 262/2/4 269/2/4
f 265/3/4 266/3/4 271/3/4
f 266/1/4 267/1/4 272/1/4
f 271/3/4 266/3/4 272/3/4
f 272/1/4 267/1/4 273/1/4
f 267/4/4 268/4/4 274/4/4
f 273/1/4 267/1/4 274/1/4
f 269/1/4 270/1/4 275/1/4
f 274/4/4 268/4/4 275/4/4
f 268/1/4 269/1/4 275/1/4
f 275/1/4 270/1/4 276/1/4
f 276/1/4 270/1/4 277/1/4
f 263/1/4 264/1/4 279/1/4
f 264/4/4 265/4/4 280/4/4
f 279/1/4 264/1/4 280/1/4
f 265/3/4 271/3/4 281/3/4
f 280/4/4 265/4/4 281/4/4
f 272/1/4 273/1/4 282/1/4
f 281/3/4 271/3/4 282/3/4
f 271/1/4 272/1/4 282/1/4
f 273/3/4 274/3/4 283/3/4
f 282/1/4 273/1/4 283/1/4
f 274/4/4 275/4/4 284/4/4
f 283/3/4 274/3/4 284/3/4
f 275/4/4 276/4/4 284/4/4
f 277/1/4 278/1/4 285/1/4
f 284/4/4 276/4/4 285/4/4
f 276/1/4 277/1/4 285/1/4
f 285/1/4 278/1/4 286/1/4
f 283/2/4 284/2/4 287/2/4
f 281/2/4 282/2/4 287/2/4
f 285/2/4 286/2/4 287/2/4
f 284/2/4 285/2/4 287/2/4
f 282/2/4 283/2/4 287/2/4
f 280/2/4 281/2/4 287/2/4
f 279/2/4 280/2/4 287/2/4
f 287/2/4 286/2/4 288/2/4
f 288/2/4 286/2/4 289/2/4
f 289/2/4 286/2/4 290/2/4
f 290/2/4 286/2/4 291/2/4
f 288/3/4 289/3/4 293/3/4
f 289/4/4 290/4/4 293/4/4
f 293/4/4 290/4/4 294/4/4
f 290/3/4 291/3/4 295/3/4
f 294/4/4 290/4/4 295/4/4
f 291/4/4 292/4/4 296/4/4
f 295/3/4 291/3/4 296/3/4
f 287/4/4 288/4/4 297/4/4
f 293/3/4 294/3/4 298/3/4
f 297/4/4 288/4/4 298/4/4
f 288/3/4 293/3/4 298/3/4
f 294/4/4 295/4/4 299/4/4
f 298/3/4 294/3/4 299/3/4
f 295/4/4 296/4/4 299/4/4
f 296/4/4 292/4/4 300/4/4
f 299/4/4 296/4/4 300/4/4
f 298/2/4 299/2/4 301/2/4
f 297/2/4 298/2/4 301/2/4
f 299/2/4 300/2/4 301/2/4
f 301/2/4 300/2/4 302/2/4
f 301/4/4 302/4/4 303/4/4
f 303/4/4 302/4/4 304/4/4
f 304/4/4 302/4/4 305/4/4
f 305/4/4 302/4/4 306/4/4
f 303/3/4 304/3/4 307/3/4
f 304/4/4 305/4/4 308/4/4
f 307/3/4 304/3/4 308/3/4
f 305/3/4 306/3/4 309/3/4
f 308/4/4 305/4/4 309/4/4
f 306/4/4 302/4/4 310/4/4
f 309/3/4 306/3/4 310/3/4
f 310/4/4 302/4/4 311/4/4
f 308/2/4 309/2/4 312/2/4
f 307/2/4 308/2/4 312/2/4
f 310/2/4 311/2/4 312/2/4
f 309/2/4 310/2/4 312/2/4
f 312/2/4 311/2/4 313/2/4
f 313/2/4 311/2/4 314/2/4
f 314/2/4 311/2/4 315/2/4
f 312/4/4 313/4/4 316/4/4
f 316/4/4 313/4/4 317/4/4
f 313/3/4 314/3/4 318/3/4
f 317/4/4 313/4/4 318/4/4
f 314/4/4 315/4/4 319/4/4
f 318/3/4 314/3/4 319/3/4
f 312/4/4 316/4/4 320/4/4
f 316/3/4 317/3/4 321/3/4
f 320/4/4 316/4/4 321/4/4
f 321/3/4 317/3/4 322/3/4
f 322/3/4 317/3/4 323/3/4
f 317/4/4 318/4/4 324/4/4
f 323/3/4 317/3/4 324/3/4
f 318/4/4 319/4/4 324/4/4
f 319/4/4 315/4/4 325/4/4
f 324/4/4 319/4/4 325/4/4
f 325/4/4 315/4/4 326/4/4
f 321/2/4 322/2/4 327/2/4
f 320/2/4 321/2/4 327/2/4
f 327/2/4 322/2/4 328/2/4
f 328/2/4 322/2/4 329/2/4
f 323/2/4 324/2/4 330/2/4
f 324/2/4 325/2/4 330/2/4
f 330/2/4 325/2/4 331/2/4
f 331/2/4 325/2/4 332/2/4
f 332/2/4 325/2/4 333/2/4
f 333/2/4 325/2/4 334/2/4
f 332/4/4 333/4/4 335/4/4
f 333/1/4 334/1/4 336/1/4
f 335/4/4 333/4/4 336/4/4
f 336/1/4 334/1/4 337/1/4
f 337/1/4 334/1/4 338/1/4
f 327/4/4 328/4/4 339/4/4
f 339/4/4 328/4/4 340/4/4
f 329/3/4 330/3/4 341/3/4
f 341/3/4 330/3/4 342/3/4
f 331/3/4 332/3/4 343/3/4
f 332/4/4 335/4/4 344/4/4
f 343/3/4 332/3/4 344/3/4
f 335/1/4 336/1/4 345/1/4
f 344/4/4 335/4/4 345/4/4
f 336/1/4 337/1/4 345/1/4
f 345/1/4 337/1/4 346/1/4
f 346/1/4 337/1/4 347/1/4
f 339/2/4 340/2/4 348/2/4
f 340/2/4 341/2/4 348/2/4
f 348/2/4 341/2/4 349/2/4
f 349/2/4 341/2/4 350/2/4
f 350/2/4 341/2/4 351/2/4
f 342/2/4 343/2/4 352/2/4
f 345/2/4 346/2/4 352/2/4
f 343/2/4 344/2/4 352/2/4
f 344/2/4 345/2/4 352/2/4
f 352/2/4 346/2/4 353/2/4
f 353/2/4 346/2/4 354/2/4
f 349/3/4 350/3/4 355/3/4
f 348/1/4 349/1/4 355/1/4
f 355/3/4 350/3/4 356/3/4
f 350/4/4 351/4/4 357/4/4
f 356/3/4 350/3/4 357/3/4
f 352/4/4 353/4/4 357/4/4
f 351/4/4 352/4/4 357/4/4
f 357/4/4 353/4/4 358/4/4
f 358/4/4 353/4/4 359/4/4
f 359/4/4 353/4/4 360/4/4
f 355/1/4 356/1/4 361/1/4
f 348/1/4 355/1/4 361/1/4
f 356/3/4 357/3/4 362/3/4
f 361/1/4 356/1/4 362/1/4
f 357/3/4 358/3/4 362/3/4
f 358/4/4 359/4/4 363/4/4
f 362/3/4 358/3/4 363/3/4
f 363/4/4 359/4/4 364/4/4
f 365/5/4 366/5/4 368/5/4
f 368/5/4 366/5/4 369/5/4
f 367/5/4 368/5/4 371/5/4
f 371/5/4 368/5/4 372/5/4
f 369/5/4 370/5/4 373/5/4
f 373/5/4 370/5/4 374/5/4
f 372/5/4 373/5/4 375/5/4
f 375/5/4 373/5/4 376/5/4
f 392/1/5 378/1/5 377/1/5
f 393/2/5 379/2/5 378/2/5
f 393/1/5 378/1/5 392/1/5
f 394/1/5 380/1/5 379/1/5
f 394/2/5 379/2/5 393/2/5
f 395/2/5 381/2/5 380/2/5
f 395/1/5 380/1/5 394/1/5
f 396/4/5 382/4/5 381/4/5
f 396/2/5 381/2/5 395/2/5
f 397/2/5 383/2/5 382/2/5
f 397/4/5 382/4/5 396/4/5
f 398/4/5 384/4/5 383/4/5
f 398/2/5 383/2/5 397/2/5
f 399/3/5 385/3/5 384/3/5
f 399/4/5 384/4/5 398/4/5
f 400/2/5 386/2/5 385/2/5
f 400/3/5 385/3/5 399/3/5
f 401/4/5 387/4/5 386/4/5
f 401/2/5 386/2/5 400/2/5
f 402/2/5 388/2/5 387/2/5
f 402/4/5 387/4/5 401/4/5
f 403/4/5 389/4/5 388/4/5
f 403/2/5 388/2/5 402/2/5
f 404/2/5 390/2/5 389/2/5
f 404/4/5 389/4/5 403/4/5
f 405/1/5 391/1/5 390/1/5
f 405/2/5 390/2/5 404/2/5
f 406/1/5 391/1/5 405/1/5
f 409/5/5 408/5/5 407/5/5
f 410/5/5 408/5/5 409/5/5
f 413/5/5 412/5/5 411/5/5
f 414/5/5 412/5/5 413/5/5
f 419/5/5 416/5/5 415/5/5
f 420/5/5 416/5/5 419/5/5
f 421/5/5 418/5/5 417/5/5
f 422/5/5 418/5/5 421/5/5
f 427/5/5 424/5/5 423/5/5
f 428/5/5 424/5/5 427/5/5
f 429/5/5 426/5/5 425/5/5
f 430/5/5 426/5/5 429/5/5
f 433/5/5 432/5/5 431/5/5
f 434/5/5 432/5/5 433/5/5
f 437/5/5 436/5/5 435/5/5
f 438/5/5 436/5/5 437/5/5
f 439/5/6 440/5/6 441/5/6
f 441/5/6 440/5/6 442/5/6
f 443/5/6 444/5/6 445/5/6
f 445/5/6 444/5/6 446/5/6
f 447/5/6 448/5/6 451/5/6
f 451/5/6 448/5/6 452/5/6
f 449/5/6 450/5/6 453/5/6
f 453/5/6 450/5/6 454/5/6
f 455/5/6 456/5/6 459/5/6
f 459/5/6 456/5/6 460/5/6
f 457/5/6 458/5/6 461/5/6
f 461/5/6 458/5/6 462/5/6
f 463/5/6 464/5/6 465/5/6
f 465/5/6 464/5/6 466/5/6
f 467/5/6 468/5/6 469/5/6
f 469/5/6 468/5/6 470/5/6
f 471/4/6 472/4/6 475/4/6
f 475/4/6 472/4/6 476/4/6
f 473/4/6 474/4/6 477/4/6
f 477/4/6 474/4/6 478/4/6
f 479/4/6 480/4/6 483/4/6
f 483/4/6 480/4/6 484/4/6
f 481/4/6 482/4/6 485/4/6
f 485/4/6 482/4/6 486/4/6
f 487/2/6 488/2/6 491/2/6
f 491/2/6 488/2/6 492/2/6
f 489/2/6 490/2/6 493/2/6
f 493/2/6 490/2/6 494/2/6
f 495/1/6 496/1/6 499/1/6
f 499/1/6 496/1/6 500/1/6
f 497/1/6 498/1/6 501/1/6
f 501/1/6 498/1/6 502/1/6
f 503/1/6 504/1/6 509/1/6
f 504/2/6 505/2/6 510/2/6
f 509/1/6 504/1/6 510/1/6
f 510/2/6 505/2/6 511/2/6
f 506/2/6 507/2/6 512/2/6
f 507/1/6 508/1/6 513/1/6
f 512/2/6 507/2/6 513/2/6
f 513/1/6 508/1/6 514/1/6
f 515/4/6 516/4/6 521/4/6
f 516/2/6 517/2/6 522/2/6
f 521/4/6 516/4/6 522/4/6
f 517/4/6 518/4/6 523/4/6
f 522/2/6 517/2/6 523/2/6
f 518/2/6 519/2/6 524/2/6
f 523/4/6 518/4/6 524/4/6
f 519/4/6 520/4/6 525/4/6
f 524/2/6 519/2/6 525/2/6
f 525/4/6 520/4/6 526/4/6
