# MagicaVoxel @ Ephtracy

# group
o 

# material
mtllib HumanAnimation-6.mtl
usemtl palette

# normals
vn -1 0 0
vn 1 0 0
vn 0 0 1
vn 0 0 -1
vn 0 -1 0
vn 0 1 0

# texcoords
vt 0.349609 0.5
vt 0.353516 0.5
vt 0.947266 0.5
vt 0.978516 0.5

# verts
v -0.5 5.7 0.2
v -0.5 5.7 -0.4
v -0.5 5.8 0.4
v -0.5 5.8 0.2
v -0.5 5.8 -0.4
v -0.5 5.8 -0.5
v -0.5 5.9 0.4
v -0.5 5.9 0.2
v -0.5 6.1 0.4
v -0.5 6.1 -0.5
v -0.4 5.2 0.4
v -0.4 5.2 -0.5
v -0.4 5.5 -0.1
v -0.4 5.5 -0.2
v -0.4 5.7 0.2
v -0.4 5.7 -0.1
v -0.4 5.7 -0.2
v -0.4 5.7 -0.4
v -0.4 5.8 0.4
v -0.4 5.8 0.2
v -0.4 5.8 -0.4
v -0.4 5.8 -0.5
v -0.4 5.8 -0.6
v -0.4 5.9 0.5
v -0.4 5.9 0.4
v -0.4 5.9 -0.5
v -0.4 5.9 -0.6
v -0.4 6 0.5
v -0.4 6 0.4
v -0.4 6.1 0.5
v -0.4 6.1 0.4
v -0.4 6.1 -0.5
v -0.4 6.1 -0.6
v -0.4 6.2 0.4
v -0.4 6.2 -0.5
v -0.3 5.6 -0.5
v -0.3 5.6 -0.6
v -0.3 5.8 -0.5
v -0.3 5.8 -0.6
v -0.2 6.2 0.1
v -0.2 6.2 -0.3
v -0.2 6.3 0.1
v -0.2 6.3 -0.3
v -0.1 6.3 0
v -0.1 6.3 -0.2
v -0.1 6.4 0
v -0.1 6.4 -0.2
v 0.1 6.3 0
v 0.1 6.3 -0.2
v 0.1 6.4 0
v 0.1 6.4 -0.2
v 0.2 6.2 0.1
v 0.2 6.2 -0.3
v 0.2 6.3 0.1
v 0.2 6.3 -0.3
v 0.3 5.6 -0.5
v 0.3 5.6 -0.6
v 0.3 5.8 -0.5
v 0.3 5.8 -0.6
v 0.4 5.2 0.4
v 0.4 5.2 -0.5
v 0.4 5.5 -0.1
v 0.4 5.5 -0.2
v 0.4 5.7 0.2
v 0.4 5.7 -0.1
v 0.4 5.7 -0.2
v 0.4 5.7 -0.4
v 0.4 5.8 0.4
v 0.4 5.8 0.2
v 0.4 5.8 -0.4
v 0.4 5.8 -0.5
v 0.4 5.8 -0.6
v 0.4 5.9 0.5
v 0.4 5.9 0.4
v 0.4 5.9 -0.5
v 0.4 5.9 -0.6
v 0.4 6 0.5
v 0.4 6 0.4
v 0.4 6.1 0.5
v 0.4 6.1 0.4
v 0.4 6.1 -0.5
v 0.4 6.1 -0.6
v 0.4 6.2 0.4
v 0.4 6.2 -0.5
v 0.5 5.7 0.2
v 0.5 5.7 -0.4
v 0.5 5.8 0.4
v 0.5 5.8 0.2
v 0.5 5.8 -0.4
v 0.5 5.8 -0.5
v 0.5 5.9 0.4
v 0.5 5.9 0.2
v 0.5 6.1 0.4
v 0.5 6.1 -0.5
v -0.4 5.9 0.5
v -0.4 6 0.5
v -0.4 6.1 0.5
v 0.4 5.9 0.5
v 0.4 6 0.5
v 0.4 6.1 0.5
v -0.5 5.8 0.4
v -0.5 5.9 0.4
v -0.5 6.1 0.4
v -0.4 5.2 0.4
v -0.4 5.8 0.4
v -0.4 5.9 0.4
v -0.4 6 0.4
v -0.4 6.1 0.4
v -0.4 6.2 0.4
v 0.4 5.2 0.4
v 0.4 5.8 0.4
v 0.4 5.9 0.4
v 0.4 6 0.4
v 0.4 6.1 0.4
v 0.4 6.2 0.4
v 0.5 5.8 0.4
v 0.5 5.9 0.4
v 0.5 6.1 0.4
v -0.5 5.7 0.2
v -0.5 5.8 0.2
v -0.4 5.7 0.2
v -0.4 5.8 0.2
v 0.4 5.7 0.2
v 0.4 5.8 0.2
v 0.5 5.7 0.2
v 0.5 5.8 0.2
v -0.2 6.2 0.1
v -0.2 6.3 0.1
v 0.2 6.2 0.1
v 0.2 6.3 0.1
v -0.1 6.3 0
v -0.1 6.4 0
v 0.1 6.3 0
v 0.1 6.4 0
v -0.1 6.3 -0.2
v -0.1 6.4 -0.2
v 0.1 6.3 -0.2
v 0.1 6.4 -0.2
v -0.2 6.2 -0.3
v -0.2 6.3 -0.3
v 0.2 6.2 -0.3
v 0.2 6.3 -0.3
v -0.5 5.7 -0.4
v -0.5 5.8 -0.4
v -0.4 5.7 -0.4
v -0.4 5.8 -0.4
v 0.4 5.7 -0.4
v 0.4 5.8 -0.4
v 0.5 5.7 -0.4
v 0.5 5.8 -0.4
v -0.5 5.8 -0.5
v -0.5 6.1 -0.5
v -0.4 5.2 -0.5
v -0.4 5.8 -0.5
v -0.4 5.9 -0.5
v -0.4 6.1 -0.5
v -0.4 6.2 -0.5
v -0.3 5.6 -0.5
v -0.3 5.8 -0.5
v 0.3 5.6 -0.5
v 0.3 5.8 -0.5
v 0.4 5.2 -0.5
v 0.4 5.8 -0.5
v 0.4 5.9 -0.5
v 0.4 6.1 -0.5
v 0.4 6.2 -0.5
v 0.5 5.8 -0.5
v 0.5 6.1 -0.5
v -0.4 5.8 -0.6
v -0.4 5.9 -0.6
v -0.4 6.1 -0.6
v -0.3 5.6 -0.6
v -0.3 5.8 -0.6
v -0.3 5.9 -0.6
v -0.2 5.7 -0.6
v -0.2 5.8 -0.6
v 0.2 5.7 -0.6
v 0.2 5.8 -0.6
v 0.3 5.6 -0.6
v 0.3 5.8 -0.6
v 0.3 5.9 -0.6
v 0.4 5.8 -0.6
v 0.4 5.9 -0.6
v 0.4 6.1 -0.6
v -0.4 5.2 0.4
v 0.4 5.2 0.4
v -0.4 5.2 -0.5
v 0.4 5.2 -0.5
v -0.3 5.6 -0.5
v 0.3 5.6 -0.5
v -0.3 5.6 -0.6
v 0.3 5.6 -0.6
v -0.5 5.7 0.2
v -0.4 5.7 0.2
v 0.4 5.7 0.2
v 0.5 5.7 0.2
v -0.4 5.7 -0.1
v 0.4 5.7 -0.1
v -0.4 5.7 -0.2
v 0.4 5.7 -0.2
v -0.5 5.7 -0.4
v -0.4 5.7 -0.4
v 0.4 5.7 -0.4
v 0.5 5.7 -0.4
v -0.5 5.8 0.4
v -0.4 5.8 0.4
v 0.4 5.8 0.4
v 0.5 5.8 0.4
v -0.5 5.8 0.2
v -0.4 5.8 0.2
v 0.4 5.8 0.2
v 0.5 5.8 0.2
v -0.5 5.8 -0.4
v -0.4 5.8 -0.4
v 0.4 5.8 -0.4
v 0.5 5.8 -0.4
v -0.5 5.8 -0.5
v -0.4 5.8 -0.5
v -0.3 5.8 -0.5
v 0.3 5.8 -0.5
v 0.4 5.8 -0.5
v 0.5 5.8 -0.5
v -0.4 5.8 -0.6
v -0.3 5.8 -0.6
v 0.3 5.8 -0.6
v 0.4 5.8 -0.6
v -0.4 5.9 0.5
v 0.4 5.9 0.5
v -0.4 5.9 0.4
v 0.4 5.9 0.4
v -0.4 6.1 0.5
v 0.4 6.1 0.5
v -0.5 6.1 0.4
v -0.4 6.1 0.4
v 0.4 6.1 0.4
v 0.5 6.1 0.4
v -0.5 6.1 -0.5
v -0.4 6.1 -0.5
v 0.4 6.1 -0.5
v 0.5 6.1 -0.5
v -0.4 6.1 -0.6
v 0.4 6.1 -0.6
v -0.4 6.2 0.4
v 0.4 6.2 0.4
v -0.2 6.2 0.1
v 0.2 6.2 0.1
v -0.2 6.2 -0.3
v 0.2 6.2 -0.3
v -0.4 6.2 -0.5
v 0.4 6.2 -0.5
v -0.2 6.3 0.1
v 0.2 6.3 0.1
v -0.1 6.3 0
v 0.1 6.3 0
v -0.1 6.3 -0.2
v 0.1 6.3 -0.2
v -0.2 6.3 -0.3
v 0.2 6.3 -0.3
v -0.1 6.4 0
v 0.1 6.4 0
v -0.1 6.4 -0.2
v 0.1 6.4 -0.2

# faces
f 4/4/1 2/4/1 1/4/1
f 5/4/1 2/4/1 4/4/1
f 7/4/1 4/4/1 3/4/1
f 8/3/1 6/3/1 5/3/1
f 8/4/1 4/4/1 7/4/1
f 8/3/1 5/3/1 4/3/1
f 9/3/1 8/3/1 7/3/1
f 10/3/1 6/3/1 8/3/1
f 10/3/1 8/3/1 9/3/1
f 13/1/1 12/1/1 11/1/1
f 14/1/1 12/1/1 13/1/1
f 15/1/1 13/1/1 11/1/1
f 16/2/1 14/2/1 13/2/1
f 16/1/1 13/1/1 15/1/1
f 17/1/1 12/1/1 14/1/1
f 17/2/1 14/2/1 16/2/1
f 18/1/1 12/1/1 17/1/1
f 19/1/1 15/1/1 11/1/1
f 20/1/1 15/1/1 19/1/1
f 21/1/1 12/1/1 18/1/1
f 22/1/1 12/1/1 21/1/1
f 26/4/1 23/4/1 22/4/1
f 27/4/1 23/4/1 26/4/1
f 28/4/1 25/4/1 24/4/1
f 29/4/1 25/4/1 28/4/1
f 30/3/1 29/3/1 28/3/1
f 31/3/1 29/3/1 30/3/1
f 32/3/1 27/3/1 26/3/1
f 33/3/1 27/3/1 32/3/1
f 34/3/1 32/3/1 31/3/1
f 35/3/1 32/3/1 34/3/1
f 38/4/1 37/4/1 36/4/1
f 39/4/1 37/4/1 38/4/1
f 42/4/1 41/4/1 40/4/1
f 43/4/1 41/4/1 42/4/1
f 46/4/1 45/4/1 44/4/1
f 47/4/1 45/4/1 46/4/1
f 48/4/2 49/4/2 50/4/2
f 50/4/2 49/4/2 51/4/2
f 52/4/2 53/4/2 54/4/2
f 54/4/2 53/4/2 55/4/2
f 56/4/2 57/4/2 58/4/2
f 58/4/2 57/4/2 59/4/2
f 60/1/2 61/1/2 62/1/2
f 62/1/2 61/1/2 63/1/2
f 60/1/2 62/1/2 64/1/2
f 62/2/2 63/2/2 65/2/2
f 64/1/2 62/1/2 65/1/2
f 63/1/2 61/1/2 66/1/2
f 65/2/2 63/2/2 66/2/2
f 66/1/2 61/1/2 67/1/2
f 60/1/2 64/1/2 68/1/2
f 68/1/2 64/1/2 69/1/2
f 67/1/2 61/1/2 70/1/2
f 70/1/2 61/1/2 71/1/2
f 71/4/2 72/4/2 75/4/2
f 75/4/2 72/4/2 76/4/2
f 73/4/2 74/4/2 77/4/2
f 77/4/2 74/4/2 78/4/2
f 77/3/2 78/3/2 79/3/2
f 79/3/2 78/3/2 80/3/2
f 75/3/2 76/3/2 81/3/2
f 81/3/2 76/3/2 82/3/2
f 80/3/2 81/3/2 83/3/2
f 83/3/2 81/3/2 84/3/2
f 85/4/2 86/4/2 88/4/2
f 88/4/2 86/4/2 89/4/2
f 87/4/2 88/4/2 91/4/2
f 89/3/2 90/3/2 92/3/2
f 91/4/2 88/4/2 92/4/2
f 88/3/2 89/3/2 92/3/2
f 91/3/2 92/3/2 93/3/2
f 92/3/2 90/3/2 94/3/2
f 93/3/2 92/3/2 94/3/2
f 98/4/3 96/4/3 95/4/3
f 99/3/3 97/3/3 96/3/3
f 99/4/3 96/4/3 98/4/3
f 100/3/3 97/3/3 99/3/3
f 105/4/3 102/4/3 101/4/3
f 106/3/3 103/3/3 102/3/3
f 106/4/3 102/4/3 105/4/3
f 107/3/3 103/3/3 106/3/3
f 108/3/3 103/3/3 107/3/3
f 110/1/3 105/1/3 104/1/3
f 110/1/3 106/1/3 105/1/3
f 111/1/3 106/1/3 110/1/3
f 112/1/3 106/1/3 111/1/3
f 114/3/3 109/3/3 108/3/3
f 115/3/3 109/3/3 114/3/3
f 116/4/3 112/4/3 111/4/3
f 117/3/3 113/3/3 112/3/3
f 117/4/3 112/4/3 116/4/3
f 117/3/3 114/3/3 113/3/3
f 118/3/3 114/3/3 117/3/3
f 121/4/3 120/4/3 119/4/3
f 122/4/3 120/4/3 121/4/3
f 125/4/3 124/4/3 123/4/3
f 126/4/3 124/4/3 125/4/3
f 129/4/3 128/4/3 127/4/3
f 130/4/3 128/4/3 129/4/3
f 133/4/3 132/4/3 131/4/3
f 134/4/3 132/4/3 133/4/3
f 135/4/4 136/4/4 137/4/4
f 137/4/4 136/4/4 138/4/4
f 139/4/4 140/4/4 141/4/4
f 141/4/4 140/4/4 142/4/4
f 143/4/4 144/4/4 145/4/4
f 145/4/4 144/4/4 146/4/4
f 147/4/4 148/4/4 149/4/4
f 149/4/4 148/4/4 150/4/4
f 151/3/4 152/3/4 154/3/4
f 154/3/4 152/3/4 155/3/4
f 155/3/4 152/3/4 156/3/4
f 153/1/4 154/1/4 158/1/4
f 158/1/4 154/1/4 159/1/4
f 153/1/4 158/1/4 160/1/4
f 153/1/4 160/1/4 162/1/4
f 160/1/4 161/1/4 162/1/4
f 162/1/4 161/1/4 163/1/4
f 156/3/4 157/3/4 165/3/4
f 165/3/4 157/3/4 166/3/4
f 163/3/4 164/3/4 167/3/4
f 164/3/4 165/3/4 167/3/4
f 167/3/4 165/3/4 168/3/4
f 169/4/4 170/4/4 173/4/4
f 170/3/4 171/3/4 174/3/4
f 173/4/4 170/4/4 174/4/4
f 172/4/4 173/4/4 175/4/4
f 173/3/4 174/3/4 176/3/4
f 175/4/4 173/4/4 176/4/4
f 172/4/4 175/4/4 177/4/4
f 175/3/4 176/3/4 177/3/4
f 176/3/4 174/3/4 178/3/4
f 177/3/4 176/3/4 178/3/4
f 172/4/4 177/4/4 179/4/4
f 177/4/4 178/4/4 179/4/4
f 178/3/4 174/3/4 180/3/4
f 179/4/4 178/4/4 180/4/4
f 174/3/4 171/3/4 181/3/4
f 180/3/4 174/3/4 181/3/4
f 180/4/4 181/4/4 182/4/4
f 181/3/4 171/3/4 183/3/4
f 182/4/4 181/4/4 183/4/4
f 183/3/4 171/3/4 184/3/4
f 187/1/5 186/1/5 185/1/5
f 188/1/5 186/1/5 187/1/5
f 191/4/5 190/4/5 189/4/5
f 192/4/5 190/4/5 191/4/5
f 197/4/5 194/4/5 193/4/5
f 198/4/5 196/4/5 195/4/5
f 199/4/5 197/4/5 193/4/5
f 200/4/5 196/4/5 198/4/5
f 201/4/5 199/4/5 193/4/5
f 202/4/5 199/4/5 201/4/5
f 203/4/5 196/4/5 200/4/5
f 204/4/5 196/4/5 203/4/5
f 209/4/5 206/4/5 205/4/5
f 210/4/5 206/4/5 209/4/5
f 211/4/5 208/4/5 207/4/5
f 212/4/5 208/4/5 211/4/5
f 217/3/5 214/3/5 213/3/5
f 218/3/5 214/3/5 217/3/5
f 221/3/5 216/3/5 215/3/5
f 222/3/5 216/3/5 221/3/5
f 223/4/5 219/4/5 218/4/5
f 224/4/5 219/4/5 223/4/5
f 225/4/5 221/4/5 220/4/5
f 226/4/5 221/4/5 225/4/5
f 229/4/5 228/4/5 227/4/5
f 230/4/5 228/4/5 229/4/5
f 231/3/6 232/3/6 234/3/6
f 234/3/6 232/3/6 235/3/6
f 233/3/6 234/3/6 237/3/6
f 237/3/6 234/3/6 238/3/6
f 235/3/6 236/3/6 239/3/6
f 239/3/6 236/3/6 240/3/6
f 238/3/6 239/3/6 241/3/6
f 241/3/6 239/3/6 242/3/6
f 243/3/6 244/3/6 245/3/6
f 245/3/6 244/3/6 246/3/6
f 243/3/6 245/3/6 247/3/6
f 246/3/6 244/3/6 248/3/6
f 243/3/6 247/3/6 249/3/6
f 247/3/6 248/3/6 249/3/6
f 248/3/6 244/3/6 250/3/6
f 249/3/6 248/3/6 250/3/6
f 251/4/6 252/4/6 253/4/6
f 253/4/6 252/4/6 254/4/6
f 251/4/6 253/4/6 255/4/6
f 254/4/6 252/4/6 256/4/6
f 251/4/6 255/4/6 257/4/6
f 255/4/6 256/4/6 257/4/6
f 256/4/6 252/4/6 258/4/6
f 257/4/6 256/4/6 258/4/6
f 259/4/6 260/4/6 261/4/6
f 261/4/6 260/4/6 262/4/6
