# MagicaVoxel @ Ephtracy

# group
o 

# material
mtllib BOX1-62.mtl
usemtl palette

# normals
vn 1 0 0
vn -1 0 0
vn 0 0 1
vn 0 0 -1
vn 0 -1 0
vn 0 1 0

# texcoords
vt 0.876953 0.5
vt 0.880859 0.5
vt 0.884766 0.5
vt 0.951172 0.5
vt 0.955078 0.5
vt 0.982422 0.5
vt 0.986328 0.5

# verts
v 0.8 0 3.3
v 0.8 0 3.1
v 0.8 0 3
v 0.8 0 2.7
v 0.8 0 2.6
v 0.8 0 2.3
v 0.8 0 2.2
v 0.8 0 1.9
v 0.8 0 1.8
v 0.8 0 1.6
v 0.8 0 1.3
v 0.8 0.1 3.3
v 0.8 0.1 3.1
v 0.8 0.1 3
v 0.8 0.1 2.7
v 0.8 0.1 2.6
v 0.8 0.1 2.3
v 0.8 0.1 2.2
v 0.8 0.1 1.9
v 0.8 0.1 1.8
v 0.8 0.1 1.6
v 0.8 0.1 1.4
v 0.8 0.2 1.6
v 0.8 0.2 1.4
v 0.8 0.2 1.3
v 0.5 0.1 1.6
v 0.5 0.1 1.4
v 0.5 0.1 1.3
v 0.5 0.2 1.6
v 0.5 0.2 1.4
v 0.5 0.2 1.3
v -1.2 0 3.3
v -1.2 0 3.2
v -1.2 0 3.1
v -1.2 0 3
v -1.2 0 2.9
v -1.2 0 2.8
v -1.2 0 2.6
v -1.2 0 2.5
v -1.2 0 2.1
v -1.2 0 2
v -1.2 0 1.3
v -1.2 0.1 3.3
v -1.2 0.1 3.2
v -1.2 0.1 3.1
v -1.2 0.1 3
v -1.2 0.1 2.9
v -1.2 0.1 2.8
v -1.2 0.1 2.6
v -1.2 0.1 2.5
v -1.2 0.1 2.1
v -1.2 0.1 2
v -1.2 0.1 1.3
v 0.8 0 3.3
v 0.8 0.1 3.3
v 0.5 0 3.3
v 0.5 0.1 3.3
v 0.4 0 3.3
v 0.4 0.1 3.3
v 0.2 0 3.3
v 0.2 0.1 3.3
v 0.1 0 3.3
v 0.1 0.1 3.3
v -1.1 0 3.3
v -1.1 0.1 3.3
v -1.2 0 3.3
v -1.2 0.1 3.3
v 0.8 0.1 1.6
v 0.8 0.2 1.6
v 0.6 0.1 1.6
v 0.5 0.1 1.6
v 0.5 0.2 1.6
v 0.8 0 1.3
v 0.8 0.2 1.3
v 0.7 0.1 1.3
v 0.7 0.2 1.3
v 0.5 0 1.3
v 0.5 0.1 1.3
v 0.5 0.2 1.3
v 0.3 0 1.3
v 0.3 0.1 1.3
v 0.2 0 1.3
v 0.2 0.1 1.3
v -0.1 0 1.3
v -0.1 0.1 1.3
v -0.2 0 1.3
v -0.2 0.1 1.3
v -0.5 0 1.3
v -0.5 0.1 1.3
v -0.6 0 1.3
v -0.6 0.1 1.3
v -0.9 0 1.3
v -0.9 0.1 1.3
v -1 0 1.3
v -1 0.1 1.3
v -1.2 0 1.3
v -1.2 0.1 1.3
v 0.8 0 3.3
v 0.5 0 3.3
v 0.4 0 3.3
v 0.2 0 3.3
v 0.1 0 3.3
v -1.1 0 3.3
v -1.2 0 3.3
v 0.4 0 3.2
v 0.3 0 3.2
v -1.1 0 3.2
v -1.2 0 3.2
v 0.8 0 3.1
v 0.5 0 3.1
v 0.4 0 3.1
v 0.3 0 3.1
v 0.2 0 3.1
v 0.1 0 3.1
v -1.2 0 3.1
v 0.8 0 3
v 0.5 0 3
v 0.4 0 3
v 0.3 0 3
v 0.2 0 3
v 0.1 0 3
v -0.9 0 3
v -1 0 3
v -1.2 0 3
v 0.5 0 2.9
v 0.4 0 2.9
v 0.3 0 2.9
v -0.3 0 2.9
v -0.4 0 2.9
v -1.1 0 2.9
v -1.2 0 2.9
v 0.2 0 2.8
v 0.1 0 2.8
v -0.4 0 2.8
v -0.5 0 2.8
v -0.7 0 2.8
v -0.8 0 2.8
v -1.1 0 2.8
v -1.2 0 2.8
v 0.8 0 2.7
v -0.3 0 2.7
v -0.5 0 2.7
v -0.7 0 2.7
v -0.8 0 2.7
v -0.9 0 2.7
v 0.8 0 2.6
v -0.1 0 2.6
v -0.2 0 2.6
v -0.3 0 2.6
v -0.4 0 2.6
v -0.5 0 2.6
v -0.6 0 2.6
v -0.7 0 2.6
v -0.8 0 2.6
v -0.9 0 2.6
v -1 0 2.6
v -1.1 0 2.6
v -1.2 0 2.6
v -1 0 2.5
v -1.1 0 2.5
v -1.2 0 2.5
v 0.8 0 2.3
v -0.1 0 2.3
v -0.3 0 2.3
v -0.4 0 2.3
v 0.8 0 2.2
v 0.3 0 2.2
v 0.2 0 2.2
v -0.1 0 2.2
v 0.2 0 2.1
v 0.1 0 2.1
v -1 0 2.1
v -1.2 0 2.1
v -0.4 0 2
v -0.5 0 2
v -1 0 2
v -1.2 0 2
v 0.8 0 1.9
v 0.3 0 1.9
v -0.7 0 1.9
v -0.8 0 1.9
v 0.8 0 1.8
v 0.6 0 1.8
v 0.5 0 1.8
v 0.3 0 1.8
v 0.2 0 1.7
v 0.1 0 1.7
v 0.8 0 1.6
v 0.6 0 1.6
v 0.5 0 1.6
v 0.8 0 1.3
v 0.5 0 1.3
v 0.3 0 1.3
v 0.2 0 1.3
v -0.1 0 1.3
v -0.2 0 1.3
v -0.5 0 1.3
v -0.6 0 1.3
v -0.9 0 1.3
v -1 0 1.3
v -1.2 0 1.3
v 0.8 0.1 3.3
v 0.5 0.1 3.3
v 0.4 0.1 3.3
v 0.2 0.1 3.3
v 0.1 0.1 3.3
v -1.1 0.1 3.3
v -1.2 0.1 3.3
v 0.4 0.1 3.2
v 0.3 0.1 3.2
v -1.1 0.1 3.2
v -1.2 0.1 3.2
v 0.8 0.1 3.1
v 0.5 0.1 3.1
v 0.4 0.1 3.1
v 0.3 0.1 3.1
v 0.2 0.1 3.1
v 0.1 0.1 3.1
v -1.2 0.1 3.1
v 0.8 0.1 3
v 0.5 0.1 3
v 0.4 0.1 3
v 0.3 0.1 3
v 0.2 0.1 3
v 0.1 0.1 3
v -0.9 0.1 3
v -1 0.1 3
v -1.2 0.1 3
v 0.5 0.1 2.9
v 0.4 0.1 2.9
v 0.3 0.1 2.9
v -0.3 0.1 2.9
v -0.4 0.1 2.9
v -1.1 0.1 2.9
v -1.2 0.1 2.9
v 0.2 0.1 2.8
v 0.1 0.1 2.8
v -0.4 0.1 2.8
v -0.5 0.1 2.8
v -0.7 0.1 2.8
v -0.8 0.1 2.8
v -1.1 0.1 2.8
v -1.2 0.1 2.8
v 0.8 0.1 2.7
v -0.3 0.1 2.7
v -0.5 0.1 2.7
v -0.7 0.1 2.7
v -0.8 0.1 2.7
v -0.9 0.1 2.7
v 0.8 0.1 2.6
v -0.1 0.1 2.6
v -0.2 0.1 2.6
v -0.3 0.1 2.6
v -0.4 0.1 2.6
v -0.5 0.1 2.6
v -0.6 0.1 2.6
v -0.7 0.1 2.6
v -0.8 0.1 2.6
v -0.9 0.1 2.6
v -1 0.1 2.6
v -1.1 0.1 2.6
v -1.2 0.1 2.6
v -1 0.1 2.5
v -1.1 0.1 2.5
v -1.2 0.1 2.5
v 0.8 0.1 2.3
v -0.1 0.1 2.3
v -0.3 0.1 2.3
v -0.4 0.1 2.3
v 0.8 0.1 2.2
v 0.3 0.1 2.2
v 0.2 0.1 2.2
v -0.1 0.1 2.2
v 0.2 0.1 2.1
v 0.1 0.1 2.1
v -1 0.1 2.1
v -1.2 0.1 2.1
v -0.4 0.1 2
v -0.5 0.1 2
v -1 0.1 2
v -1.2 0.1 2
v 0.8 0.1 1.9
v 0.3 0.1 1.9
v -0.7 0.1 1.9
v -0.8 0.1 1.9
v 0.8 0.1 1.8
v 0.6 0.1 1.8
v 0.5 0.1 1.8
v 0.3 0.1 1.8
v 0.2 0.1 1.7
v 0.1 0.1 1.7
v 0.8 0.1 1.6
v 0.6 0.1 1.6
v 0.5 0.1 1.6
v 0.5 0.1 1.4
v 0.5 0.1 1.3
v 0.3 0.1 1.3
v 0.2 0.1 1.3
v -0.1 0.1 1.3
v -0.2 0.1 1.3
v -0.5 0.1 1.3
v -0.6 0.1 1.3
v -0.9 0.1 1.3
v -1 0.1 1.3
v -1.2 0.1 1.3
v 0.8 0.2 1.6
v 0.5 0.2 1.6
v 0.8 0.2 1.4
v 0.7 0.2 1.4
v 0.5 0.2 1.4
v 0.8 0.2 1.3
v 0.7 0.2 1.3
v 0.5 0.2 1.3

# faces
f 1/5/1 2/5/1 12/5/1
f 2/2/1 3/2/1 13/2/1
f 12/5/1 2/5/1 13/5/1
f 3/5/1 4/5/1 14/5/1
f 13/2/1 3/2/1 14/2/1
f 4/2/1 5/2/1 15/2/1
f 14/5/1 4/5/1 15/5/1
f 5/5/1 6/5/1 16/5/1
f 15/2/1 5/2/1 16/2/1
f 6/2/1 7/2/1 17/2/1
f 16/5/1 6/5/1 17/5/1
f 7/5/1 8/5/1 18/5/1
f 17/2/1 7/2/1 18/2/1
f 8/2/1 9/2/1 19/2/1
f 18/5/1 8/5/1 19/5/1
f 9/5/1 10/5/1 20/5/1
f 19/2/1 9/2/1 20/2/1
f 10/4/1 11/4/1 21/4/1
f 20/5/1 10/5/1 21/5/1
f 21/4/1 11/4/1 22/4/1
f 21/6/1 22/6/1 23/6/1
f 22/4/1 11/4/1 24/4/1
f 23/6/1 22/6/1 24/6/1
f 24/4/1 11/4/1 25/4/1
f 29/6/2 27/6/2 26/6/2
f 30/7/2 28/7/2 27/7/2
f 30/6/2 27/6/2 29/6/2
f 31/7/2 28/7/2 30/7/2
f 43/3/2 33/3/2 32/3/2
f 44/5/2 34/5/2 33/5/2
f 44/3/2 33/3/2 43/3/2
f 45/2/2 35/2/2 34/2/2
f 45/5/2 34/5/2 44/5/2
f 46/5/2 36/5/2 35/5/2
f 46/2/2 35/2/2 45/2/2
f 47/1/2 37/1/2 36/1/2
f 47/5/2 36/5/2 46/5/2
f 48/5/2 38/5/2 37/5/2
f 48/1/2 37/1/2 47/1/2
f 49/3/2 39/3/2 38/3/2
f 49/5/2 38/5/2 48/5/2
f 50/5/2 40/5/2 39/5/2
f 50/3/2 39/3/2 49/3/2
f 51/3/2 41/3/2 40/3/2
f 51/5/2 40/5/2 50/5/2
f 52/5/2 42/5/2 41/5/2
f 52/3/2 41/3/2 51/3/2
f 53/5/2 42/5/2 52/5/2
f 54/5/3 55/5/3 56/5/3
f 56/5/3 55/5/3 57/5/3
f 56/1/3 57/1/3 58/1/3
f 58/1/3 57/1/3 59/1/3
f 58/5/3 59/5/3 60/5/3
f 60/5/3 59/5/3 61/5/3
f 60/3/3 61/3/3 62/3/3
f 62/3/3 61/3/3 63/3/3
f 62/5/3 63/5/3 64/5/3
f 64/5/3 63/5/3 65/5/3
f 64/3/3 65/3/3 66/3/3
f 66/3/3 65/3/3 67/3/3
f 68/6/3 69/6/3 70/6/3
f 70/6/3 69/6/3 71/6/3
f 71/6/3 69/6/3 72/6/3
f 75/4/4 74/4/4 73/4/4
f 76/4/4 74/4/4 75/4/4
f 77/4/4 75/4/4 73/4/4
f 78/7/4 76/7/4 75/7/4
f 78/4/4 75/4/4 77/4/4
f 79/7/4 76/7/4 78/7/4
f 80/5/4 78/5/4 77/5/4
f 81/5/4 78/5/4 80/5/4
f 82/2/4 81/2/4 80/2/4
f 83/2/4 81/2/4 82/2/4
f 84/5/4 83/5/4 82/5/4
f 85/5/4 83/5/4 84/5/4
f 86/2/4 85/2/4 84/2/4
f 87/2/4 85/2/4 86/2/4
f 88/5/4 87/5/4 86/5/4
f 89/5/4 87/5/4 88/5/4
f 90/2/4 89/2/4 88/2/4
f 91/2/4 89/2/4 90/2/4
f 92/5/4 91/5/4 90/5/4
f 93/5/4 91/5/4 92/5/4
f 94/2/4 93/2/4 92/2/4
f 95/2/4 93/2/4 94/2/4
f 96/5/4 95/5/4 94/5/4
f 97/5/4 95/5/4 96/5/4
f 99/1/5 100/1/5 105/1/5
f 100/5/5 101/5/5 105/5/5
f 105/5/5 101/5/5 106/5/5
f 103/3/5 104/3/5 107/3/5
f 102/5/5 103/5/5 107/5/5
f 107/3/5 104/3/5 108/3/5
f 98/5/5 99/5/5 109/5/5
f 99/1/5 105/1/5 110/1/5
f 109/5/5 99/5/5 110/5/5
f 105/3/5 106/3/5 111/3/5
f 110/1/5 105/1/5 111/1/5
f 106/5/5 101/5/5 112/5/5
f 111/3/5 106/3/5 112/3/5
f 101/3/5 102/3/5 113/3/5
f 112/5/5 101/5/5 113/5/5
f 102/5/5 107/5/5 114/5/5
f 113/3/5 102/3/5 114/3/5
f 107/5/5 108/5/5 114/5/5
f 114/5/5 108/5/5 115/5/5
f 110/2/5 111/2/5 116/2/5
f 109/2/5 110/2/5 116/2/5
f 114/2/5 115/2/5 116/2/5
f 113/2/5 114/2/5 116/2/5
f 112/2/5 113/2/5 116/2/5
f 111/2/5 112/2/5 116/2/5
f 116/2/5 115/2/5 117/2/5
f 117/2/5 115/2/5 118/2/5
f 118/2/5 115/2/5 119/2/5
f 119/2/5 115/2/5 120/2/5
f 120/2/5 115/2/5 121/2/5
f 121/2/5 115/2/5 122/2/5
f 122/2/5 115/2/5 123/2/5
f 123/2/5 115/2/5 124/2/5
f 116/5/5 117/5/5 125/5/5
f 117/1/5 118/1/5 125/1/5
f 118/3/5 119/3/5 126/3/5
f 125/1/5 118/1/5 126/1/5
f 119/5/5 120/5/5 127/5/5
f 126/3/5 119/3/5 127/3/5
f 121/5/5 122/5/5 128/5/5
f 128/5/5 122/5/5 129/5/5
f 123/5/5 124/5/5 130/5/5
f 130/5/5 124/5/5 131/5/5
f 125/5/5 126/5/5 132/5/5
f 120/3/5 121/3/5 132/3/5
f 127/5/5 120/5/5 132/5/5
f 126/5/5 127/5/5 132/5/5
f 121/5/5 128/5/5 133/5/5
f 132/3/5 121/3/5 133/3/5
f 129/5/5 122/5/5 134/5/5
f 128/3/5 129/3/5 134/3/5
f 134/5/5 122/5/5 135/5/5
f 135/5/5 122/5/5 136/5/5
f 136/5/5 122/5/5 137/5/5
f 130/1/5 131/1/5 138/1/5
f 123/5/5 130/5/5 138/5/5
f 138/1/5 131/1/5 139/1/5
f 116/5/5 125/5/5 140/5/5
f 132/5/5 133/5/5 140/5/5
f 125/5/5 132/5/5 140/5/5
f 133/5/5 128/5/5 141/5/5
f 140/5/5 133/5/5 141/5/5
f 128/3/5 134/3/5 141/3/5
f 134/3/5 135/3/5 141/3/5
f 135/5/5 136/5/5 142/5/5
f 141/3/5 135/3/5 142/3/5
f 136/3/5 137/3/5 143/3/5
f 142/5/5 136/5/5 143/5/5
f 137/5/5 122/5/5 144/5/5
f 143/3/5 137/3/5 144/3/5
f 122/2/5 123/2/5 145/2/5
f 144/5/5 122/5/5 145/5/5
f 142/2/5 143/2/5 146/2/5
f 141/2/5 142/2/5 146/2/5
f 144/2/5 145/2/5 146/2/5
f 140/2/5 141/2/5 146/2/5
f 143/2/5 144/2/5 146/2/5
f 146/2/5 145/2/5 147/2/5
f 147/2/5 145/2/5 148/2/5
f 148/2/5 145/2/5 149/2/5
f 149/2/5 145/2/5 150/2/5
f 150/2/5 145/2/5 151/2/5
f 151/2/5 145/2/5 152/2/5
f 152/2/5 145/2/5 153/2/5
f 153/2/5 145/2/5 154/2/5
f 145/2/5 123/2/5 155/2/5
f 154/2/5 145/2/5 155/2/5
f 123/5/5 138/5/5 156/5/5
f 155/2/5 123/2/5 156/2/5
f 138/5/5 139/5/5 156/5/5
f 156/5/5 139/5/5 157/5/5
f 157/5/5 139/5/5 158/5/5
f 155/2/5 156/2/5 159/2/5
f 156/1/5 157/1/5 159/1/5
f 157/3/5 158/3/5 160/3/5
f 159/1/5 157/1/5 160/1/5
f 160/3/5 158/3/5 161/3/5
f 146/5/5 147/5/5 162/5/5
f 147/2/5 148/2/5 163/2/5
f 162/5/5 147/5/5 163/5/5
f 148/5/5 149/5/5 164/5/5
f 149/1/5 150/1/5 164/1/5
f 150/3/5 151/3/5 165/3/5
f 164/1/5 150/1/5 165/1/5
f 162/2/5 163/2/5 166/2/5
f 166/2/5 163/2/5 167/2/5
f 167/2/5 163/2/5 168/2/5
f 163/2/5 148/2/5 169/2/5
f 168/2/5 163/2/5 169/2/5
f 167/2/5 168/2/5 170/2/5
f 168/5/5 169/5/5 170/5/5
f 170/5/5 169/5/5 171/5/5
f 155/2/5 159/2/5 172/2/5
f 159/5/5 160/5/5 172/5/5
f 160/5/5 161/5/5 172/5/5
f 172/5/5 161/5/5 173/5/5
f 165/3/5 151/3/5 174/3/5
f 164/5/5 165/5/5 174/5/5
f 151/2/5 152/2/5 175/2/5
f 174/3/5 151/3/5 175/3/5
f 172/3/5 173/3/5 176/3/5
f 155/2/5 172/2/5 176/2/5
f 176/3/5 173/3/5 177/3/5
f 166/5/5 167/5/5 178/5/5
f 167/2/5 170/2/5 179/2/5
f 178/5/5 167/5/5 179/5/5
f 153/3/5 154/3/5 180/3/5
f 152/5/5 153/5/5 180/5/5
f 154/5/5 155/5/5 181/5/5
f 180/3/5 154/3/5 181/3/5
f 178/2/5 179/2/5 182/2/5
f 182/2/5 179/2/5 183/2/5
f 183/2/5 179/2/5 184/2/5
f 179/2/5 170/2/5 185/2/5
f 184/2/5 179/2/5 185/2/5
f 170/1/5 171/1/5 186/1/5
f 185/2/5 170/2/5 186/2/5
f 171/5/5 169/5/5 187/5/5
f 186/1/5 171/1/5 187/1/5
f 182/5/5 183/5/5 188/5/5
f 183/2/5 184/2/5 189/2/5
f 188/5/5 183/5/5 189/5/5
f 184/5/5 185/5/5 190/5/5
f 189/2/5 184/2/5 190/2/5
f 188/4/5 189/4/5 191/4/5
f 189/4/5 190/4/5 191/4/5
f 190/5/5 185/5/5 192/5/5
f 191/4/5 190/4/5 192/4/5
f 185/2/5 186/2/5 193/2/5
f 192/5/5 185/5/5 193/5/5
f 186/5/5 187/5/5 194/5/5
f 193/2/5 186/2/5 194/2/5
f 169/2/5 148/2/5 195/2/5
f 194/5/5 187/5/5 195/5/5
f 187/5/5 169/5/5 195/5/5
f 148/5/5 164/5/5 196/5/5
f 195/2/5 148/2/5 196/2/5
f 164/5/5 174/5/5 196/5/5
f 174/5/5 175/5/5 196/5/5
f 175/2/5 152/2/5 197/2/5
f 196/5/5 175/5/5 197/5/5
f 152/5/5 180/5/5 198/5/5
f 197/2/5 152/2/5 198/2/5
f 180/5/5 181/5/5 198/5/5
f 181/5/5 155/5/5 199/5/5
f 198/5/5 181/5/5 199/5/5
f 155/2/5 176/2/5 199/2/5
f 176/5/5 177/5/5 200/5/5
f 199/2/5 176/2/5 200/2/5
f 200/5/5 177/5/5 201/5/5
f 209/1/6 204/1/6 203/1/6
f 209/5/6 205/5/6 204/5/6
f 210/5/6 205/5/6 209/5/6
f 211/3/6 208/3/6 207/3/6
f 211/5/6 207/5/6 206/5/6
f 212/3/6 208/3/6 211/3/6
f 213/5/6 203/5/6 202/5/6
f 214/1/6 209/1/6 203/1/6
f 214/5/6 203/5/6 213/5/6
f 215/3/6 210/3/6 209/3/6
f 215/1/6 209/1/6 214/1/6
f 216/5/6 205/5/6 210/5/6
f 216/3/6 210/3/6 215/3/6
f 217/3/6 206/3/6 205/3/6
f 217/5/6 205/5/6 216/5/6
f 218/5/6 211/5/6 206/5/6
f 218/3/6 206/3/6 217/3/6
f 218/5/6 212/5/6 211/5/6
f 219/5/6 212/5/6 218/5/6
f 220/2/6 215/2/6 214/2/6
f 220/2/6 214/2/6 213/2/6
f 220/2/6 219/2/6 218/2/6
f 220/2/6 218/2/6 217/2/6
f 220/2/6 217/2/6 216/2/6
f 220/2/6 216/2/6 215/2/6
f 221/2/6 219/2/6 220/2/6
f 222/2/6 219/2/6 221/2/6
f 223/2/6 219/2/6 222/2/6
f 224/2/6 219/2/6 223/2/6
f 225/2/6 219/2/6 224/2/6
f 226/2/6 219/2/6 225/2/6
f 227/2/6 219/2/6 226/2/6
f 228/2/6 219/2/6 227/2/6
f 229/5/6 221/5/6 220/5/6
f 229/1/6 222/1/6 221/1/6
f 230/3/6 223/3/6 222/3/6
f 230/1/6 222/1/6 229/1/6
f 231/5/6 224/5/6 223/5/6
f 231/3/6 223/3/6 230/3/6
f 232/5/6 226/5/6 225/5/6
f 233/5/6 226/5/6 232/5/6
f 234/5/6 228/5/6 227/5/6
f 235/5/6 228/5/6 234/5/6
f 236/5/6 230/5/6 229/5/6
f 236/3/6 225/3/6 224/3/6
f 236/5/6 224/5/6 231/5/6
f 236/5/6 231/5/6 230/5/6
f 237/5/6 232/5/6 225/5/6
f 237/3/6 225/3/6 236/3/6
f 238/5/6 226/5/6 233/5/6
f 238/3/6 233/3/6 232/3/6
f 239/5/6 226/5/6 238/5/6
f 240/5/6 226/5/6 239/5/6
f 241/5/6 226/5/6 240/5/6
f 242/1/6 235/1/6 234/1/6
f 242/5/6 234/5/6 227/5/6
f 243/1/6 235/1/6 242/1/6
f 244/5/6 229/5/6 220/5/6
f 244/5/6 237/5/6 236/5/6
f 244/5/6 236/5/6 229/5/6
f 245/5/6 232/5/6 237/5/6
f 245/5/6 237/5/6 244/5/6
f 245/3/6 238/3/6 232/3/6
f 245/3/6 239/3/6 238/3/6
f 246/5/6 240/5/6 239/5/6
f 246/3/6 239/3/6 245/3/6
f 247/3/6 241/3/6 240/3/6
f 247/5/6 240/5/6 246/5/6
f 248/5/6 226/5/6 241/5/6
f 248/3/6 241/3/6 247/3/6
f 249/2/6 227/2/6 226/2/6
f 249/5/6 226/5/6 248/5/6
f 250/2/6 247/2/6 246/2/6
f 250/2/6 246/2/6 245/2/6
f 250/2/6 249/2/6 248/2/6
f 250/2/6 245/2/6 244/2/6
f 250/2/6 248/2/6 247/2/6
f 251/2/6 249/2/6 250/2/6
f 252/2/6 249/2/6 251/2/6
f 253/2/6 249/2/6 252/2/6
f 254/2/6 249/2/6 253/2/6
f 255/2/6 249/2/6 254/2/6
f 256/2/6 249/2/6 255/2/6
f 257/2/6 249/2/6 256/2/6
f 258/2/6 249/2/6 257/2/6
f 259/2/6 227/2/6 249/2/6
f 259/2/6 249/2/6 258/2/6
f 260/5/6 242/5/6 227/5/6
f 260/2/6 227/2/6 259/2/6
f 260/5/6 243/5/6 242/5/6
f 261/5/6 243/5/6 260/5/6
f 262/5/6 243/5/6 261/5/6
f 263/2/6 260/2/6 259/2/6
f 263/1/6 261/1/6 260/1/6
f 264/3/6 262/3/6 261/3/6
f 264/1/6 261/1/6 263/1/6
f 265/3/6 262/3/6 264/3/6
f 266/5/6 251/5/6 250/5/6
f 267/2/6 252/2/6 251/2/6
f 267/5/6 251/5/6 266/5/6
f 268/5/6 253/5/6 252/5/6
f 268/1/6 254/1/6 253/1/6
f 269/3/6 255/3/6 254/3/6
f 269/1/6 254/1/6 268/1/6
f 270/2/6 267/2/6 266/2/6
f 271/2/6 267/2/6 270/2/6
f 272/2/6 267/2/6 271/2/6
f 273/2/6 252/2/6 267/2/6
f 273/2/6 267/2/6 272/2/6
f 274/2/6 272/2/6 271/2/6
f 274/5/6 273/5/6 272/5/6
f 275/5/6 273/5/6 274/5/6
f 276/2/6 263/2/6 259/2/6
f 276/5/6 264/5/6 263/5/6
f 276/5/6 265/5/6 264/5/6
f 277/5/6 265/5/6 276/5/6
f 278/3/6 255/3/6 269/3/6
f 278/5/6 269/5/6 268/5/6
f 279/2/6 256/2/6 255/2/6
f 279/3/6 255/3/6 278/3/6
f 280/3/6 277/3/6 276/3/6
f 280/2/6 276/2/6 259/2/6
f 281/3/6 277/3/6 280/3/6
f 282/5/6 271/5/6 270/5/6
f 283/2/6 274/2/6 271/2/6
f 283/5/6 271/5/6 282/5/6
f 284/3/6 258/3/6 257/3/6
f 284/5/6 257/5/6 256/5/6
f 285/5/6 259/5/6 258/5/6
f 285/3/6 258/3/6 284/3/6
f 286/2/6 283/2/6 282/2/6
f 287/2/6 283/2/6 286/2/6
f 288/2/6 283/2/6 287/2/6
f 289/2/6 274/2/6 283/2/6
f 289/2/6 283/2/6 288/2/6
f 290/1/6 275/1/6 274/1/6
f 290/2/6 274/2/6 289/2/6
f 291/5/6 273/5/6 275/5/6
f 291/1/6 275/1/6 290/1/6
f 292/5/6 287/5/6 286/5/6
f 293/2/6 288/2/6 287/2/6
f 293/5/6 287/5/6 292/5/6
f 294/5/6 289/5/6 288/5/6
f 294/2/6 288/2/6 293/2/6
f 295/5/6 289/5/6 294/5/6
f 296/5/6 289/5/6 295/5/6
f 297/2/6 290/2/6 289/2/6
f 297/5/6 289/5/6 296/5/6
f 298/5/6 291/5/6 290/5/6
f 298/2/6 290/2/6 297/2/6
f 299/2/6 252/2/6 273/2/6
f 299/5/6 291/5/6 298/5/6
f 299/5/6 273/5/6 291/5/6
f 300/5/6 268/5/6 252/5/6
f 300/2/6 252/2/6 299/2/6
f 300/5/6 278/5/6 268/5/6
f 300/5/6 279/5/6 278/5/6
f 301/2/6 256/2/6 279/2/6
f 301/5/6 279/5/6 300/5/6
f 302/5/6 284/5/6 256/5/6
f 302/2/6 256/2/6 301/2/6
f 302/5/6 285/5/6 284/5/6
f 303/5/6 259/5/6 285/5/6
f 303/5/6 285/5/6 302/5/6
f 303/2/6 280/2/6 259/2/6
f 304/5/6 281/5/6 280/5/6
f 304/2/6 280/2/6 303/2/6
f 305/5/6 281/5/6 304/5/6
f 308/6/6 307/6/6 306/6/6
f 309/6/6 307/6/6 308/6/6
f 310/6/6 307/6/6 309/6/6
f 311/4/6 309/4/6 308/4/6
f 312/7/6 310/7/6 309/7/6
f 312/4/6 309/4/6 311/4/6
f 313/7/6 310/7/6 312/7/6
