# MagicaVoxel @ Ephtracy

# group
o 

# material
mtllib BOX1-88.mtl
usemtl palette

# normals
vn -1 0 0
vn 1 0 0
vn 0 0 1
vn 0 0 -1
vn 0 -1 0
vn 0 1 0

# texcoords
vt 0.876953 0.5
vt 0.880859 0.5
vt 0.884766 0.5
vt 0.943359 0.5
vt 0.951172 0.5
vt 0.955078 0.5
vt 0.982422 0.5
vt 0.986328 0.5

# verts
v -3.2 0 -0.7
v -3.2 0 -2.7
v -3.2 0.1 -0.7
v -3.2 0.1 -0.8
v -3.2 0.1 -0.9
v -3.2 0.1 -1
v -3.2 0.1 -1.1
v -3.2 0.1 -1.2
v -3.2 0.1 -1.5
v -3.2 0.1 -1.8
v -3.2 0.1 -1.9
v -3.2 0.1 -2.2
v -3.2 0.1 -2.3
v -3.2 0.1 -2.6
v -3.2 0.2 -0.7
v -3.2 0.2 -0.8
v -3.2 0.2 -0.9
v -3.2 0.2 -1
v -3.2 0.2 -1.1
v -3.2 0.2 -1.2
v -3.2 0.2 -1.5
v -3.2 0.2 -1.8
v -3.2 0.2 -1.9
v -3.2 0.2 -2.2
v -3.2 0.2 -2.3
v -3.2 0.2 -2.6
v -3.2 0.2 -2.7
v -2.9 0.1 -0.7
v -2.9 0.1 -0.9
v -2.9 0.1 -1
v -2.9 0.1 -1.1
v -2.9 0.1 -1.4
v -2.9 0.1 -1.5
v -2.9 0.1 -1.8
v -2.9 0.1 -1.9
v -2.9 0.1 -2
v -2.9 0.1 -2.2
v -2.9 0.1 -2.3
v -2.9 0.1 -2.4
v -2.9 0.2 -0.7
v -2.9 0.2 -0.9
v -2.9 0.2 -1
v -2.9 0.2 -1.1
v -2.9 0.2 -1.4
v -2.9 0.2 -1.5
v -2.9 0.2 -1.8
v -2.9 0.2 -1.9
v -2.9 0.2 -2
v -2.9 0.2 -2.2
v -2.9 0.2 -2.3
v -2.9 0.2 -2.4
v -1.2 0 -0.7
v -1.2 0 -0.8
v -1.2 0 -1.1
v -1.2 0 -1.2
v -1.2 0 -1.4
v -1.2 0 -1.5
v -1.2 0 -1.9
v -1.2 0 -2
v -1.2 0 -2.7
v -1.2 0.1 -0.7
v -1.2 0.1 -0.8
v -1.2 0.1 -1.1
v -1.2 0.1 -1.2
v -1.2 0.1 -1.4
v -1.2 0.1 -1.5
v -1.2 0.1 -1.9
v -1.2 0.1 -2
v -1.2 0.1 -2.4
v -1.2 0.1 -2.5
v -1.2 0.1 -2.7
v -1.2 0.2 -2.4
v -1.2 0.2 -2.5
v -1.2 0.2 -2.7
v -3.2 0 -0.7
v -3.2 0.1 -0.7
v -3.2 0.2 -0.7
v -2.9 0 -0.7
v -2.9 0.1 -0.7
v -2.9 0.2 -0.7
v -2.8 0 -0.7
v -2.8 0.1 -0.7
v -2.7 0 -0.7
v -2.7 0.1 -0.7
v -2.6 0 -0.7
v -2.6 0.1 -0.7
v -2.5 0 -0.7
v -2.5 0.1 -0.7
v -2.3 0 -0.7
v -2.3 0.1 -0.7
v -2.2 0 -0.7
v -2.2 0.1 -0.7
v -1.9 0 -0.7
v -1.9 0.1 -0.7
v -1.8 0 -0.7
v -1.8 0.1 -0.7
v -1.5 0 -0.7
v -1.5 0.1 -0.7
v -1.4 0 -0.7
v -1.4 0.1 -0.7
v -1.3 0 -0.7
v -1.3 0.1 -0.7
v -1.2 0 -0.7
v -1.2 0.1 -0.7
v -2.9 0.1 -2.4
v -2.9 0.2 -2.4
v -2.8 0.1 -2.4
v -2.8 0.2 -2.4
v -2.7 0.1 -2.4
v -2.7 0.2 -2.4
v -2.6 0.1 -2.4
v -2.4 0.1 -2.4
v -2.4 0.2 -2.4
v -2.3 0.1 -2.4
v -2.3 0.2 -2.4
v -2.2 0.1 -2.4
v -2 0.1 -2.4
v -2 0.2 -2.4
v -1.9 0.1 -2.4
v -1.9 0.2 -2.4
v -1.8 0.1 -2.4
v -1.7 0.1 -2.4
v -1.7 0.2 -2.4
v -1.6 0.1 -2.4
v -1.6 0.2 -2.4
v -1.5 0.1 -2.4
v -1.5 0.2 -2.4
v -1.4 0.1 -2.4
v -1.2 0.1 -2.4
v -1.2 0.2 -2.4
v -3.2 0 -2.7
v -3.2 0.2 -2.7
v -3.1 0.1 -2.7
v -3.1 0.2 -2.7
v -2.9 0 -2.7
v -2.9 0.1 -2.7
v -2.9 0.2 -2.7
v -2.8 0.1 -2.7
v -2.8 0.2 -2.7
v -2.7 0 -2.7
v -2.7 0.1 -2.7
v -2.6 0 -2.7
v -2.6 0.1 -2.7
v -2.4 0.1 -2.7
v -2.4 0.2 -2.7
v -2.3 0 -2.7
v -2.3 0.1 -2.7
v -2.3 0.2 -2.7
v -2.2 0 -2.7
v -2.2 0.1 -2.7
v -2.1 0.1 -2.7
v -2.1 0.2 -2.7
v -2 0.1 -2.7
v -2 0.2 -2.7
v -1.9 0 -2.7
v -1.9 0.1 -2.7
v -1.9 0.2 -2.7
v -1.8 0 -2.7
v -1.8 0.1 -2.7
v -1.6 0.1 -2.7
v -1.6 0.2 -2.7
v -1.5 0 -2.7
v -1.5 0.1 -2.7
v -1.5 0.2 -2.7
v -1.4 0 -2.7
v -1.4 0.1 -2.7
v -1.4 0.2 -2.7
v -1.2 0 -2.7
v -1.2 0.1 -2.7
v -1.2 0.2 -2.7
v -3.2 0 -0.7
v -2.9 0 -0.7
v -2.8 0 -0.7
v -2.7 0 -0.7
v -2.6 0 -0.7
v -2.5 0 -0.7
v -2.3 0 -0.7
v -2.2 0 -0.7
v -1.9 0 -0.7
v -1.8 0 -0.7
v -1.5 0 -0.7
v -1.4 0 -0.7
v -1.3 0 -0.7
v -1.2 0 -0.7
v -2.8 0 -0.8
v -2.7 0 -0.8
v -1.3 0 -0.8
v -1.2 0 -0.8
v -2.9 0 -1.1
v -2.8 0 -1.1
v -2.7 0 -1.1
v -2.1 0 -1.1
v -2 0 -1.1
v -1.3 0 -1.1
v -1.2 0 -1.1
v -2.6 0 -1.2
v -2.5 0 -1.2
v -2 0 -1.2
v -1.9 0 -1.2
v -1.7 0 -1.2
v -1.6 0 -1.2
v -1.3 0 -1.2
v -1.2 0 -1.2
v -2.1 0 -1.4
v -2 0 -1.4
v -1.4 0 -1.4
v -1.3 0 -1.4
v -1.2 0 -1.4
v -1.4 0 -1.5
v -1.3 0 -1.5
v -1.2 0 -1.5
v -2.1 0 -1.7
v -2 0 -1.7
v -2.6 0 -1.9
v -2.5 0 -1.9
v -1.4 0 -1.9
v -1.2 0 -1.9
v -2 0 -2
v -1.9 0 -2
v -1.4 0 -2
v -1.2 0 -2
v -1.7 0 -2.1
v -1.6 0 -2.1
v -2.6 0 -2.3
v -2.5 0 -2.3
v -3.2 0 -2.7
v -2.9 0 -2.7
v -2.7 0 -2.7
v -2.6 0 -2.7
v -2.3 0 -2.7
v -2.2 0 -2.7
v -1.9 0 -2.7
v -1.8 0 -2.7
v -1.5 0 -2.7
v -1.4 0 -2.7
v -1.2 0 -2.7
v -2.9 0.1 -0.7
v -2.8 0.1 -0.7
v -2.7 0.1 -0.7
v -2.6 0.1 -0.7
v -2.5 0.1 -0.7
v -2.3 0.1 -0.7
v -2.2 0.1 -0.7
v -1.9 0.1 -0.7
v -1.8 0.1 -0.7
v -1.5 0.1 -0.7
v -1.4 0.1 -0.7
v -1.3 0.1 -0.7
v -1.2 0.1 -0.7
v -2.8 0.1 -0.8
v -2.7 0.1 -0.8
v -1.3 0.1 -0.8
v -1.2 0.1 -0.8
v -2.9 0.1 -0.9
v -2.9 0.1 -1
v -2.9 0.1 -1.1
v -2.8 0.1 -1.1
v -2.7 0.1 -1.1
v -2.1 0.1 -1.1
v -2 0.1 -1.1
v -1.3 0.1 -1.1
v -1.2 0.1 -1.1
v -2.6 0.1 -1.2
v -2.5 0.1 -1.2
v -2 0.1 -1.2
v -1.9 0.1 -1.2
v -1.7 0.1 -1.2
v -1.6 0.1 -1.2
v -1.3 0.1 -1.2
v -1.2 0.1 -1.2
v -2.9 0.1 -1.4
v -2.1 0.1 -1.4
v -2 0.1 -1.4
v -1.4 0.1 -1.4
v -1.3 0.1 -1.4
v -1.2 0.1 -1.4
v -2.9 0.1 -1.5
v -1.4 0.1 -1.5
v -1.3 0.1 -1.5
v -1.2 0.1 -1.5
v -2.1 0.1 -1.7
v -2 0.1 -1.7
v -2.9 0.1 -1.8
v -2.9 0.1 -1.9
v -2.6 0.1 -1.9
v -2.5 0.1 -1.9
v -1.4 0.1 -1.9
v -1.2 0.1 -1.9
v -2.9 0.1 -2
v -2 0.1 -2
v -1.9 0.1 -2
v -1.4 0.1 -2
v -1.2 0.1 -2
v -1.7 0.1 -2.1
v -1.6 0.1 -2.1
v -2.9 0.1 -2.2
v -2.9 0.1 -2.3
v -2.6 0.1 -2.3
v -2.5 0.1 -2.3
v -2.9 0.1 -2.4
v -2.8 0.1 -2.4
v -2.7 0.1 -2.4
v -2.6 0.1 -2.4
v -2.4 0.1 -2.4
v -2.3 0.1 -2.4
v -2.2 0.1 -2.4
v -2 0.1 -2.4
v -1.9 0.1 -2.4
v -1.8 0.1 -2.4
v -1.7 0.1 -2.4
v -1.6 0.1 -2.4
v -1.5 0.1 -2.4
v -1.4 0.1 -2.4
v -1.2 0.1 -2.4
v -3.2 0.2 -0.7
v -2.9 0.2 -0.7
v -3.2 0.2 -0.8
v -3 0.2 -0.8
v -3.2 0.2 -0.9
v -3 0.2 -0.9
v -2.9 0.2 -0.9
v -3.2 0.2 -1
v -2.9 0.2 -1
v -3.2 0.2 -1.1
v -3.1 0.2 -1.1
v -2.9 0.2 -1.1
v -3.2 0.2 -1.2
v -3.1 0.2 -1.2
v -3 0.2 -1.2
v -3.1 0.2 -1.3
v -3 0.2 -1.3
v -3.1 0.2 -1.4
v -2.9 0.2 -1.4
v -3.2 0.2 -1.5
v -3.1 0.2 -1.5
v -2.9 0.2 -1.5
v -3.1 0.2 -1.6
v -3 0.2 -1.6
v -3.2 0.2 -1.8
v -3.1 0.2 -1.8
v -3 0.2 -1.8
v -2.9 0.2 -1.8
v -3.2 0.2 -1.9
v -3.1 0.2 -1.9
v -2.9 0.2 -1.9
v -3.1 0.2 -2
v -2.9 0.2 -2
v -3.2 0.2 -2.2
v -3.1 0.2 -2.2
v -2.9 0.2 -2.2
v -3.2 0.2 -2.3
v -3.1 0.2 -2.3
v -2.9 0.2 -2.3
v -2.9 0.2 -2.4
v -2.8 0.2 -2.4
v -2.7 0.2 -2.4
v -2.4 0.2 -2.4
v -2.3 0.2 -2.4
v -2 0.2 -2.4
v -1.9 0.2 -2.4
v -1.7 0.2 -2.4
v -1.6 0.2 -2.4
v -1.5 0.2 -2.4
v -1.2 0.2 -2.4
v -2.7 0.2 -2.5
v -2.5 0.2 -2.5
v -1.8 0.2 -2.5
v -1.7 0.2 -2.5
v -1.3 0.2 -2.5
v -1.2 0.2 -2.5
v -3.2 0.2 -2.6
v -3.1 0.2 -2.6
v -2.9 0.2 -2.6
v -2.5 0.2 -2.6
v -2.4 0.2 -2.6
v -2.1 0.2 -2.6
v -2 0.2 -2.6
v -1.8 0.2 -2.6
v -1.6 0.2 -2.6
v -1.4 0.2 -2.6
v -1.3 0.2 -2.6
v -3.2 0.2 -2.7
v -3.1 0.2 -2.7
v -2.9 0.2 -2.7
v -2.8 0.2 -2.7
v -2.4 0.2 -2.7
v -2.3 0.2 -2.7
v -2.1 0.2 -2.7
v -2 0.2 -2.7
v -1.9 0.2 -2.7
v -1.6 0.2 -2.7
v -1.5 0.2 -2.7
v -1.4 0.2 -2.7
v -1.2 0.2 -2.7

# faces
f 3/5/1 2/5/1 1/5/1
f 4/5/1 2/5/1 3/5/1
f 5/5/1 2/5/1 4/5/1
f 6/5/1 2/5/1 5/5/1
f 7/5/1 2/5/1 6/5/1
f 8/5/1 2/5/1 7/5/1
f 9/5/1 2/5/1 8/5/1
f 10/5/1 2/5/1 9/5/1
f 11/5/1 2/5/1 10/5/1
f 12/5/1 2/5/1 11/5/1
f 13/5/1 2/5/1 12/5/1
f 14/5/1 2/5/1 13/5/1
f 15/4/1 4/4/1 3/4/1
f 16/5/1 5/5/1 4/5/1
f 16/4/1 4/4/1 15/4/1
f 17/7/1 6/7/1 5/7/1
f 17/5/1 5/5/1 16/5/1
f 18/8/1 7/8/1 6/8/1
f 18/7/1 6/7/1 17/7/1
f 19/7/1 8/7/1 7/7/1
f 19/8/1 7/8/1 18/8/1
f 20/5/1 9/5/1 8/5/1
f 20/7/1 8/7/1 19/7/1
f 21/7/1 10/7/1 9/7/1
f 21/5/1 9/5/1 20/5/1
f 22/8/1 11/8/1 10/8/1
f 22/7/1 10/7/1 21/7/1
f 23/7/1 12/7/1 11/7/1
f 23/8/1 11/8/1 22/8/1
f 24/8/1 13/8/1 12/8/1
f 24/7/1 12/7/1 23/7/1
f 25/7/1 14/7/1 13/7/1
f 25/8/1 13/8/1 24/8/1
f 26/5/1 2/5/1 14/5/1
f 26/7/1 14/7/1 25/7/1
f 27/5/1 2/5/1 26/5/1
f 28/4/2 29/4/2 40/4/2
f 29/7/2 30/7/2 41/7/2
f 40/4/2 29/4/2 41/4/2
f 30/8/2 31/8/2 42/8/2
f 41/7/2 30/7/2 42/7/2
f 31/4/2 32/4/2 43/4/2
f 42/8/2 31/8/2 43/8/2
f 32/8/2 33/8/2 44/8/2
f 43/4/2 32/4/2 44/4/2
f 33/7/2 34/7/2 45/7/2
f 44/8/2 33/8/2 45/8/2
f 34/8/2 35/8/2 46/8/2
f 45/7/2 34/7/2 46/7/2
f 35/5/2 36/5/2 47/5/2
f 46/8/2 35/8/2 47/8/2
f 36/7/2 37/7/2 48/7/2
f 47/5/2 36/5/2 48/5/2
f 37/5/2 38/5/2 49/5/2
f 48/7/2 37/7/2 49/7/2
f 38/7/2 39/7/2 50/7/2
f 49/5/2 38/5/2 50/5/2
f 50/7/2 39/7/2 51/7/2
f 52/3/2 53/3/2 61/3/2
f 53/6/2 54/6/2 62/6/2
f 61/3/2 53/3/2 62/3/2
f 54/1/2 55/1/2 63/1/2
f 62/6/2 54/6/2 63/6/2
f 55/6/2 56/6/2 64/6/2
f 63/1/2 55/1/2 64/1/2
f 56/3/2 57/3/2 65/3/2
f 64/6/2 56/6/2 65/6/2
f 57/6/2 58/6/2 66/6/2
f 65/3/2 57/3/2 66/3/2
f 58/3/2 59/3/2 67/3/2
f 66/6/2 58/6/2 67/6/2
f 59/6/2 60/6/2 68/6/2
f 67/3/2 59/3/2 68/3/2
f 68/6/2 60/6/2 69/6/2
f 69/6/2 60/6/2 70/6/2
f 70/6/2 60/6/2 71/6/2
f 69/7/2 70/7/2 72/7/2
f 70/4/2 71/4/2 73/4/2
f 72/7/2 70/7/2 73/7/2
f 73/4/2 71/4/2 74/4/2
f 78/5/3 76/5/3 75/5/3
f 79/4/3 77/4/3 76/4/3
f 79/5/3 76/5/3 78/5/3
f 80/4/3 77/4/3 79/4/3
f 81/1/3 79/1/3 78/1/3
f 82/1/3 79/1/3 81/1/3
f 83/6/3 82/6/3 81/6/3
f 84/6/3 82/6/3 83/6/3
f 85/2/3 84/2/3 83/2/3
f 86/2/3 84/2/3 85/2/3
f 87/3/3 86/3/3 85/3/3
f 88/3/3 86/3/3 87/3/3
f 89/6/3 88/6/3 87/6/3
f 90/6/3 88/6/3 89/6/3
f 91/2/3 90/2/3 89/2/3
f 92/2/3 90/2/3 91/2/3
f 93/6/3 92/6/3 91/6/3
f 94/6/3 92/6/3 93/6/3
f 95/2/3 94/2/3 93/2/3
f 96/2/3 94/2/3 95/2/3
f 97/6/3 96/6/3 95/6/3
f 98/6/3 96/6/3 97/6/3
f 99/2/3 98/2/3 97/2/3
f 100/2/3 98/2/3 99/2/3
f 101/6/3 100/6/3 99/6/3
f 102/6/3 100/6/3 101/6/3
f 103/3/3 102/3/3 101/3/3
f 104/3/3 102/3/3 103/3/3
f 107/5/3 106/5/3 105/5/3
f 108/5/3 106/5/3 107/5/3
f 109/7/3 108/7/3 107/7/3
f 110/7/3 108/7/3 109/7/3
f 111/4/3 110/4/3 109/4/3
f 112/4/3 110/4/3 111/4/3
f 113/4/3 110/4/3 112/4/3
f 114/5/3 113/5/3 112/5/3
f 115/5/3 113/5/3 114/5/3
f 116/7/3 115/7/3 114/7/3
f 117/7/3 115/7/3 116/7/3
f 118/7/3 115/7/3 117/7/3
f 119/5/3 118/5/3 117/5/3
f 120/5/3 118/5/3 119/5/3
f 121/7/3 120/7/3 119/7/3
f 122/7/3 120/7/3 121/7/3
f 123/7/3 120/7/3 122/7/3
f 124/4/3 123/4/3 122/4/3
f 125/4/3 123/4/3 124/4/3
f 126/5/3 125/5/3 124/5/3
f 127/5/3 125/5/3 126/5/3
f 128/7/3 127/7/3 126/7/3
f 129/7/3 127/7/3 128/7/3
f 130/7/3 127/7/3 129/7/3
f 131/5/4 132/5/4 133/5/4
f 133/5/4 132/5/4 134/5/4
f 131/5/4 133/5/4 135/5/4
f 133/8/4 134/8/4 136/8/4
f 135/5/4 133/5/4 136/5/4
f 136/8/4 134/8/4 137/8/4
f 135/6/4 136/6/4 138/6/4
f 136/5/4 137/5/4 138/5/4
f 138/5/4 137/5/4 139/5/4
f 135/6/4 138/6/4 140/6/4
f 138/7/4 139/7/4 141/7/4
f 140/6/4 138/6/4 141/6/4
f 140/2/4 141/2/4 142/2/4
f 141/7/4 139/7/4 143/7/4
f 142/2/4 141/2/4 143/2/4
f 142/6/4 143/6/4 144/6/4
f 143/7/4 139/7/4 144/7/4
f 144/7/4 139/7/4 145/7/4
f 142/6/4 144/6/4 146/6/4
f 144/5/4 145/5/4 147/5/4
f 146/6/4 144/6/4 147/6/4
f 147/5/4 145/5/4 148/5/4
f 146/2/4 147/2/4 149/2/4
f 147/7/4 148/7/4 150/7/4
f 149/2/4 147/2/4 150/2/4
f 149/6/4 150/6/4 151/6/4
f 150/7/4 148/7/4 151/7/4
f 151/7/4 148/7/4 152/7/4
f 149/6/4 151/6/4 153/6/4
f 151/4/4 152/4/4 153/4/4
f 153/4/4 152/4/4 154/4/4
f 149/6/4 153/6/4 155/6/4
f 153/5/4 154/5/4 156/5/4
f 155/6/4 153/6/4 156/6/4
f 156/5/4 154/5/4 157/5/4
f 155/2/4 156/2/4 158/2/4
f 156/7/4 157/7/4 159/7/4
f 158/2/4 156/2/4 159/2/4
f 158/6/4 159/6/4 160/6/4
f 159/7/4 157/7/4 160/7/4
f 160/7/4 157/7/4 161/7/4
f 158/6/4 160/6/4 162/6/4
f 160/5/4 161/5/4 163/5/4
f 162/6/4 160/6/4 163/6/4
f 163/5/4 161/5/4 164/5/4
f 162/2/4 163/2/4 165/2/4
f 163/7/4 164/7/4 166/7/4
f 165/2/4 163/2/4 166/2/4
f 166/7/4 164/7/4 167/7/4
f 165/6/4 166/6/4 168/6/4
f 166/4/4 167/4/4 169/4/4
f 168/6/4 166/6/4 169/6/4
f 169/4/4 167/4/4 170/4/4
f 185/1/5 173/1/5 172/1/5
f 185/6/5 174/6/5 173/6/5
f 186/2/5 175/2/5 174/2/5
f 186/6/5 174/6/5 185/6/5
f 187/3/5 184/3/5 183/3/5
f 187/6/5 183/6/5 182/6/5
f 188/3/5 184/3/5 187/3/5
f 189/5/5 172/5/5 171/5/5
f 189/1/5 185/1/5 172/1/5
f 190/3/5 186/3/5 185/3/5
f 190/1/5 185/1/5 189/1/5
f 191/2/5 175/2/5 186/2/5
f 191/3/5 186/3/5 190/3/5
f 192/6/5 179/6/5 178/6/5
f 193/6/5 179/6/5 192/6/5
f 194/6/5 188/6/5 187/6/5
f 194/6/5 187/6/5 182/6/5
f 195/6/5 188/6/5 194/6/5
f 196/3/5 176/3/5 175/3/5
f 196/2/5 175/2/5 191/2/5
f 197/6/5 177/6/5 176/6/5
f 197/3/5 176/3/5 196/3/5
f 198/6/5 179/6/5 193/6/5
f 198/3/5 193/3/5 192/3/5
f 199/2/5 180/2/5 179/2/5
f 199/6/5 179/6/5 198/6/5
f 200/6/5 181/6/5 180/6/5
f 201/6/5 181/6/5 200/6/5
f 202/1/5 195/1/5 194/1/5
f 202/6/5 194/6/5 182/6/5
f 203/1/5 195/1/5 202/1/5
f 204/3/5 198/3/5 192/3/5
f 204/6/5 192/6/5 178/6/5
f 204/3/5 199/3/5 198/3/5
f 205/3/5 199/3/5 204/3/5
f 206/2/5 182/2/5 181/2/5
f 206/6/5 203/6/5 202/6/5
f 206/6/5 202/6/5 182/6/5
f 207/6/5 203/6/5 206/6/5
f 208/6/5 203/6/5 207/6/5
f 209/2/5 206/2/5 181/2/5
f 209/1/5 207/1/5 206/1/5
f 210/3/5 208/3/5 207/3/5
f 210/1/5 207/1/5 209/1/5
f 211/3/5 208/3/5 210/3/5
f 212/1/5 205/1/5 204/1/5
f 212/6/5 204/6/5 178/6/5
f 213/3/5 199/3/5 205/3/5
f 213/1/5 205/1/5 212/1/5
f 214/2/5 196/2/5 191/2/5
f 214/6/5 197/6/5 196/6/5
f 215/6/5 177/6/5 197/6/5
f 215/6/5 197/6/5 214/6/5
f 216/6/5 211/6/5 210/6/5
f 216/2/5 209/2/5 181/2/5
f 216/6/5 210/6/5 209/6/5
f 217/6/5 211/6/5 216/6/5
f 218/3/5 199/3/5 213/3/5
f 218/6/5 213/6/5 212/6/5
f 219/2/5 180/2/5 199/2/5
f 219/3/5 199/3/5 218/3/5
f 220/3/5 217/3/5 216/3/5
f 220/2/5 216/2/5 181/2/5
f 221/3/5 217/3/5 220/3/5
f 222/3/5 201/3/5 200/3/5
f 222/6/5 200/6/5 180/6/5
f 223/6/5 181/6/5 201/6/5
f 223/3/5 201/3/5 222/3/5
f 224/2/5 214/2/5 191/2/5
f 224/1/5 215/1/5 214/1/5
f 225/6/5 177/6/5 215/6/5
f 225/1/5 215/1/5 224/1/5
f 226/5/5 189/5/5 171/5/5
f 227/6/5 190/6/5 189/6/5
f 227/5/5 189/5/5 226/5/5
f 227/6/5 191/6/5 190/6/5
f 228/2/5 224/2/5 191/2/5
f 228/6/5 191/6/5 227/6/5
f 229/6/5 225/6/5 224/6/5
f 229/2/5 224/2/5 228/2/5
f 230/6/5 177/6/5 225/6/5
f 230/6/5 225/6/5 229/6/5
f 230/2/5 178/2/5 177/2/5
f 231/6/5 218/6/5 212/6/5
f 231/2/5 178/2/5 230/2/5
f 231/6/5 212/6/5 178/6/5
f 231/6/5 219/6/5 218/6/5
f 232/2/5 180/2/5 219/2/5
f 232/6/5 219/6/5 231/6/5
f 233/6/5 222/6/5 180/6/5
f 233/2/5 180/2/5 232/2/5
f 233/6/5 223/6/5 222/6/5
f 234/6/5 181/6/5 223/6/5
f 234/6/5 223/6/5 233/6/5
f 234/2/5 220/2/5 181/2/5
f 235/6/5 221/6/5 220/6/5
f 235/2/5 220/2/5 234/2/5
f 236/6/5 221/6/5 235/6/5
f 237/1/6 238/1/6 250/1/6
f 238/6/6 239/6/6 250/6/6
f 239/2/6 240/2/6 251/2/6
f 250/6/6 239/6/6 251/6/6
f 248/3/6 249/3/6 252/3/6
f 247/6/6 248/6/6 252/6/6
f 252/3/6 249/3/6 253/3/6
f 237/1/6 250/1/6 254/1/6
f 254/1/6 250/1/6 255/1/6
f 255/1/6 250/1/6 256/1/6
f 250/3/6 251/3/6 257/3/6
f 256/1/6 250/1/6 257/1/6
f 251/2/6 240/2/6 258/2/6
f 257/3/6 251/3/6 258/3/6
f 243/6/6 244/6/6 259/6/6
f 259/6/6 244/6/6 260/6/6
f 247/6/6 252/6/6 261/6/6
f 252/6/6 253/6/6 261/6/6
f 261/6/6 253/6/6 262/6/6
f 240/3/6 241/3/6 263/3/6
f 258/2/6 240/2/6 263/2/6
f 241/6/6 242/6/6 264/6/6
f 263/3/6 241/3/6 264/3/6
f 260/6/6 244/6/6 265/6/6
f 259/3/6 260/3/6 265/3/6
f 244/2/6 245/2/6 266/2/6
f 265/6/6 244/6/6 266/6/6
f 245/6/6 246/6/6 267/6/6
f 267/6/6 246/6/6 268/6/6
f 261/1/6 262/1/6 269/1/6
f 247/6/6 261/6/6 269/6/6
f 269/1/6 262/1/6 270/1/6
f 256/6/6 257/6/6 271/6/6
f 257/6/6 258/6/6 271/6/6
f 259/3/6 265/3/6 272/3/6
f 243/6/6 259/6/6 272/6/6
f 265/3/6 266/3/6 272/3/6
f 272/3/6 266/3/6 273/3/6
f 246/2/6 247/2/6 274/2/6
f 269/6/6 270/6/6 274/6/6
f 247/6/6 269/6/6 274/6/6
f 274/6/6 270/6/6 275/6/6
f 275/6/6 270/6/6 276/6/6
f 271/6/6 258/6/6 277/6/6
f 246/2/6 274/2/6 278/2/6
f 274/1/6 275/1/6 278/1/6
f 275/3/6 276/3/6 279/3/6
f 278/1/6 275/1/6 279/1/6
f 279/3/6 276/3/6 280/3/6
f 272/1/6 273/1/6 281/1/6
f 243/6/6 272/6/6 281/6/6
f 273/3/6 266/3/6 282/3/6
f 281/1/6 273/1/6 282/1/6
f 277/6/6 258/6/6 283/6/6
f 283/6/6 258/6/6 284/6/6
f 258/2/6 263/2/6 285/2/6
f 263/6/6 264/6/6 285/6/6
f 264/6/6 242/6/6 286/6/6
f 285/6/6 264/6/6 286/6/6
f 279/6/6 280/6/6 287/6/6
f 246/2/6 278/2/6 287/2/6
f 278/6/6 279/6/6 287/6/6
f 287/6/6 280/6/6 288/6/6
f 284/6/6 258/6/6 289/6/6
f 282/3/6 266/3/6 290/3/6
f 281/6/6 282/6/6 290/6/6
f 266/2/6 245/2/6 291/2/6
f 290/3/6 266/3/6 291/3/6
f 246/2/6 287/2/6 292/2/6
f 287/3/6 288/3/6 292/3/6
f 292/3/6 288/3/6 293/3/6
f 267/3/6 268/3/6 294/3/6
f 245/6/6 267/6/6 294/6/6
f 268/6/6 246/6/6 295/6/6
f 294/3/6 268/3/6 295/3/6
f 289/6/6 258/6/6 296/6/6
f 296/6/6 258/6/6 297/6/6
f 258/2/6 285/2/6 298/2/6
f 285/1/6 286/1/6 298/1/6
f 286/6/6 242/6/6 299/6/6
f 298/1/6 286/1/6 299/1/6
f 297/6/6 258/6/6 300/6/6
f 300/6/6 258/6/6 301/6/6
f 258/2/6 298/2/6 302/2/6
f 301/6/6 258/6/6 302/6/6
f 298/6/6 299/6/6 303/6/6
f 302/2/6 298/2/6 303/2/6
f 299/6/6 242/6/6 304/6/6
f 303/6/6 299/6/6 304/6/6
f 242/2/6 243/2/6 305/2/6
f 304/6/6 242/6/6 305/6/6
f 281/6/6 290/6/6 306/6/6
f 305/2/6 243/2/6 306/2/6
f 243/6/6 281/6/6 306/6/6
f 290/6/6 291/6/6 306/6/6
f 306/6/6 291/6/6 307/6/6
f 291/2/6 245/2/6 308/2/6
f 307/6/6 291/6/6 308/6/6
f 245/6/6 294/6/6 309/6/6
f 308/2/6 245/2/6 309/2/6
f 294/6/6 295/6/6 309/6/6
f 309/6/6 295/6/6 310/6/6
f 295/6/6 246/6/6 311/6/6
f 310/6/6 295/6/6 311/6/6
f 246/2/6 292/2/6 312/2/6
f 311/6/6 246/6/6 312/6/6
f 292/6/6 293/6/6 313/6/6
f 312/2/6 292/2/6 313/2/6
f 313/6/6 293/6/6 314/6/6
f 315/4/6 316/4/6 317/4/6
f 317/4/6 316/4/6 318/4/6
f 317/5/6 318/5/6 319/5/6
f 318/4/6 316/4/6 320/4/6
f 319/5/6 318/5/6 320/5/6
f 320/4/6 316/4/6 321/4/6
f 319/7/6 320/7/6 322/7/6
f 320/7/6 321/7/6 322/7/6
f 322/7/6 321/7/6 323/7/6
f 322/8/6 323/8/6 324/8/6
f 324/8/6 323/8/6 325/8/6
f 325/8/6 323/8/6 326/8/6
f 324/7/6 325/7/6 327/7/6
f 325/4/6 326/4/6 328/4/6
f 327/7/6 325/7/6 328/7/6
f 328/4/6 326/4/6 329/4/6
f 327/5/6 328/5/6 330/5/6
f 328/5/6 329/5/6 330/5/6
f 329/4/6 326/4/6 331/4/6
f 330/5/6 329/5/6 331/5/6
f 327/5/6 330/5/6 332/5/6
f 330/4/6 331/4/6 332/4/6
f 331/4/6 326/4/6 333/4/6
f 332/4/6 331/4/6 333/4/6
f 327/5/6 332/5/6 334/5/6
f 332/8/6 333/8/6 335/8/6
f 334/5/6 332/5/6 335/5/6
f 335/8/6 333/8/6 336/8/6
f 334/7/6 335/7/6 337/7/6
f 335/7/6 336/7/6 337/7/6
f 337/7/6 336/7/6 338/7/6
f 334/7/6 337/7/6 339/7/6
f 337/4/6 338/4/6 340/4/6
f 339/7/6 337/7/6 340/7/6
f 338/7/6 336/7/6 341/7/6
f 340/4/6 338/4/6 341/4/6
f 341/7/6 336/7/6 342/7/6
f 339/8/6 340/8/6 343/8/6
f 340/8/6 341/8/6 343/8/6
f 341/8/6 342/8/6 343/8/6
f 343/8/6 342/8/6 344/8/6
f 344/8/6 342/8/6 345/8/6
f 343/7/6 344/7/6 346/7/6
f 344/5/6 345/5/6 346/5/6
f 346/5/6 345/5/6 347/5/6
f 343/7/6 346/7/6 348/7/6
f 346/7/6 347/7/6 348/7/6
f 348/7/6 347/7/6 349/7/6
f 349/7/6 347/7/6 350/7/6
f 348/8/6 349/8/6 351/8/6
f 349/5/6 350/5/6 352/5/6
f 351/8/6 349/8/6 352/8/6
f 352/5/6 350/5/6 353/5/6
f 351/7/6 352/7/6 354/7/6
f 352/7/6 353/7/6 354/7/6
f 355/7/6 356/7/6 365/7/6
f 356/4/6 357/4/6 365/4/6
f 365/4/6 357/4/6 366/4/6
f 360/7/6 361/7/6 367/7/6
f 361/4/6 362/4/6 368/4/6
f 367/7/6 361/7/6 368/7/6
f 363/7/6 364/7/6 369/7/6
f 369/7/6 364/7/6 370/7/6
f 351/7/6 354/7/6 371/7/6
f 371/7/6 354/7/6 372/7/6
f 354/5/6 355/5/6 373/5/6
f 372/7/6 354/7/6 373/7/6
f 366/4/6 357/4/6 374/4/6
f 365/7/6 366/7/6 374/7/6
f 357/5/6 358/5/6 375/5/6
f 374/4/6 357/4/6 375/4/6
f 358/7/6 359/7/6 376/7/6
f 359/5/6 360/5/6 377/5/6
f 376/7/6 359/7/6 377/7/6
f 360/7/6 367/7/6 378/7/6
f 367/4/6 368/4/6 378/4/6
f 368/4/6 362/4/6 379/4/6
f 378/4/6 368/4/6 379/4/6
f 362/5/6 363/5/6 379/5/6
f 363/7/6 369/7/6 380/7/6
f 369/4/6 370/4/6 381/4/6
f 380/7/6 369/7/6 381/7/6
f 371/5/6 372/5/6 382/5/6
f 372/8/6 373/8/6 383/8/6
f 382/5/6 372/5/6 383/5/6
f 373/5/6 355/5/6 384/5/6
f 383/8/6 373/8/6 384/8/6
f 374/7/6 375/7/6 385/7/6
f 384/5/6 355/5/6 385/5/6
f 365/7/6 374/7/6 385/7/6
f 355/7/6 365/7/6 385/7/6
f 375/5/6 358/5/6 386/5/6
f 385/7/6 375/7/6 386/7/6
f 358/7/6 376/7/6 387/7/6
f 386/5/6 358/5/6 387/5/6
f 376/4/6 377/4/6 388/4/6
f 387/7/6 376/7/6 388/7/6
f 377/5/6 360/5/6 389/5/6
f 388/4/6 377/4/6 389/4/6
f 360/7/6 378/7/6 390/7/6
f 389/5/6 360/5/6 390/5/6
f 378/7/6 379/7/6 390/7/6
f 379/5/6 363/5/6 391/5/6
f 390/7/6 379/7/6 391/7/6
f 363/7/6 380/7/6 392/7/6
f 391/5/6 363/5/6 392/5/6
f 380/4/6 381/4/6 393/4/6
f 392/7/6 380/7/6 393/7/6
f 381/4/6 370/4/6 394/4/6
f 393/4/6 381/4/6 394/4/6
