# MagicaVoxel @ Ephtracy

# group
o 

# material
mtllib BOX1-93.mtl
usemtl palette

# normals
vn -1 0 0
vn 1 0 0
vn 0 0 1
vn 0 0 -1
vn 0 -1 0
vn 0 1 0

# texcoords
vt 0.416016 0.5
vt 0.423828 0.5

# verts
v 2.7 0 -1.6
v 2.7 0 -2.2
v 2.7 0.3 -1.6
v 2.7 0.3 -1.9
v 2.7 0.6 -1.9
v 2.7 0.6 -2.2
v 2.8 0.3 -1.7
v 2.8 0.3 -1.8
v 2.8 0.4 -1.7
v 2.8 0.4 -1.8
v 2.8 0.6 -2
v 2.8 0.6 -2.1
v 2.8 0.7 -2
v 2.8 0.7 -2.1
v 3.1 0 -1.7
v 3.1 0 -1.8
v 3.1 0.1 -1.7
v 3.1 0.1 -1.8
v 3.1 0.5 -2
v 3.1 0.5 -2.1
v 3.1 0.6 -2
v 3.1 0.6 -2.1
v 2.9 0.3 -1.7
v 2.9 0.3 -1.8
v 2.9 0.4 -1.7
v 2.9 0.4 -1.8
v 2.9 0.6 -2
v 2.9 0.6 -2.1
v 2.9 0.7 -2
v 2.9 0.7 -2.1
v 3 0 -1.7
v 3 0 -1.8
v 3 0.2 -1.6
v 3 0.2 -1.7
v 3 0.2 -1.8
v 3 0.2 -1.9
v 3 0.3 -1.6
v 3 0.3 -1.9
v 3 0.5 -1.9
v 3 0.5 -2.2
v 3 0.6 -1.9
v 3 0.6 -2.2
v 3.1 0 -1.6
v 3.1 0 -1.7
v 3.1 0 -1.8
v 3.1 0 -1.9
v 3.1 0.1 -1.7
v 3.1 0.1 -1.8
v 3.1 0.2 -1.6
v 3.1 0.2 -1.7
v 3.1 0.2 -1.8
v 3.1 0.2 -1.9
v 3.2 0 -1.7
v 3.2 0 -1.8
v 3.2 0.1 -1.7
v 3.2 0.1 -1.8
v 3.2 0.5 -2
v 3.2 0.5 -2.1
v 3.2 0.6 -2
v 3.2 0.6 -2.1
v 3.3 0 -1.9
v 3.3 0 -2.2
v 3.3 0.5 -1.9
v 3.3 0.5 -2.2
v 2.7 0 -1.6
v 2.7 0.3 -1.6
v 3 0.2 -1.6
v 3 0.3 -1.6
v 3.1 0 -1.6
v 3.1 0.2 -1.6
v 2.8 0.3 -1.7
v 2.8 0.4 -1.7
v 2.9 0.3 -1.7
v 2.9 0.4 -1.7
v 3.1 0 -1.7
v 3.1 0.1 -1.7
v 3.2 0 -1.7
v 3.2 0.1 -1.7
v 3 0 -1.8
v 3 0.2 -1.8
v 3.1 0 -1.8
v 3.1 0.1 -1.8
v 3.1 0.2 -1.8
v 2.7 0.3 -1.9
v 2.7 0.6 -1.9
v 3 0.2 -1.9
v 3 0.3 -1.9
v 3 0.5 -1.9
v 3 0.6 -1.9
v 3.1 0 -1.9
v 3.1 0.2 -1.9
v 3.3 0 -1.9
v 3.3 0.5 -1.9
v 2.8 0.6 -2
v 2.8 0.7 -2
v 2.9 0.6 -2
v 2.9 0.7 -2
v 3.1 0.5 -2
v 3.1 0.6 -2
v 3.2 0.5 -2
v 3.2 0.6 -2
v 3 0 -1.7
v 3 0.2 -1.7
v 3.1 0 -1.7
v 3.1 0.1 -1.7
v 3.1 0.2 -1.7
v 2.8 0.3 -1.8
v 2.8 0.4 -1.8
v 2.9 0.3 -1.8
v 2.9 0.4 -1.8
v 3.1 0 -1.8
v 3.1 0.1 -1.8
v 3.2 0 -1.8
v 3.2 0.1 -1.8
v 2.8 0.6 -2.1
v 2.8 0.7 -2.1
v 2.9 0.6 -2.1
v 2.9 0.7 -2.1
v 3.1 0.5 -2.1
v 3.1 0.6 -2.1
v 3.2 0.5 -2.1
v 3.2 0.6 -2.1
v 2.7 0 -2.2
v 2.7 0.6 -2.2
v 3 0.5 -2.2
v 3 0.6 -2.2
v 3.3 0 -2.2
v 3.3 0.5 -2.2
v 2.7 0 -1.6
v 3.1 0 -1.6
v 3 0 -1.7
v 3.1 0 -1.7
v 3.2 0 -1.7
v 3 0 -1.8
v 3.1 0 -1.8
v 3.2 0 -1.8
v 3.1 0 -1.9
v 3.3 0 -1.9
v 2.7 0 -2.2
v 3.3 0 -2.2
v 3.1 0.1 -1.7
v 3.2 0.1 -1.7
v 3.1 0.1 -1.8
v 3.2 0.1 -1.8
v 3 0.2 -1.6
v 3.1 0.2 -1.6
v 3 0.2 -1.7
v 3.1 0.2 -1.7
v 3 0.2 -1.8
v 3.1 0.2 -1.8
v 3 0.2 -1.9
v 3.1 0.2 -1.9
v 2.7 0.3 -1.6
v 3 0.3 -1.6
v 2.8 0.3 -1.7
v 2.9 0.3 -1.7
v 2.8 0.3 -1.8
v 2.9 0.3 -1.8
v 2.7 0.3 -1.9
v 3 0.3 -1.9
v 2.8 0.4 -1.7
v 2.9 0.4 -1.7
v 2.8 0.4 -1.8
v 2.9 0.4 -1.8
v 3 0.5 -1.9
v 3.3 0.5 -1.9
v 3.1 0.5 -2
v 3.2 0.5 -2
v 3.1 0.5 -2.1
v 3.2 0.5 -2.1
v 3 0.5 -2.2
v 3.3 0.5 -2.2
v 2.7 0.6 -1.9
v 3 0.6 -1.9
v 2.8 0.6 -2
v 2.9 0.6 -2
v 3.1 0.6 -2
v 3.2 0.6 -2
v 2.8 0.6 -2.1
v 2.9 0.6 -2.1
v 3.1 0.6 -2.1
v 3.2 0.6 -2.1
v 2.7 0.6 -2.2
v 3 0.6 -2.2
v 2.8 0.7 -2
v 2.9 0.7 -2
v 2.8 0.7 -2.1
v 2.9 0.7 -2.1

# faces
f 3/1/1 2/1/1 1/1/1
f 4/1/1 2/1/1 3/1/1
f 5/1/1 2/1/1 4/1/1
f 6/1/1 2/1/1 5/1/1
f 9/2/1 8/2/1 7/2/1
f 10/2/1 8/2/1 9/2/1
f 13/2/1 12/2/1 11/2/1
f 14/2/1 12/2/1 13/2/1
f 17/1/1 16/1/1 15/1/1
f 18/1/1 16/1/1 17/1/1
f 21/2/1 20/2/1 19/2/1
f 22/2/1 20/2/1 21/2/1
f 23/2/2 24/2/2 25/2/2
f 25/2/2 24/2/2 26/2/2
f 27/2/2 28/2/2 29/2/2
f 29/2/2 28/2/2 30/2/2
f 31/1/2 32/1/2 34/1/2
f 34/1/2 32/1/2 35/1/2
f 33/1/2 34/1/2 37/1/2
f 35/1/2 36/1/2 37/1/2
f 34/1/2 35/1/2 37/1/2
f 37/1/2 36/1/2 38/1/2
f 39/1/2 40/1/2 41/1/2
f 41/1/2 40/1/2 42/1/2
f 43/1/2 44/1/2 47/1/2
f 45/1/2 46/1/2 48/1/2
f 43/1/2 47/1/2 49/1/2
f 49/1/2 47/1/2 50/1/2
f 48/1/2 46/1/2 51/1/2
f 51/1/2 46/1/2 52/1/2
f 53/1/2 54/1/2 55/1/2
f 55/1/2 54/1/2 56/1/2
f 57/2/2 58/2/2 59/2/2
f 59/2/2 58/2/2 60/2/2
f 61/1/2 62/1/2 63/1/2
f 63/1/2 62/1/2 64/1/2
f 67/1/3 66/1/3 65/1/3
f 68/1/3 66/1/3 67/1/3
f 69/1/3 67/1/3 65/1/3
f 70/1/3 67/1/3 69/1/3
f 73/2/3 72/2/3 71/2/3
f 74/2/3 72/2/3 73/2/3
f 77/1/3 76/1/3 75/1/3
f 78/1/3 76/1/3 77/1/3
f 81/1/3 80/1/3 79/1/3
f 82/1/3 80/1/3 81/1/3
f 83/1/3 80/1/3 82/1/3
f 87/1/3 85/1/3 84/1/3
f 88/1/3 85/1/3 87/1/3
f 89/1/3 85/1/3 88/1/3
f 91/1/3 87/1/3 86/1/3
f 91/1/3 88/1/3 87/1/3
f 92/1/3 91/1/3 90/1/3
f 93/1/3 88/1/3 91/1/3
f 93/1/3 91/1/3 92/1/3
f 96/2/3 95/2/3 94/2/3
f 97/2/3 95/2/3 96/2/3
f 100/2/3 99/2/3 98/2/3
f 101/2/3 99/2/3 100/2/3
f 102/1/4 103/1/4 104/1/4
f 104/1/4 103/1/4 105/1/4
f 105/1/4 103/1/4 106/1/4
f 107/2/4 108/2/4 109/2/4
f 109/2/4 108/2/4 110/2/4
f 111/1/4 112/1/4 113/1/4
f 113/1/4 112/1/4 114/1/4
f 115/2/4 116/2/4 117/2/4
f 117/2/4 116/2/4 118/2/4
f 119/2/4 120/2/4 121/2/4
f 121/2/4 120/2/4 122/2/4
f 123/1/4 124/1/4 125/1/4
f 125/1/4 124/1/4 126/1/4
f 123/1/4 125/1/4 127/1/4
f 127/1/4 125/1/4 128/1/4
f 131/1/5 130/1/5 129/1/5
f 132/1/5 130/1/5 131/1/5
f 134/1/5 131/1/5 129/1/5
f 135/1/5 133/1/5 132/1/5
f 136/1/5 133/1/5 135/1/5
f 137/1/5 135/1/5 134/1/5
f 139/1/5 134/1/5 129/1/5
f 139/1/5 138/1/5 137/1/5
f 139/1/5 137/1/5 134/1/5
f 140/1/5 138/1/5 139/1/5
f 141/1/6 142/1/6 143/1/6
f 143/1/6 142/1/6 144/1/6
f 145/1/6 146/1/6 147/1/6
f 147/1/6 146/1/6 148/1/6
f 149/1/6 150/1/6 151/1/6
f 151/1/6 150/1/6 152/1/6
f 153/1/6 154/1/6 155/1/6
f 155/1/6 154/1/6 156/1/6
f 153/1/6 155/1/6 157/1/6
f 156/1/6 154/1/6 158/1/6
f 153/1/6 157/1/6 159/1/6
f 157/1/6 158/1/6 159/1/6
f 158/1/6 154/1/6 160/1/6
f 159/1/6 158/1/6 160/1/6
f 161/2/6 162/2/6 163/2/6
f 163/2/6 162/2/6 164/2/6
f 165/1/6 166/1/6 167/1/6
f 167/1/6 166/1/6 168/1/6
f 165/1/6 167/1/6 169/1/6
f 168/1/6 166/1/6 170/1/6
f 165/1/6 169/1/6 171/1/6
f 169/1/6 170/1/6 171/1/6
f 170/1/6 166/1/6 172/1/6
f 171/1/6 170/1/6 172/1/6
f 173/1/6 174/1/6 175/1/6
f 175/1/6 174/1/6 176/1/6
f 173/1/6 175/1/6 179/1/6
f 176/1/6 174/1/6 180/1/6
f 177/2/6 178/2/6 181/2/6
f 181/2/6 178/2/6 182/2/6
f 179/1/6 180/1/6 183/1/6
f 173/1/6 179/1/6 183/1/6
f 180/1/6 174/1/6 184/1/6
f 183/1/6 180/1/6 184/1/6
f 185/2/6 186/2/6 187/2/6
f 187/2/6 186/2/6 188/2/6
