# MagicaVoxel @ Ephtracy

# group
o 

# material
mtllib BOX1-13.mtl
usemtl palette

# normals
vn -1 0 0
vn 1 0 0
vn 0 0 1
vn 0 0 -1
vn 0 -1 0
vn 0 1 0

# texcoords
vt 0.978516 0.5
vt 0.982422 0.5
vt 0.986328 0.5

# verts
v -7.2 2.6 -1.8
v -7.2 2.6 -2.7
v -7.2 2.8 -1.8
v -7.2 2.8 -2.7
v -7.2 2.9 -1.8
v -7.2 2.9 -2.7
v -7.2 3.2 -1.8
v -7.2 3.2 -2.7
v -7.2 3.3 -1.8
v -7.2 3.3 -2.7
v -7.2 3.6 -1.8
v -7.2 3.6 -2.7
v -7.2 3.7 -1.8
v -7.2 3.7 -2.7
v -7.2 4 -1.8
v -7.2 4 -2.7
v -7.2 4.1 -1.8
v -7.2 4.1 -2.7
v -7.2 4.4 -1.8
v -7.2 4.4 -2.7
v -7.2 4.5 -1.8
v -7.2 4.5 -2.7
v -7.2 4.8 -1.8
v -7.2 4.8 -2.7
v -7.2 4.9 -1.8
v -7.2 4.9 -2.7
v -7.2 5.2 -1.8
v -7.2 5.2 -2.7
v -7.2 5.3 -1.8
v -7.2 5.3 -2.7
v -7.2 5.4 -1.8
v -7.2 5.4 -2.7
v -7 2.8 -1.8
v -7 2.8 -1.9
v -7 5.3 -1.8
v -7 5.3 -1.9
v -6.6 2.9 -1.8
v -6.6 2.9 -1.9
v -6.6 5.2 -1.8
v -6.6 5.2 -1.9
v -6.4 2.7 -1.8
v -6.4 2.7 -1.9
v -6.4 2.8 -1.8
v -6.4 2.8 -1.9
v -6.4 2.9 -1.8
v -6.4 2.9 -1.9
v -6.4 3.2 -1.8
v -6.4 3.2 -1.9
v -6.4 3.3 -1.8
v -6.4 3.3 -1.9
v -6.4 3.6 -1.8
v -6.4 3.6 -1.9
v -6.4 3.7 -1.8
v -6.4 3.7 -1.9
v -6.4 4 -1.8
v -6.4 4 -1.9
v -6.4 4.1 -1.8
v -6.4 4.1 -1.9
v -6.4 4.4 -1.8
v -6.4 4.4 -1.9
v -6.4 4.5 -1.8
v -6.4 4.5 -1.9
v -6.4 4.8 -1.8
v -6.4 4.8 -1.9
v -6.4 4.9 -1.8
v -6.4 4.9 -1.9
v -6.4 5.2 -1.8
v -6.4 5.2 -1.9
v -6.4 5.3 -1.8
v -6.4 5.3 -1.9
v -6.4 5.4 -1.8
v -6.4 5.4 -1.9
v -7.1 2.7 -1.8
v -7.1 2.7 -1.9
v -7.1 2.8 -1.8
v -7.1 2.8 -1.9
v -7.1 2.9 -1.8
v -7.1 2.9 -1.9
v -7.1 3.2 -1.8
v -7.1 3.2 -1.9
v -7.1 3.3 -1.8
v -7.1 3.3 -1.9
v -7.1 3.6 -1.8
v -7.1 3.6 -1.9
v -7.1 3.7 -1.8
v -7.1 3.7 -1.9
v -7.1 4 -1.8
v -7.1 4 -1.9
v -7.1 4.1 -1.8
v -7.1 4.1 -1.9
v -7.1 4.4 -1.8
v -7.1 4.4 -1.9
v -7.1 4.5 -1.8
v -7.1 4.5 -1.9
v -7.1 4.8 -1.8
v -7.1 4.8 -1.9
v -7.1 4.9 -1.8
v -7.1 4.9 -1.9
v -7.1 5.2 -1.8
v -7.1 5.2 -1.9
v -7.1 5.3 -1.8
v -7.1 5.3 -1.9
v -7.1 5.4 -1.8
v -7.1 5.4 -1.9
v -6.9 2.9 -1.8
v -6.9 2.9 -1.9
v -6.9 5.2 -1.8
v -6.9 5.2 -1.9
v -6.5 2.8 -1.8
v -6.5 2.8 -1.9
v -6.5 5.3 -1.8
v -6.5 5.3 -1.9
v -6.4 2.7 -1.9
v -6.4 2.7 -2.6
v -6.4 2.8 -1.9
v -6.4 2.8 -2
v -6.4 2.8 -2.5
v -6.4 2.8 -2.6
v -6.4 2.9 -1.9
v -6.4 2.9 -2.1
v -6.4 2.9 -2.4
v -6.4 2.9 -2.6
v -6.4 3.2 -1.9
v -6.4 3.2 -2.6
v -6.4 3.3 -1.9
v -6.4 3.3 -2.6
v -6.4 3.6 -1.9
v -6.4 3.6 -2.6
v -6.4 3.7 -1.9
v -6.4 3.7 -2.6
v -6.4 4 -1.9
v -6.4 4 -2.6
v -6.4 4.1 -1.9
v -6.4 4.1 -2.6
v -6.4 4.4 -1.9
v -6.4 4.4 -2.6
v -6.4 4.5 -1.9
v -6.4 4.5 -2.6
v -6.4 4.8 -1.9
v -6.4 4.8 -2.6
v -6.4 4.9 -1.9
v -6.4 4.9 -2.6
v -6.4 5.2 -1.9
v -6.4 5.2 -2.1
v -6.4 5.2 -2.4
v -6.4 5.2 -2.6
v -6.4 5.3 -1.9
v -6.4 5.3 -2
v -6.4 5.3 -2.5
v -6.4 5.3 -2.6
v -6.4 5.4 -1.9
v -6.4 5.4 -2.6
v -6.3 2.6 -1.8
v -6.3 2.6 -2.7
v -6.3 2.7 -1.9
v -6.3 2.7 -2.6
v -6.3 2.8 -1.8
v -6.3 2.8 -1.9
v -6.3 2.8 -2
v -6.3 2.8 -2.5
v -6.3 2.8 -2.6
v -6.3 2.8 -2.7
v -6.3 2.9 -1.8
v -6.3 2.9 -1.9
v -6.3 2.9 -2.1
v -6.3 2.9 -2.4
v -6.3 2.9 -2.6
v -6.3 2.9 -2.7
v -6.3 3.2 -1.8
v -6.3 3.2 -1.9
v -6.3 3.2 -2.6
v -6.3 3.2 -2.7
v -6.3 3.3 -1.8
v -6.3 3.3 -1.9
v -6.3 3.3 -2.6
v -6.3 3.3 -2.7
v -6.3 3.6 -1.8
v -6.3 3.6 -1.9
v -6.3 3.6 -2.6
v -6.3 3.6 -2.7
v -6.3 3.7 -1.8
v -6.3 3.7 -1.9
v -6.3 3.7 -2.6
v -6.3 3.7 -2.7
v -6.3 4 -1.8
v -6.3 4 -1.9
v -6.3 4 -2.6
v -6.3 4 -2.7
v -6.3 4.1 -1.8
v -6.3 4.1 -1.9
v -6.3 4.1 -2.6
v -6.3 4.1 -2.7
v -6.3 4.4 -1.8
v -6.3 4.4 -1.9
v -6.3 4.4 -2.6
v -6.3 4.4 -2.7
v -6.3 4.5 -1.8
v -6.3 4.5 -1.9
v -6.3 4.5 -2.6
v -6.3 4.5 -2.7
v -6.3 4.8 -1.8
v -6.3 4.8 -1.9
v -6.3 4.8 -2.6
v -6.3 4.8 -2.7
v -6.3 4.9 -1.8
v -6.3 4.9 -1.9
v -6.3 4.9 -2.6
v -6.3 4.9 -2.7
v -6.3 5.2 -1.8
v -6.3 5.2 -1.9
v -6.3 5.2 -2.1
v -6.3 5.2 -2.4
v -6.3 5.2 -2.6
v -6.3 5.2 -2.7
v -6.3 5.3 -1.8
v -6.3 5.3 -1.9
v -6.3 5.3 -2
v -6.3 5.3 -2.5
v -6.3 5.3 -2.6
v -6.3 5.3 -2.7
v -6.3 5.4 -1.8
v -6.3 5.4 -1.9
v -6.3 5.4 -2.6
v -6.3 5.4 -2.7
v -7.2 2.6 -1.8
v -7.2 2.8 -1.8
v -7.2 2.9 -1.8
v -7.2 3.2 -1.8
v -7.2 3.3 -1.8
v -7.2 3.6 -1.8
v -7.2 3.7 -1.8
v -7.2 4 -1.8
v -7.2 4.1 -1.8
v -7.2 4.4 -1.8
v -7.2 4.5 -1.8
v -7.2 4.8 -1.8
v -7.2 4.9 -1.8
v -7.2 5.2 -1.8
v -7.2 5.3 -1.8
v -7.2 5.4 -1.8
v -7.1 2.7 -1.8
v -7.1 2.8 -1.8
v -7.1 2.9 -1.8
v -7.1 3.2 -1.8
v -7.1 3.3 -1.8
v -7.1 3.6 -1.8
v -7.1 3.7 -1.8
v -7.1 4 -1.8
v -7.1 4.1 -1.8
v -7.1 4.4 -1.8
v -7.1 4.5 -1.8
v -7.1 4.8 -1.8
v -7.1 4.9 -1.8
v -7.1 5.2 -1.8
v -7.1 5.3 -1.8
v -7.1 5.4 -1.8
v -7 2.8 -1.8
v -7 5.3 -1.8
v -6.9 2.9 -1.8
v -6.9 5.2 -1.8
v -6.6 2.9 -1.8
v -6.6 5.2 -1.8
v -6.5 2.8 -1.8
v -6.5 5.3 -1.8
v -6.4 2.7 -1.8
v -6.4 2.8 -1.8
v -6.4 2.9 -1.8
v -6.4 3.2 -1.8
v -6.4 3.3 -1.8
v -6.4 3.6 -1.8
v -6.4 3.7 -1.8
v -6.4 4 -1.8
v -6.4 4.1 -1.8
v -6.4 4.4 -1.8
v -6.4 4.5 -1.8
v -6.4 4.8 -1.8
v -6.4 4.9 -1.8
v -6.4 5.2 -1.8
v -6.4 5.3 -1.8
v -6.4 5.4 -1.8
v -6.3 2.6 -1.8
v -6.3 2.8 -1.8
v -6.3 2.9 -1.8
v -6.3 3.2 -1.8
v -6.3 3.3 -1.8
v -6.3 3.6 -1.8
v -6.3 3.7 -1.8
v -6.3 4 -1.8
v -6.3 4.1 -1.8
v -6.3 4.4 -1.8
v -6.3 4.5 -1.8
v -6.3 4.8 -1.8
v -6.3 4.9 -1.8
v -6.3 5.2 -1.8
v -6.3 5.3 -1.8
v -6.3 5.4 -1.8
v -7.1 2.7 -1.9
v -7.1 2.8 -1.9
v -7.1 2.9 -1.9
v -7.1 3.2 -1.9
v -7.1 3.3 -1.9
v -7.1 3.6 -1.9
v -7.1 3.7 -1.9
v -7.1 4 -1.9
v -7.1 4.1 -1.9
v -7.1 4.4 -1.9
v -7.1 4.5 -1.9
v -7.1 4.8 -1.9
v -7.1 4.9 -1.9
v -7.1 5.2 -1.9
v -7.1 5.3 -1.9
v -7.1 5.4 -1.9
v -7 2.8 -1.9
v -7 5.3 -1.9
v -6.9 2.9 -1.9
v -6.9 5.2 -1.9
v -6.6 2.9 -1.9
v -6.6 5.2 -1.9
v -6.5 2.8 -1.9
v -6.5 5.3 -1.9
v -6.4 2.7 -1.9
v -6.4 2.8 -1.9
v -6.4 2.9 -1.9
v -6.4 3.2 -1.9
v -6.4 3.3 -1.9
v -6.4 3.6 -1.9
v -6.4 3.7 -1.9
v -6.4 4 -1.9
v -6.4 4.1 -1.9
v -6.4 4.4 -1.9
v -6.4 4.5 -1.9
v -6.4 4.8 -1.9
v -6.4 4.9 -1.9
v -6.4 5.2 -1.9
v -6.4 5.3 -1.9
v -6.4 5.4 -1.9
v -6.4 2.8 -2
v -6.4 5.3 -2
v -6.3 2.8 -2
v -6.3 5.3 -2
v -6.4 2.9 -2.4
v -6.4 5.2 -2.4
v -6.3 2.9 -2.4
v -6.3 5.2 -2.4
v -6.4 2.7 -2.6
v -6.4 2.8 -2.6
v -6.4 2.9 -2.6
v -6.4 3.2 -2.6
v -6.4 3.3 -2.6
v -6.4 3.6 -2.6
v -6.4 3.7 -2.6
v -6.4 4 -2.6
v -6.4 4.1 -2.6
v -6.4 4.4 -2.6
v -6.4 4.5 -2.6
v -6.4 4.8 -2.6
v -6.4 4.9 -2.6
v -6.4 5.2 -2.6
v -6.4 5.3 -2.6
v -6.4 5.4 -2.6
v -6.3 2.7 -2.6
v -6.3 2.8 -2.6
v -6.3 2.9 -2.6
v -6.3 3.2 -2.6
v -6.3 3.3 -2.6
v -6.3 3.6 -2.6
v -6.3 3.7 -2.6
v -6.3 4 -2.6
v -6.3 4.1 -2.6
v -6.3 4.4 -2.6
v -6.3 4.5 -2.6
v -6.3 4.8 -2.6
v -6.3 4.9 -2.6
v -6.3 5.2 -2.6
v -6.3 5.3 -2.6
v -6.3 5.4 -2.6
v -6.4 2.7 -1.9
v -6.4 2.8 -1.9
v -6.4 2.9 -1.9
v -6.4 3.2 -1.9
v -6.4 3.3 -1.9
v -6.4 3.6 -1.9
v -6.4 3.7 -1.9
v -6.4 4 -1.9
v -6.4 4.1 -1.9
v -6.4 4.4 -1.9
v -6.4 4.5 -1.9
v -6.4 4.8 -1.9
v -6.4 4.9 -1.9
v -6.4 5.2 -1.9
v -6.4 5.3 -1.9
v -6.4 5.4 -1.9
v -6.3 2.7 -1.9
v -6.3 2.8 -1.9
v -6.3 2.9 -1.9
v -6.3 3.2 -1.9
v -6.3 3.3 -1.9
v -6.3 3.6 -1.9
v -6.3 3.7 -1.9
v -6.3 4 -1.9
v -6.3 4.1 -1.9
v -6.3 4.4 -1.9
v -6.3 4.5 -1.9
v -6.3 4.8 -1.9
v -6.3 4.9 -1.9
v -6.3 5.2 -1.9
v -6.3 5.3 -1.9
v -6.3 5.4 -1.9
v -6.4 2.9 -2.1
v -6.4 5.2 -2.1
v -6.3 2.9 -2.1
v -6.3 5.2 -2.1
v -6.4 2.8 -2.5
v -6.4 5.3 -2.5
v -6.3 2.8 -2.5
v -6.3 5.3 -2.5
v -7.2 2.6 -2.7
v -7.2 2.8 -2.7
v -7.2 2.9 -2.7
v -7.2 3.2 -2.7
v -7.2 3.3 -2.7
v -7.2 3.6 -2.7
v -7.2 3.7 -2.7
v -7.2 4 -2.7
v -7.2 4.1 -2.7
v -7.2 4.4 -2.7
v -7.2 4.5 -2.7
v -7.2 4.8 -2.7
v -7.2 4.9 -2.7
v -7.2 5.2 -2.7
v -7.2 5.3 -2.7
v -7.2 5.4 -2.7
v -6.3 2.6 -2.7
v -6.3 2.8 -2.7
v -6.3 2.9 -2.7
v -6.3 3.2 -2.7
v -6.3 3.3 -2.7
v -6.3 3.6 -2.7
v -6.3 3.7 -2.7
v -6.3 4 -2.7
v -6.3 4.1 -2.7
v -6.3 4.4 -2.7
v -6.3 4.5 -2.7
v -6.3 4.8 -2.7
v -6.3 4.9 -2.7
v -6.3 5.2 -2.7
v -6.3 5.3 -2.7
v -6.3 5.4 -2.7
v -7.2 2.6 -1.8
v -6.3 2.6 -1.8
v -7.1 2.6 -1.9
v -6.4 2.6 -1.9
v -7.1 2.6 -2.6
v -6.4 2.6 -2.6
v -7.2 2.6 -2.7
v -6.3 2.6 -2.7
v -7 2.8 -1.8
v -6.5 2.8 -1.8
v -7 2.8 -1.9
v -6.5 2.8 -1.9
v -6.4 2.8 -2
v -6.3 2.8 -2
v -6.4 2.8 -2.5
v -6.3 2.8 -2.5
v -6.9 5.2 -1.8
v -6.6 5.2 -1.8
v -6.9 5.2 -1.9
v -6.6 5.2 -1.9
v -6.4 5.2 -2.1
v -6.3 5.2 -2.1
v -6.4 5.2 -2.4
v -6.3 5.2 -2.4
v -7.1 2.7 -1.8
v -6.4 2.7 -1.8
v -7.1 2.7 -1.9
v -6.4 2.7 -1.9
v -6.3 2.7 -1.9
v -6.4 2.7 -2.6
v -6.3 2.7 -2.6
v -6.9 2.9 -1.8
v -6.6 2.9 -1.8
v -6.9 2.9 -1.9
v -6.6 2.9 -1.9
v -6.4 2.9 -2.1
v -6.3 2.9 -2.1
v -6.4 2.9 -2.4
v -6.3 2.9 -2.4
v -7 5.3 -1.8
v -6.5 5.3 -1.8
v -7 5.3 -1.9
v -6.5 5.3 -1.9
v -6.4 5.3 -2
v -6.3 5.3 -2
v -6.4 5.3 -2.5
v -6.3 5.3 -2.5
v -7.2 5.4 -1.8
v -7.1 5.4 -1.8
v -6.4 5.4 -1.8
v -6.3 5.4 -1.8
v -7.1 5.4 -1.9
v -6.4 5.4 -1.9
v -6.3 5.4 -1.9
v -7.1 5.4 -2.6
v -6.4 5.4 -2.6
v -6.3 5.4 -2.6
v -7.2 5.4 -2.7
v -6.3 5.4 -2.7

# faces
f 3/2/1 2/2/1 1/2/1
f 4/2/1 2/2/1 3/2/1
f 5/3/1 4/3/1 3/3/1
f 6/3/1 4/3/1 5/3/1
f 7/2/1 6/2/1 5/2/1
f 8/2/1 6/2/1 7/2/1
f 9/3/1 8/3/1 7/3/1
f 10/3/1 8/3/1 9/3/1
f 11/2/1 10/2/1 9/2/1
f 12/2/1 10/2/1 11/2/1
f 13/3/1 12/3/1 11/3/1
f 14/3/1 12/3/1 13/3/1
f 15/2/1 14/2/1 13/2/1
f 16/2/1 14/2/1 15/2/1
f 17/3/1 16/3/1 15/3/1
f 18/3/1 16/3/1 17/3/1
f 19/2/1 18/2/1 17/2/1
f 20/2/1 18/2/1 19/2/1
f 21/3/1 20/3/1 19/3/1
f 22/3/1 20/3/1 21/3/1
f 23/2/1 22/2/1 21/2/1
f 24/2/1 22/2/1 23/2/1
f 25/3/1 24/3/1 23/3/1
f 26/3/1 24/3/1 25/3/1
f 27/2/1 26/2/1 25/2/1
f 28/2/1 26/2/1 27/2/1
f 29/3/1 28/3/1 27/3/1
f 30/3/1 28/3/1 29/3/1
f 31/2/1 30/2/1 29/2/1
f 32/2/1 30/2/1 31/2/1
f 35/1/1 34/1/1 33/1/1
f 36/1/1 34/1/1 35/1/1
f 39/1/1 38/1/1 37/1/1
f 40/1/1 38/1/1 39/1/1
f 43/2/1 42/2/1 41/2/1
f 44/2/1 42/2/1 43/2/1
f 45/3/1 44/3/1 43/3/1
f 46/3/1 44/3/1 45/3/1
f 47/2/1 46/2/1 45/2/1
f 48/2/1 46/2/1 47/2/1
f 49/3/1 48/3/1 47/3/1
f 50/3/1 48/3/1 49/3/1
f 51/2/1 50/2/1 49/2/1
f 52/2/1 50/2/1 51/2/1
f 53/3/1 52/3/1 51/3/1
f 54/3/1 52/3/1 53/3/1
f 55/2/1 54/2/1 53/2/1
f 56/2/1 54/2/1 55/2/1
f 57/3/1 56/3/1 55/3/1
f 58/3/1 56/3/1 57/3/1
f 59/2/1 58/2/1 57/2/1
f 60/2/1 58/2/1 59/2/1
f 61/3/1 60/3/1 59/3/1
f 62/3/1 60/3/1 61/3/1
f 63/2/1 62/2/1 61/2/1
f 64/2/1 62/2/1 63/2/1
f 65/3/1 64/3/1 63/3/1
f 66/3/1 64/3/1 65/3/1
f 67/2/1 66/2/1 65/2/1
f 68/2/1 66/2/1 67/2/1
f 69/3/1 68/3/1 67/3/1
f 70/3/1 68/3/1 69/3/1
f 71/2/1 70/2/1 69/2/1
f 72/2/1 70/2/1 71/2/1
f 73/2/2 74/2/2 75/2/2
f 75/2/2 74/2/2 76/2/2
f 75/3/2 76/3/2 77/3/2
f 77/3/2 76/3/2 78/3/2
f 77/2/2 78/2/2 79/2/2
f 79/2/2 78/2/2 80/2/2
f 79/3/2 80/3/2 81/3/2
f 81/3/2 80/3/2 82/3/2
f 81/2/2 82/2/2 83/2/2
f 83/2/2 82/2/2 84/2/2
f 83/3/2 84/3/2 85/3/2
f 85/3/2 84/3/2 86/3/2
f 85/2/2 86/2/2 87/2/2
f 87/2/2 86/2/2 88/2/2
f 87/3/2 88/3/2 89/3/2
f 89/3/2 88/3/2 90/3/2
f 89/2/2 90/2/2 91/2/2
f 91/2/2 90/2/2 92/2/2
f 91/3/2 92/3/2 93/3/2
f 93/3/2 92/3/2 94/3/2
f 93/2/2 94/2/2 95/2/2
f 95/2/2 94/2/2 96/2/2
f 95/3/2 96/3/2 97/3/2
f 97/3/2 96/3/2 98/3/2
f 97/2/2 98/2/2 99/2/2
f 99/2/2 98/2/2 100/2/2
f 99/3/2 100/3/2 101/3/2
f 101/3/2 100/3/2 102/3/2
f 101/2/2 102/2/2 103/2/2
f 103/2/2 102/2/2 104/2/2
f 105/1/2 106/1/2 107/1/2
f 107/1/2 106/1/2 108/1/2
f 109/1/2 110/1/2 111/1/2
f 111/1/2 110/1/2 112/1/2
f 113/3/2 114/3/2 115/3/2
f 115/3/2 114/3/2 116/3/2
f 116/3/2 114/3/2 117/3/2
f 117/3/2 114/3/2 118/3/2
f 115/3/2 116/3/2 119/3/2
f 117/3/2 118/3/2 122/3/2
f 119/3/2 116/3/2 123/3/2
f 117/3/2 122/3/2 124/3/2
f 123/3/2 116/3/2 125/3/2
f 117/3/2 124/3/2 126/3/2
f 125/3/2 116/3/2 127/3/2
f 117/3/2 126/3/2 128/3/2
f 127/3/2 116/3/2 129/3/2
f 117/3/2 128/3/2 130/3/2
f 129/3/2 116/3/2 131/3/2
f 117/3/2 130/3/2 132/3/2
f 131/3/2 116/3/2 133/3/2
f 117/3/2 132/3/2 134/3/2
f 133/3/2 116/3/2 135/3/2
f 117/3/2 134/3/2 136/3/2
f 135/3/2 116/3/2 137/3/2
f 117/3/2 136/3/2 138/3/2
f 137/3/2 116/3/2 139/3/2
f 117/3/2 138/3/2 140/3/2
f 139/3/2 116/3/2 141/3/2
f 117/3/2 140/3/2 142/3/2
f 141/3/2 116/3/2 143/3/2
f 120/3/2 121/3/2 144/3/2
f 144/3/2 121/3/2 145/3/2
f 117/3/2 142/3/2 146/3/2
f 143/3/2 116/3/2 147/3/2
f 147/3/2 116/3/2 148/3/2
f 117/3/2 146/3/2 149/3/2
f 149/3/2 146/3/2 150/3/2
f 147/3/2 148/3/2 151/3/2
f 148/3/2 149/3/2 151/3/2
f 149/3/2 150/3/2 151/3/2
f 151/3/2 150/3/2 152/3/2
f 153/2/2 154/2/2 155/2/2
f 155/2/2 154/2/2 156/2/2
f 153/2/2 155/2/2 157/2/2
f 157/2/2 155/2/2 158/2/2
f 156/2/2 154/2/2 161/2/2
f 161/2/2 154/2/2 162/2/2
f 157/3/2 158/3/2 163/3/2
f 163/3/2 158/3/2 164/3/2
f 159/1/2 160/1/2 165/1/2
f 165/1/2 160/1/2 166/1/2
f 161/3/2 162/3/2 167/3/2
f 167/3/2 162/3/2 168/3/2
f 163/2/2 164/2/2 169/2/2
f 169/2/2 164/2/2 170/2/2
f 167/2/2 168/2/2 171/2/2
f 171/2/2 168/2/2 172/2/2
f 169/3/2 170/3/2 173/3/2
f 173/3/2 170/3/2 174/3/2
f 171/3/2 172/3/2 175/3/2
f 175/3/2 172/3/2 176/3/2
f 173/2/2 174/2/2 177/2/2
f 177/2/2 174/2/2 178/2/2
f 175/2/2 176/2/2 179/2/2
f 179/2/2 176/2/2 180/2/2
f 177/3/2 178/3/2 181/3/2
f 181/3/2 178/3/2 182/3/2
f 179/3/2 180/3/2 183/3/2
f 183/3/2 180/3/2 184/3/2
f 181/2/2 182/2/2 185/2/2
f 185/2/2 182/2/2 186/2/2
f 183/2/2 184/2/2 187/2/2
f 187/2/2 184/2/2 188/2/2
f 185/3/2 186/3/2 189/3/2
f 189/3/2 186/3/2 190/3/2
f 187/3/2 188/3/2 191/3/2
f 191/3/2 188/3/2 192/3/2
f 189/2/2 190/2/2 193/2/2
f 193/2/2 190/2/2 194/2/2
f 191/2/2 192/2/2 195/2/2
f 195/2/2 192/2/2 196/2/2
f 193/3/2 194/3/2 197/3/2
f 197/3/2 194/3/2 198/3/2
f 195/3/2 196/3/2 199/3/2
f 199/3/2 196/3/2 200/3/2
f 197/2/2 198/2/2 201/2/2
f 201/2/2 198/2/2 202/2/2
f 199/2/2 200/2/2 203/2/2
f 203/2/2 200/2/2 204/2/2
f 201/3/2 202/3/2 205/3/2
f 205/3/2 202/3/2 206/3/2
f 203/3/2 204/3/2 207/3/2
f 207/3/2 204/3/2 208/3/2
f 205/2/2 206/2/2 209/2/2
f 209/2/2 206/2/2 210/2/2
f 159/1/2 165/1/2 211/1/2
f 166/1/2 160/1/2 212/1/2
f 207/2/2 208/2/2 213/2/2
f 213/2/2 208/2/2 214/2/2
f 209/3/2 210/3/2 215/3/2
f 215/3/2 210/3/2 216/3/2
f 159/1/2 211/1/2 217/1/2
f 211/1/2 212/1/2 217/1/2
f 212/1/2 160/1/2 218/1/2
f 217/1/2 212/1/2 218/1/2
f 213/3/2 214/3/2 219/3/2
f 219/3/2 214/3/2 220/3/2
f 215/2/2 216/2/2 221/2/2
f 221/2/2 216/2/2 222/2/2
f 219/2/2 220/2/2 223/2/2
f 223/2/2 220/2/2 224/2/2
f 241/2/3 226/2/3 225/2/3
f 242/3/3 227/3/3 226/3/3
f 242/2/3 226/2/3 241/2/3
f 243/2/3 228/2/3 227/2/3
f 243/3/3 227/3/3 242/3/3
f 244/3/3 229/3/3 228/3/3
f 244/2/3 228/2/3 243/2/3
f 245/2/3 230/2/3 229/2/3
f 245/3/3 229/3/3 244/3/3
f 246/3/3 231/3/3 230/3/3
f 246/2/3 230/2/3 245/2/3
f 247/2/3 232/2/3 231/2/3
f 247/3/3 231/3/3 246/3/3
f 248/3/3 233/3/3 232/3/3
f 248/2/3 232/2/3 247/2/3
f 249/2/3 234/2/3 233/2/3
f 249/3/3 233/3/3 248/3/3
f 250/3/3 235/3/3 234/3/3
f 250/2/3 234/2/3 249/2/3
f 251/2/3 236/2/3 235/2/3
f 251/3/3 235/3/3 250/3/3
f 252/3/3 237/3/3 236/3/3
f 252/2/3 236/2/3 251/2/3
f 253/2/3 238/2/3 237/2/3
f 253/3/3 237/3/3 252/3/3
f 254/3/3 239/3/3 238/3/3
f 254/2/3 238/2/3 253/2/3
f 255/2/3 240/2/3 239/2/3
f 255/3/3 239/3/3 254/3/3
f 256/2/3 240/2/3 255/2/3
f 259/1/3 258/1/3 257/1/3
f 260/1/3 258/1/3 259/1/3
f 261/1/3 259/1/3 257/1/3
f 262/1/3 258/1/3 260/1/3
f 263/1/3 261/1/3 257/1/3
f 263/1/3 262/1/3 261/1/3
f 264/1/3 258/1/3 262/1/3
f 264/1/3 262/1/3 263/1/3
f 265/2/3 241/2/3 225/2/3
f 281/2/3 265/2/3 225/2/3
f 281/2/3 266/2/3 265/2/3
f 282/3/3 267/3/3 266/3/3
f 282/2/3 266/2/3 281/2/3
f 283/2/3 268/2/3 267/2/3
f 283/3/3 267/3/3 282/3/3
f 284/3/3 269/3/3 268/3/3
f 284/2/3 268/2/3 283/2/3
f 285/2/3 270/2/3 269/2/3
f 285/3/3 269/3/3 284/3/3
f 286/3/3 271/3/3 270/3/3
f 286/2/3 270/2/3 285/2/3
f 287/2/3 272/2/3 271/2/3
f 287/3/3 271/3/3 286/3/3
f 288/3/3 273/3/3 272/3/3
f 288/2/3 272/2/3 287/2/3
f 289/2/3 274/2/3 273/2/3
f 289/3/3 273/3/3 288/3/3
f 290/3/3 275/3/3 274/3/3
f 290/2/3 274/2/3 289/2/3
f 291/2/3 276/2/3 275/2/3
f 291/3/3 275/3/3 290/3/3
f 292/3/3 277/3/3 276/3/3
f 292/2/3 276/2/3 291/2/3
f 293/2/3 278/2/3 277/2/3
f 293/3/3 277/3/3 292/3/3
f 294/3/3 279/3/3 278/3/3
f 294/2/3 278/2/3 293/2/3
f 295/2/3 280/2/3 279/2/3
f 295/3/3 279/3/3 294/3/3
f 296/2/3 280/2/3 295/2/3
f 313/3/3 298/3/3 297/3/3
f 313/3/3 312/3/3 311/3/3
f 313/3/3 311/3/3 310/3/3
f 313/3/3 310/3/3 309/3/3
f 313/3/3 309/3/3 308/3/3
f 313/3/3 308/3/3 307/3/3
f 313/3/3 307/3/3 306/3/3
f 313/3/3 306/3/3 305/3/3
f 313/3/3 305/3/3 304/3/3
f 313/3/3 304/3/3 303/3/3
f 313/3/3 303/3/3 302/3/3
f 313/3/3 302/3/3 301/3/3
f 313/3/3 301/3/3 300/3/3
f 313/3/3 300/3/3 299/3/3
f 313/3/3 299/3/3 298/3/3
f 314/3/3 312/3/3 313/3/3
f 317/3/3 316/3/3 315/3/3
f 318/3/3 316/3/3 317/3/3
f 319/3/3 313/3/3 297/3/3
f 320/3/3 312/3/3 314/3/3
f 321/3/3 319/3/3 297/3/3
f 321/3/3 320/3/3 319/3/3
f 322/3/3 320/3/3 321/3/3
f 323/3/3 320/3/3 322/3/3
f 324/3/3 320/3/3 323/3/3
f 325/3/3 320/3/3 324/3/3
f 326/3/3 320/3/3 325/3/3
f 327/3/3 320/3/3 326/3/3
f 328/3/3 320/3/3 327/3/3
f 329/3/3 320/3/3 328/3/3
f 330/3/3 320/3/3 329/3/3
f 331/3/3 320/3/3 330/3/3
f 332/3/3 320/3/3 331/3/3
f 333/3/3 320/3/3 332/3/3
f 334/3/3 320/3/3 333/3/3
f 335/3/3 312/3/3 320/3/3
f 335/3/3 320/3/3 334/3/3
f 336/3/3 312/3/3 335/3/3
f 339/1/3 338/1/3 337/1/3
f 340/1/3 338/1/3 339/1/3
f 343/1/3 342/1/3 341/1/3
f 344/1/3 342/1/3 343/1/3
f 361/2/3 346/2/3 345/2/3
f 362/3/3 347/3/3 346/3/3
f 362/2/3 346/2/3 361/2/3
f 363/2/3 348/2/3 347/2/3
f 363/3/3 347/3/3 362/3/3
f 364/3/3 349/3/3 348/3/3
f 364/2/3 348/2/3 363/2/3
f 365/2/3 350/2/3 349/2/3
f 365/3/3 349/3/3 364/3/3
f 366/3/3 351/3/3 350/3/3
f 366/2/3 350/2/3 365/2/3
f 367/2/3 352/2/3 351/2/3
f 367/3/3 351/3/3 366/3/3
f 368/3/3 353/3/3 352/3/3
f 368/2/3 352/2/3 367/2/3
f 369/2/3 354/2/3 353/2/3
f 369/3/3 353/3/3 368/3/3
f 370/3/3 355/3/3 354/3/3
f 370/2/3 354/2/3 369/2/3
f 371/2/3 356/2/3 355/2/3
f 371/3/3 355/3/3 370/3/3
f 372/3/3 357/3/3 356/3/3
f 372/2/3 356/2/3 371/2/3
f 373/2/3 358/2/3 357/2/3
f 373/3/3 357/3/3 372/3/3
f 374/3/3 359/3/3 358/3/3
f 374/2/3 358/2/3 373/2/3
f 375/2/3 360/2/3 359/2/3
f 375/3/3 359/3/3 374/3/3
f 376/2/3 360/2/3 375/2/3
f 377/2/4 378/2/4 393/2/4
f 378/3/4 379/3/4 394/3/4
f 393/2/4 378/2/4 394/2/4
f 379/2/4 380/2/4 395/2/4
f 394/3/4 379/3/4 395/3/4
f 380/3/4 381/3/4 396/3/4
f 395/2/4 380/2/4 396/2/4
f 381/2/4 382/2/4 397/2/4
f 396/3/4 381/3/4 397/3/4
f 382/3/4 383/3/4 398/3/4
f 397/2/4 382/2/4 398/2/4
f 383/2/4 384/2/4 399/2/4
f 398/3/4 383/3/4 399/3/4
f 384/3/4 385/3/4 400/3/4
f 399/2/4 384/2/4 400/2/4
f 385/2/4 386/2/4 401/2/4
f 400/3/4 385/3/4 401/3/4
f 386/3/4 387/3/4 402/3/4
f 401/2/4 386/2/4 402/2/4
f 387/2/4 388/2/4 403/2/4
f 402/3/4 387/3/4 403/3/4
f 388/3/4 389/3/4 404/3/4
f 403/2/4 388/2/4 404/2/4
f 389/2/4 390/2/4 405/2/4
f 404/3/4 389/3/4 405/3/4
f 390/3/4 391/3/4 406/3/4
f 405/2/4 390/2/4 406/2/4
f 391/2/4 392/2/4 407/2/4
f 406/3/4 391/3/4 407/3/4
f 407/2/4 392/2/4 408/2/4
f 409/1/4 410/1/4 411/1/4
f 411/1/4 410/1/4 412/1/4
f 413/1/4 414/1/4 415/1/4
f 415/1/4 414/1/4 416/1/4
f 417/2/4 418/2/4 433/2/4
f 418/3/4 419/3/4 434/3/4
f 433/2/4 418/2/4 434/2/4
f 419/2/4 420/2/4 435/2/4
f 434/3/4 419/3/4 435/3/4
f 420/3/4 421/3/4 436/3/4
f 435/2/4 420/2/4 436/2/4
f 421/2/4 422/2/4 437/2/4
f 436/3/4 421/3/4 437/3/4
f 422/3/4 423/3/4 438/3/4
f 437/2/4 422/2/4 438/2/4
f 423/2/4 424/2/4 439/2/4
f 438/3/4 423/3/4 439/3/4
f 424/3/4 425/3/4 440/3/4
f 439/2/4 424/2/4 440/2/4
f 425/2/4 426/2/4 441/2/4
f 440/3/4 425/3/4 441/3/4
f 426/3/4 427/3/4 442/3/4
f 441/2/4 426/2/4 442/2/4
f 427/2/4 428/2/4 443/2/4
f 442/3/4 427/3/4 443/3/4
f 428/3/4 429/3/4 444/3/4
f 443/2/4 428/2/4 444/2/4
f 429/2/4 430/2/4 445/2/4
f 444/3/4 429/3/4 445/3/4
f 430/3/4 431/3/4 446/3/4
f 445/2/4 430/2/4 446/2/4
f 431/2/4 432/2/4 447/2/4
f 446/3/4 431/3/4 447/3/4
f 447/2/4 432/2/4 448/2/4
f 451/2/5 450/2/5 449/2/5
f 452/2/5 450/2/5 451/2/5
f 453/2/5 451/2/5 449/2/5
f 453/3/5 452/3/5 451/3/5
f 454/2/5 450/2/5 452/2/5
f 454/3/5 452/3/5 453/3/5
f 455/2/5 453/2/5 449/2/5
f 455/2/5 454/2/5 453/2/5
f 456/2/5 450/2/5 454/2/5
f 456/2/5 454/2/5 455/2/5
f 459/1/5 458/1/5 457/1/5
f 460/1/5 458/1/5 459/1/5
f 463/1/5 462/1/5 461/1/5
f 464/1/5 462/1/5 463/1/5
f 467/1/5 466/1/5 465/1/5
f 468/1/5 466/1/5 467/1/5
f 471/1/5 470/1/5 469/1/5
f 472/1/5 470/1/5 471/1/5
f 473/2/6 474/2/6 475/2/6
f 475/2/6 474/2/6 476/2/6
f 476/2/6 477/2/6 478/2/6
f 478/2/6 477/2/6 479/2/6
f 480/1/6 481/1/6 482/1/6
f 482/1/6 481/1/6 483/1/6
f 484/1/6 485/1/6 486/1/6
f 486/1/6 485/1/6 487/1/6
f 488/1/6 489/1/6 490/1/6
f 490/1/6 489/1/6 491/1/6
f 492/1/6 493/1/6 494/1/6
f 494/1/6 493/1/6 495/1/6
f 496/2/6 497/2/6 500/2/6
f 498/2/6 499/2/6 501/2/6
f 501/2/6 499/2/6 502/2/6
f 496/2/6 500/2/6 503/2/6
f 500/3/6 501/3/6 503/3/6
f 503/3/6 501/3/6 504/3/6
f 496/2/6 503/2/6 506/2/6
f 504/2/6 505/2/6 506/2/6
f 503/2/6 504/2/6 506/2/6
f 506/2/6 505/2/6 507/2/6
