# MagicaVoxel @ Ephtracy

# group
o 

# material
mtllib BOX1-12.mtl
usemtl palette

# normals
vn 1 0 0
vn -1 0 0
vn 0 0 1
vn 0 0 -1
vn 0 1 0
vn 0 -1 0

# texcoords
vt 0.978516 0.5
vt 0.982422 0.5
vt 0.986328 0.5

# verts
v -6.3 2.6 -1.8
v -6.3 2.6 -2.7
v -6.3 2.5 -1.9
v -6.3 2.5 -2.6
v -6.3 2.4 -1.8
v -6.3 2.4 -1.9
v -6.3 2.4 -2
v -6.3 2.4 -2.5
v -6.3 2.4 -2.6
v -6.3 2.4 -2.7
v -6.3 2.3 -1.8
v -6.3 2.3 -1.9
v -6.3 2.3 -2.1
v -6.3 2.3 -2.4
v -6.3 2.3 -2.6
v -6.3 2.3 -2.7
v -6.3 2 -1.8
v -6.3 2 -1.9
v -6.3 2 -2.6
v -6.3 2 -2.7
v -6.3 1.9 -1.8
v -6.3 1.9 -1.9
v -6.3 1.9 -2.6
v -6.3 1.9 -2.7
v -6.3 1.6 -1.8
v -6.3 1.6 -1.9
v -6.3 1.6 -2.6
v -6.3 1.6 -2.7
v -6.3 1.5 -1.8
v -6.3 1.5 -1.9
v -6.3 1.5 -2.6
v -6.3 1.5 -2.7
v -6.3 1.2 -1.8
v -6.3 1.2 -1.9
v -6.3 1.2 -2.6
v -6.3 1.2 -2.7
v -6.3 1.1 -1.8
v -6.3 1.1 -1.9
v -6.3 1.1 -2.6
v -6.3 1.1 -2.7
v -6.3 0.8 -1.8
v -6.3 0.8 -1.9
v -6.3 0.8 -2.6
v -6.3 0.8 -2.7
v -6.3 0.7 -1.8
v -6.3 0.7 -1.9
v -6.3 0.7 -2.6
v -6.3 0.7 -2.7
v -6.3 0.4 -1.8
v -6.3 0.4 -1.9
v -6.3 0.4 -2.6
v -6.3 0.4 -2.7
v -6.3 0.3 -1.8
v -6.3 0.3 -1.9
v -6.3 0.3 -2.6
v -6.3 0.3 -2.7
v -6.3 0 -1.8
v -6.3 0 -1.9
v -6.3 0 -2
v -6.3 0 -2.1
v -6.3 0 -2.4
v -6.3 0 -2.5
v -6.3 0 -2.6
v -6.3 0 -2.7
v -6.4 2.5 -1.9
v -6.4 2.5 -2.6
v -6.4 2.4 -1.9
v -6.4 2.4 -2
v -6.4 2.4 -2.5
v -6.4 2.4 -2.6
v -6.4 2.3 -1.9
v -6.4 2.3 -2.1
v -6.4 2.3 -2.4
v -6.4 2.3 -2.6
v -6.4 2 -1.9
v -6.4 2 -2.6
v -6.4 1.9 -1.9
v -6.4 1.9 -2.6
v -6.4 1.6 -1.9
v -6.4 1.6 -2.6
v -6.4 1.5 -1.9
v -6.4 1.5 -2.6
v -6.4 1.2 -1.9
v -6.4 1.2 -2.6
v -6.4 1.1 -1.9
v -6.4 1.1 -2.6
v -6.4 0.8 -1.9
v -6.4 0.8 -2.6
v -6.4 0.7 -1.9
v -6.4 0.7 -2.6
v -6.4 0.4 -1.9
v -6.4 0.4 -2.6
v -6.4 0.3 -1.9
v -6.4 0.3 -2.6
v -6.4 0 -1.9
v -6.4 0 -2
v -6.4 0 -2.1
v -6.4 0 -2.4
v -6.4 0 -2.5
v -6.4 0 -2.6
v -6.5 2.4 -1.8
v -6.5 2.4 -1.9
v -6.5 0 -1.8
v -6.5 0 -1.9
v -6.9 2.3 -1.8
v -6.9 2.3 -1.9
v -6.9 0 -1.8
v -6.9 0 -1.9
v -7.1 2.5 -1.8
v -7.1 2.5 -1.9
v -7.1 2.4 -1.8
v -7.1 2.4 -1.9
v -7.1 2.3 -1.8
v -7.1 2.3 -1.9
v -7.1 2 -1.8
v -7.1 2 -1.9
v -7.1 1.9 -1.8
v -7.1 1.9 -1.9
v -7.1 1.6 -1.8
v -7.1 1.6 -1.9
v -7.1 1.5 -1.8
v -7.1 1.5 -1.9
v -7.1 1.2 -1.8
v -7.1 1.2 -1.9
v -7.1 1.1 -1.8
v -7.1 1.1 -1.9
v -7.1 0.8 -1.8
v -7.1 0.8 -1.9
v -7.1 0.7 -1.8
v -7.1 0.7 -1.9
v -7.1 0.4 -1.8
v -7.1 0.4 -1.9
v -7.1 0.3 -1.8
v -7.1 0.3 -1.9
v -7.1 0 -1.8
v -7.1 0 -1.9
v -6.4 2.5 -1.8
v -6.4 2.5 -1.9
v -6.4 2.4 -1.8
v -6.4 2.4 -1.9
v -6.4 2.3 -1.8
v -6.4 2.3 -1.9
v -6.4 2 -1.8
v -6.4 2 -1.9
v -6.4 1.9 -1.8
v -6.4 1.9 -1.9
v -6.4 1.6 -1.8
v -6.4 1.6 -1.9
v -6.4 1.5 -1.8
v -6.4 1.5 -1.9
v -6.4 1.2 -1.8
v -6.4 1.2 -1.9
v -6.4 1.1 -1.8
v -6.4 1.1 -1.9
v -6.4 0.8 -1.8
v -6.4 0.8 -1.9
v -6.4 0.7 -1.8
v -6.4 0.7 -1.9
v -6.4 0.4 -1.8
v -6.4 0.4 -1.9
v -6.4 0.3 -1.8
v -6.4 0.3 -1.9
v -6.4 0 -1.8
v -6.4 0 -1.9
v -6.6 2.3 -1.8
v -6.6 2.3 -1.9
v -6.6 0 -1.8
v -6.6 0 -1.9
v -7 2.4 -1.8
v -7 2.4 -1.9
v -7 0 -1.8
v -7 0 -1.9
v -7.2 2.6 -1.8
v -7.2 2.6 -2.7
v -7.2 2.4 -1.8
v -7.2 2.4 -2.7
v -7.2 2.3 -1.8
v -7.2 2.3 -2.7
v -7.2 2 -1.8
v -7.2 2 -2.7
v -7.2 1.9 -1.8
v -7.2 1.9 -2.7
v -7.2 1.6 -1.8
v -7.2 1.6 -2.7
v -7.2 1.5 -1.8
v -7.2 1.5 -2.7
v -7.2 1.2 -1.8
v -7.2 1.2 -2.7
v -7.2 1.1 -1.8
v -7.2 1.1 -2.7
v -7.2 0.8 -1.8
v -7.2 0.8 -2.7
v -7.2 0.7 -1.8
v -7.2 0.7 -2.7
v -7.2 0.4 -1.8
v -7.2 0.4 -2.7
v -7.2 0.3 -1.8
v -7.2 0.3 -2.7
v -7.2 0 -1.8
v -7.2 0 -2.7
v -6.3 2.6 -1.8
v -6.3 2.4 -1.8
v -6.3 2.3 -1.8
v -6.3 2 -1.8
v -6.3 1.9 -1.8
v -6.3 1.6 -1.8
v -6.3 1.5 -1.8
v -6.3 1.2 -1.8
v -6.3 1.1 -1.8
v -6.3 0.8 -1.8
v -6.3 0.7 -1.8
v -6.3 0.4 -1.8
v -6.3 0.3 -1.8
v -6.3 0 -1.8
v -6.4 2.5 -1.8
v -6.4 2.4 -1.8
v -6.4 2.3 -1.8
v -6.4 2 -1.8
v -6.4 1.9 -1.8
v -6.4 1.6 -1.8
v -6.4 1.5 -1.8
v -6.4 1.2 -1.8
v -6.4 1.1 -1.8
v -6.4 0.8 -1.8
v -6.4 0.7 -1.8
v -6.4 0.4 -1.8
v -6.4 0.3 -1.8
v -6.4 0 -1.8
v -6.5 2.4 -1.8
v -6.5 0 -1.8
v -6.6 2.3 -1.8
v -6.6 0 -1.8
v -6.9 2.3 -1.8
v -6.9 0 -1.8
v -7 2.4 -1.8
v -7 0 -1.8
v -7.1 2.5 -1.8
v -7.1 2.4 -1.8
v -7.1 2.3 -1.8
v -7.1 2 -1.8
v -7.1 1.9 -1.8
v -7.1 1.6 -1.8
v -7.1 1.5 -1.8
v -7.1 1.2 -1.8
v -7.1 1.1 -1.8
v -7.1 0.8 -1.8
v -7.1 0.7 -1.8
v -7.1 0.4 -1.8
v -7.1 0.3 -1.8
v -7.1 0 -1.8
v -7.2 2.6 -1.8
v -7.2 2.4 -1.8
v -7.2 2.3 -1.8
v -7.2 2 -1.8
v -7.2 1.9 -1.8
v -7.2 1.6 -1.8
v -7.2 1.5 -1.8
v -7.2 1.2 -1.8
v -7.2 1.1 -1.8
v -7.2 0.8 -1.8
v -7.2 0.7 -1.8
v -7.2 0.4 -1.8
v -7.2 0.3 -1.8
v -7.2 0 -1.8
v -6.4 2.5 -1.9
v -6.4 2.4 -1.9
v -6.4 2.3 -1.9
v -6.4 2 -1.9
v -6.4 1.9 -1.9
v -6.4 1.6 -1.9
v -6.4 1.5 -1.9
v -6.4 1.2 -1.9
v -6.4 1.1 -1.9
v -6.4 0.8 -1.9
v -6.4 0.7 -1.9
v -6.4 0.4 -1.9
v -6.4 0.3 -1.9
v -6.4 0 -1.9
v -6.5 2.4 -1.9
v -6.5 0 -1.9
v -6.6 2.3 -1.9
v -6.6 0 -1.9
v -6.9 2.3 -1.9
v -6.9 0 -1.9
v -7 2.4 -1.9
v -7 0 -1.9
v -7.1 2.5 -1.9
v -7.1 2.4 -1.9
v -7.1 2.3 -1.9
v -7.1 2 -1.9
v -7.1 1.9 -1.9
v -7.1 1.6 -1.9
v -7.1 1.5 -1.9
v -7.1 1.2 -1.9
v -7.1 1.1 -1.9
v -7.1 0.8 -1.9
v -7.1 0.7 -1.9
v -7.1 0.4 -1.9
v -7.1 0.3 -1.9
v -7.1 0 -1.9
v -6.3 2.4 -2
v -6.3 0 -2
v -6.4 2.4 -2
v -6.4 0 -2
v -6.3 2.3 -2.4
v -6.3 0 -2.4
v -6.4 2.3 -2.4
v -6.4 0 -2.4
v -6.3 2.5 -2.6
v -6.3 2.4 -2.6
v -6.3 2.3 -2.6
v -6.3 2 -2.6
v -6.3 1.9 -2.6
v -6.3 1.6 -2.6
v -6.3 1.5 -2.6
v -6.3 1.2 -2.6
v -6.3 1.1 -2.6
v -6.3 0.8 -2.6
v -6.3 0.7 -2.6
v -6.3 0.4 -2.6
v -6.3 0.3 -2.6
v -6.3 0 -2.6
v -6.4 2.5 -2.6
v -6.4 2.4 -2.6
v -6.4 2.3 -2.6
v -6.4 2 -2.6
v -6.4 1.9 -2.6
v -6.4 1.6 -2.6
v -6.4 1.5 -2.6
v -6.4 1.2 -2.6
v -6.4 1.1 -2.6
v -6.4 0.8 -2.6
v -6.4 0.7 -2.6
v -6.4 0.4 -2.6
v -6.4 0.3 -2.6
v -6.4 0 -2.6
v -6.3 2.5 -1.9
v -6.3 2.4 -1.9
v -6.3 2.3 -1.9
v -6.3 2 -1.9
v -6.3 1.9 -1.9
v -6.3 1.6 -1.9
v -6.3 1.5 -1.9
v -6.3 1.2 -1.9
v -6.3 1.1 -1.9
v -6.3 0.8 -1.9
v -6.3 0.7 -1.9
v -6.3 0.4 -1.9
v -6.3 0.3 -1.9
v -6.3 0 -1.9
v -6.4 2.5 -1.9
v -6.4 2.4 -1.9
v -6.4 2.3 -1.9
v -6.4 2 -1.9
v -6.4 1.9 -1.9
v -6.4 1.6 -1.9
v -6.4 1.5 -1.9
v -6.4 1.2 -1.9
v -6.4 1.1 -1.9
v -6.4 0.8 -1.9
v -6.4 0.7 -1.9
v -6.4 0.4 -1.9
v -6.4 0.3 -1.9
v -6.4 0 -1.9
v -6.3 2.3 -2.1
v -6.3 0 -2.1
v -6.4 2.3 -2.1
v -6.4 0 -2.1
v -6.3 2.4 -2.5
v -6.3 0 -2.5
v -6.4 2.4 -2.5
v -6.4 0 -2.5
v -6.3 2.6 -2.7
v -6.3 2.4 -2.7
v -6.3 2.3 -2.7
v -6.3 2 -2.7
v -6.3 1.9 -2.7
v -6.3 1.6 -2.7
v -6.3 1.5 -2.7
v -6.3 1.2 -2.7
v -6.3 1.1 -2.7
v -6.3 0.8 -2.7
v -6.3 0.7 -2.7
v -6.3 0.4 -2.7
v -6.3 0.3 -2.7
v -6.3 0 -2.7
v -7.2 2.6 -2.7
v -7.2 2.4 -2.7
v -7.2 2.3 -2.7
v -7.2 2 -2.7
v -7.2 1.9 -2.7
v -7.2 1.6 -2.7
v -7.2 1.5 -2.7
v -7.2 1.2 -2.7
v -7.2 1.1 -2.7
v -7.2 0.8 -2.7
v -7.2 0.7 -2.7
v -7.2 0.4 -2.7
v -7.2 0.3 -2.7
v -7.2 0 -2.7
v -6.3 2.6 -1.8
v -7.2 2.6 -1.8
v -6.4 2.6 -1.9
v -7.1 2.6 -1.9
v -6.4 2.6 -2.6
v -7.1 2.6 -2.6
v -6.3 2.6 -2.7
v -7.2 2.6 -2.7
v -6.5 2.4 -1.8
v -7 2.4 -1.8
v -6.5 2.4 -1.9
v -7 2.4 -1.9
v -6.3 2.4 -2
v -6.4 2.4 -2
v -6.3 2.4 -2.5
v -6.4 2.4 -2.5
v -6.4 2.5 -1.8
v -7.1 2.5 -1.8
v -6.3 2.5 -1.9
v -6.4 2.5 -1.9
v -7.1 2.5 -1.9
v -6.3 2.5 -2.6
v -6.4 2.5 -2.6
v -6.6 2.3 -1.8
v -6.9 2.3 -1.8
v -6.6 2.3 -1.9
v -6.9 2.3 -1.9
v -6.3 2.3 -2.1
v -6.4 2.3 -2.1
v -6.3 2.3 -2.4
v -6.4 2.3 -2.4
v -6.3 0 -1.8
v -6.4 0 -1.8
v -6.5 0 -1.8
v -6.6 0 -1.8
v -6.9 0 -1.8
v -7 0 -1.8
v -7.1 0 -1.8
v -7.2 0 -1.8
v -6.3 0 -1.9
v -6.4 0 -1.9
v -6.5 0 -1.9
v -6.6 0 -1.9
v -6.9 0 -1.9
v -7 0 -1.9
v -7.1 0 -1.9
v -6.3 0 -2
v -6.4 0 -2
v -6.3 0 -2.1
v -6.4 0 -2.1
v -6.3 0 -2.4
v -6.4 0 -2.4
v -6.3 0 -2.5
v -6.4 0 -2.5
v -6.3 0 -2.6
v -6.4 0 -2.6
v -7.1 0 -2.6
v -6.3 0 -2.7
v -7.2 0 -2.7

# faces
f 3/2/1 2/2/1 1/2/1
f 4/2/1 2/2/1 3/2/1
f 5/2/1 3/2/1 1/2/1
f 6/2/1 3/2/1 5/2/1
f 9/2/1 2/2/1 4/2/1
f 10/2/1 2/2/1 9/2/1
f 11/3/1 6/3/1 5/3/1
f 12/3/1 6/3/1 11/3/1
f 13/1/1 8/1/1 7/1/1
f 14/1/1 8/1/1 13/1/1
f 15/3/1 10/3/1 9/3/1
f 16/3/1 10/3/1 15/3/1
f 17/2/1 12/2/1 11/2/1
f 18/2/1 12/2/1 17/2/1
f 19/2/1 16/2/1 15/2/1
f 20/2/1 16/2/1 19/2/1
f 21/3/1 18/3/1 17/3/1
f 22/3/1 18/3/1 21/3/1
f 23/3/1 20/3/1 19/3/1
f 24/3/1 20/3/1 23/3/1
f 25/2/1 22/2/1 21/2/1
f 26/2/1 22/2/1 25/2/1
f 27/2/1 24/2/1 23/2/1
f 28/2/1 24/2/1 27/2/1
f 29/3/1 26/3/1 25/3/1
f 30/3/1 26/3/1 29/3/1
f 31/3/1 28/3/1 27/3/1
f 32/3/1 28/3/1 31/3/1
f 33/2/1 30/2/1 29/2/1
f 34/2/1 30/2/1 33/2/1
f 35/2/1 32/2/1 31/2/1
f 36/2/1 32/2/1 35/2/1
f 37/3/1 34/3/1 33/3/1
f 38/3/1 34/3/1 37/3/1
f 39/3/1 36/3/1 35/3/1
f 40/3/1 36/3/1 39/3/1
f 41/2/1 38/2/1 37/2/1
f 42/2/1 38/2/1 41/2/1
f 43/2/1 40/2/1 39/2/1
f 44/2/1 40/2/1 43/2/1
f 45/3/1 42/3/1 41/3/1
f 46/3/1 42/3/1 45/3/1
f 47/3/1 44/3/1 43/3/1
f 48/3/1 44/3/1 47/3/1
f 49/2/1 46/2/1 45/2/1
f 50/2/1 46/2/1 49/2/1
f 51/2/1 48/2/1 47/2/1
f 52/2/1 48/2/1 51/2/1
f 53/3/1 50/3/1 49/3/1
f 54/3/1 50/3/1 53/3/1
f 55/3/1 52/3/1 51/3/1
f 56/3/1 52/3/1 55/3/1
f 57/2/1 54/2/1 53/2/1
f 58/2/1 54/2/1 57/2/1
f 59/1/1 13/1/1 7/1/1
f 60/1/1 13/1/1 59/1/1
f 61/1/1 8/1/1 14/1/1
f 62/1/1 8/1/1 61/1/1
f 63/2/1 56/2/1 55/2/1
f 64/2/1 56/2/1 63/2/1
f 67/3/1 66/3/1 65/3/1
f 68/3/1 66/3/1 67/3/1
f 69/3/1 66/3/1 68/3/1
f 70/3/1 66/3/1 69/3/1
f 71/3/1 68/3/1 67/3/1
f 74/3/1 70/3/1 69/3/1
f 75/3/1 68/3/1 71/3/1
f 76/3/1 74/3/1 69/3/1
f 77/3/1 68/3/1 75/3/1
f 78/3/1 76/3/1 69/3/1
f 79/3/1 68/3/1 77/3/1
f 80/3/1 78/3/1 69/3/1
f 81/3/1 68/3/1 79/3/1
f 82/3/1 80/3/1 69/3/1
f 83/3/1 68/3/1 81/3/1
f 84/3/1 82/3/1 69/3/1
f 85/3/1 68/3/1 83/3/1
f 86/3/1 84/3/1 69/3/1
f 87/3/1 68/3/1 85/3/1
f 88/3/1 86/3/1 69/3/1
f 89/3/1 68/3/1 87/3/1
f 90/3/1 88/3/1 69/3/1
f 91/3/1 68/3/1 89/3/1
f 92/3/1 90/3/1 69/3/1
f 93/3/1 68/3/1 91/3/1
f 94/3/1 92/3/1 69/3/1
f 95/3/1 68/3/1 93/3/1
f 96/3/1 68/3/1 95/3/1
f 97/3/1 73/3/1 72/3/1
f 98/3/1 73/3/1 97/3/1
f 99/3/1 94/3/1 69/3/1
f 100/3/1 94/3/1 99/3/1
f 103/1/1 102/1/1 101/1/1
f 104/1/1 102/1/1 103/1/1
f 107/1/1 106/1/1 105/1/1
f 108/1/1 106/1/1 107/1/1
f 111/2/1 110/2/1 109/2/1
f 112/2/1 110/2/1 111/2/1
f 113/3/1 112/3/1 111/3/1
f 114/3/1 112/3/1 113/3/1
f 115/2/1 114/2/1 113/2/1
f 116/2/1 114/2/1 115/2/1
f 117/3/1 116/3/1 115/3/1
f 118/3/1 116/3/1 117/3/1
f 119/2/1 118/2/1 117/2/1
f 120/2/1 118/2/1 119/2/1
f 121/3/1 120/3/1 119/3/1
f 122/3/1 120/3/1 121/3/1
f 123/2/1 122/2/1 121/2/1
f 124/2/1 122/2/1 123/2/1
f 125/3/1 124/3/1 123/3/1
f 126/3/1 124/3/1 125/3/1
f 127/2/1 126/2/1 125/2/1
f 128/2/1 126/2/1 127/2/1
f 129/3/1 128/3/1 127/3/1
f 130/3/1 128/3/1 129/3/1
f 131/2/1 130/2/1 129/2/1
f 132/2/1 130/2/1 131/2/1
f 133/3/1 132/3/1 131/3/1
f 134/3/1 132/3/1 133/3/1
f 135/2/1 134/2/1 133/2/1
f 136/2/1 134/2/1 135/2/1
f 137/2/2 138/2/2 139/2/2
f 139/2/2 138/2/2 140/2/2
f 139/3/2 140/3/2 141/3/2
f 141/3/2 140/3/2 142/3/2
f 141/2/2 142/2/2 143/2/2
f 143/2/2 142/2/2 144/2/2
f 143/3/2 144/3/2 145/3/2
f 145/3/2 144/3/2 146/3/2
f 145/2/2 146/2/2 147/2/2
f 147/2/2 146/2/2 148/2/2
f 147/3/2 148/3/2 149/3/2
f 149/3/2 148/3/2 150/3/2
f 149/2/2 150/2/2 151/2/2
f 151/2/2 150/2/2 152/2/2
f 151/3/2 152/3/2 153/3/2
f 153/3/2 152/3/2 154/3/2
f 153/2/2 154/2/2 155/2/2
f 155/2/2 154/2/2 156/2/2
f 155/3/2 156/3/2 157/3/2
f 157/3/2 156/3/2 158/3/2
f 157/2/2 158/2/2 159/2/2
f 159/2/2 158/2/2 160/2/2
f 159/3/2 160/3/2 161/3/2
f 161/3/2 160/3/2 162/3/2
f 161/2/2 162/2/2 163/2/2
f 163/2/2 162/2/2 164/2/2
f 165/1/2 166/1/2 167/1/2
f 167/1/2 166/1/2 168/1/2
f 169/1/2 170/1/2 171/1/2
f 171/1/2 170/1/2 172/1/2
f 173/2/2 174/2/2 175/2/2
f 175/2/2 174/2/2 176/2/2
f 175/3/2 176/3/2 177/3/2
f 177/3/2 176/3/2 178/3/2
f 177/2/2 178/2/2 179/2/2
f 179/2/2 178/2/2 180/2/2
f 179/3/2 180/3/2 181/3/2
f 181/3/2 180/3/2 182/3/2
f 181/2/2 182/2/2 183/2/2
f 183/2/2 182/2/2 184/2/2
f 183/3/2 184/3/2 185/3/2
f 185/3/2 184/3/2 186/3/2
f 185/2/2 186/2/2 187/2/2
f 187/2/2 186/2/2 188/2/2
f 187/3/2 188/3/2 189/3/2
f 189/3/2 188/3/2 190/3/2
f 189/2/2 190/2/2 191/2/2
f 191/2/2 190/2/2 192/2/2
f 191/3/2 192/3/2 193/3/2
f 193/3/2 192/3/2 194/3/2
f 193/2/2 194/2/2 195/2/2
f 195/2/2 194/2/2 196/2/2
f 195/3/2 196/3/2 197/3/2
f 197/3/2 196/3/2 198/3/2
f 197/2/2 198/2/2 199/2/2
f 199/2/2 198/2/2 200/2/2
f 215/2/3 202/2/3 201/2/3
f 216/3/3 203/3/3 202/3/3
f 216/2/3 202/2/3 215/2/3
f 217/2/3 204/2/3 203/2/3
f 217/3/3 203/3/3 216/3/3
f 218/3/3 205/3/3 204/3/3
f 218/2/3 204/2/3 217/2/3
f 219/2/3 206/2/3 205/2/3
f 219/3/3 205/3/3 218/3/3
f 220/3/3 207/3/3 206/3/3
f 220/2/3 206/2/3 219/2/3
f 221/2/3 208/2/3 207/2/3
f 221/3/3 207/3/3 220/3/3
f 222/3/3 209/3/3 208/3/3
f 222/2/3 208/2/3 221/2/3
f 223/2/3 210/2/3 209/2/3
f 223/3/3 209/3/3 222/3/3
f 224/3/3 211/3/3 210/3/3
f 224/2/3 210/2/3 223/2/3
f 225/2/3 212/2/3 211/2/3
f 225/3/3 211/3/3 224/3/3
f 226/3/3 213/3/3 212/3/3
f 226/2/3 212/2/3 225/2/3
f 227/2/3 214/2/3 213/2/3
f 227/3/3 213/3/3 226/3/3
f 228/2/3 214/2/3 227/2/3
f 231/1/3 230/1/3 229/1/3
f 232/1/3 230/1/3 231/1/3
f 233/1/3 231/1/3 229/1/3
f 235/1/3 233/1/3 229/1/3
f 235/1/3 234/1/3 233/1/3
f 236/1/3 234/1/3 235/1/3
f 237/2/3 215/2/3 201/2/3
f 251/2/3 237/2/3 201/2/3
f 251/2/3 238/2/3 237/2/3
f 252/3/3 239/3/3 238/3/3
f 252/2/3 238/2/3 251/2/3
f 253/2/3 240/2/3 239/2/3
f 253/3/3 239/3/3 252/3/3
f 254/3/3 241/3/3 240/3/3
f 254/2/3 240/2/3 253/2/3
f 255/2/3 242/2/3 241/2/3
f 255/3/3 241/3/3 254/3/3
f 256/3/3 243/3/3 242/3/3
f 256/2/3 242/2/3 255/2/3
f 257/2/3 244/2/3 243/2/3
f 257/3/3 243/3/3 256/3/3
f 258/3/3 245/3/3 244/3/3
f 258/2/3 244/2/3 257/2/3
f 259/2/3 246/2/3 245/2/3
f 259/3/3 245/3/3 258/3/3
f 260/3/3 247/3/3 246/3/3
f 260/2/3 246/2/3 259/2/3
f 261/2/3 248/2/3 247/2/3
f 261/3/3 247/3/3 260/3/3
f 262/3/3 249/3/3 248/3/3
f 262/2/3 248/2/3 261/2/3
f 263/2/3 250/2/3 249/2/3
f 263/3/3 249/3/3 262/3/3
f 264/2/3 250/2/3 263/2/3
f 279/3/3 266/3/3 265/3/3
f 279/3/3 278/3/3 277/3/3
f 279/3/3 277/3/3 276/3/3
f 279/3/3 276/3/3 275/3/3
f 279/3/3 275/3/3 274/3/3
f 279/3/3 274/3/3 273/3/3
f 279/3/3 273/3/3 272/3/3
f 279/3/3 272/3/3 271/3/3
f 279/3/3 271/3/3 270/3/3
f 279/3/3 270/3/3 269/3/3
f 279/3/3 269/3/3 268/3/3
f 279/3/3 268/3/3 267/3/3
f 279/3/3 267/3/3 266/3/3
f 280/3/3 278/3/3 279/3/3
f 283/3/3 282/3/3 281/3/3
f 284/3/3 282/3/3 283/3/3
f 285/3/3 279/3/3 265/3/3
f 287/3/3 285/3/3 265/3/3
f 287/3/3 286/3/3 285/3/3
f 288/3/3 286/3/3 287/3/3
f 289/3/3 286/3/3 288/3/3
f 290/3/3 286/3/3 289/3/3
f 291/3/3 286/3/3 290/3/3
f 292/3/3 286/3/3 291/3/3
f 293/3/3 286/3/3 292/3/3
f 294/3/3 286/3/3 293/3/3
f 295/3/3 286/3/3 294/3/3
f 296/3/3 286/3/3 295/3/3
f 297/3/3 286/3/3 296/3/3
f 298/3/3 286/3/3 297/3/3
f 299/3/3 286/3/3 298/3/3
f 300/3/3 286/3/3 299/3/3
f 303/1/3 302/1/3 301/1/3
f 304/1/3 302/1/3 303/1/3
f 307/1/3 306/1/3 305/1/3
f 308/1/3 306/1/3 307/1/3
f 323/2/3 310/2/3 309/2/3
f 324/3/3 311/3/3 310/3/3
f 324/2/3 310/2/3 323/2/3
f 325/2/3 312/2/3 311/2/3
f 325/3/3 311/3/3 324/3/3
f 326/3/3 313/3/3 312/3/3
f 326/2/3 312/2/3 325/2/3
f 327/2/3 314/2/3 313/2/3
f 327/3/3 313/3/3 326/3/3
f 328/3/3 315/3/3 314/3/3
f 328/2/3 314/2/3 327/2/3
f 329/2/3 316/2/3 315/2/3
f 329/3/3 315/3/3 328/3/3
f 330/3/3 317/3/3 316/3/3
f 330/2/3 316/2/3 329/2/3
f 331/2/3 318/2/3 317/2/3
f 331/3/3 317/3/3 330/3/3
f 332/3/3 319/3/3 318/3/3
f 332/2/3 318/2/3 331/2/3
f 333/2/3 320/2/3 319/2/3
f 333/3/3 319/3/3 332/3/3
f 334/3/3 321/3/3 320/3/3
f 334/2/3 320/2/3 333/2/3
f 335/2/3 322/2/3 321/2/3
f 335/3/3 321/3/3 334/3/3
f 336/2/3 322/2/3 335/2/3
f 337/2/4 338/2/4 351/2/4
f 338/3/4 339/3/4 352/3/4
f 351/2/4 338/2/4 352/2/4
f 339/2/4 340/2/4 353/2/4
f 352/3/4 339/3/4 353/3/4
f 340/3/4 341/3/4 354/3/4
f 353/2/4 340/2/4 354/2/4
f 341/2/4 342/2/4 355/2/4
f 354/3/4 341/3/4 355/3/4
f 342/3/4 343/3/4 356/3/4
f 355/2/4 342/2/4 356/2/4
f 343/2/4 344/2/4 357/2/4
f 356/3/4 343/3/4 357/3/4
f 344/3/4 345/3/4 358/3/4
f 357/2/4 344/2/4 358/2/4
f 345/2/4 346/2/4 359/2/4
f 358/3/4 345/3/4 359/3/4
f 346/3/4 347/3/4 360/3/4
f 359/2/4 346/2/4 360/2/4
f 347/2/4 348/2/4 361/2/4
f 360/3/4 347/3/4 361/3/4
f 348/3/4 349/3/4 362/3/4
f 361/2/4 348/2/4 362/2/4
f 349/2/4 350/2/4 363/2/4
f 362/3/4 349/3/4 363/3/4
f 363/2/4 350/2/4 364/2/4
f 365/1/4 366/1/4 367/1/4
f 367/1/4 366/1/4 368/1/4
f 369/1/4 370/1/4 371/1/4
f 371/1/4 370/1/4 372/1/4
f 373/2/4 374/2/4 387/2/4
f 374/3/4 375/3/4 388/3/4
f 387/2/4 374/2/4 388/2/4
f 375/2/4 376/2/4 389/2/4
f 388/3/4 375/3/4 389/3/4
f 376/3/4 377/3/4 390/3/4
f 389/2/4 376/2/4 390/2/4
f 377/2/4 378/2/4 391/2/4
f 390/3/4 377/3/4 391/3/4
f 378/3/4 379/3/4 392/3/4
f 391/2/4 378/2/4 392/2/4
f 379/2/4 380/2/4 393/2/4
f 392/3/4 379/3/4 393/3/4
f 380/3/4 381/3/4 394/3/4
f 393/2/4 380/2/4 394/2/4
f 381/2/4 382/2/4 395/2/4
f 394/3/4 381/3/4 395/3/4
f 382/3/4 383/3/4 396/3/4
f 395/2/4 382/2/4 396/2/4
f 383/2/4 384/2/4 397/2/4
f 396/3/4 383/3/4 397/3/4
f 384/3/4 385/3/4 398/3/4
f 397/2/4 384/2/4 398/2/4
f 385/2/4 386/2/4 399/2/4
f 398/3/4 385/3/4 399/3/4
f 399/2/4 386/2/4 400/2/4
f 403/2/5 402/2/5 401/2/5
f 404/2/5 402/2/5 403/2/5
f 405/2/5 403/2/5 401/2/5
f 405/3/5 404/3/5 403/3/5
f 406/2/5 402/2/5 404/2/5
f 406/3/5 404/3/5 405/3/5
f 407/2/5 405/2/5 401/2/5
f 407/2/5 406/2/5 405/2/5
f 408/2/5 402/2/5 406/2/5
f 408/2/5 406/2/5 407/2/5
f 411/1/5 410/1/5 409/1/5
f 412/1/5 410/1/5 411/1/5
f 415/1/5 414/1/5 413/1/5
f 416/1/5 414/1/5 415/1/5
f 417/2/6 418/2/6 420/2/6
f 420/2/6 418/2/6 421/2/6
f 419/2/6 420/2/6 422/2/6
f 422/2/6 420/2/6 423/2/6
f 424/1/6 425/1/6 426/1/6
f 426/1/6 425/1/6 427/1/6
f 428/1/6 429/1/6 430/1/6
f 430/1/6 429/1/6 431/1/6
f 432/2/6 433/2/6 440/2/6
f 440/2/6 433/2/6 441/2/6
f 434/1/6 435/1/6 442/1/6
f 442/1/6 435/1/6 443/1/6
f 436/1/6 437/1/6 444/1/6
f 444/1/6 437/1/6 445/1/6
f 438/2/6 439/2/6 446/2/6
f 444/3/6 445/3/6 448/3/6
f 445/3/6 446/3/6 448/3/6
f 442/3/6 443/3/6 448/3/6
f 443/3/6 444/3/6 448/3/6
f 441/3/6 442/3/6 448/3/6
f 447/1/6 448/1/6 449/1/6
f 448/3/6 446/3/6 450/3/6
f 449/1/6 448/1/6 450/1/6
f 450/3/6 446/3/6 452/3/6
f 451/1/6 452/1/6 453/1/6
f 452/3/6 446/3/6 454/3/6
f 453/1/6 452/1/6 454/1/6
f 454/3/6 446/3/6 456/3/6
f 446/2/6 439/2/6 457/2/6
f 456/3/6 446/3/6 457/3/6
f 455/2/6 456/2/6 458/2/6
f 456/2/6 457/2/6 458/2/6
f 457/2/6 439/2/6 459/2/6
f 458/2/6 457/2/6 459/2/6
