# MagicaVoxel @ Ephtracy

# group
o 

# material
mtllib BOX1-77.mtl
usemtl palette

# normals
vn 0 0 1
vn 0 0 -1
vn -1 0 0
vn 1 0 0
vn 0 -1 0
vn 0 1 0

# texcoords
vt 0.880859 0.5
vt 0.884766 0.5
vt 0.888672 0.5
vt 0.943359 0.5
vt 0.951172 0.5
vt 0.955078 0.5
vt 0.982422 0.5
vt 0.986328 0.5

# verts
v 0.8 0 5.3
v 2.8 0 5.3
v 0.8 0.1 5.3
v 1 0.1 5.3
v 1.1 0.1 5.3
v 1.2 0.1 5.3
v 1.5 0.1 5.3
v 1.6 0.1 5.3
v 1.9 0.1 5.3
v 2 0.1 5.3
v 2.3 0.1 5.3
v 2.4 0.1 5.3
v 2.7 0.1 5.3
v 2.8 0.1 5.3
v 0.8 0.2 5.3
v 1 0.2 5.3
v 1.1 0.2 5.3
v 1.2 0.2 5.3
v 1.5 0.2 5.3
v 1.6 0.2 5.3
v 1.9 0.2 5.3
v 2 0.2 5.3
v 2.3 0.2 5.3
v 2.4 0.2 5.3
v 2.7 0.2 5.3
v 2.8 0.2 5.3
v 0.8 0.1 5
v 1 0.1 5
v 1.1 0.1 5
v 1.2 0.1 5
v 1.5 0.1 5
v 1.6 0.1 5
v 1.9 0.1 5
v 2 0.1 5
v 2.3 0.1 5
v 2.4 0.1 5
v 2.7 0.1 5
v 2.8 0.1 5
v 0.8 0.2 5
v 1 0.2 5
v 1.1 0.2 5
v 1.2 0.2 5
v 1.5 0.2 5
v 1.6 0.2 5
v 1.9 0.2 5
v 2 0.2 5
v 2.3 0.2 5
v 2.4 0.2 5
v 2.7 0.2 5
v 2.8 0.2 5
v 0.8 0 3.3
v 1.9 0 3.3
v 2.7 0 3.3
v 2.8 0 3.3
v 0.8 0.1 3.3
v 1.9 0.1 3.3
v 2.7 0.1 3.3
v 2.8 0.1 3.3
v 0.8 0 5.3
v 0.8 0.1 5.3
v 0.8 0.2 5.3
v 0.8 0 5
v 0.8 0.1 5
v 0.8 0.2 5
v 0.8 0 4.8
v 0.8 0.1 4.8
v 0.8 0 4.7
v 0.8 0.1 4.7
v 0.8 0 4.4
v 0.8 0.1 4.4
v 0.8 0 4.3
v 0.8 0.1 4.3
v 0.8 0 4.2
v 0.8 0.1 4.2
v 0.8 0 4
v 0.8 0.1 4
v 0.8 0 3.9
v 0.8 0.1 3.9
v 0.8 0 3.6
v 0.8 0.1 3.6
v 0.8 0 3.5
v 0.8 0.1 3.5
v 0.8 0 3.3
v 0.8 0.1 3.3
v 2.8 0 5.3
v 2.8 0.1 5.3
v 2.8 0.2 5.3
v 2.8 0 5
v 2.8 0.1 5
v 2.8 0.2 5
v 2.8 0 4.9
v 2.8 0.1 4.9
v 2.8 0 4.8
v 2.8 0.1 4.8
v 2.8 0 4.7
v 2.8 0.1 4.7
v 2.8 0 4.4
v 2.8 0.1 4.4
v 2.8 0 4.3
v 2.8 0.1 4.3
v 2.8 0 4
v 2.8 0.1 4
v 2.8 0 3.9
v 2.8 0.1 3.9
v 2.8 0 3.6
v 2.8 0.1 3.6
v 2.8 0 3.5
v 2.8 0.1 3.5
v 2.8 0 3.3
v 2.8 0.1 3.3
v 0.8 0 5.3
v 0.8 0 5
v 0.8 0 4.8
v 0.8 0 4.7
v 0.8 0 4.4
v 0.8 0 4.3
v 0.8 0 4.2
v 0.8 0 4
v 0.8 0 3.9
v 0.8 0 3.6
v 0.8 0 3.5
v 0.8 0 3.3
v 1 0 3.6
v 1 0 3.5
v 1.1 0 4.9
v 1.1 0 4.8
v 1.1 0 4.7
v 1.1 0 3.5
v 1.1 0 3.4
v 1.3 0 3.6
v 1.3 0 3.5
v 1.4 0 4.2
v 1.4 0 4.1
v 1.5 0 4.3
v 1.5 0 4.2
v 1.6 0 5
v 1.6 0 4.9
v 1.6 0 4.8
v 1.6 0 3.5
v 1.6 0 3.4
v 1.7 0 4.8
v 1.7 0 4.7
v 1.7 0 4
v 1.7 0 3.9
v 1.9 0 4.6
v 1.9 0 4.5
v 1.9 0 3.4
v 1.9 0 3.3
v 2.1 0 4.4
v 2.1 0 4.3
v 2.1 0 3.7
v 2.1 0 3.6
v 2.2 0 4
v 2.2 0 3.9
v 2.3 0 5
v 2.3 0 4.9
v 2.4 0 4.2
v 2.4 0 4.1
v 2.6 0 4.3
v 2.6 0 4.2
v 2.7 0 4.6
v 2.7 0 4.5
v 2.7 0 4.4
v 2.7 0 4.3
v 2.7 0 4.2
v 2.7 0 3.7
v 2.7 0 3.6
v 2.7 0 3.4
v 2.7 0 3.3
v 2.8 0 5.3
v 2.8 0 5
v 2.8 0 4.9
v 2.8 0 4.8
v 2.8 0 4.7
v 2.8 0 4.4
v 2.8 0 4.3
v 2.8 0 4
v 2.8 0 3.9
v 2.8 0 3.6
v 2.8 0 3.5
v 2.8 0 3.3
v 0.8 0.1 5
v 0.8 0.1 4.8
v 0.8 0.1 4.7
v 0.8 0.1 4.4
v 0.8 0.1 4.3
v 0.8 0.1 4.2
v 0.8 0.1 4
v 0.8 0.1 3.9
v 0.8 0.1 3.6
v 0.8 0.1 3.5
v 0.8 0.1 3.3
v 1 0.1 5
v 1 0.1 3.6
v 1 0.1 3.5
v 1.1 0.1 5
v 1.1 0.1 4.9
v 1.1 0.1 4.8
v 1.1 0.1 4.7
v 1.1 0.1 3.5
v 1.1 0.1 3.4
v 1.2 0.1 5
v 1.3 0.1 3.6
v 1.3 0.1 3.5
v 1.4 0.1 4.2
v 1.4 0.1 4.1
v 1.5 0.1 5
v 1.5 0.1 4.3
v 1.5 0.1 4.2
v 1.6 0.1 5
v 1.6 0.1 4.9
v 1.6 0.1 4.8
v 1.6 0.1 3.5
v 1.6 0.1 3.4
v 1.7 0.1 4.8
v 1.7 0.1 4.7
v 1.7 0.1 4
v 1.7 0.1 3.9
v 1.9 0.1 5
v 1.9 0.1 4.6
v 1.9 0.1 4.5
v 1.9 0.1 3.4
v 1.9 0.1 3.3
v 2 0.1 5
v 2.1 0.1 4.4
v 2.1 0.1 4.3
v 2.1 0.1 3.7
v 2.1 0.1 3.6
v 2.2 0.1 4
v 2.2 0.1 3.9
v 2.3 0.1 5
v 2.3 0.1 4.9
v 2.4 0.1 5
v 2.4 0.1 4.2
v 2.4 0.1 4.1
v 2.6 0.1 4.3
v 2.6 0.1 4.2
v 2.7 0.1 5
v 2.7 0.1 4.6
v 2.7 0.1 4.5
v 2.7 0.1 4.4
v 2.7 0.1 4.3
v 2.7 0.1 4.2
v 2.7 0.1 3.7
v 2.7 0.1 3.6
v 2.7 0.1 3.4
v 2.7 0.1 3.3
v 2.8 0.1 5
v 2.8 0.1 4.9
v 2.8 0.1 4.8
v 2.8 0.1 4.7
v 2.8 0.1 4.4
v 2.8 0.1 4.3
v 2.8 0.1 4
v 2.8 0.1 3.9
v 2.8 0.1 3.6
v 2.8 0.1 3.5
v 2.8 0.1 3.3
v 0.8 0.2 5.3
v 0.8 0.2 5
v 1 0.2 5.3
v 1 0.2 5
v 1.1 0.2 5.3
v 1.1 0.2 5
v 1.2 0.2 5.3
v 1.2 0.2 5.2
v 1.2 0.2 5
v 1.5 0.2 5.3
v 1.5 0.2 5.2
v 1.5 0.2 5
v 1.6 0.2 5.3
v 1.6 0.2 5
v 1.7 0.2 5.2
v 1.7 0.2 5.1
v 1.9 0.2 5.3
v 1.9 0.2 5.2
v 1.9 0.2 5.1
v 1.9 0.2 5
v 2 0.2 5.3
v 2 0.2 5.2
v 2 0.2 5.1
v 2 0.2 5
v 2.1 0.2 5.2
v 2.1 0.2 5.1
v 2.3 0.2 5.3
v 2.3 0.2 5
v 2.4 0.2 5.3
v 2.4 0.2 5
v 2.7 0.2 5.3
v 2.7 0.2 5
v 2.8 0.2 5.3
v 2.8 0.2 5

# faces
f 1/5/1 2/5/1 3/5/1
f 3/5/1 2/5/1 4/5/1
f 4/5/1 2/5/1 5/5/1
f 5/5/1 2/5/1 6/5/1
f 6/5/1 2/5/1 7/5/1
f 7/5/1 2/5/1 8/5/1
f 8/5/1 2/5/1 9/5/1
f 9/5/1 2/5/1 10/5/1
f 10/5/1 2/5/1 11/5/1
f 11/5/1 2/5/1 12/5/1
f 12/5/1 2/5/1 13/5/1
f 13/5/1 2/5/1 14/5/1
f 3/4/1 4/4/1 15/4/1
f 4/7/1 5/7/1 16/7/1
f 15/4/1 4/4/1 16/4/1
f 5/8/1 6/8/1 17/8/1
f 16/7/1 5/7/1 17/7/1
f 6/7/1 7/7/1 18/7/1
f 17/8/1 6/8/1 18/8/1
f 7/8/1 8/8/1 19/8/1
f 18/7/1 7/7/1 19/7/1
f 8/7/1 9/7/1 20/7/1
f 19/8/1 8/8/1 20/8/1
f 9/8/1 10/8/1 21/8/1
f 20/7/1 9/7/1 21/7/1
f 10/7/1 11/7/1 22/7/1
f 21/8/1 10/8/1 22/8/1
f 11/8/1 12/8/1 23/8/1
f 22/7/1 11/7/1 23/7/1
f 12/7/1 13/7/1 24/7/1
f 23/8/1 12/8/1 24/8/1
f 13/8/1 14/8/1 25/8/1
f 24/7/1 13/7/1 25/7/1
f 25/8/1 14/8/1 26/8/1
f 39/4/2 28/4/2 27/4/2
f 40/7/2 29/7/2 28/7/2
f 40/4/2 28/4/2 39/4/2
f 41/8/2 30/8/2 29/8/2
f 41/7/2 29/7/2 40/7/2
f 42/4/2 31/4/2 30/4/2
f 42/8/2 30/8/2 41/8/2
f 43/8/2 32/8/2 31/8/2
f 43/4/2 31/4/2 42/4/2
f 44/7/2 33/7/2 32/7/2
f 44/8/2 32/8/2 43/8/2
f 45/8/2 34/8/2 33/8/2
f 45/7/2 33/7/2 44/7/2
f 46/7/2 35/7/2 34/7/2
f 46/8/2 34/8/2 45/8/2
f 47/8/2 36/8/2 35/8/2
f 47/7/2 35/7/2 46/7/2
f 48/7/2 37/7/2 36/7/2
f 48/8/2 36/8/2 47/8/2
f 49/8/2 38/8/2 37/8/2
f 49/7/2 37/7/2 48/7/2
f 50/8/2 38/8/2 49/8/2
f 55/6/2 52/6/2 51/6/2
f 56/2/2 53/2/2 52/2/2
f 56/6/2 52/6/2 55/6/2
f 57/6/2 54/6/2 53/6/2
f 57/2/2 53/2/2 56/2/2
f 58/6/2 54/6/2 57/6/2
f 59/5/3 60/5/3 62/5/3
f 60/4/3 61/4/3 63/4/3
f 62/5/3 60/5/3 63/5/3
f 63/4/3 61/4/3 64/4/3
f 62/6/3 63/6/3 65/6/3
f 65/6/3 63/6/3 66/6/3
f 65/1/3 66/1/3 67/1/3
f 67/1/3 66/1/3 68/1/3
f 67/6/3 68/6/3 69/6/3
f 69/6/3 68/6/3 70/6/3
f 69/1/3 70/1/3 71/1/3
f 71/1/3 70/1/3 72/1/3
f 71/2/3 72/2/3 73/2/3
f 73/2/3 72/2/3 74/2/3
f 73/6/3 74/6/3 75/6/3
f 75/6/3 74/6/3 76/6/3
f 75/1/3 76/1/3 77/1/3
f 77/1/3 76/1/3 78/1/3
f 77/6/3 78/6/3 79/6/3
f 79/6/3 78/6/3 80/6/3
f 79/1/3 80/1/3 81/1/3
f 81/1/3 80/1/3 82/1/3
f 81/6/3 82/6/3 83/6/3
f 83/6/3 82/6/3 84/6/3
f 88/5/4 86/5/4 85/5/4
f 89/8/4 87/8/4 86/8/4
f 89/5/4 86/5/4 88/5/4
f 90/8/4 87/8/4 89/8/4
f 91/2/4 89/2/4 88/2/4
f 92/2/4 89/2/4 91/2/4
f 93/6/4 92/6/4 91/6/4
f 94/6/4 92/6/4 93/6/4
f 95/1/4 94/1/4 93/1/4
f 96/1/4 94/1/4 95/1/4
f 97/6/4 96/6/4 95/6/4
f 98/6/4 96/6/4 97/6/4
f 99/1/4 98/1/4 97/1/4
f 100/1/4 98/1/4 99/1/4
f 101/6/4 100/6/4 99/6/4
f 102/6/4 100/6/4 101/6/4
f 103/1/4 102/1/4 101/1/4
f 104/1/4 102/1/4 103/1/4
f 105/6/4 104/6/4 103/6/4
f 106/6/4 104/6/4 105/6/4
f 107/1/4 106/1/4 105/1/4
f 108/1/4 106/1/4 107/1/4
f 109/6/4 108/6/4 107/6/4
f 110/6/4 108/6/4 109/6/4
f 119/6/5 120/6/5 123/6/5
f 120/1/5 121/1/5 123/1/5
f 121/6/5 122/6/5 124/6/5
f 123/1/5 121/1/5 124/1/5
f 112/6/5 113/6/5 125/6/5
f 113/1/5 114/1/5 126/1/5
f 125/6/5 113/6/5 126/6/5
f 114/6/5 115/6/5 127/6/5
f 126/1/5 114/1/5 127/1/5
f 124/6/5 122/6/5 128/6/5
f 123/3/5 124/3/5 128/3/5
f 128/6/5 122/6/5 129/6/5
f 119/6/5 123/6/5 130/6/5
f 123/3/5 128/3/5 130/3/5
f 128/3/5 129/3/5 130/3/5
f 130/3/5 129/3/5 131/3/5
f 116/2/5 117/2/5 132/2/5
f 117/6/5 118/6/5 132/6/5
f 132/6/5 118/6/5 133/6/5
f 115/1/5 116/1/5 134/1/5
f 116/2/5 132/2/5 134/2/5
f 132/2/5 133/2/5 134/2/5
f 134/2/5 133/2/5 135/2/5
f 111/5/5 112/5/5 136/5/5
f 112/6/5 125/6/5 136/6/5
f 125/2/5 126/2/5 137/2/5
f 136/6/5 125/6/5 137/6/5
f 126/3/5 127/3/5 138/3/5
f 137/2/5 126/2/5 138/2/5
f 131/3/5 129/3/5 139/3/5
f 130/1/5 131/1/5 139/1/5
f 129/6/5 122/6/5 140/6/5
f 139/3/5 129/3/5 140/3/5
f 138/3/5 127/3/5 141/3/5
f 137/6/5 138/6/5 141/6/5
f 127/6/5 115/6/5 142/6/5
f 141/3/5 127/3/5 142/3/5
f 133/6/5 118/6/5 143/6/5
f 118/1/5 119/1/5 143/1/5
f 119/6/5 130/6/5 144/6/5
f 143/1/5 119/1/5 144/1/5
f 142/6/5 115/6/5 145/6/5
f 145/6/5 115/6/5 146/6/5
f 140/6/5 122/6/5 147/6/5
f 139/6/5 140/6/5 147/6/5
f 147/6/5 122/6/5 148/6/5
f 146/6/5 115/6/5 149/6/5
f 115/1/5 134/1/5 149/1/5
f 134/6/5 135/6/5 150/6/5
f 149/1/5 134/1/5 150/1/5
f 144/6/5 130/6/5 151/6/5
f 130/1/5 139/1/5 152/1/5
f 151/6/5 130/6/5 152/6/5
f 133/6/5 143/6/5 153/6/5
f 143/3/5 144/3/5 153/3/5
f 144/6/5 151/6/5 154/6/5
f 153/3/5 144/3/5 154/3/5
f 111/5/5 136/5/5 155/5/5
f 136/3/5 137/3/5 155/3/5
f 137/6/5 141/6/5 156/6/5
f 155/3/5 137/3/5 156/3/5
f 135/2/5 133/2/5 157/2/5
f 150/6/5 135/6/5 157/6/5
f 133/6/5 153/6/5 158/6/5
f 157/2/5 133/2/5 158/2/5
f 150/6/5 157/6/5 159/6/5
f 149/3/5 150/3/5 159/3/5
f 157/6/5 158/6/5 159/6/5
f 159/6/5 158/6/5 160/6/5
f 145/2/5 146/2/5 161/2/5
f 142/6/5 145/6/5 161/6/5
f 146/6/5 149/6/5 162/6/5
f 161/2/5 146/2/5 162/2/5
f 159/3/5 160/3/5 163/3/5
f 162/6/5 149/6/5 163/6/5
f 149/3/5 159/3/5 163/3/5
f 163/3/5 160/3/5 164/3/5
f 160/6/5 158/6/5 165/6/5
f 164/3/5 160/3/5 165/3/5
f 154/6/5 151/6/5 166/6/5
f 151/2/5 152/2/5 166/2/5
f 152/1/5 139/1/5 167/1/5
f 166/2/5 152/2/5 167/2/5
f 147/2/5 148/2/5 168/2/5
f 139/6/5 147/6/5 168/6/5
f 168/2/5 148/2/5 169/2/5
f 111/5/5 155/5/5 170/5/5
f 155/2/5 156/2/5 171/2/5
f 170/5/5 155/5/5 171/5/5
f 156/6/5 141/6/5 172/6/5
f 171/2/5 156/2/5 172/2/5
f 141/1/5 142/1/5 173/1/5
f 172/6/5 141/6/5 173/6/5
f 142/6/5 161/6/5 174/6/5
f 173/1/5 142/1/5 174/1/5
f 161/6/5 162/6/5 174/6/5
f 162/6/5 163/6/5 174/6/5
f 163/1/5 164/1/5 175/1/5
f 174/6/5 163/6/5 175/6/5
f 164/6/5 165/6/5 176/6/5
f 175/1/5 164/1/5 176/1/5
f 165/6/5 158/6/5 177/6/5
f 176/6/5 165/6/5 177/6/5
f 158/6/5 153/6/5 177/6/5
f 153/1/5 154/1/5 177/1/5
f 166/6/5 167/6/5 178/6/5
f 177/1/5 154/1/5 178/1/5
f 154/6/5 166/6/5 178/6/5
f 167/1/5 139/1/5 179/1/5
f 178/6/5 167/6/5 179/6/5
f 139/6/5 168/6/5 180/6/5
f 179/1/5 139/1/5 180/1/5
f 168/6/5 169/6/5 180/6/5
f 180/6/5 169/6/5 181/6/5
f 193/6/6 183/6/6 182/6/6
f 194/6/6 190/6/6 189/6/6
f 194/1/6 191/1/6 190/1/6
f 195/6/6 192/6/6 191/6/6
f 195/1/6 191/1/6 194/1/6
f 196/6/6 183/6/6 193/6/6
f 197/6/6 183/6/6 196/6/6
f 198/1/6 184/1/6 183/1/6
f 198/6/6 183/6/6 197/6/6
f 199/6/6 185/6/6 184/6/6
f 199/1/6 184/1/6 198/1/6
f 200/6/6 192/6/6 195/6/6
f 200/3/6 195/3/6 194/3/6
f 201/6/6 192/6/6 200/6/6
f 202/6/6 197/6/6 196/6/6
f 203/6/6 194/6/6 189/6/6
f 203/3/6 200/3/6 194/3/6
f 203/3/6 201/3/6 200/3/6
f 204/3/6 201/3/6 203/3/6
f 205/2/6 187/2/6 186/2/6
f 205/6/6 188/6/6 187/6/6
f 206/6/6 188/6/6 205/6/6
f 207/6/6 197/6/6 202/6/6
f 208/1/6 186/1/6 185/1/6
f 208/2/6 205/2/6 186/2/6
f 208/2/6 206/2/6 205/2/6
f 209/2/6 206/2/6 208/2/6
f 210/6/6 197/6/6 207/6/6
f 211/2/6 198/2/6 197/2/6
f 211/6/6 197/6/6 210/6/6
f 212/3/6 199/3/6 198/3/6
f 212/2/6 198/2/6 211/2/6
f 213/3/6 201/3/6 204/3/6
f 213/1/6 204/1/6 203/1/6
f 214/6/6 192/6/6 201/6/6
f 214/3/6 201/3/6 213/3/6
f 215/3/6 199/3/6 212/3/6
f 215/6/6 212/6/6 211/6/6
f 216/6/6 185/6/6 199/6/6
f 216/3/6 199/3/6 215/3/6
f 217/6/6 188/6/6 206/6/6
f 217/1/6 189/1/6 188/1/6
f 218/6/6 203/6/6 189/6/6
f 218/1/6 189/1/6 217/1/6
f 219/3/6 211/3/6 210/3/6
f 220/6/6 185/6/6 216/6/6
f 221/6/6 185/6/6 220/6/6
f 222/6/6 192/6/6 214/6/6
f 222/6/6 214/6/6 213/6/6
f 223/6/6 192/6/6 222/6/6
f 224/3/6 211/3/6 219/3/6
f 225/6/6 185/6/6 221/6/6
f 225/1/6 208/1/6 185/1/6
f 226/6/6 209/6/6 208/6/6
f 226/1/6 208/1/6 225/1/6
f 227/6/6 203/6/6 218/6/6
f 228/1/6 213/1/6 203/1/6
f 228/6/6 203/6/6 227/6/6
f 229/6/6 217/6/6 206/6/6
f 229/3/6 218/3/6 217/3/6
f 230/6/6 227/6/6 218/6/6
f 230/3/6 218/3/6 229/3/6
f 231/3/6 211/3/6 224/3/6
f 232/6/6 215/6/6 211/6/6
f 232/3/6 211/3/6 231/3/6
f 233/2/6 232/2/6 231/2/6
f 234/2/6 206/2/6 209/2/6
f 234/6/6 209/6/6 226/6/6
f 235/6/6 229/6/6 206/6/6
f 235/2/6 206/2/6 234/2/6
f 236/6/6 234/6/6 226/6/6
f 236/3/6 226/3/6 225/3/6
f 236/6/6 235/6/6 234/6/6
f 237/6/6 235/6/6 236/6/6
f 238/2/6 232/2/6 233/2/6
f 239/2/6 221/2/6 220/2/6
f 239/6/6 220/6/6 216/6/6
f 240/6/6 225/6/6 221/6/6
f 240/2/6 221/2/6 239/2/6
f 241/3/6 236/3/6 225/3/6
f 241/6/6 225/6/6 240/6/6
f 241/3/6 237/3/6 236/3/6
f 242/3/6 237/3/6 241/3/6
f 243/6/6 235/6/6 237/6/6
f 243/3/6 237/3/6 242/3/6
f 244/6/6 227/6/6 230/6/6
f 244/2/6 228/2/6 227/2/6
f 245/1/6 213/1/6 228/1/6
f 245/2/6 228/2/6 244/2/6
f 246/6/6 222/6/6 213/6/6
f 246/2/6 223/2/6 222/2/6
f 247/2/6 223/2/6 246/2/6
f 248/2/6 232/2/6 238/2/6
f 249/6/6 215/6/6 232/6/6
f 249/2/6 232/2/6 248/2/6
f 250/1/6 216/1/6 215/1/6
f 250/6/6 215/6/6 249/6/6
f 251/6/6 239/6/6 216/6/6
f 251/1/6 216/1/6 250/1/6
f 251/6/6 240/6/6 239/6/6
f 251/6/6 241/6/6 240/6/6
f 252/1/6 242/1/6 241/1/6
f 252/6/6 241/6/6 251/6/6
f 253/6/6 243/6/6 242/6/6
f 253/1/6 242/1/6 252/1/6
f 254/6/6 229/6/6 235/6/6
f 254/6/6 243/6/6 253/6/6
f 254/6/6 235/6/6 243/6/6
f 254/1/6 230/1/6 229/1/6
f 255/6/6 244/6/6 230/6/6
f 255/1/6 230/1/6 254/1/6
f 255/6/6 245/6/6 244/6/6
f 256/1/6 213/1/6 245/1/6
f 256/6/6 245/6/6 255/6/6
f 257/6/6 246/6/6 213/6/6
f 257/1/6 213/1/6 256/1/6
f 257/6/6 247/6/6 246/6/6
f 258/6/6 247/6/6 257/6/6
f 261/4/6 260/4/6 259/4/6
f 262/4/6 260/4/6 261/4/6
f 263/7/6 262/7/6 261/7/6
f 264/7/6 262/7/6 263/7/6
f 265/8/6 264/8/6 263/8/6
f 266/8/6 264/8/6 265/8/6
f 267/8/6 264/8/6 266/8/6
f 268/7/6 266/7/6 265/7/6
f 269/4/6 267/4/6 266/4/6
f 269/7/6 266/7/6 268/7/6
f 270/4/6 267/4/6 269/4/6
f 271/8/6 269/8/6 268/8/6
f 271/8/6 270/8/6 269/8/6
f 272/8/6 270/8/6 271/8/6
f 273/7/6 272/7/6 271/7/6
f 274/7/6 272/7/6 273/7/6
f 275/7/6 273/7/6 271/7/6
f 276/4/6 274/4/6 273/4/6
f 276/7/6 273/7/6 275/7/6
f 277/7/6 272/7/6 274/7/6
f 277/4/6 274/4/6 276/4/6
f 278/7/6 272/7/6 277/7/6
f 279/8/6 276/8/6 275/8/6
f 279/8/6 277/8/6 276/8/6
f 279/8/6 278/8/6 277/8/6
f 280/8/6 278/8/6 279/8/6
f 281/8/6 278/8/6 280/8/6
f 282/8/6 278/8/6 281/8/6
f 283/7/6 280/7/6 279/7/6
f 283/4/6 281/4/6 280/4/6
f 284/7/6 282/7/6 281/7/6
f 284/4/6 281/4/6 283/4/6
f 285/7/6 283/7/6 279/7/6
f 285/7/6 284/7/6 283/7/6
f 286/7/6 282/7/6 284/7/6
f 286/7/6 284/7/6 285/7/6
f 287/8/6 286/8/6 285/8/6
f 288/8/6 286/8/6 287/8/6
f 289/7/6 288/7/6 287/7/6
f 290/7/6 288/7/6 289/7/6
f 291/8/6 290/8/6 289/8/6
f 292/8/6 290/8/6 291/8/6
