# MagicaVoxel @ Ephtracy

# group
o 

# material
mtllib BOX1-90.mtl
usemtl palette

# normals
vn 1 0 0
vn -1 0 0
vn 0 0 1
vn 0 0 -1
vn 0 -1 0
vn 0 1 0

# texcoords
vt 0.880859 0.5
vt 0.884766 0.5
vt 0.943359 0.5
vt 0.951172 0.5
vt 0.955078 0.5
vt 0.982422 0.5
vt 0.986328 0.5

# verts
v 0.8 0 1.3
v 0.8 0 -0.7
v 0.8 0.1 1.3
v 0.8 0.1 1.1
v 0.8 0.1 1
v 0.8 0.1 0.9
v 0.8 0.1 0.6
v 0.8 0.1 0.5
v 0.8 0.1 0.2
v 0.8 0.1 0.1
v 0.8 0.1 -0.2
v 0.8 0.1 -0.3
v 0.8 0.1 -0.6
v 0.8 0.1 -0.7
v 0.8 0.2 1.3
v 0.8 0.2 1.1
v 0.8 0.2 1
v 0.8 0.2 0.9
v 0.8 0.2 0.6
v 0.8 0.2 0.5
v 0.8 0.2 0.2
v 0.8 0.2 0.1
v 0.8 0.2 -0.2
v 0.8 0.2 -0.3
v 0.8 0.2 -0.6
v 0.8 0.2 -0.7
v 0.5 0.1 1.3
v 0.5 0.1 1.1
v 0.5 0.1 1
v 0.5 0.1 0.9
v 0.5 0.1 0.6
v 0.5 0.1 0.5
v 0.5 0.1 0.2
v 0.5 0.1 0.1
v 0.5 0.1 -0.2
v 0.5 0.1 -0.3
v 0.5 0.1 -0.6
v 0.5 0.1 -0.7
v 0.5 0.2 1.3
v 0.5 0.2 1.1
v 0.5 0.2 1
v 0.5 0.2 0.9
v 0.5 0.2 0.6
v 0.5 0.2 0.5
v 0.5 0.2 0.2
v 0.5 0.2 0.1
v 0.5 0.2 -0.2
v 0.5 0.2 -0.3
v 0.5 0.2 -0.6
v 0.5 0.2 -0.7
v -1.2 0 1.3
v -1.2 0 0.2
v -1.2 0 -0.6
v -1.2 0 -0.7
v -1.2 0.1 1.3
v -1.2 0.1 0.2
v -1.2 0.1 -0.6
v -1.2 0.1 -0.7
v 0.8 0 1.3
v 0.8 0.1 1.3
v 0.8 0.2 1.3
v 0.5 0 1.3
v 0.5 0.1 1.3
v 0.5 0.2 1.3
v 0.3 0 1.3
v 0.3 0.1 1.3
v 0.2 0 1.3
v 0.2 0.1 1.3
v -0.1 0 1.3
v -0.1 0.1 1.3
v -0.2 0 1.3
v -0.2 0.1 1.3
v -0.3 0 1.3
v -0.3 0.1 1.3
v -0.5 0 1.3
v -0.5 0.1 1.3
v -0.6 0 1.3
v -0.6 0.1 1.3
v -0.9 0 1.3
v -0.9 0.1 1.3
v -1 0 1.3
v -1 0.1 1.3
v -1.2 0 1.3
v -1.2 0.1 1.3
v 0.8 0 -0.7
v 0.8 0.1 -0.7
v 0.8 0.2 -0.7
v 0.5 0 -0.7
v 0.5 0.1 -0.7
v 0.5 0.2 -0.7
v 0.4 0 -0.7
v 0.4 0.1 -0.7
v 0.3 0 -0.7
v 0.3 0.1 -0.7
v 0.2 0 -0.7
v 0.2 0.1 -0.7
v -0.1 0 -0.7
v -0.1 0.1 -0.7
v -0.2 0 -0.7
v -0.2 0.1 -0.7
v -0.5 0 -0.7
v -0.5 0.1 -0.7
v -0.6 0 -0.7
v -0.6 0.1 -0.7
v -0.9 0 -0.7
v -0.9 0.1 -0.7
v -1 0 -0.7
v -1 0.1 -0.7
v -1.2 0 -0.7
v -1.2 0.1 -0.7
v 0.8 0 1.3
v 0.5 0 1.3
v 0.3 0 1.3
v 0.2 0 1.3
v -0.1 0 1.3
v -0.2 0 1.3
v -0.3 0 1.3
v -0.5 0 1.3
v -0.6 0 1.3
v -0.9 0 1.3
v -1 0 1.3
v -1.2 0 1.3
v 0.4 0 1
v 0.3 0 1
v -0.3 0 0.7
v -0.4 0 0.7
v -0.2 0 0.6
v -0.3 0 0.6
v 0.4 0 0.5
v 0.3 0 0.5
v 0.1 0 0.2
v 0 0 0.2
v -1.1 0 0.2
v -1.2 0 0.2
v -0.8 0 1.19209e-07
v -0.9 0 1.19209e-07
v 0.5 0 -0.2
v 0.4 0 -0.2
v -0.3 0 -0.3
v -0.4 0 -0.3
v 0.1 0 -0.6
v 0 0 -0.6
v -0.8 0 -0.6
v -0.9 0 -0.6
v -1.1 0 -0.6
v -1.2 0 -0.6
v 0.8 0 -0.7
v 0.5 0 -0.7
v 0.4 0 -0.7
v 0.3 0 -0.7
v 0.2 0 -0.7
v -0.1 0 -0.7
v -0.2 0 -0.7
v -0.5 0 -0.7
v -0.6 0 -0.7
v -0.9 0 -0.7
v -1 0 -0.7
v -1.2 0 -0.7
v 0.5 0.1 1.3
v 0.3 0.1 1.3
v 0.2 0.1 1.3
v -0.1 0.1 1.3
v -0.2 0.1 1.3
v -0.3 0.1 1.3
v -0.5 0.1 1.3
v -0.6 0.1 1.3
v -0.9 0.1 1.3
v -1 0.1 1.3
v -1.2 0.1 1.3
v 0.5 0.1 1.1
v 0.5 0.1 1
v 0.4 0.1 1
v 0.3 0.1 1
v 0.5 0.1 0.9
v -0.3 0.1 0.7
v -0.4 0.1 0.7
v 0.5 0.1 0.6
v -0.2 0.1 0.6
v -0.3 0.1 0.6
v 0.5 0.1 0.5
v 0.4 0.1 0.5
v 0.3 0.1 0.5
v 0.5 0.1 0.2
v 0.1 0.1 0.2
v 0 0.1 0.2
v -1.1 0.1 0.2
v -1.2 0.1 0.2
v 0.5 0.1 0.1
v -0.8 0.1 1.19209e-07
v -0.9 0.1 1.19209e-07
v 0.5 0.1 -0.2
v 0.4 0.1 -0.2
v 0.5 0.1 -0.3
v -0.3 0.1 -0.3
v -0.4 0.1 -0.3
v 0.5 0.1 -0.6
v 0.1 0.1 -0.6
v 0 0.1 -0.6
v -0.8 0.1 -0.6
v -0.9 0.1 -0.6
v -1.1 0.1 -0.6
v -1.2 0.1 -0.6
v 0.5 0.1 -0.7
v 0.4 0.1 -0.7
v 0.3 0.1 -0.7
v 0.2 0.1 -0.7
v -0.1 0.1 -0.7
v -0.2 0.1 -0.7
v -0.5 0.1 -0.7
v -0.6 0.1 -0.7
v -0.9 0.1 -0.7
v -1 0.1 -0.7
v -1.2 0.1 -0.7
v 0.8 0.2 1.3
v 0.5 0.2 1.3
v 0.8 0.2 1.1
v 0.5 0.2 1.1
v 0.8 0.2 1
v 0.5 0.2 1
v 0.8 0.2 0.9
v 0.7 0.2 0.9
v 0.5 0.2 0.9
v 0.8 0.2 0.6
v 0.7 0.2 0.6
v 0.5 0.2 0.6
v 0.8 0.2 0.5
v 0.5 0.2 0.5
v 0.7 0.2 0.4
v 0.6 0.2 0.4
v 0.8 0.2 0.2
v 0.7 0.2 0.2
v 0.6 0.2 0.2
v 0.5 0.2 0.2
v 0.8 0.2 0.1
v 0.7 0.2 0.1
v 0.6 0.2 0.1
v 0.5 0.2 0.1
v 0.7 0.2 1.19209e-07
v 0.6 0.2 1.19209e-07
v 0.8 0.2 -0.2
v 0.5 0.2 -0.2
v 0.8 0.2 -0.3
v 0.5 0.2 -0.3
v 0.8 0.2 -0.6
v 0.5 0.2 -0.6
v 0.8 0.2 -0.7
v 0.5 0.2 -0.7

# faces
f 1/4/1 2/4/1 3/4/1
f 3/4/1 2/4/1 4/4/1
f 4/4/1 2/4/1 5/4/1
f 5/4/1 2/4/1 6/4/1
f 6/4/1 2/4/1 7/4/1
f 7/4/1 2/4/1 8/4/1
f 8/4/1 2/4/1 9/4/1
f 9/4/1 2/4/1 10/4/1
f 10/4/1 2/4/1 11/4/1
f 11/4/1 2/4/1 12/4/1
f 12/4/1 2/4/1 13/4/1
f 13/4/1 2/4/1 14/4/1
f 3/3/1 4/3/1 15/3/1
f 4/6/1 5/6/1 16/6/1
f 15/3/1 4/3/1 16/3/1
f 5/7/1 6/7/1 17/7/1
f 16/6/1 5/6/1 17/6/1
f 6/6/1 7/6/1 18/6/1
f 17/7/1 6/7/1 18/7/1
f 7/7/1 8/7/1 19/7/1
f 18/6/1 7/6/1 19/6/1
f 8/6/1 9/6/1 20/6/1
f 19/7/1 8/7/1 20/7/1
f 9/7/1 10/7/1 21/7/1
f 20/6/1 9/6/1 21/6/1
f 10/6/1 11/6/1 22/6/1
f 21/7/1 10/7/1 22/7/1
f 11/7/1 12/7/1 23/7/1
f 22/6/1 11/6/1 23/6/1
f 12/6/1 13/6/1 24/6/1
f 23/7/1 12/7/1 24/7/1
f 13/7/1 14/7/1 25/7/1
f 24/6/1 13/6/1 25/6/1
f 25/7/1 14/7/1 26/7/1
f 39/3/2 28/3/2 27/3/2
f 40/6/2 29/6/2 28/6/2
f 40/3/2 28/3/2 39/3/2
f 41/7/2 30/7/2 29/7/2
f 41/6/2 29/6/2 40/6/2
f 42/3/2 31/3/2 30/3/2
f 42/7/2 30/7/2 41/7/2
f 43/7/2 32/7/2 31/7/2
f 43/3/2 31/3/2 42/3/2
f 44/6/2 33/6/2 32/6/2
f 44/7/2 32/7/2 43/7/2
f 45/7/2 34/7/2 33/7/2
f 45/6/2 33/6/2 44/6/2
f 46/6/2 35/6/2 34/6/2
f 46/7/2 34/7/2 45/7/2
f 47/7/2 36/7/2 35/7/2
f 47/6/2 35/6/2 46/6/2
f 48/6/2 37/6/2 36/6/2
f 48/7/2 36/7/2 47/7/2
f 49/7/2 38/7/2 37/7/2
f 49/6/2 37/6/2 48/6/2
f 50/7/2 38/7/2 49/7/2
f 55/5/2 52/5/2 51/5/2
f 56/2/2 53/2/2 52/2/2
f 56/5/2 52/5/2 55/5/2
f 57/5/2 54/5/2 53/5/2
f 57/2/2 53/2/2 56/2/2
f 58/5/2 54/5/2 57/5/2
f 59/4/3 60/4/3 62/4/3
f 60/3/3 61/3/3 63/3/3
f 62/4/3 60/4/3 63/4/3
f 63/3/3 61/3/3 64/3/3
f 62/5/3 63/5/3 65/5/3
f 65/5/3 63/5/3 66/5/3
f 65/1/3 66/1/3 67/1/3
f 67/1/3 66/1/3 68/1/3
f 67/5/3 68/5/3 69/5/3
f 69/5/3 68/5/3 70/5/3
f 69/1/3 70/1/3 71/1/3
f 71/1/3 70/1/3 72/1/3
f 71/2/3 72/2/3 73/2/3
f 73/2/3 72/2/3 74/2/3
f 73/5/3 74/5/3 75/5/3
f 75/5/3 74/5/3 76/5/3
f 75/1/3 76/1/3 77/1/3
f 77/1/3 76/1/3 78/1/3
f 77/5/3 78/5/3 79/5/3
f 79/5/3 78/5/3 80/5/3
f 79/1/3 80/1/3 81/1/3
f 81/1/3 80/1/3 82/1/3
f 81/5/3 82/5/3 83/5/3
f 83/5/3 82/5/3 84/5/3
f 88/4/4 86/4/4 85/4/4
f 89/7/4 87/7/4 86/7/4
f 89/4/4 86/4/4 88/4/4
f 90/7/4 87/7/4 89/7/4
f 91/2/4 89/2/4 88/2/4
f 92/2/4 89/2/4 91/2/4
f 93/5/4 92/5/4 91/5/4
f 94/5/4 92/5/4 93/5/4
f 95/1/4 94/1/4 93/1/4
f 96/1/4 94/1/4 95/1/4
f 97/5/4 96/5/4 95/5/4
f 98/5/4 96/5/4 97/5/4
f 99/1/4 98/1/4 97/1/4
f 100/1/4 98/1/4 99/1/4
f 101/5/4 100/5/4 99/5/4
f 102/5/4 100/5/4 101/5/4
f 103/1/4 102/1/4 101/1/4
f 104/1/4 102/1/4 103/1/4
f 105/5/4 104/5/4 103/5/4
f 106/5/4 104/5/4 105/5/4
f 107/1/4 106/1/4 105/1/4
f 108/1/4 106/1/4 107/1/4
f 109/5/4 108/5/4 107/5/4
f 110/5/4 108/5/4 109/5/4
f 112/5/5 113/5/5 123/5/5
f 113/1/5 114/1/5 124/1/5
f 123/5/5 113/5/5 124/5/5
f 116/2/5 117/2/5 125/2/5
f 117/5/5 118/5/5 125/5/5
f 125/5/5 118/5/5 126/5/5
f 115/1/5 116/1/5 127/1/5
f 116/2/5 125/2/5 127/2/5
f 125/2/5 126/2/5 127/2/5
f 127/2/5 126/2/5 128/2/5
f 112/5/5 123/5/5 129/5/5
f 123/2/5 124/2/5 129/2/5
f 124/1/5 114/1/5 130/1/5
f 129/2/5 124/2/5 130/2/5
f 114/5/5 115/5/5 131/5/5
f 131/5/5 115/5/5 132/5/5
f 121/5/5 122/5/5 133/5/5
f 133/5/5 122/5/5 134/5/5
f 119/5/5 120/5/5 135/5/5
f 120/1/5 121/1/5 136/1/5
f 135/5/5 120/5/5 136/5/5
f 111/4/5 112/4/5 137/4/5
f 112/5/5 129/5/5 137/5/5
f 129/5/5 130/5/5 137/5/5
f 137/5/5 130/5/5 138/5/5
f 128/2/5 126/2/5 139/2/5
f 127/5/5 128/5/5 139/5/5
f 126/5/5 118/5/5 140/5/5
f 139/2/5 126/2/5 140/2/5
f 114/5/5 131/5/5 141/5/5
f 131/2/5 132/2/5 141/2/5
f 132/5/5 115/5/5 142/5/5
f 141/2/5 132/2/5 142/2/5
f 135/2/5 136/2/5 143/2/5
f 119/5/5 135/5/5 143/5/5
f 136/1/5 121/1/5 144/1/5
f 143/2/5 136/2/5 144/2/5
f 133/2/5 134/2/5 145/2/5
f 121/5/5 133/5/5 145/5/5
f 145/2/5 134/2/5 146/2/5
f 111/4/5 137/4/5 147/4/5
f 137/2/5 138/2/5 148/2/5
f 147/4/5 137/4/5 148/4/5
f 138/5/5 130/5/5 149/5/5
f 148/2/5 138/2/5 149/2/5
f 130/1/5 114/1/5 150/1/5
f 149/5/5 130/5/5 150/5/5
f 114/5/5 141/5/5 151/5/5
f 150/1/5 114/1/5 151/1/5
f 141/5/5 142/5/5 151/5/5
f 142/5/5 115/5/5 152/5/5
f 151/5/5 142/5/5 152/5/5
f 115/1/5 127/1/5 152/1/5
f 127/5/5 139/5/5 153/5/5
f 152/1/5 127/1/5 153/1/5
f 139/5/5 140/5/5 153/5/5
f 118/1/5 119/1/5 154/1/5
f 153/5/5 140/5/5 154/5/5
f 140/5/5 118/5/5 154/5/5
f 119/5/5 143/5/5 155/5/5
f 154/1/5 119/1/5 155/1/5
f 143/5/5 144/5/5 155/5/5
f 144/1/5 121/1/5 156/1/5
f 155/5/5 144/5/5 156/5/5
f 145/5/5 146/5/5 157/5/5
f 156/1/5 121/1/5 157/1/5
f 121/5/5 145/5/5 157/5/5
f 157/5/5 146/5/5 158/5/5
f 170/5/6 160/5/6 159/5/6
f 171/5/6 160/5/6 170/5/6
f 172/5/6 160/5/6 171/5/6
f 173/1/6 161/1/6 160/1/6
f 173/5/6 160/5/6 172/5/6
f 174/5/6 172/5/6 171/5/6
f 175/2/6 164/2/6 163/2/6
f 175/5/6 165/5/6 164/5/6
f 176/5/6 165/5/6 175/5/6
f 177/5/6 172/5/6 174/5/6
f 178/1/6 163/1/6 162/1/6
f 178/2/6 175/2/6 163/2/6
f 178/2/6 176/2/6 175/2/6
f 179/2/6 176/2/6 178/2/6
f 180/5/6 172/5/6 177/5/6
f 181/2/6 173/2/6 172/2/6
f 181/5/6 172/5/6 180/5/6
f 182/1/6 161/1/6 173/1/6
f 182/2/6 173/2/6 181/2/6
f 183/5/6 181/5/6 180/5/6
f 183/5/6 182/5/6 181/5/6
f 184/5/6 162/5/6 161/5/6
f 185/5/6 162/5/6 184/5/6
f 186/5/6 169/5/6 168/5/6
f 187/5/6 169/5/6 186/5/6
f 188/5/6 182/5/6 183/5/6
f 189/5/6 167/5/6 166/5/6
f 190/1/6 168/1/6 167/1/6
f 190/5/6 167/5/6 189/5/6
f 191/5/6 182/5/6 188/5/6
f 192/5/6 182/5/6 191/5/6
f 193/2/6 192/2/6 191/2/6
f 194/2/6 176/2/6 179/2/6
f 194/5/6 179/5/6 178/5/6
f 195/5/6 165/5/6 176/5/6
f 195/2/6 176/2/6 194/2/6
f 196/2/6 192/2/6 193/2/6
f 197/5/6 184/5/6 161/5/6
f 197/2/6 185/2/6 184/2/6
f 198/5/6 162/5/6 185/5/6
f 198/2/6 185/2/6 197/2/6
f 199/5/6 189/5/6 166/5/6
f 199/2/6 190/2/6 189/2/6
f 200/1/6 168/1/6 190/1/6
f 200/2/6 190/2/6 199/2/6
f 201/5/6 186/5/6 168/5/6
f 201/2/6 187/2/6 186/2/6
f 202/2/6 187/2/6 201/2/6
f 203/2/6 192/2/6 196/2/6
f 204/5/6 182/5/6 192/5/6
f 204/2/6 192/2/6 203/2/6
f 205/1/6 161/1/6 182/1/6
f 205/5/6 182/5/6 204/5/6
f 206/5/6 197/5/6 161/5/6
f 206/1/6 161/1/6 205/1/6
f 206/5/6 198/5/6 197/5/6
f 207/5/6 162/5/6 198/5/6
f 207/5/6 198/5/6 206/5/6
f 207/1/6 178/1/6 162/1/6
f 208/5/6 194/5/6 178/5/6
f 208/1/6 178/1/6 207/1/6
f 208/5/6 195/5/6 194/5/6
f 209/5/6 165/5/6 195/5/6
f 209/5/6 195/5/6 208/5/6
f 209/1/6 166/1/6 165/1/6
f 210/5/6 199/5/6 166/5/6
f 210/1/6 166/1/6 209/1/6
f 210/5/6 200/5/6 199/5/6
f 211/1/6 168/1/6 200/1/6
f 211/5/6 200/5/6 210/5/6
f 212/5/6 201/5/6 168/5/6
f 212/1/6 168/1/6 211/1/6
f 212/5/6 202/5/6 201/5/6
f 213/5/6 202/5/6 212/5/6
f 216/3/6 215/3/6 214/3/6
f 217/3/6 215/3/6 216/3/6
f 218/6/6 217/6/6 216/6/6
f 219/6/6 217/6/6 218/6/6
f 220/7/6 219/7/6 218/7/6
f 221/7/6 219/7/6 220/7/6
f 222/7/6 219/7/6 221/7/6
f 223/6/6 221/6/6 220/6/6
f 224/3/6 222/3/6 221/3/6
f 224/6/6 221/6/6 223/6/6
f 225/3/6 222/3/6 224/3/6
f 226/7/6 224/7/6 223/7/6
f 226/7/6 225/7/6 224/7/6
f 227/7/6 225/7/6 226/7/6
f 228/6/6 227/6/6 226/6/6
f 229/6/6 227/6/6 228/6/6
f 230/6/6 228/6/6 226/6/6
f 231/3/6 229/3/6 228/3/6
f 231/6/6 228/6/6 230/6/6
f 232/6/6 227/6/6 229/6/6
f 232/3/6 229/3/6 231/3/6
f 233/6/6 227/6/6 232/6/6
f 234/7/6 231/7/6 230/7/6
f 234/7/6 232/7/6 231/7/6
f 234/7/6 233/7/6 232/7/6
f 235/7/6 233/7/6 234/7/6
f 236/7/6 233/7/6 235/7/6
f 237/7/6 233/7/6 236/7/6
f 238/6/6 235/6/6 234/6/6
f 238/3/6 236/3/6 235/3/6
f 239/6/6 237/6/6 236/6/6
f 239/3/6 236/3/6 238/3/6
f 240/6/6 238/6/6 234/6/6
f 240/6/6 239/6/6 238/6/6
f 241/6/6 237/6/6 239/6/6
f 241/6/6 239/6/6 240/6/6
f 242/7/6 241/7/6 240/7/6
f 243/7/6 241/7/6 242/7/6
f 244/6/6 243/6/6 242/6/6
f 245/6/6 243/6/6 244/6/6
f 246/7/6 245/7/6 244/7/6
f 247/7/6 245/7/6 246/7/6
