# MagicaVoxel @ Ephtracy

# group
o 

# material
mtllib BOX1-76.mtl
usemtl palette

# normals
vn -1 0 0
vn 1 0 0
vn 0 0 1
vn 0 0 -1
vn 0 -1 0
vn 0 1 0

# texcoords
vt 0.943359 0.5
vt 0.951172 0.5
vt 0.982422 0.5
vt 0.986328 0.5

# verts
v -5.2 0 9.3
v -5.2 0 7.3
v -5.2 0.1 9.3
v -5.2 0.1 7.3
v -5.1 0.1 8.9
v -5.1 0.1 8.2
v -5.1 0.1 8.1
v -5.1 0.1 8
v -5.1 0.1 7.7
v -5.1 0.2 8.9
v -5.1 0.2 8.2
v -5.1 0.2 8.1
v -5.1 0.2 8
v -5.1 0.2 7.7
v -5 0.1 9.2
v -5 0.1 9.1
v -5 0.1 9
v -5 0.1 8.9
v -5 0.2 9.2
v -5 0.2 9.1
v -5 0.2 9
v -5 0.2 8.9
v -4.9 0.1 9.1
v -4.9 0.1 9
v -4.9 0.1 7.7
v -4.9 0.1 7.5
v -4.9 0.2 9.1
v -4.9 0.2 9
v -4.9 0.2 7.7
v -4.9 0.2 7.5
v -4.7 0.1 7.5
v -4.7 0.1 7.4
v -4.7 0.2 7.5
v -4.7 0.2 7.4
v -3.6 0.1 7.6
v -3.6 0.1 7.4
v -3.6 0.2 7.6
v -3.6 0.2 7.4
v -3.5 0.1 9.2
v -3.5 0.1 9.1
v -3.5 0.2 9.2
v -3.5 0.2 9.1
v -3.4 0.1 8.9
v -3.4 0.1 8.8
v -3.4 0.2 8.9
v -3.4 0.2 8.8
v -3.7 0.1 7.7
v -3.7 0.1 7.4
v -3.7 0.2 7.7
v -3.7 0.2 7.4
v -3.6 0.1 9.2
v -3.6 0.1 9
v -3.6 0.2 9.2
v -3.6 0.2 9
v -3.5 0.1 8.9
v -3.5 0.1 8.8
v -3.5 0.2 8.9
v -3.5 0.2 8.8
v -3.4 0.1 9
v -3.4 0.1 8.9
v -3.4 0.1 7.8
v -3.4 0.1 7.7
v -3.4 0.2 9
v -3.4 0.2 8.9
v -3.4 0.2 7.8
v -3.4 0.2 7.7
v -3.3 0.1 9.2
v -3.3 0.1 9.1
v -3.3 0.1 8.9
v -3.3 0.1 8.7
v -3.3 0.1 8.5
v -3.3 0.1 8.4
v -3.3 0.1 8
v -3.3 0.1 7.8
v -3.3 0.1 7.6
v -3.3 0.1 7.4
v -3.3 0.2 9.2
v -3.3 0.2 9.1
v -3.3 0.2 8.9
v -3.3 0.2 8.7
v -3.3 0.2 8.5
v -3.3 0.2 8.4
v -3.3 0.2 8
v -3.3 0.2 7.8
v -3.3 0.2 7.6
v -3.3 0.2 7.4
v -3.2 0 9.3
v -3.2 0 7.3
v -3.2 0.1 9.3
v -3.2 0.1 7.3
v -5.2 0 9.3
v -5.2 0.1 9.3
v -3.2 0 9.3
v -3.2 0.1 9.3
v -5 0.1 9.2
v -5 0.2 9.2
v -4.8 0.1 9.2
v -4.8 0.2 9.2
v -4.7 0.1 9.2
v -4.7 0.2 9.2
v -4.6 0.1 9.2
v -4.6 0.2 9.2
v -4.5 0.1 9.2
v -4.5 0.2 9.2
v -3.8 0.1 9.2
v -3.8 0.2 9.2
v -3.6 0.1 9.2
v -3.6 0.2 9.2
v -3.5 0.1 9.2
v -3.5 0.2 9.2
v -3.3 0.1 9.2
v -3.3 0.2 9.2
v -5 0.1 9
v -5 0.2 9
v -4.9 0.1 9
v -4.9 0.2 9
v -3.6 0.1 9
v -3.6 0.2 9
v -3.5 0.1 9
v -3.5 0.2 9
v -3.4 0.1 9
v -3.4 0.2 9
v -5.1 0.1 8.9
v -5.1 0.2 8.9
v -5 0.1 8.9
v -5 0.2 8.9
v -3.4 0.1 8.9
v -3.4 0.2 8.9
v -3.3 0.1 8.9
v -3.3 0.2 8.9
v -3.5 0.1 8.8
v -3.5 0.2 8.8
v -3.4 0.1 8.8
v -3.4 0.2 8.8
v -3.6 0.1 7.6
v -3.6 0.2 7.6
v -3.3 0.1 7.6
v -3.3 0.2 7.6
v -5 0.1 9.1
v -5 0.2 9.1
v -4.9 0.1 9.1
v -4.9 0.2 9.1
v -3.5 0.1 9.1
v -3.5 0.2 9.1
v -3.3 0.1 9.1
v -3.3 0.2 9.1
v -3.5 0.1 8.9
v -3.5 0.2 8.9
v -3.4 0.1 8.9
v -3.4 0.2 8.9
v -3.4 0.1 7.8
v -3.4 0.2 7.8
v -3.3 0.1 7.8
v -3.3 0.2 7.8
v -5.1 0.1 7.7
v -5.1 0.2 7.7
v -4.9 0.1 7.7
v -4.9 0.2 7.7
v -3.7 0.1 7.7
v -3.7 0.2 7.7
v -3.4 0.1 7.7
v -3.4 0.2 7.7
v -4.9 0.1 7.5
v -4.9 0.2 7.5
v -4.7 0.1 7.5
v -4.7 0.2 7.5
v -4.7 0.1 7.4
v -4.7 0.2 7.4
v -4.6 0.1 7.4
v -4.6 0.2 7.4
v -4.4 0.1 7.4
v -4.4 0.2 7.4
v -4.2 0.1 7.4
v -4.2 0.2 7.4
v -4.1 0.1 7.4
v -4.1 0.2 7.4
v -3.7 0.1 7.4
v -3.7 0.2 7.4
v -3.6 0.1 7.4
v -3.6 0.2 7.4
v -3.3 0.1 7.4
v -3.3 0.2 7.4
v -5.2 0 7.3
v -5.2 0.1 7.3
v -3.2 0 7.3
v -3.2 0.1 7.3
v -5.2 0 9.3
v -3.2 0 9.3
v -5 0 9.2
v -3.7 0 9.2
v -3.6 0 9.2
v -3.5 0 9.2
v -3.4 0 9.2
v -3.3 0 9.2
v -5 0 9.1
v -4.9 0 9.1
v -3.9 0 9.1
v -3.7 0 9.1
v -3.5 0 9.1
v -3.4 0 9.1
v -3.3 0 9.1
v -5 0 9
v -4.9 0 9
v -4.8 0 9
v -3.9 0 9
v -3.6 0 9
v -3.4 0 9
v -5.1 0 8.9
v -5 0 8.9
v -4.9 0 8.9
v -4.8 0 8.9
v -3.7 0 8.9
v -3.6 0 8.9
v -3.5 0 8.9
v -3.4 0 8.9
v -3.3 0 8.9
v -4.5 0 8.8
v -4.3 0 8.8
v -3.6 0 8.8
v -3.5 0 8.8
v -3.4 0 8.8
v -3.3 0 8.8
v -4.5 0 8.7
v -4.4 0 8.7
v -4.3 0 8.7
v -4.2 0 8.7
v -4 0 8.7
v -3.8 0 8.7
v -3.5 0 8.7
v -3.4 0 8.7
v -4 0 8.6
v -3.9 0 8.6
v -3.8 0 8.6
v -3.7 0 8.6
v -4.4 0 8.5
v -4.3 0 8.5
v -4.9 0 8.4
v -4.8 0 8.4
v -4.2 0 8.4
v -4.1 0 8.4
v -3.9 0 8.4
v -3.8 0 8.4
v -4.6 0 8.3
v -4.5 0 8.3
v -4.3 0 8.3
v -4.2 0 8.3
v -3.5 0 8.3
v -3.4 0 8.3
v -4.2 0 8.2
v -4.1 0 8.2
v -4 0 8.2
v -3.8 0 8.2
v -3.7 0 8.2
v -4 0 8.1
v -3.9 0 8.1
v -4.5 0 8
v -4.4 0 8
v -4.1 0 8
v -4 0 8
v -3.9 0 8
v -3.8 0 8
v -5.1 0 7.9
v -4.9 0 7.9
v -4.6 0 7.9
v -4.5 0 7.9
v -4.4 0 7.9
v -4.3 0 7.9
v -4 0 7.9
v -3.8 0 7.9
v -4.9 0 7.8
v -4.8 0 7.8
v -4.4 0 7.8
v -4.3 0 7.8
v -3.4 0 7.8
v -3.3 0 7.8
v -5.1 0 7.7
v -4.9 0 7.7
v -4.8 0 7.7
v -4.7 0 7.7
v -4.5 0 7.7
v -4.4 0 7.7
v -3.7 0 7.7
v -3.5 0 7.7
v -3.4 0 7.7
v -4.8 0 7.6
v -4.7 0 7.6
v -4.2 0 7.6
v -3.7 0 7.6
v -3.6 0 7.6
v -3.3 0 7.6
v -4.9 0 7.5
v -4.7 0 7.5
v -4.2 0 7.5
v -4.7 0 7.4
v -3.7 0 7.4
v -3.6 0 7.4
v -3.3 0 7.4
v -5.2 0 7.3
v -3.2 0 7.3
v -5.2 0.1 9.3
v -3.2 0.1 9.3
v -5 0.1 9.2
v -4.8 0.1 9.2
v -4.7 0.1 9.2
v -4.6 0.1 9.2
v -4.5 0.1 9.2
v -3.8 0.1 9.2
v -3.6 0.1 9.2
v -3.5 0.1 9.2
v -3.3 0.1 9.2
v -5 0.1 9.1
v -4.9 0.1 9.1
v -3.5 0.1 9.1
v -3.3 0.1 9.1
v -5 0.1 9
v -4.9 0.1 9
v -3.6 0.1 9
v -3.5 0.1 9
v -3.4 0.1 9
v -5.1 0.1 8.9
v -5 0.1 8.9
v -3.5 0.1 8.9
v -3.4 0.1 8.9
v -3.3 0.1 8.9
v -3.5 0.1 8.8
v -3.4 0.1 8.8
v -3.3 0.1 8.7
v -3.3 0.1 8.5
v -3.3 0.1 8.4
v -5.1 0.1 8.2
v -5.1 0.1 8.1
v -5.1 0.1 8
v -3.3 0.1 8
v -3.4 0.1 7.8
v -3.3 0.1 7.8
v -5.1 0.1 7.7
v -4.9 0.1 7.7
v -3.7 0.1 7.7
v -3.4 0.1 7.7
v -3.6 0.1 7.6
v -3.3 0.1 7.6
v -4.9 0.1 7.5
v -4.7 0.1 7.5
v -4.7 0.1 7.4
v -4.6 0.1 7.4
v -4.4 0.1 7.4
v -4.2 0.1 7.4
v -4.1 0.1 7.4
v -3.7 0.1 7.4
v -3.6 0.1 7.4
v -3.3 0.1 7.4
v -5.2 0.1 7.3
v -3.2 0.1 7.3
v -5 0.2 9.2
v -4.8 0.2 9.2
v -4.7 0.2 9.2
v -4.6 0.2 9.2
v -4.5 0.2 9.2
v -3.8 0.2 9.2
v -3.6 0.2 9.2
v -3.5 0.2 9.2
v -3.3 0.2 9.2
v -5 0.2 9.1
v -4.9 0.2 9.1
v -4.8 0.2 9.1
v -4.7 0.2 9.1
v -4.6 0.2 9.1
v -4.5 0.2 9.1
v -3.5 0.2 9.1
v -3.3 0.2 9.1
v -5 0.2 9
v -4.9 0.2 9
v -4.8 0.2 9
v -4.7 0.2 9
v -4.6 0.2 9
v -3.6 0.2 9
v -3.5 0.2 9
v -3.4 0.2 9
v -5.1 0.2 8.9
v -5 0.2 8.9
v -4.9 0.2 8.9
v -4.7 0.2 8.9
v -4.5 0.2 8.9
v -3.8 0.2 8.9
v -3.7 0.2 8.9
v -3.6 0.2 8.9
v -3.5 0.2 8.9
v -3.4 0.2 8.9
v -3.3 0.2 8.9
v -4.8 0.2 8.8
v -4.6 0.2 8.8
v -4.5 0.2 8.8
v -4.1 0.2 8.8
v -3.7 0.2 8.8
v -3.6 0.2 8.8
v -3.5 0.2 8.8
v -3.4 0.2 8.8
v -4.6 0.2 8.7
v -4.1 0.2 8.7
v -3.7 0.2 8.7
v -3.6 0.2 8.7
v -3.5 0.2 8.7
v -3.4 0.2 8.7
v -3.3 0.2 8.7
v -3.7 0.2 8.6
v -3.6 0.2 8.6
v -3.5 0.2 8.6
v -3.4 0.2 8.6
v -4.9 0.2 8.5
v -4.8 0.2 8.5
v -3.6 0.2 8.5
v -3.5 0.2 8.5
v -3.4 0.2 8.5
v -3.3 0.2 8.5
v -5 0.2 8.4
v -4.9 0.2 8.4
v -3.5 0.2 8.4
v -3.3 0.2 8.4
v -5.1 0.2 8.2
v -5 0.2 8.2
v -5.1 0.2 8.1
v -5 0.2 8.1
v -4.2 0.2 8.1
v -4.1 0.2 8.1
v -5.1 0.2 8
v -4.9 0.2 8
v -3.4 0.2 8
v -3.3 0.2 8
v -4.9 0.2 7.9
v -4.8 0.2 7.9
v -4.3 0.2 7.9
v -4.2 0.2 7.9
v -4.9 0.2 7.8
v -4.8 0.2 7.8
v -4.7 0.2 7.8
v -4.4 0.2 7.8
v -4.3 0.2 7.8
v -4.2 0.2 7.8
v -4.1 0.2 7.8
v -3.4 0.2 7.8
v -3.3 0.2 7.8
v -5.1 0.2 7.7
v -4.9 0.2 7.7
v -4.8 0.2 7.7
v -4.5 0.2 7.7
v -4.4 0.2 7.7
v -4.3 0.2 7.7
v -4.2 0.2 7.7
v -3.7 0.2 7.7
v -3.4 0.2 7.7
v -4.7 0.2 7.6
v -4.6 0.2 7.6
v -4.4 0.2 7.6
v -4.3 0.2 7.6
v -3.6 0.2 7.6
v -3.3 0.2 7.6
v -4.9 0.2 7.5
v -4.7 0.2 7.5
v -4.6 0.2 7.5
v -4.5 0.2 7.5
v -4.2 0.2 7.5
v -4.1 0.2 7.5
v -4.7 0.2 7.4
v -4.6 0.2 7.4
v -4.4 0.2 7.4
v -4.2 0.2 7.4
v -4.1 0.2 7.4
v -3.7 0.2 7.4
v -3.6 0.2 7.4
v -3.3 0.2 7.4

# faces
f 3/2/1 2/2/1 1/2/1
f 4/2/1 2/2/1 3/2/1
f 10/1/1 6/1/1 5/1/1
f 11/4/1 7/4/1 6/4/1
f 11/1/1 6/1/1 10/1/1
f 12/1/1 8/1/1 7/1/1
f 12/4/1 7/4/1 11/4/1
f 13/3/1 9/3/1 8/3/1
f 13/1/1 8/1/1 12/1/1
f 14/3/1 9/3/1 13/3/1
f 19/4/1 16/4/1 15/4/1
f 20/4/1 16/4/1 19/4/1
f 21/1/1 18/1/1 17/1/1
f 22/1/1 18/1/1 21/1/1
f 27/4/1 24/4/1 23/4/1
f 28/4/1 24/4/1 27/4/1
f 29/3/1 26/3/1 25/3/1
f 30/3/1 26/3/1 29/3/1
f 33/3/1 32/3/1 31/3/1
f 34/3/1 32/3/1 33/3/1
f 37/1/1 36/1/1 35/1/1
f 38/1/1 36/1/1 37/1/1
f 41/3/1 40/3/1 39/3/1
f 42/3/1 40/3/1 41/3/1
f 45/3/1 44/3/1 43/3/1
f 46/3/1 44/3/1 45/3/1
f 47/4/2 48/4/2 49/4/2
f 49/4/2 48/4/2 50/4/2
f 51/3/2 52/3/2 53/3/2
f 53/3/2 52/3/2 54/3/2
f 55/3/2 56/3/2 57/3/2
f 57/3/2 56/3/2 58/3/2
f 59/2/2 60/2/2 63/2/2
f 63/2/2 60/2/2 64/2/2
f 61/4/2 62/4/2 65/4/2
f 65/4/2 62/4/2 66/4/2
f 67/3/2 68/3/2 77/3/2
f 77/3/2 68/3/2 78/3/2
f 69/3/2 70/3/2 79/3/2
f 70/4/2 71/4/2 80/4/2
f 79/3/2 70/3/2 80/3/2
f 71/2/2 72/2/2 81/2/2
f 80/4/2 71/4/2 81/4/2
f 72/4/2 73/4/2 82/4/2
f 81/2/2 72/2/2 82/2/2
f 73/1/2 74/1/2 83/1/2
f 82/4/2 73/4/2 83/4/2
f 83/1/2 74/1/2 84/1/2
f 75/1/2 76/1/2 85/1/2
f 85/1/2 76/1/2 86/1/2
f 87/2/2 88/2/2 89/2/2
f 89/2/2 88/2/2 90/2/2
f 93/2/3 92/2/3 91/2/3
f 94/2/3 92/2/3 93/2/3
f 97/4/3 96/4/3 95/4/3
f 98/4/3 96/4/3 97/4/3
f 99/1/3 98/1/3 97/1/3
f 100/1/3 98/1/3 99/1/3
f 101/2/3 100/2/3 99/2/3
f 102/2/3 100/2/3 101/2/3
f 103/1/3 102/1/3 101/1/3
f 104/1/3 102/1/3 103/1/3
f 105/4/3 104/4/3 103/4/3
f 106/4/3 104/4/3 105/4/3
f 107/3/3 106/3/3 105/3/3
f 108/3/3 106/3/3 107/3/3
f 111/3/3 110/3/3 109/3/3
f 112/3/3 110/3/3 111/3/3
f 115/1/3 114/1/3 113/1/3
f 116/1/3 114/1/3 115/1/3
f 119/4/3 118/4/3 117/4/3
f 120/4/3 118/4/3 119/4/3
f 121/2/3 120/2/3 119/2/3
f 122/2/3 120/2/3 121/2/3
f 125/1/3 124/1/3 123/1/3
f 126/1/3 124/1/3 125/1/3
f 129/3/3 128/3/3 127/3/3
f 130/3/3 128/3/3 129/3/3
f 133/2/3 132/2/3 131/2/3
f 134/2/3 132/2/3 133/2/3
f 137/1/3 136/1/3 135/1/3
f 138/1/3 136/1/3 137/1/3
f 139/4/4 140/4/4 141/4/4
f 141/4/4 140/4/4 142/4/4
f 143/3/4 144/3/4 145/3/4
f 145/3/4 144/3/4 146/3/4
f 147/2/4 148/2/4 149/2/4
f 149/2/4 148/2/4 150/2/4
f 151/1/4 152/1/4 153/1/4
f 153/1/4 152/1/4 154/1/4
f 155/3/4 156/3/4 157/3/4
f 157/3/4 156/3/4 158/3/4
f 159/4/4 160/4/4 161/4/4
f 161/4/4 160/4/4 162/4/4
f 163/3/4 164/3/4 165/3/4
f 165/3/4 164/3/4 166/3/4
f 167/3/4 168/3/4 169/3/4
f 169/3/4 168/3/4 170/3/4
f 169/2/4 170/2/4 171/2/4
f 171/2/4 170/2/4 172/2/4
f 171/4/4 172/4/4 173/4/4
f 173/4/4 172/4/4 174/4/4
f 173/1/4 174/1/4 175/1/4
f 175/1/4 174/1/4 176/1/4
f 175/4/4 176/4/4 177/4/4
f 177/4/4 176/4/4 178/4/4
f 179/1/4 180/1/4 181/1/4
f 181/1/4 180/1/4 182/1/4
f 183/2/4 184/2/4 185/2/4
f 185/2/4 184/2/4 186/2/4
f 189/2/5 188/2/5 187/2/5
f 190/2/5 188/2/5 189/2/5
f 191/2/5 188/2/5 190/2/5
f 192/2/5 188/2/5 191/2/5
f 193/2/5 188/2/5 192/2/5
f 194/2/5 188/2/5 193/2/5
f 195/2/5 189/2/5 187/2/5
f 195/1/5 190/1/5 189/1/5
f 196/1/5 190/1/5 195/1/5
f 197/1/5 190/1/5 196/1/5
f 198/3/5 191/3/5 190/3/5
f 198/1/5 190/1/5 197/1/5
f 199/2/5 192/2/5 191/2/5
f 199/3/5 193/3/5 192/3/5
f 200/1/5 194/1/5 193/1/5
f 200/3/5 193/3/5 199/3/5
f 201/2/5 188/2/5 194/2/5
f 201/1/5 194/1/5 200/1/5
f 202/2/5 195/2/5 187/2/5
f 202/2/5 196/2/5 195/2/5
f 203/1/5 197/1/5 196/1/5
f 203/2/5 196/2/5 202/2/5
f 204/1/5 197/1/5 203/1/5
f 205/4/5 198/4/5 197/4/5
f 205/1/5 197/1/5 204/1/5
f 206/2/5 200/2/5 199/2/5
f 206/2/5 199/2/5 191/2/5
f 206/3/5 191/3/5 198/3/5
f 206/2/5 201/2/5 200/2/5
f 207/2/5 201/2/5 206/2/5
f 208/2/5 202/2/5 187/2/5
f 209/1/5 203/1/5 202/1/5
f 209/2/5 202/2/5 208/2/5
f 209/1/5 204/1/5 203/1/5
f 210/1/5 204/1/5 209/1/5
f 211/4/5 205/4/5 204/4/5
f 211/1/5 204/1/5 210/1/5
f 212/4/5 198/4/5 205/4/5
f 212/4/5 205/4/5 211/4/5
f 212/3/5 207/3/5 206/3/5
f 212/3/5 206/3/5 198/3/5
f 213/3/5 207/3/5 212/3/5
f 214/3/5 207/3/5 213/3/5
f 215/2/5 201/2/5 207/2/5
f 215/3/5 207/3/5 214/3/5
f 216/2/5 188/2/5 201/2/5
f 216/2/5 201/2/5 215/2/5
f 217/4/5 211/4/5 210/4/5
f 217/4/5 212/4/5 211/4/5
f 217/4/5 213/4/5 212/4/5
f 218/4/5 213/4/5 217/4/5
f 219/3/5 214/3/5 213/3/5
f 219/4/5 213/4/5 218/4/5
f 220/2/5 215/2/5 214/2/5
f 220/3/5 214/3/5 219/3/5
f 221/3/5 216/3/5 215/3/5
f 221/2/5 215/2/5 220/2/5
f 222/2/5 188/2/5 216/2/5
f 222/3/5 216/3/5 221/3/5
f 223/1/5 218/1/5 217/1/5
f 223/4/5 217/4/5 210/4/5
f 224/1/5 218/1/5 223/1/5
f 225/4/5 219/4/5 218/4/5
f 225/1/5 218/1/5 224/1/5
f 225/4/5 220/4/5 219/4/5
f 226/4/5 220/4/5 225/4/5
f 227/4/5 220/4/5 226/4/5
f 228/4/5 220/4/5 227/4/5
f 229/1/5 221/1/5 220/1/5
f 229/4/5 220/4/5 228/4/5
f 229/1/5 222/1/5 221/1/5
f 230/1/5 222/1/5 229/1/5
f 231/1/5 228/1/5 227/1/5
f 231/4/5 227/4/5 226/4/5
f 232/1/5 228/1/5 231/1/5
f 233/4/5 230/4/5 229/4/5
f 233/1/5 228/1/5 232/1/5
f 233/4/5 229/4/5 228/4/5
f 234/4/5 230/4/5 233/4/5
f 235/4/5 224/4/5 223/4/5
f 235/1/5 225/1/5 224/1/5
f 235/1/5 226/1/5 225/1/5
f 236/1/5 226/1/5 235/1/5
f 237/1/5 210/1/5 209/1/5
f 237/1/5 209/1/5 208/1/5
f 237/4/5 236/4/5 235/4/5
f 237/4/5 235/4/5 223/4/5
f 237/4/5 223/4/5 210/4/5
f 238/4/5 236/4/5 237/4/5
f 239/1/5 226/1/5 236/1/5
f 239/4/5 231/4/5 226/4/5
f 239/4/5 232/4/5 231/4/5
f 240/4/5 232/4/5 239/4/5
f 241/1/5 233/1/5 232/1/5
f 241/4/5 232/4/5 240/4/5
f 241/1/5 234/1/5 233/1/5
f 242/1/5 234/1/5 241/1/5
f 243/4/5 236/4/5 238/4/5
f 244/4/5 236/4/5 243/4/5
f 245/1/5 240/1/5 239/1/5
f 245/4/5 236/4/5 244/4/5
f 245/1/5 239/1/5 236/1/5
f 246/1/5 240/1/5 245/1/5
f 247/4/5 230/4/5 234/4/5
f 248/1/5 222/1/5 230/1/5
f 248/4/5 230/4/5 247/4/5
f 249/1/5 240/1/5 246/1/5
f 249/4/5 245/4/5 244/4/5
f 249/4/5 246/4/5 245/4/5
f 250/4/5 241/4/5 240/4/5
f 250/1/5 240/1/5 249/1/5
f 250/4/5 242/4/5 241/4/5
f 251/4/5 242/4/5 250/4/5
f 252/1/5 234/1/5 242/1/5
f 252/4/5 242/4/5 251/4/5
f 253/4/5 247/4/5 234/4/5
f 253/1/5 234/1/5 252/1/5
f 254/4/5 252/4/5 251/4/5
f 254/1/5 251/1/5 250/1/5
f 254/4/5 253/4/5 252/4/5
f 255/4/5 253/4/5 254/4/5
f 256/4/5 250/4/5 249/4/5
f 256/1/5 244/1/5 243/1/5
f 256/4/5 249/4/5 244/4/5
f 257/4/5 250/4/5 256/4/5
f 258/1/5 255/1/5 254/1/5
f 258/4/5 250/4/5 257/4/5
f 258/1/5 254/1/5 250/1/5
f 259/1/5 255/1/5 258/1/5
f 260/4/5 253/4/5 255/4/5
f 260/1/5 255/1/5 259/1/5
f 261/4/5 253/4/5 260/4/5
f 262/2/5 208/2/5 187/2/5
f 262/1/5 238/1/5 237/1/5
f 262/1/5 237/1/5 208/1/5
f 263/1/5 238/1/5 262/1/5
f 264/1/5 257/1/5 256/1/5
f 264/4/5 243/4/5 238/4/5
f 264/1/5 256/1/5 243/1/5
f 265/1/5 257/1/5 264/1/5
f 266/4/5 259/4/5 258/4/5
f 266/1/5 257/1/5 265/1/5
f 266/4/5 258/4/5 257/4/5
f 267/4/5 259/4/5 266/4/5
f 268/1/5 261/1/5 260/1/5
f 268/4/5 259/4/5 267/4/5
f 268/1/5 260/1/5 259/1/5
f 269/4/5 253/4/5 261/4/5
f 269/1/5 261/1/5 268/1/5
f 270/1/5 238/1/5 263/1/5
f 270/3/5 263/3/5 262/3/5
f 271/4/5 265/4/5 264/4/5
f 271/1/5 238/1/5 270/1/5
f 271/4/5 264/4/5 238/4/5
f 272/1/5 267/1/5 266/1/5
f 272/1/5 266/1/5 265/1/5
f 273/4/5 268/4/5 267/4/5
f 273/1/5 267/1/5 272/1/5
f 273/4/5 269/4/5 268/4/5
f 274/1/5 222/1/5 248/1/5
f 274/1/5 248/1/5 247/1/5
f 275/2/5 188/2/5 222/2/5
f 275/1/5 222/1/5 274/1/5
f 276/3/5 270/3/5 262/3/5
f 276/3/5 271/3/5 270/3/5
f 276/2/5 262/2/5 187/2/5
f 277/3/5 271/3/5 276/3/5
f 278/4/5 265/4/5 271/4/5
f 278/3/5 271/3/5 277/3/5
f 279/4/5 265/4/5 278/4/5
f 280/1/5 272/1/5 265/1/5
f 280/4/5 265/4/5 279/4/5
f 281/4/5 273/4/5 272/4/5
f 281/1/5 272/1/5 280/1/5
f 282/4/5 247/4/5 253/4/5
f 282/4/5 273/4/5 281/4/5
f 282/4/5 269/4/5 273/4/5
f 282/4/5 253/4/5 269/4/5
f 283/1/5 274/1/5 247/1/5
f 283/4/5 247/4/5 282/4/5
f 284/2/5 275/2/5 274/2/5
f 284/1/5 274/1/5 283/1/5
f 285/1/5 279/1/5 278/1/5
f 285/3/5 278/3/5 277/3/5
f 286/4/5 281/4/5 280/4/5
f 286/1/5 279/1/5 285/1/5
f 286/4/5 282/4/5 281/4/5
f 286/4/5 280/4/5 279/4/5
f 287/4/5 282/4/5 286/4/5
f 288/2/5 283/2/5 282/2/5
f 288/4/5 282/4/5 287/4/5
f 288/2/5 284/2/5 283/2/5
f 289/2/5 284/2/5 288/2/5
f 290/2/5 188/2/5 275/2/5
f 290/2/5 284/2/5 289/2/5
f 290/2/5 275/2/5 284/2/5
f 291/3/5 285/3/5 277/3/5
f 291/2/5 277/2/5 276/2/5
f 291/3/5 286/3/5 285/3/5
f 292/4/5 287/4/5 286/4/5
f 292/3/5 286/3/5 291/3/5
f 293/1/5 288/1/5 287/1/5
f 293/4/5 287/4/5 292/4/5
f 294/2/5 292/2/5 291/2/5
f 294/1/5 293/1/5 292/1/5
f 295/2/5 289/2/5 288/2/5
f 295/1/5 293/1/5 294/1/5
f 295/1/5 288/1/5 293/1/5
f 296/1/5 290/1/5 289/1/5
f 296/2/5 289/2/5 295/2/5
f 297/2/5 188/2/5 290/2/5
f 297/1/5 290/1/5 296/1/5
f 298/2/5 296/2/5 295/2/5
f 298/2/5 294/2/5 291/2/5
f 298/2/5 297/2/5 296/2/5
f 298/2/5 295/2/5 294/2/5
f 298/2/5 276/2/5 187/2/5
f 298/2/5 291/2/5 276/2/5
f 299/2/5 188/2/5 297/2/5
f 299/2/5 297/2/5 298/2/5
f 300/2/6 301/2/6 302/2/6
f 302/2/6 301/2/6 303/2/6
f 303/2/6 301/2/6 304/2/6
f 304/2/6 301/2/6 305/2/6
f 305/2/6 301/2/6 306/2/6
f 306/2/6 301/2/6 307/2/6
f 307/2/6 301/2/6 308/2/6
f 308/2/6 301/2/6 309/2/6
f 309/2/6 301/2/6 310/2/6
f 300/2/6 302/2/6 311/2/6
f 308/2/6 309/2/6 313/2/6
f 310/2/6 301/2/6 314/2/6
f 311/2/6 312/2/6 315/2/6
f 300/2/6 311/2/6 315/2/6
f 315/2/6 312/2/6 316/2/6
f 308/2/6 313/2/6 317/2/6
f 313/2/6 314/2/6 317/2/6
f 317/2/6 314/2/6 318/2/6
f 318/2/6 314/2/6 319/2/6
f 300/2/6 315/2/6 320/2/6
f 320/2/6 315/2/6 321/2/6
f 319/2/6 314/2/6 323/2/6
f 314/2/6 301/2/6 324/2/6
f 323/2/6 314/2/6 324/2/6
f 322/2/6 323/2/6 325/2/6
f 325/2/6 323/2/6 326/2/6
f 324/2/6 301/2/6 327/2/6
f 327/2/6 301/2/6 328/2/6
f 328/2/6 301/2/6 329/2/6
f 300/2/6 320/2/6 330/2/6
f 300/2/6 330/2/6 331/2/6
f 300/2/6 331/2/6 332/2/6
f 329/2/6 301/2/6 333/2/6
f 333/2/6 301/2/6 335/2/6
f 300/2/6 332/2/6 336/2/6
f 334/2/6 335/2/6 339/2/6
f 338/2/6 339/2/6 340/2/6
f 335/2/6 301/2/6 341/2/6
f 340/2/6 339/2/6 341/2/6
f 339/2/6 335/2/6 341/2/6
f 336/2/6 337/2/6 342/2/6
f 342/2/6 343/2/6 344/2/6
f 338/2/6 340/2/6 349/2/6
f 349/2/6 340/2/6 350/2/6
f 341/2/6 301/2/6 351/2/6
f 349/2/6 350/2/6 352/2/6
f 350/2/6 351/2/6 352/2/6
f 347/2/6 348/2/6 352/2/6
f 300/2/6 336/2/6 352/2/6
f 348/2/6 349/2/6 352/2/6
f 336/2/6 342/2/6 352/2/6
f 346/2/6 347/2/6 352/2/6
f 345/2/6 346/2/6 352/2/6
f 344/2/6 345/2/6 352/2/6
f 342/2/6 344/2/6 352/2/6
f 351/2/6 301/2/6 353/2/6
f 352/2/6 351/2/6 353/2/6
f 354/4/6 355/4/6 363/4/6
f 363/4/6 355/4/6 364/4/6
f 355/1/6 356/1/6 365/1/6
f 364/4/6 355/4/6 365/4/6
f 356/2/6 357/2/6 366/2/6
f 365/1/6 356/1/6 366/1/6
f 357/1/6 358/1/6 367/1/6
f 366/2/6 357/2/6 367/2/6
f 358/4/6 359/4/6 368/4/6
f 367/1/6 358/1/6 368/1/6
f 361/3/6 362/3/6 369/3/6
f 369/3/6 362/3/6 370/3/6
f 364/4/6 365/4/6 372/4/6
f 365/2/6 366/2/6 373/2/6
f 366/2/6 367/2/6 373/2/6
f 372/4/6 365/4/6 373/4/6
f 373/2/6 367/2/6 374/2/6
f 367/4/6 368/4/6 375/4/6
f 374/2/6 367/2/6 375/2/6
f 359/3/6 360/3/6 376/3/6
f 371/1/6 372/1/6 380/1/6
f 373/2/6 374/2/6 381/2/6
f 372/2/6 373/2/6 381/2/6
f 380/1/6 372/1/6 381/1/6
f 374/4/6 375/4/6 382/4/6
f 381/2/6 374/2/6 382/2/6
f 368/4/6 359/4/6 383/4/6
f 382/4/6 375/4/6 383/4/6
f 375/4/6 368/4/6 383/4/6
f 359/3/6 376/3/6 384/3/6
f 383/4/6 359/4/6 384/4/6
f 384/3/6 376/3/6 385/3/6
f 376/4/6 377/4/6 386/4/6
f 385/3/6 376/3/6 386/3/6
f 377/2/6 378/2/6 387/2/6
f 386/4/6 377/4/6 387/4/6
f 387/2/6 378/2/6 388/2/6
f 381/2/6 382/2/6 390/2/6
f 382/2/6 383/2/6 390/2/6
f 390/2/6 383/2/6 391/2/6
f 384/4/6 385/4/6 392/4/6
f 391/2/6 383/2/6 392/2/6
f 383/4/6 384/4/6 392/4/6
f 392/4/6 385/4/6 393/4/6
f 385/3/6 386/3/6 394/3/6
f 393/4/6 385/4/6 394/4/6
f 386/3/6 387/3/6 394/3/6
f 394/3/6 387/3/6 395/3/6
f 395/3/6 387/3/6 396/3/6
f 388/3/6 389/3/6 397/3/6
f 392/2/6 393/2/6 398/2/6
f 390/4/6 391/4/6 398/4/6
f 391/2/6 392/2/6 398/2/6
f 393/4/6 394/4/6 399/4/6
f 398/2/6 393/2/6 399/2/6
f 394/4/6 395/4/6 399/4/6
f 399/4/6 395/4/6 400/4/6
f 395/2/6 396/2/6 401/2/6
f 400/4/6 395/4/6 401/4/6
f 396/2/6 397/2/6 401/2/6
f 401/2/6 397/2/6 402/2/6
f 397/3/6 389/3/6 403/3/6
f 402/2/6 397/2/6 403/2/6
f 403/3/6 389/3/6 404/3/6
f 399/4/6 400/4/6 405/4/6
f 398/4/6 399/4/6 405/4/6
f 401/2/6 402/2/6 405/2/6
f 400/2/6 401/2/6 405/2/6
f 405/2/6 402/2/6 406/2/6
f 403/4/6 404/4/6 407/4/6
f 406/2/6 402/2/6 407/2/6
f 402/4/6 403/4/6 407/4/6
f 407/4/6 404/4/6 408/4/6
f 380/4/6 381/4/6 409/4/6
f 381/2/6 390/2/6 409/2/6
f 405/4/6 406/4/6 410/4/6
f 409/2/6 390/2/6 410/2/6
f 398/4/6 405/4/6 410/4/6
f 390/4/6 398/4/6 410/4/6
f 406/2/6 407/2/6 411/2/6
f 410/4/6 406/4/6 411/4/6
f 407/2/6 408/2/6 411/2/6
f 411/2/6 408/2/6 412/2/6
f 408/4/6 404/4/6 413/4/6
f 412/2/6 408/2/6 413/2/6
f 413/4/6 404/4/6 414/4/6
f 380/4/6 409/4/6 415/4/6
f 409/4/6 410/4/6 415/4/6
f 379/1/6 380/1/6 415/1/6
f 411/4/6 412/4/6 415/4/6
f 410/4/6 411/4/6 415/4/6
f 415/4/6 412/4/6 416/4/6
f 413/2/6 414/2/6 417/2/6
f 416/4/6 412/4/6 417/4/6
f 412/2/6 413/2/6 417/2/6
f 417/2/6 414/2/6 418/2/6
f 415/1/6 416/1/6 419/1/6
f 379/1/6 415/1/6 419/1/6
f 419/1/6 416/1/6 420/1/6
f 419/4/6 420/4/6 421/4/6
f 420/1/6 416/1/6 422/1/6
f 421/4/6 420/4/6 422/4/6
f 417/4/6 418/4/6 423/4/6
f 416/4/6 417/4/6 423/4/6
f 423/4/6 418/4/6 424/4/6
f 421/1/6 422/1/6 425/1/6
f 422/1/6 416/1/6 426/1/6
f 425/1/6 422/1/6 426/1/6
f 416/4/6 423/4/6 426/4/6
f 424/4/6 418/4/6 427/4/6
f 427/4/6 418/4/6 428/4/6
f 426/4/6 423/4/6 429/4/6
f 425/3/6 426/3/6 429/3/6
f 429/4/6 423/4/6 430/4/6
f 430/4/6 423/4/6 431/4/6
f 423/2/6 424/2/6 432/2/6
f 431/4/6 423/4/6 432/4/6
f 425/3/6 429/3/6 433/3/6
f 429/3/6 430/3/6 433/3/6
f 430/4/6 431/4/6 434/4/6
f 433/3/6 430/3/6 434/3/6
f 434/4/6 431/4/6 435/4/6
f 435/4/6 431/4/6 436/4/6
f 431/2/6 432/2/6 437/2/6
f 436/4/6 431/4/6 437/4/6
f 432/2/6 424/2/6 438/2/6
f 437/2/6 432/2/6 438/2/6
f 424/4/6 427/4/6 439/4/6
f 438/2/6 424/2/6 439/2/6
f 427/1/6 428/1/6 440/1/6
f 439/4/6 427/4/6 440/4/6
f 440/1/6 428/1/6 441/1/6
f 425/3/6 433/3/6 442/3/6
f 433/4/6 434/4/6 443/4/6
f 442/3/6 433/3/6 443/3/6
f 434/3/6 435/3/6 444/3/6
f 443/4/6 434/4/6 444/4/6
f 435/4/6 436/4/6 445/4/6
f 437/2/6 438/2/6 446/2/6
f 445/4/6 436/4/6 446/4/6
f 436/2/6 437/2/6 446/2/6
f 446/2/6 438/2/6 447/2/6
f 438/4/6 439/4/6 448/4/6
f 447/2/6 438/2/6 448/2/6
f 439/4/6 440/4/6 448/4/6
f 448/4/6 440/4/6 449/4/6
f 449/4/6 440/4/6 450/4/6
f 435/4/6 445/4/6 451/4/6
f 443/3/6 444/3/6 451/3/6
f 444/3/6 435/3/6 451/3/6
f 451/4/6 445/4/6 452/4/6
f 446/2/6 447/2/6 453/2/6
f 445/2/6 446/2/6 453/2/6
f 448/4/6 449/4/6 454/4/6
f 453/2/6 447/2/6 454/2/6
f 447/4/6 448/4/6 454/4/6
f 443/3/6 451/3/6 457/3/6
f 451/3/6 452/3/6 457/3/6
f 457/3/6 452/3/6 458/3/6
f 452/4/6 445/4/6 459/4/6
f 458/3/6 452/3/6 459/3/6
f 445/2/6 453/2/6 460/2/6
f 459/4/6 445/4/6 460/4/6
f 454/4/6 449/4/6 461/4/6
f 453/4/6 454/4/6 461/4/6
f 461/4/6 449/4/6 462/4/6
f 458/3/6 459/3/6 463/3/6
f 459/2/6 460/2/6 464/2/6
f 463/3/6 459/3/6 464/3/6
f 460/2/6 453/2/6 465/2/6
f 464/2/6 460/2/6 465/2/6
f 453/4/6 461/4/6 465/4/6
f 461/1/6 462/1/6 466/1/6
f 465/4/6 461/4/6 466/4/6
f 462/4/6 449/4/6 467/4/6
f 466/1/6 462/1/6 467/1/6
f 467/4/6 449/4/6 468/4/6
f 455/1/6 456/1/6 469/1/6
f 469/1/6 456/1/6 470/1/6
