# MagicaVoxel @ Ephtracy

# group
o 

# material
mtllib BOX1-71.mtl
usemtl palette

# normals
vn -1 0 0
vn 1 0 0
vn 0 0 -1
vn 0 0 1
vn 0 -1 0
vn 0 1 0

# texcoords
vt 0.876953 0.5
vt 0.880859 0.5
vt 0.884766 0.5
vt 0.943359 0.5
vt 0.951172 0.5
vt 0.955078 0.5
vt 0.982422 0.5
vt 0.986328 0.5

# verts
v -7.2 0 3.3
v -7.2 0 5.3
v -7.2 0.1 3.3
v -7.2 0.1 3.4
v -7.2 0.1 3.5
v -7.2 0.1 3.6
v -7.2 0.1 3.7
v -7.2 0.1 3.8
v -7.2 0.1 4.1
v -7.2 0.1 4.4
v -7.2 0.1 4.5
v -7.2 0.1 4.8
v -7.2 0.1 4.9
v -7.2 0.1 5.2
v -7.2 0.2 3.3
v -7.2 0.2 3.4
v -7.2 0.2 3.5
v -7.2 0.2 3.6
v -7.2 0.2 3.7
v -7.2 0.2 3.8
v -7.2 0.2 4.1
v -7.2 0.2 4.4
v -7.2 0.2 4.5
v -7.2 0.2 4.8
v -7.2 0.2 4.9
v -7.2 0.2 5.2
v -7.2 0.2 5.3
v -6.9 0.1 3.3
v -6.9 0.1 3.5
v -6.9 0.1 3.6
v -6.9 0.1 3.7
v -6.9 0.1 4
v -6.9 0.1 4.1
v -6.9 0.1 4.4
v -6.9 0.1 4.5
v -6.9 0.1 4.6
v -6.9 0.1 4.8
v -6.9 0.1 4.9
v -6.9 0.1 5
v -6.9 0.2 3.3
v -6.9 0.2 3.5
v -6.9 0.2 3.6
v -6.9 0.2 3.7
v -6.9 0.2 4
v -6.9 0.2 4.1
v -6.9 0.2 4.4
v -6.9 0.2 4.5
v -6.9 0.2 4.6
v -6.9 0.2 4.8
v -6.9 0.2 4.9
v -6.9 0.2 5
v -5.2 0 3.3
v -5.2 0 3.4
v -5.2 0 3.5
v -5.2 0 3.6
v -5.2 0 3.7
v -5.2 0 3.8
v -5.2 0 3.9
v -5.2 0 4
v -5.2 0 4.1
v -5.2 0 4.3
v -5.2 0 4.4
v -5.2 0 4.5
v -5.2 0 4.6
v -5.2 0 4.7
v -5.2 0 4.8
v -5.2 0 5.3
v -5.2 0.1 3.3
v -5.2 0.1 3.4
v -5.2 0.1 3.5
v -5.2 0.1 3.6
v -5.2 0.1 3.7
v -5.2 0.1 3.8
v -5.2 0.1 3.9
v -5.2 0.1 4
v -5.2 0.1 4.1
v -5.2 0.1 4.3
v -5.2 0.1 4.4
v -5.2 0.1 4.5
v -5.2 0.1 4.6
v -5.2 0.1 4.7
v -5.2 0.1 4.8
v -5.2 0.1 5
v -5.2 0.1 5.1
v -5.2 0.1 5.3
v -5.2 0.2 5
v -5.2 0.2 5.1
v -5.2 0.2 5.3
v -7.2 0 3.3
v -7.2 0.1 3.3
v -7.2 0.2 3.3
v -6.9 0 3.3
v -6.9 0.1 3.3
v -6.9 0.2 3.3
v -6.8 0 3.3
v -6.8 0.1 3.3
v -6.7 0 3.3
v -6.7 0.1 3.3
v -6.6 0 3.3
v -6.6 0.1 3.3
v -6.5 0 3.3
v -6.5 0.1 3.3
v -6.3 0 3.3
v -6.3 0.1 3.3
v -6.2 0 3.3
v -6.2 0.1 3.3
v -5.9 0 3.3
v -5.9 0.1 3.3
v -5.8 0 3.3
v -5.8 0.1 3.3
v -5.5 0 3.3
v -5.5 0.1 3.3
v -5.4 0 3.3
v -5.4 0.1 3.3
v -5.3 0 3.3
v -5.3 0.1 3.3
v -5.2 0 3.3
v -5.2 0.1 3.3
v -6.9 0.1 5
v -6.9 0.2 5
v -6.8 0.1 5
v -6.8 0.2 5
v -6.7 0.1 5
v -6.7 0.2 5
v -6.6 0.1 5
v -6.4 0.1 5
v -6.4 0.2 5
v -6.3 0.1 5
v -6.3 0.2 5
v -6.2 0.1 5
v -6 0.1 5
v -6 0.2 5
v -5.9 0.1 5
v -5.9 0.2 5
v -5.8 0.1 5
v -5.7 0.1 5
v -5.7 0.2 5
v -5.6 0.1 5
v -5.6 0.2 5
v -5.5 0.1 5
v -5.5 0.2 5
v -5.4 0.1 5
v -5.2 0.1 5
v -5.2 0.2 5
v -7.2 0 5.3
v -7.2 0.2 5.3
v -7.1 0.1 5.3
v -7.1 0.2 5.3
v -6.9 0 5.3
v -6.9 0.1 5.3
v -6.9 0.2 5.3
v -6.8 0.1 5.3
v -6.8 0.2 5.3
v -6.7 0 5.3
v -6.7 0.1 5.3
v -6.6 0 5.3
v -6.6 0.1 5.3
v -6.4 0.1 5.3
v -6.4 0.2 5.3
v -6.3 0 5.3
v -6.3 0.1 5.3
v -6.3 0.2 5.3
v -6.2 0 5.3
v -6.2 0.1 5.3
v -6.1 0.1 5.3
v -6.1 0.2 5.3
v -6 0.1 5.3
v -6 0.2 5.3
v -5.9 0 5.3
v -5.9 0.1 5.3
v -5.9 0.2 5.3
v -5.8 0 5.3
v -5.8 0.1 5.3
v -5.6 0.1 5.3
v -5.6 0.2 5.3
v -5.5 0 5.3
v -5.5 0.1 5.3
v -5.5 0.2 5.3
v -5.4 0 5.3
v -5.4 0.1 5.3
v -5.4 0.2 5.3
v -5.2 0 5.3
v -5.2 0.1 5.3
v -5.2 0.2 5.3
v -7.2 0 3.3
v -6.9 0 3.3
v -6.8 0 3.3
v -6.7 0 3.3
v -6.6 0 3.3
v -6.5 0 3.3
v -6.3 0 3.3
v -6.2 0 3.3
v -5.9 0 3.3
v -5.8 0 3.3
v -5.5 0 3.3
v -5.4 0 3.3
v -5.3 0 3.3
v -5.2 0 3.3
v -6.8 0 3.4
v -6.7 0 3.4
v -5.3 0 3.4
v -5.2 0 3.4
v -5.4 0 3.5
v -5.2 0 3.5
v -5.4 0 3.6
v -5.2 0 3.6
v -6.9 0 3.7
v -6.8 0 3.7
v -6.7 0 3.7
v -6.1 0 3.7
v -6 0 3.7
v -5.3 0 3.7
v -5.2 0 3.7
v -6.6 0 3.8
v -6.5 0 3.8
v -6 0 3.8
v -5.9 0 3.8
v -5.7 0 3.8
v -5.6 0 3.8
v -5.3 0 3.8
v -5.2 0 3.8
v -5.4 0 3.9
v -5.2 0 3.9
v -6.1 0 4
v -6 0 4
v -5.4 0 4
v -5.3 0 4
v -5.2 0 4
v -5.4 0 4.1
v -5.3 0 4.1
v -5.2 0 4.1
v -6.1 0 4.3
v -6 0 4.3
v -5.4 0 4.3
v -5.2 0 4.3
v -5.4 0 4.4
v -5.2 0 4.4
v -6.6 0 4.5
v -6.5 0 4.5
v -5.4 0 4.5
v -5.2 0 4.5
v -6 0 4.6
v -5.9 0 4.6
v -5.4 0 4.6
v -5.2 0 4.6
v -5.7 0 4.7
v -5.6 0 4.7
v -5.4 0 4.7
v -5.2 0 4.7
v -5.4 0 4.8
v -5.2 0 4.8
v -6.6 0 4.9
v -6.5 0 4.9
v -7.2 0 5.3
v -6.9 0 5.3
v -6.7 0 5.3
v -6.6 0 5.3
v -6.3 0 5.3
v -6.2 0 5.3
v -5.9 0 5.3
v -5.8 0 5.3
v -5.5 0 5.3
v -5.4 0 5.3
v -5.2 0 5.3
v -6.9 0.1 3.3
v -6.8 0.1 3.3
v -6.7 0.1 3.3
v -6.6 0.1 3.3
v -6.5 0.1 3.3
v -6.3 0.1 3.3
v -6.2 0.1 3.3
v -5.9 0.1 3.3
v -5.8 0.1 3.3
v -5.5 0.1 3.3
v -5.4 0.1 3.3
v -5.3 0.1 3.3
v -5.2 0.1 3.3
v -6.8 0.1 3.4
v -6.7 0.1 3.4
v -5.3 0.1 3.4
v -5.2 0.1 3.4
v -6.9 0.1 3.5
v -5.4 0.1 3.5
v -5.2 0.1 3.5
v -6.9 0.1 3.6
v -5.4 0.1 3.6
v -5.2 0.1 3.6
v -6.9 0.1 3.7
v -6.8 0.1 3.7
v -6.7 0.1 3.7
v -6.1 0.1 3.7
v -6 0.1 3.7
v -5.3 0.1 3.7
v -5.2 0.1 3.7
v -6.6 0.1 3.8
v -6.5 0.1 3.8
v -6 0.1 3.8
v -5.9 0.1 3.8
v -5.7 0.1 3.8
v -5.6 0.1 3.8
v -5.3 0.1 3.8
v -5.2 0.1 3.8
v -5.4 0.1 3.9
v -5.2 0.1 3.9
v -6.9 0.1 4
v -6.1 0.1 4
v -6 0.1 4
v -5.4 0.1 4
v -5.3 0.1 4
v -5.2 0.1 4
v -6.9 0.1 4.1
v -5.4 0.1 4.1
v -5.3 0.1 4.1
v -5.2 0.1 4.1
v -6.1 0.1 4.3
v -6 0.1 4.3
v -5.4 0.1 4.3
v -5.2 0.1 4.3
v -6.9 0.1 4.4
v -5.4 0.1 4.4
v -5.2 0.1 4.4
v -6.9 0.1 4.5
v -6.6 0.1 4.5
v -6.5 0.1 4.5
v -5.4 0.1 4.5
v -5.2 0.1 4.5
v -6.9 0.1 4.6
v -6 0.1 4.6
v -5.9 0.1 4.6
v -5.4 0.1 4.6
v -5.2 0.1 4.6
v -5.7 0.1 4.7
v -5.6 0.1 4.7
v -5.4 0.1 4.7
v -5.2 0.1 4.7
v -6.9 0.1 4.8
v -5.4 0.1 4.8
v -5.2 0.1 4.8
v -6.9 0.1 4.9
v -6.6 0.1 4.9
v -6.5 0.1 4.9
v -6.9 0.1 5
v -6.8 0.1 5
v -6.7 0.1 5
v -6.6 0.1 5
v -6.4 0.1 5
v -6.3 0.1 5
v -6.2 0.1 5
v -6 0.1 5
v -5.9 0.1 5
v -5.8 0.1 5
v -5.7 0.1 5
v -5.6 0.1 5
v -5.5 0.1 5
v -5.4 0.1 5
v -5.2 0.1 5
v -7.2 0.2 3.3
v -6.9 0.2 3.3
v -7.2 0.2 3.4
v -7 0.2 3.4
v -7.2 0.2 3.5
v -7 0.2 3.5
v -6.9 0.2 3.5
v -7.2 0.2 3.6
v -6.9 0.2 3.6
v -7.2 0.2 3.7
v -7.1 0.2 3.7
v -6.9 0.2 3.7
v -7.2 0.2 3.8
v -7.1 0.2 3.8
v -7 0.2 3.8
v -7.1 0.2 3.9
v -7 0.2 3.9
v -7.1 0.2 4
v -6.9 0.2 4
v -7.2 0.2 4.1
v -7.1 0.2 4.1
v -6.9 0.2 4.1
v -7.1 0.2 4.2
v -7 0.2 4.2
v -7.2 0.2 4.4
v -7.1 0.2 4.4
v -7 0.2 4.4
v -6.9 0.2 4.4
v -7.2 0.2 4.5
v -7.1 0.2 4.5
v -6.9 0.2 4.5
v -7.1 0.2 4.6
v -6.9 0.2 4.6
v -7.2 0.2 4.8
v -7.1 0.2 4.8
v -6.9 0.2 4.8
v -7.2 0.2 4.9
v -7.1 0.2 4.9
v -6.9 0.2 4.9
v -6.9 0.2 5
v -6.8 0.2 5
v -6.7 0.2 5
v -6.4 0.2 5
v -6.3 0.2 5
v -6 0.2 5
v -5.9 0.2 5
v -5.7 0.2 5
v -5.6 0.2 5
v -5.5 0.2 5
v -5.2 0.2 5
v -6.7 0.2 5.1
v -6.5 0.2 5.1
v -5.8 0.2 5.1
v -5.7 0.2 5.1
v -5.3 0.2 5.1
v -5.2 0.2 5.1
v -7.2 0.2 5.2
v -7.1 0.2 5.2
v -6.9 0.2 5.2
v -6.5 0.2 5.2
v -6.4 0.2 5.2
v -6.1 0.2 5.2
v -6 0.2 5.2
v -5.8 0.2 5.2
v -5.6 0.2 5.2
v -5.4 0.2 5.2
v -5.3 0.2 5.2
v -7.2 0.2 5.3
v -7.1 0.2 5.3
v -6.9 0.2 5.3
v -6.8 0.2 5.3
v -6.4 0.2 5.3
v -6.3 0.2 5.3
v -6.1 0.2 5.3
v -6 0.2 5.3
v -5.9 0.2 5.3
v -5.6 0.2 5.3
v -5.5 0.2 5.3
v -5.4 0.2 5.3
v -5.2 0.2 5.3

# faces
f 1/5/1 2/5/1 3/5/1
f 3/5/1 2/5/1 4/5/1
f 4/5/1 2/5/1 5/5/1
f 5/5/1 2/5/1 6/5/1
f 6/5/1 2/5/1 7/5/1
f 7/5/1 2/5/1 8/5/1
f 8/5/1 2/5/1 9/5/1
f 9/5/1 2/5/1 10/5/1
f 10/5/1 2/5/1 11/5/1
f 11/5/1 2/5/1 12/5/1
f 12/5/1 2/5/1 13/5/1
f 13/5/1 2/5/1 14/5/1
f 3/4/1 4/4/1 15/4/1
f 4/5/1 5/5/1 16/5/1
f 15/4/1 4/4/1 16/4/1
f 5/7/1 6/7/1 17/7/1
f 16/5/1 5/5/1 17/5/1
f 6/8/1 7/8/1 18/8/1
f 17/7/1 6/7/1 18/7/1
f 7/7/1 8/7/1 19/7/1
f 18/8/1 7/8/1 19/8/1
f 8/5/1 9/5/1 20/5/1
f 19/7/1 8/7/1 20/7/1
f 9/7/1 10/7/1 21/7/1
f 20/5/1 9/5/1 21/5/1
f 10/8/1 11/8/1 22/8/1
f 21/7/1 10/7/1 22/7/1
f 11/7/1 12/7/1 23/7/1
f 22/8/1 11/8/1 23/8/1
f 12/8/1 13/8/1 24/8/1
f 23/7/1 12/7/1 24/7/1
f 13/7/1 14/7/1 25/7/1
f 24/8/1 13/8/1 25/8/1
f 14/5/1 2/5/1 26/5/1
f 25/7/1 14/7/1 26/7/1
f 26/5/1 2/5/1 27/5/1
f 40/4/2 29/4/2 28/4/2
f 41/7/2 30/7/2 29/7/2
f 41/4/2 29/4/2 40/4/2
f 42/8/2 31/8/2 30/8/2
f 42/7/2 30/7/2 41/7/2
f 43/4/2 32/4/2 31/4/2
f 43/8/2 31/8/2 42/8/2
f 44/8/2 33/8/2 32/8/2
f 44/4/2 32/4/2 43/4/2
f 45/7/2 34/7/2 33/7/2
f 45/8/2 33/8/2 44/8/2
f 46/8/2 35/8/2 34/8/2
f 46/7/2 34/7/2 45/7/2
f 47/5/2 36/5/2 35/5/2
f 47/8/2 35/8/2 46/8/2
f 48/7/2 37/7/2 36/7/2
f 48/5/2 36/5/2 47/5/2
f 49/5/2 38/5/2 37/5/2
f 49/7/2 37/7/2 48/7/2
f 50/7/2 39/7/2 38/7/2
f 50/5/2 38/5/2 49/5/2
f 51/7/2 39/7/2 50/7/2
f 68/3/2 53/3/2 52/3/2
f 69/6/2 54/6/2 53/6/2
f 69/3/2 53/3/2 68/3/2
f 70/2/2 55/2/2 54/2/2
f 70/6/2 54/6/2 69/6/2
f 71/6/2 56/6/2 55/6/2
f 71/2/2 55/2/2 70/2/2
f 72/1/2 57/1/2 56/1/2
f 72/6/2 56/6/2 71/6/2
f 73/6/2 58/6/2 57/6/2
f 73/1/2 57/1/2 72/1/2
f 74/2/2 59/2/2 58/2/2
f 74/6/2 58/6/2 73/6/2
f 75/3/2 60/3/2 59/3/2
f 75/2/2 59/2/2 74/2/2
f 76/6/2 61/6/2 60/6/2
f 76/3/2 60/3/2 75/3/2
f 77/2/2 62/2/2 61/2/2
f 77/6/2 61/6/2 76/6/2
f 78/6/2 63/6/2 62/6/2
f 78/2/2 62/2/2 77/2/2
f 79/3/2 64/3/2 63/3/2
f 79/6/2 63/6/2 78/6/2
f 80/6/2 65/6/2 64/6/2
f 80/3/2 64/3/2 79/3/2
f 81/2/2 66/2/2 65/2/2
f 81/6/2 65/6/2 80/6/2
f 82/6/2 67/6/2 66/6/2
f 82/2/2 66/2/2 81/2/2
f 83/6/2 67/6/2 82/6/2
f 84/6/2 67/6/2 83/6/2
f 85/6/2 67/6/2 84/6/2
f 86/7/2 84/7/2 83/7/2
f 87/4/2 85/4/2 84/4/2
f 87/7/2 84/7/2 86/7/2
f 88/4/2 85/4/2 87/4/2
f 89/5/3 90/5/3 92/5/3
f 90/4/3 91/4/3 93/4/3
f 92/5/3 90/5/3 93/5/3
f 93/4/3 91/4/3 94/4/3
f 92/1/3 93/1/3 95/1/3
f 95/1/3 93/1/3 96/1/3
f 95/6/3 96/6/3 97/6/3
f 97/6/3 96/6/3 98/6/3
f 97/2/3 98/2/3 99/2/3
f 99/2/3 98/2/3 100/2/3
f 99/3/3 100/3/3 101/3/3
f 101/3/3 100/3/3 102/3/3
f 101/6/3 102/6/3 103/6/3
f 103/6/3 102/6/3 104/6/3
f 103/2/3 104/2/3 105/2/3
f 105/2/3 104/2/3 106/2/3
f 105/6/3 106/6/3 107/6/3
f 107/6/3 106/6/3 108/6/3
f 107/2/3 108/2/3 109/2/3
f 109/2/3 108/2/3 110/2/3
f 109/6/3 110/6/3 111/6/3
f 111/6/3 110/6/3 112/6/3
f 111/2/3 112/2/3 113/2/3
f 113/2/3 112/2/3 114/2/3
f 113/6/3 114/6/3 115/6/3
f 115/6/3 114/6/3 116/6/3
f 115/3/3 116/3/3 117/3/3
f 117/3/3 116/3/3 118/3/3
f 119/5/3 120/5/3 121/5/3
f 121/5/3 120/5/3 122/5/3
f 121/7/3 122/7/3 123/7/3
f 123/7/3 122/7/3 124/7/3
f 123/4/3 124/4/3 125/4/3
f 125/4/3 124/4/3 126/4/3
f 126/4/3 124/4/3 127/4/3
f 126/5/3 127/5/3 128/5/3
f 128/5/3 127/5/3 129/5/3
f 128/7/3 129/7/3 130/7/3
f 130/7/3 129/7/3 131/7/3
f 131/7/3 129/7/3 132/7/3
f 131/5/3 132/5/3 133/5/3
f 133/5/3 132/5/3 134/5/3
f 133/7/3 134/7/3 135/7/3
f 135/7/3 134/7/3 136/7/3
f 136/7/3 134/7/3 137/7/3
f 136/4/3 137/4/3 138/4/3
f 138/4/3 137/4/3 139/4/3
f 138/5/3 139/5/3 140/5/3
f 140/5/3 139/5/3 141/5/3
f 140/7/3 141/7/3 142/7/3
f 142/7/3 141/7/3 143/7/3
f 143/7/3 141/7/3 144/7/3
f 147/5/4 146/5/4 145/5/4
f 148/5/4 146/5/4 147/5/4
f 149/5/4 147/5/4 145/5/4
f 150/8/4 148/8/4 147/8/4
f 150/5/4 147/5/4 149/5/4
f 151/8/4 148/8/4 150/8/4
f 152/6/4 150/6/4 149/6/4
f 152/5/4 151/5/4 150/5/4
f 153/5/4 151/5/4 152/5/4
f 154/6/4 152/6/4 149/6/4
f 155/7/4 153/7/4 152/7/4
f 155/6/4 152/6/4 154/6/4
f 156/2/4 155/2/4 154/2/4
f 157/7/4 153/7/4 155/7/4
f 157/2/4 155/2/4 156/2/4
f 158/6/4 157/6/4 156/6/4
f 158/7/4 153/7/4 157/7/4
f 159/7/4 153/7/4 158/7/4
f 160/6/4 158/6/4 156/6/4
f 161/5/4 159/5/4 158/5/4
f 161/6/4 158/6/4 160/6/4
f 162/5/4 159/5/4 161/5/4
f 163/2/4 161/2/4 160/2/4
f 164/7/4 162/7/4 161/7/4
f 164/2/4 161/2/4 163/2/4
f 165/6/4 164/6/4 163/6/4
f 165/7/4 162/7/4 164/7/4
f 166/7/4 162/7/4 165/7/4
f 167/6/4 165/6/4 163/6/4
f 167/4/4 166/4/4 165/4/4
f 168/4/4 166/4/4 167/4/4
f 169/6/4 167/6/4 163/6/4
f 170/5/4 168/5/4 167/5/4
f 170/6/4 167/6/4 169/6/4
f 171/5/4 168/5/4 170/5/4
f 172/2/4 170/2/4 169/2/4
f 173/7/4 171/7/4 170/7/4
f 173/2/4 170/2/4 172/2/4
f 174/6/4 173/6/4 172/6/4
f 174/7/4 171/7/4 173/7/4
f 175/7/4 171/7/4 174/7/4
f 176/6/4 174/6/4 172/6/4
f 177/5/4 175/5/4 174/5/4
f 177/6/4 174/6/4 176/6/4
f 178/5/4 175/5/4 177/5/4
f 179/2/4 177/2/4 176/2/4
f 180/7/4 178/7/4 177/7/4
f 180/2/4 177/2/4 179/2/4
f 181/7/4 178/7/4 180/7/4
f 182/6/4 180/6/4 179/6/4
f 183/4/4 181/4/4 180/4/4
f 183/6/4 180/6/4 182/6/4
f 184/4/4 181/4/4 183/4/4
f 186/1/5 187/1/5 199/1/5
f 187/6/5 188/6/5 199/6/5
f 188/2/5 189/2/5 200/2/5
f 199/6/5 188/6/5 200/6/5
f 197/3/5 198/3/5 201/3/5
f 196/6/5 197/6/5 201/6/5
f 201/3/5 198/3/5 202/3/5
f 195/2/5 196/2/5 203/2/5
f 196/6/5 201/6/5 203/6/5
f 201/6/5 202/6/5 203/6/5
f 203/6/5 202/6/5 204/6/5
f 195/2/5 203/2/5 205/2/5
f 203/2/5 204/2/5 205/2/5
f 205/2/5 204/2/5 206/2/5
f 185/5/5 186/5/5 207/5/5
f 186/1/5 199/1/5 207/1/5
f 199/3/5 200/3/5 208/3/5
f 207/1/5 199/1/5 208/1/5
f 200/2/5 189/2/5 209/2/5
f 208/3/5 200/3/5 209/3/5
f 192/6/5 193/6/5 210/6/5
f 210/6/5 193/6/5 211/6/5
f 205/6/5 206/6/5 212/6/5
f 212/6/5 206/6/5 213/6/5
f 189/3/5 190/3/5 214/3/5
f 209/2/5 189/2/5 214/2/5
f 190/6/5 191/6/5 215/6/5
f 214/3/5 190/3/5 215/3/5
f 211/6/5 193/6/5 216/6/5
f 210/3/5 211/3/5 216/3/5
f 193/2/5 194/2/5 217/2/5
f 216/6/5 193/6/5 217/6/5
f 194/6/5 195/6/5 218/6/5
f 218/6/5 195/6/5 219/6/5
f 212/1/5 213/1/5 220/1/5
f 205/6/5 212/6/5 220/6/5
f 220/1/5 213/1/5 221/1/5
f 195/2/5 205/2/5 222/2/5
f 205/6/5 220/6/5 222/6/5
f 220/6/5 221/6/5 222/6/5
f 222/6/5 221/6/5 223/6/5
f 210/3/5 216/3/5 224/3/5
f 192/6/5 210/6/5 224/6/5
f 216/3/5 217/3/5 224/3/5
f 224/3/5 217/3/5 225/3/5
f 222/2/5 223/2/5 226/2/5
f 195/2/5 222/2/5 226/2/5
f 226/2/5 223/2/5 227/2/5
f 227/2/5 223/2/5 228/2/5
f 195/2/5 226/2/5 229/2/5
f 226/1/5 227/1/5 229/1/5
f 227/3/5 228/3/5 230/3/5
f 229/1/5 227/1/5 230/1/5
f 230/3/5 228/3/5 231/3/5
f 224/1/5 225/1/5 232/1/5
f 192/6/5 224/6/5 232/6/5
f 225/3/5 217/3/5 233/3/5
f 232/1/5 225/1/5 233/1/5
f 230/6/5 231/6/5 234/6/5
f 195/2/5 229/2/5 234/2/5
f 229/6/5 230/6/5 234/6/5
f 234/6/5 231/6/5 235/6/5
f 195/2/5 234/2/5 236/2/5
f 234/2/5 235/2/5 236/2/5
f 236/2/5 235/2/5 237/2/5
f 209/2/5 214/2/5 238/2/5
f 214/6/5 215/6/5 238/6/5
f 215/6/5 191/6/5 239/6/5
f 238/6/5 215/6/5 239/6/5
f 236/6/5 237/6/5 240/6/5
f 195/2/5 236/2/5 240/2/5
f 240/6/5 237/6/5 241/6/5
f 233/3/5 217/3/5 242/3/5
f 232/6/5 233/6/5 242/6/5
f 217/2/5 194/2/5 243/2/5
f 242/3/5 217/3/5 243/3/5
f 240/3/5 241/3/5 244/3/5
f 195/2/5 240/2/5 244/2/5
f 244/3/5 241/3/5 245/3/5
f 218/3/5 219/3/5 246/3/5
f 194/6/5 218/6/5 246/6/5
f 219/6/5 195/6/5 247/6/5
f 246/3/5 219/3/5 247/3/5
f 244/6/5 245/6/5 248/6/5
f 195/2/5 244/2/5 248/2/5
f 248/6/5 245/6/5 249/6/5
f 195/2/5 248/2/5 250/2/5
f 248/2/5 249/2/5 250/2/5
f 250/2/5 249/2/5 251/2/5
f 209/2/5 238/2/5 252/2/5
f 238/1/5 239/1/5 252/1/5
f 239/6/5 191/6/5 253/6/5
f 252/1/5 239/1/5 253/1/5
f 185/5/5 207/5/5 254/5/5
f 207/6/5 208/6/5 255/6/5
f 254/5/5 207/5/5 255/5/5
f 208/6/5 209/6/5 255/6/5
f 209/2/5 252/2/5 256/2/5
f 255/6/5 209/6/5 256/6/5
f 252/6/5 253/6/5 257/6/5
f 256/2/5 252/2/5 257/2/5
f 253/6/5 191/6/5 258/6/5
f 257/6/5 253/6/5 258/6/5
f 191/2/5 192/2/5 258/2/5
f 232/6/5 242/6/5 259/6/5
f 258/2/5 192/2/5 259/2/5
f 192/6/5 232/6/5 259/6/5
f 242/6/5 243/6/5 259/6/5
f 243/2/5 194/2/5 260/2/5
f 259/6/5 243/6/5 260/6/5
f 194/6/5 246/6/5 261/6/5
f 260/2/5 194/2/5 261/2/5
f 246/6/5 247/6/5 261/6/5
f 195/2/5 250/2/5 262/2/5
f 261/6/5 247/6/5 262/6/5
f 247/6/5 195/6/5 262/6/5
f 250/6/5 251/6/5 263/6/5
f 262/2/5 250/2/5 263/2/5
f 263/6/5 251/6/5 264/6/5
f 278/1/6 266/1/6 265/1/6
f 278/6/6 267/6/6 266/6/6
f 279/2/6 268/2/6 267/2/6
f 279/6/6 267/6/6 278/6/6
f 280/3/6 277/3/6 276/3/6
f 280/6/6 276/6/6 275/6/6
f 281/3/6 277/3/6 280/3/6
f 282/1/6 278/1/6 265/1/6
f 283/2/6 275/2/6 274/2/6
f 283/6/6 280/6/6 275/6/6
f 283/6/6 281/6/6 280/6/6
f 284/6/6 281/6/6 283/6/6
f 285/1/6 278/1/6 282/1/6
f 286/2/6 283/2/6 274/2/6
f 286/2/6 284/2/6 283/2/6
f 287/2/6 284/2/6 286/2/6
f 288/1/6 278/1/6 285/1/6
f 289/3/6 279/3/6 278/3/6
f 289/1/6 278/1/6 288/1/6
f 290/2/6 268/2/6 279/2/6
f 290/3/6 279/3/6 289/3/6
f 291/6/6 272/6/6 271/6/6
f 292/6/6 272/6/6 291/6/6
f 293/6/6 287/6/6 286/6/6
f 294/6/6 287/6/6 293/6/6
f 295/3/6 269/3/6 268/3/6
f 295/2/6 268/2/6 290/2/6
f 296/6/6 270/6/6 269/6/6
f 296/3/6 269/3/6 295/3/6
f 297/6/6 272/6/6 292/6/6
f 297/3/6 292/3/6 291/3/6
f 298/2/6 273/2/6 272/2/6
f 298/6/6 272/6/6 297/6/6
f 299/6/6 274/6/6 273/6/6
f 300/6/6 274/6/6 299/6/6
f 301/1/6 294/1/6 293/1/6
f 301/6/6 293/6/6 286/6/6
f 302/1/6 294/1/6 301/1/6
f 303/2/6 286/2/6 274/2/6
f 303/6/6 301/6/6 286/6/6
f 303/6/6 302/6/6 301/6/6
f 304/6/6 302/6/6 303/6/6
f 305/6/6 289/6/6 288/6/6
f 305/6/6 290/6/6 289/6/6
f 306/3/6 297/3/6 291/3/6
f 306/6/6 291/6/6 271/6/6
f 306/3/6 298/3/6 297/3/6
f 307/3/6 298/3/6 306/3/6
f 308/2/6 304/2/6 303/2/6
f 308/2/6 303/2/6 274/2/6
f 309/2/6 304/2/6 308/2/6
f 310/2/6 304/2/6 309/2/6
f 311/6/6 290/6/6 305/6/6
f 312/2/6 308/2/6 274/2/6
f 312/1/6 309/1/6 308/1/6
f 313/3/6 310/3/6 309/3/6
f 313/1/6 309/1/6 312/1/6
f 314/3/6 310/3/6 313/3/6
f 315/1/6 307/1/6 306/1/6
f 315/6/6 306/6/6 271/6/6
f 316/3/6 298/3/6 307/3/6
f 316/1/6 307/1/6 315/1/6
f 317/6/6 314/6/6 313/6/6
f 317/2/6 312/2/6 274/2/6
f 317/6/6 313/6/6 312/6/6
f 318/6/6 314/6/6 317/6/6
f 319/6/6 290/6/6 311/6/6
f 320/2/6 317/2/6 274/2/6
f 320/2/6 318/2/6 317/2/6
f 321/2/6 318/2/6 320/2/6
f 322/6/6 290/6/6 319/6/6
f 323/2/6 295/2/6 290/2/6
f 323/6/6 296/6/6 295/6/6
f 324/6/6 270/6/6 296/6/6
f 324/6/6 296/6/6 323/6/6
f 325/2/6 320/2/6 274/2/6
f 325/6/6 321/6/6 320/6/6
f 326/6/6 321/6/6 325/6/6
f 327/6/6 290/6/6 322/6/6
f 328/3/6 298/3/6 316/3/6
f 328/6/6 316/6/6 315/6/6
f 329/2/6 273/2/6 298/2/6
f 329/3/6 298/3/6 328/3/6
f 330/2/6 325/2/6 274/2/6
f 330/3/6 326/3/6 325/3/6
f 331/3/6 326/3/6 330/3/6
f 332/3/6 300/3/6 299/3/6
f 332/6/6 299/6/6 273/6/6
f 333/6/6 274/6/6 300/6/6
f 333/3/6 300/3/6 332/3/6
f 334/6/6 331/6/6 330/6/6
f 334/2/6 330/2/6 274/2/6
f 335/6/6 331/6/6 334/6/6
f 336/6/6 290/6/6 327/6/6
f 337/2/6 334/2/6 274/2/6
f 337/2/6 335/2/6 334/2/6
f 338/2/6 335/2/6 337/2/6
f 339/6/6 290/6/6 336/6/6
f 340/2/6 323/2/6 290/2/6
f 340/1/6 324/1/6 323/1/6
f 341/6/6 270/6/6 324/6/6
f 341/1/6 324/1/6 340/1/6
f 342/6/6 290/6/6 339/6/6
f 343/6/6 290/6/6 342/6/6
f 344/2/6 340/2/6 290/2/6
f 344/6/6 290/6/6 343/6/6
f 345/6/6 341/6/6 340/6/6
f 345/2/6 340/2/6 344/2/6
f 346/6/6 270/6/6 341/6/6
f 346/6/6 341/6/6 345/6/6
f 347/2/6 271/2/6 270/2/6
f 347/6/6 270/6/6 346/6/6
f 348/6/6 328/6/6 315/6/6
f 348/2/6 271/2/6 347/2/6
f 348/6/6 315/6/6 271/6/6
f 348/6/6 329/6/6 328/6/6
f 349/6/6 329/6/6 348/6/6
f 350/2/6 273/2/6 329/2/6
f 350/6/6 329/6/6 349/6/6
f 351/6/6 332/6/6 273/6/6
f 351/2/6 273/2/6 350/2/6
f 351/6/6 333/6/6 332/6/6
f 352/6/6 333/6/6 351/6/6
f 353/6/6 274/6/6 333/6/6
f 353/6/6 333/6/6 352/6/6
f 354/2/6 337/2/6 274/2/6
f 354/6/6 274/6/6 353/6/6
f 355/6/6 338/6/6 337/6/6
f 355/2/6 337/2/6 354/2/6
f 356/6/6 338/6/6 355/6/6
f 359/4/6 358/4/6 357/4/6
f 360/4/6 358/4/6 359/4/6
f 361/5/6 360/5/6 359/5/6
f 362/4/6 358/4/6 360/4/6
f 362/5/6 360/5/6 361/5/6
f 363/4/6 358/4/6 362/4/6
f 364/7/6 362/7/6 361/7/6
f 364/7/6 363/7/6 362/7/6
f 365/7/6 363/7/6 364/7/6
f 366/8/6 365/8/6 364/8/6
f 367/8/6 365/8/6 366/8/6
f 368/8/6 365/8/6 367/8/6
f 369/7/6 367/7/6 366/7/6
f 370/4/6 368/4/6 367/4/6
f 370/7/6 367/7/6 369/7/6
f 371/4/6 368/4/6 370/4/6
f 372/5/6 370/5/6 369/5/6
f 372/5/6 371/5/6 370/5/6
f 373/4/6 368/4/6 371/4/6
f 373/5/6 371/5/6 372/5/6
f 374/5/6 372/5/6 369/5/6
f 374/4/6 373/4/6 372/4/6
f 375/4/6 368/4/6 373/4/6
f 375/4/6 373/4/6 374/4/6
f 376/5/6 374/5/6 369/5/6
f 377/8/6 375/8/6 374/8/6
f 377/5/6 374/5/6 376/5/6
f 378/8/6 375/8/6 377/8/6
f 379/7/6 377/7/6 376/7/6
f 379/7/6 378/7/6 377/7/6
f 380/7/6 378/7/6 379/7/6
f 381/7/6 379/7/6 376/7/6
f 382/4/6 380/4/6 379/4/6
f 382/7/6 379/7/6 381/7/6
f 383/7/6 378/7/6 380/7/6
f 383/4/6 380/4/6 382/4/6
f 384/7/6 378/7/6 383/7/6
f 385/8/6 382/8/6 381/8/6
f 385/8/6 383/8/6 382/8/6
f 385/8/6 384/8/6 383/8/6
f 386/8/6 384/8/6 385/8/6
f 387/8/6 384/8/6 386/8/6
f 388/7/6 386/7/6 385/7/6
f 388/5/6 387/5/6 386/5/6
f 389/5/6 387/5/6 388/5/6
f 390/7/6 388/7/6 385/7/6
f 390/7/6 389/7/6 388/7/6
f 391/7/6 389/7/6 390/7/6
f 392/7/6 389/7/6 391/7/6
f 393/8/6 391/8/6 390/8/6
f 394/5/6 392/5/6 391/5/6
f 394/8/6 391/8/6 393/8/6
f 395/5/6 392/5/6 394/5/6
f 396/7/6 394/7/6 393/7/6
f 396/7/6 395/7/6 394/7/6
f 407/7/6 398/7/6 397/7/6
f 407/4/6 399/4/6 398/4/6
f 408/4/6 399/4/6 407/4/6
f 409/7/6 403/7/6 402/7/6
f 410/4/6 404/4/6 403/4/6
f 410/7/6 403/7/6 409/7/6
f 411/7/6 406/7/6 405/7/6
f 412/7/6 406/7/6 411/7/6
f 413/7/6 396/7/6 393/7/6
f 414/7/6 396/7/6 413/7/6
f 415/5/6 397/5/6 396/5/6
f 415/7/6 396/7/6 414/7/6
f 416/4/6 399/4/6 408/4/6
f 416/7/6 408/7/6 407/7/6
f 417/5/6 400/5/6 399/5/6
f 417/4/6 399/4/6 416/4/6
f 418/7/6 401/7/6 400/7/6
f 419/5/6 402/5/6 401/5/6
f 419/7/6 401/7/6 418/7/6
f 420/7/6 409/7/6 402/7/6
f 420/4/6 410/4/6 409/4/6
f 421/4/6 404/4/6 410/4/6
f 421/4/6 410/4/6 420/4/6
f 421/5/6 405/5/6 404/5/6
f 422/7/6 411/7/6 405/7/6
f 423/4/6 412/4/6 411/4/6
f 423/7/6 411/7/6 422/7/6
f 424/5/6 414/5/6 413/5/6
f 425/8/6 415/8/6 414/8/6
f 425/5/6 414/5/6 424/5/6
f 426/5/6 397/5/6 415/5/6
f 426/8/6 415/8/6 425/8/6
f 427/7/6 417/7/6 416/7/6
f 427/5/6 397/5/6 426/5/6
f 427/7/6 416/7/6 407/7/6
f 427/7/6 407/7/6 397/7/6
f 428/5/6 400/5/6 417/5/6
f 428/7/6 417/7/6 427/7/6
f 429/7/6 418/7/6 400/7/6
f 429/5/6 400/5/6 428/5/6
f 430/4/6 419/4/6 418/4/6
f 430/7/6 418/7/6 429/7/6
f 431/5/6 402/5/6 419/5/6
f 431/4/6 419/4/6 430/4/6
f 432/7/6 420/7/6 402/7/6
f 432/5/6 402/5/6 431/5/6
f 432/7/6 421/7/6 420/7/6
f 433/5/6 405/5/6 421/5/6
f 433/7/6 421/7/6 432/7/6
f 434/7/6 422/7/6 405/7/6
f 434/5/6 405/5/6 433/5/6
f 435/4/6 423/4/6 422/4/6
f 435/7/6 422/7/6 434/7/6
f 436/4/6 412/4/6 423/4/6
f 436/4/6 423/4/6 435/4/6
