# MagicaVoxel @ Ephtracy

# group
o 

# material
mtllib Skeleton1-5.mtl
usemtl palette

# normals
vn -1 0 0
vn 1 0 0
vn 0 0 1
vn 0 0 -1
vn 0 -1 0
vn 0 1 0

# texcoords
vt 0.916016 0.5
vt 0.919922 0.5

# verts
v 0.7 0 2.23517e-08
v 0.7 0 -0.2
v 0.7 0.1 2.23517e-08
v 0.7 0.1 -0.1
v 0.7 1.2 2.23517e-08
v 0.7 1.2 -0.1
v 0.7 1.3 2.23517e-08
v 0.7 1.3 -0.2
v 0.9 0 2.23517e-08
v 0.9 0 -0.2
v 0.9 0.1 2.23517e-08
v 0.9 0.1 -0.1
v 0.9 1.2 2.23517e-08
v 0.9 1.2 -0.1
v 0.9 1.3 2.23517e-08
v 0.9 1.3 -0.2
v 0.7 0 2.23517e-08
v 0.7 0.1 2.23517e-08
v 0.7 1.2 2.23517e-08
v 0.7 1.3 2.23517e-08
v 0.9 0 2.23517e-08
v 0.9 0.1 2.23517e-08
v 0.9 1.2 2.23517e-08
v 0.9 1.3 2.23517e-08
v 0.7 0 -0.2
v 0.7 1.3 -0.2
v 0.9 0 -0.2
v 0.9 1.3 -0.2
v 0.7 0 2.23517e-08
v 0.9 0 2.23517e-08
v 0.7 0 -0.2
v 0.9 0 -0.2
v 0.7 1.3 2.23517e-08
v 0.9 1.3 2.23517e-08
v 0.7 1.3 -0.2
v 0.9 1.3 -0.2

# faces
f 3/2/1 2/2/1 1/2/1
f 4/2/1 2/2/1 3/2/1
f 5/1/1 4/1/1 3/1/1
f 6/2/1 2/2/1 4/2/1
f 6/1/1 4/1/1 5/1/1
f 7/2/1 6/2/1 5/2/1
f 8/2/1 2/2/1 6/2/1
f 8/2/1 6/2/1 7/2/1
f 9/2/2 10/2/2 11/2/2
f 11/2/2 10/2/2 12/2/2
f 11/1/2 12/1/2 13/1/2
f 12/2/2 10/2/2 14/2/2
f 13/1/2 12/1/2 14/1/2
f 13/2/2 14/2/2 15/2/2
f 14/2/2 10/2/2 16/2/2
f 15/2/2 14/2/2 16/2/2
f 21/2/3 18/2/3 17/2/3
f 22/1/3 19/1/3 18/1/3
f 22/2/3 18/2/3 21/2/3
f 23/2/3 20/2/3 19/2/3
f 23/1/3 19/1/3 22/1/3
f 24/2/3 20/2/3 23/2/3
f 25/2/4 26/2/4 27/2/4
f 27/2/4 26/2/4 28/2/4
f 31/2/5 30/2/5 29/2/5
f 32/2/5 30/2/5 31/2/5
f 33/2/6 34/2/6 35/2/6
f 35/2/6 34/2/6 36/2/6
